%FSLAX44Y44*%
%MOMM*%
G71*
G01*
G75*
G04 Layer_Physical_Order=2*
G04 Layer_Color=16711680*
%ADD10R,0.9000X0.8000*%
%ADD11R,0.8000X1.1000*%
%ADD12R,0.8000X0.9000*%
%ADD13R,1.1000X0.8000*%
%ADD14R,2.0000X1.4000*%
%ADD15R,1.0500X0.2500*%
%ADD16R,0.2500X1.0500*%
%ADD17R,2.5000X2.5000*%
%ADD18C,1.5000*%
%ADD19C,0.7500*%
%ADD20C,0.2000*%
%ADD21C,0.5000*%
%ADD22C,0.3000*%
%ADD23C,2.5000*%
%ADD24C,1.5000*%
%ADD25R,1.5000X1.5000*%
%ADD26C,0.8000*%
G36*
X1314392Y1209775D02*
X1313244Y1209232D01*
X1312769Y1209621D01*
X1309729Y1211246D01*
X1306431Y1212247D01*
X1305500Y1212338D01*
Y1194997D01*
Y1177662D01*
X1306431Y1177753D01*
X1309729Y1178754D01*
X1312769Y1180379D01*
X1313244Y1180768D01*
X1314392Y1180225D01*
Y1159775D01*
X1313244Y1159232D01*
X1312769Y1159621D01*
X1309729Y1161246D01*
X1306431Y1162247D01*
X1305500Y1162338D01*
Y1144997D01*
Y1127662D01*
X1306431Y1127753D01*
X1309729Y1128754D01*
X1312769Y1130379D01*
X1313244Y1130768D01*
X1314392Y1130225D01*
Y1005608D01*
X1005608D01*
Y1444392D01*
X1314392D01*
Y1209775D01*
D02*
G37*
%LPC*%
G36*
X1250500Y1192500D02*
X1235662D01*
X1235753Y1191569D01*
X1236754Y1188271D01*
X1238379Y1185230D01*
X1240566Y1182566D01*
X1243231Y1180379D01*
X1246271Y1178754D01*
X1249569Y1177753D01*
X1250500Y1177662D01*
Y1192500D01*
D02*
G37*
G36*
X1105706Y1166500D02*
X1099500D01*
Y1160294D01*
X1101539Y1161139D01*
X1103419Y1162581D01*
X1104862Y1164461D01*
X1105706Y1166500D01*
D02*
G37*
G36*
X1082500Y1189706D02*
X1080461Y1188861D01*
X1078581Y1187419D01*
X1077139Y1185539D01*
X1076294Y1183500D01*
X1082500D01*
Y1189706D01*
D02*
G37*
G36*
X1099500D02*
Y1183500D01*
X1105706D01*
X1104862Y1185539D01*
X1103419Y1187419D01*
X1101539Y1188861D01*
X1099500Y1189706D01*
D02*
G37*
G36*
X1300500Y1192500D02*
X1285662D01*
X1285753Y1191569D01*
X1286754Y1188271D01*
X1288047Y1185851D01*
X1287149Y1184953D01*
X1284729Y1186246D01*
X1281431Y1187247D01*
X1278000Y1187585D01*
X1274569Y1187247D01*
X1271271Y1186246D01*
X1268851Y1184953D01*
X1267953Y1185851D01*
X1269246Y1188271D01*
X1270247Y1191569D01*
X1270339Y1192500D01*
X1255500D01*
Y1177662D01*
X1256431Y1177753D01*
X1259729Y1178754D01*
X1262149Y1180047D01*
X1263047Y1179149D01*
X1261754Y1176729D01*
X1260753Y1173431D01*
X1260415Y1170000D01*
X1260753Y1166569D01*
X1261754Y1163271D01*
X1263047Y1160851D01*
X1262149Y1159953D01*
X1259729Y1161246D01*
X1256431Y1162247D01*
X1255500Y1162338D01*
Y1147500D01*
X1270339D01*
X1270247Y1148431D01*
X1269246Y1151729D01*
X1267953Y1154149D01*
X1268851Y1155047D01*
X1271271Y1153754D01*
X1274569Y1152753D01*
X1278000Y1152415D01*
X1281431Y1152753D01*
X1284729Y1153754D01*
X1287149Y1155047D01*
X1288047Y1154149D01*
X1286754Y1151729D01*
X1285753Y1148431D01*
X1285662Y1147500D01*
X1300500D01*
Y1162338D01*
X1299569Y1162247D01*
X1296271Y1161246D01*
X1293851Y1159953D01*
X1292953Y1160851D01*
X1294246Y1163271D01*
X1295247Y1166569D01*
X1295585Y1170000D01*
X1295247Y1173431D01*
X1294246Y1176729D01*
X1292953Y1179149D01*
X1293851Y1180047D01*
X1296271Y1178754D01*
X1299569Y1177753D01*
X1300500Y1177662D01*
Y1192500D01*
D02*
G37*
G36*
X1087500Y1189706D02*
Y1180997D01*
X1085003D01*
Y1178500D01*
X1076294D01*
X1077139Y1176461D01*
X1078260Y1175000D01*
X1077139Y1173539D01*
X1076294Y1171500D01*
X1085003D01*
Y1169003D01*
X1087500D01*
Y1160294D01*
X1089539Y1161139D01*
X1091000Y1162260D01*
X1092461Y1161139D01*
X1094500Y1160294D01*
Y1169003D01*
X1096998D01*
Y1171500D01*
X1105706D01*
X1104862Y1173539D01*
X1103740Y1175000D01*
X1104862Y1176461D01*
X1105706Y1178500D01*
X1096998D01*
Y1180997D01*
X1094500D01*
Y1189706D01*
X1092461Y1188861D01*
X1091000Y1187740D01*
X1089539Y1188861D01*
X1087500Y1189706D01*
D02*
G37*
G36*
X1186500Y1144706D02*
X1184461Y1143861D01*
X1182581Y1142419D01*
X1181139Y1140539D01*
X1180294Y1138500D01*
X1186500D01*
Y1144706D01*
D02*
G37*
G36*
X1300500Y1142500D02*
X1285662D01*
X1285753Y1141569D01*
X1286754Y1138271D01*
X1288379Y1135230D01*
X1290566Y1132566D01*
X1293230Y1130379D01*
X1296271Y1128754D01*
X1299569Y1127753D01*
X1300500Y1127662D01*
Y1142500D01*
D02*
G37*
G36*
X1191500Y1144706D02*
Y1138500D01*
X1197706D01*
X1196861Y1140539D01*
X1195419Y1142419D01*
X1193539Y1143861D01*
X1191500Y1144706D01*
D02*
G37*
G36*
X1082500Y1166500D02*
X1076294D01*
X1077139Y1164461D01*
X1078581Y1162581D01*
X1080461Y1161139D01*
X1082500Y1160294D01*
Y1166500D01*
D02*
G37*
G36*
X1250500Y1162338D02*
X1249569Y1162247D01*
X1246271Y1161246D01*
X1243231Y1159621D01*
X1240566Y1157434D01*
X1238379Y1154770D01*
X1236754Y1151729D01*
X1235753Y1148431D01*
X1235662Y1147500D01*
X1250500D01*
Y1162338D01*
D02*
G37*
G36*
X1107498Y1199498D02*
X1101292D01*
X1102136Y1197459D01*
X1103579Y1195579D01*
X1105459Y1194136D01*
X1107498Y1193292D01*
Y1199498D01*
D02*
G37*
G36*
Y1210704D02*
X1105459Y1209859D01*
X1103579Y1208417D01*
X1102136Y1206536D01*
X1101292Y1204498D01*
X1107498D01*
Y1210704D01*
D02*
G37*
G36*
X1211706Y1207500D02*
X1205500D01*
Y1201294D01*
X1207539Y1202139D01*
X1209419Y1203581D01*
X1210862Y1205461D01*
X1211706Y1207500D01*
D02*
G37*
G36*
X1112498Y1210704D02*
Y1204498D01*
X1118704D01*
X1117859Y1206536D01*
X1116417Y1208417D01*
X1114537Y1209859D01*
X1112498Y1210704D01*
D02*
G37*
G36*
X1205500Y1218706D02*
Y1212500D01*
X1211706D01*
X1210862Y1214539D01*
X1209419Y1216419D01*
X1207539Y1217861D01*
X1205500Y1218706D01*
D02*
G37*
G36*
X1200500D02*
X1198461Y1217861D01*
X1196581Y1216419D01*
X1195139Y1214539D01*
X1194294Y1212500D01*
X1200500D01*
Y1218706D01*
D02*
G37*
G36*
Y1207500D02*
X1194294D01*
X1195139Y1205461D01*
X1196581Y1203581D01*
X1198461Y1202139D01*
X1200500Y1201294D01*
Y1207500D01*
D02*
G37*
G36*
X1066314Y1219118D02*
X1035787D01*
X1033446Y1218652D01*
X1031461Y1217326D01*
X1011674Y1197539D01*
X1010348Y1195554D01*
X1009883Y1193213D01*
Y1159000D01*
X1010348Y1156659D01*
X1011674Y1154674D01*
X1073883Y1092466D01*
Y1061988D01*
X1072827Y1061282D01*
X1070663Y1062178D01*
X1067400Y1062608D01*
X1064137Y1062178D01*
X1061096Y1060919D01*
X1058485Y1058915D01*
X1056481Y1056304D01*
X1055746Y1054528D01*
X1054500Y1054776D01*
Y1062500D01*
X1044500D01*
Y1049997D01*
Y1037500D01*
X1054500D01*
Y1045224D01*
X1055746Y1045472D01*
X1056481Y1043696D01*
X1058485Y1041085D01*
X1061096Y1039081D01*
X1064137Y1037822D01*
X1067400Y1037392D01*
X1070663Y1037822D01*
X1073704Y1039081D01*
X1075720Y1040628D01*
X1082674Y1033674D01*
X1084659Y1032348D01*
X1087000Y1031882D01*
X1131600D01*
X1133941Y1032348D01*
X1135926Y1033674D01*
X1135926Y1033674D01*
X1135926Y1033674D01*
X1140151Y1037899D01*
X1140337Y1037822D01*
X1143600Y1037392D01*
X1146863Y1037822D01*
X1149904Y1039081D01*
X1152515Y1041085D01*
X1154519Y1043696D01*
X1155665Y1046463D01*
X1155778D01*
Y1046463D01*
D01*
D01*
X1155778D01*
X1156822D01*
Y1046463D01*
X1156935D01*
X1158081Y1043696D01*
X1160085Y1041085D01*
X1162696Y1039081D01*
X1165737Y1037822D01*
X1169000Y1037392D01*
X1172263Y1037822D01*
X1175304Y1039081D01*
X1177915Y1041085D01*
X1179919Y1043696D01*
X1181065Y1046463D01*
X1181178D01*
Y1046463D01*
D01*
D01*
X1181178D01*
X1182222D01*
Y1046463D01*
X1182335D01*
X1183481Y1043696D01*
X1185485Y1041085D01*
X1188096Y1039081D01*
X1191137Y1037822D01*
X1194400Y1037392D01*
X1197663Y1037822D01*
X1200704Y1039081D01*
X1203315Y1041085D01*
X1205319Y1043696D01*
X1206465Y1046463D01*
X1206578D01*
Y1046463D01*
D01*
D01*
X1206578D01*
X1207622D01*
Y1046463D01*
X1207735D01*
X1208881Y1043696D01*
X1210885Y1041085D01*
X1213496Y1039081D01*
X1216537Y1037822D01*
X1217300Y1037721D01*
Y1049997D01*
Y1062279D01*
X1216537Y1062178D01*
X1213496Y1060919D01*
X1210885Y1058915D01*
X1208881Y1056304D01*
X1207735Y1053537D01*
X1207622D01*
Y1053537D01*
D01*
D01*
X1207622D01*
X1206933D01*
X1206286Y1053969D01*
X1205319Y1056304D01*
X1203315Y1058915D01*
X1200704Y1060919D01*
X1197663Y1062178D01*
X1194400Y1062608D01*
X1191137Y1062178D01*
X1190950Y1062101D01*
X1167726Y1085326D01*
X1165741Y1086652D01*
X1163400Y1087117D01*
X1128534D01*
X1090367Y1125284D01*
X1090537Y1126136D01*
X1092417Y1127579D01*
X1093859Y1129459D01*
X1094766Y1131648D01*
X1094870Y1132435D01*
X1118074D01*
X1118461Y1132139D01*
X1120650Y1131232D01*
X1123000Y1130922D01*
X1125350Y1131232D01*
X1127539Y1132139D01*
X1129419Y1133581D01*
X1130861Y1135461D01*
X1131768Y1137651D01*
X1132078Y1140000D01*
X1131768Y1142349D01*
X1130861Y1144539D01*
X1129419Y1146419D01*
X1127539Y1147861D01*
X1125350Y1148768D01*
X1123000Y1149078D01*
X1120650Y1148768D01*
X1118461Y1147861D01*
X1118074Y1147565D01*
X1085998D01*
X1084040Y1147307D01*
X1083578Y1147116D01*
X1056945Y1173748D01*
X1057193Y1174994D01*
X1057537Y1175136D01*
X1059417Y1176579D01*
X1060859Y1178459D01*
X1061766Y1180648D01*
X1062076Y1182998D01*
X1061766Y1185347D01*
X1060859Y1187536D01*
X1060563Y1187923D01*
X1061417Y1188579D01*
X1062859Y1190459D01*
X1063766Y1192648D01*
X1064075Y1194998D01*
X1063938Y1196046D01*
X1065350Y1196232D01*
X1067539Y1197139D01*
X1069196Y1198410D01*
X1070456Y1198245D01*
X1070581Y1198081D01*
X1072461Y1196639D01*
X1074650Y1195732D01*
X1077000Y1195422D01*
X1079350Y1195732D01*
X1081539Y1196639D01*
X1083419Y1198081D01*
X1084862Y1199961D01*
X1085768Y1202150D01*
X1086078Y1204500D01*
X1085768Y1206850D01*
X1084862Y1209039D01*
X1083419Y1210919D01*
X1081539Y1212362D01*
X1079350Y1213268D01*
X1077000Y1213578D01*
X1074691Y1213274D01*
X1070639Y1217326D01*
X1068655Y1218652D01*
X1066314Y1219118D01*
D02*
G37*
G36*
X1118704Y1199498D02*
X1112498D01*
Y1193292D01*
X1114537Y1194136D01*
X1116417Y1195579D01*
X1117859Y1197459D01*
X1118704Y1199498D01*
D02*
G37*
G36*
X1250500Y1212338D02*
X1249569Y1212247D01*
X1246271Y1211246D01*
X1243231Y1209621D01*
X1240566Y1207434D01*
X1238379Y1204770D01*
X1236754Y1201729D01*
X1235753Y1198431D01*
X1235662Y1197500D01*
X1250500D01*
Y1212338D01*
D02*
G37*
G36*
X1300500D02*
X1299569Y1212247D01*
X1296271Y1211246D01*
X1293230Y1209621D01*
X1290566Y1207434D01*
X1288379Y1204770D01*
X1286754Y1201729D01*
X1285753Y1198431D01*
X1285662Y1197500D01*
X1300500D01*
Y1212338D01*
D02*
G37*
G36*
X1255500D02*
Y1197500D01*
X1270339D01*
X1270247Y1198431D01*
X1269246Y1201729D01*
X1267621Y1204770D01*
X1265434Y1207434D01*
X1262769Y1209621D01*
X1259729Y1211246D01*
X1256431Y1212247D01*
X1255500Y1212338D01*
D02*
G37*
G36*
X1270339Y1142500D02*
X1255500D01*
Y1127662D01*
X1256431Y1127753D01*
X1259729Y1128754D01*
X1262769Y1130379D01*
X1265434Y1132566D01*
X1267621Y1135230D01*
X1269246Y1138271D01*
X1270247Y1141569D01*
X1270339Y1142500D01*
D02*
G37*
G36*
X1039500Y1047500D02*
X1029500D01*
Y1037500D01*
X1039500D01*
Y1047500D01*
D02*
G37*
G36*
X1289500Y1043706D02*
Y1037500D01*
X1295706D01*
X1294861Y1039539D01*
X1293419Y1041419D01*
X1291539Y1042861D01*
X1289500Y1043706D01*
D02*
G37*
G36*
X1284500D02*
X1282461Y1042861D01*
X1280581Y1041419D01*
X1279138Y1039539D01*
X1278294Y1037500D01*
X1284500D01*
Y1043706D01*
D02*
G37*
G36*
X1222300Y1062279D02*
Y1052500D01*
X1232079D01*
X1231978Y1053263D01*
X1230719Y1056304D01*
X1228715Y1058915D01*
X1226104Y1060919D01*
X1223063Y1062178D01*
X1222300Y1062279D01*
D02*
G37*
G36*
X1039500Y1062500D02*
X1029500D01*
Y1052500D01*
X1039500D01*
Y1062500D01*
D02*
G37*
G36*
X1232079Y1047500D02*
X1222300D01*
Y1037721D01*
X1223063Y1037822D01*
X1226104Y1039081D01*
X1228715Y1041085D01*
X1230719Y1043696D01*
X1231978Y1046737D01*
X1232079Y1047500D01*
D02*
G37*
G36*
X1022500Y1027706D02*
X1020461Y1026861D01*
X1018581Y1025419D01*
X1017139Y1023539D01*
X1016294Y1021500D01*
X1022500D01*
Y1027706D01*
D02*
G37*
G36*
X1033706Y1016500D02*
X1027500D01*
Y1010294D01*
X1029539Y1011139D01*
X1031419Y1012581D01*
X1032861Y1014461D01*
X1033706Y1016500D01*
D02*
G37*
G36*
X1022500D02*
X1016294D01*
X1017139Y1014461D01*
X1018581Y1012581D01*
X1020461Y1011139D01*
X1022500Y1010294D01*
Y1016500D01*
D02*
G37*
G36*
X1295706Y1032500D02*
X1289500D01*
Y1026294D01*
X1291539Y1027139D01*
X1293419Y1028581D01*
X1294861Y1030461D01*
X1295706Y1032500D01*
D02*
G37*
G36*
X1284500D02*
X1278294D01*
X1279138Y1030461D01*
X1280581Y1028581D01*
X1282461Y1027139D01*
X1284500Y1026294D01*
Y1032500D01*
D02*
G37*
G36*
X1027500Y1027706D02*
Y1021500D01*
X1033706D01*
X1032861Y1023539D01*
X1031419Y1025419D01*
X1029539Y1026861D01*
X1027500Y1027706D01*
D02*
G37*
G36*
X1031500Y1106706D02*
Y1100500D01*
X1037706D01*
X1036861Y1102539D01*
X1035419Y1104419D01*
X1033539Y1105861D01*
X1031500Y1106706D01*
D02*
G37*
G36*
X1026500D02*
X1024461Y1105861D01*
X1022581Y1104419D01*
X1021139Y1102539D01*
X1020294Y1100500D01*
X1026500D01*
Y1106706D01*
D02*
G37*
G36*
X1037706Y1095500D02*
X1031500D01*
Y1089294D01*
X1033539Y1090138D01*
X1035419Y1091581D01*
X1036861Y1093461D01*
X1037706Y1095500D01*
D02*
G37*
G36*
X1250500Y1142500D02*
X1235662D01*
X1235753Y1141569D01*
X1236754Y1138271D01*
X1238379Y1135230D01*
X1240566Y1132566D01*
X1243231Y1130379D01*
X1246271Y1128754D01*
X1249569Y1127753D01*
X1250500Y1127662D01*
Y1142500D01*
D02*
G37*
G36*
X1197706Y1133500D02*
X1191500D01*
Y1127294D01*
X1193539Y1128139D01*
X1195419Y1129581D01*
X1196861Y1131461D01*
X1197706Y1133500D01*
D02*
G37*
G36*
X1186500D02*
X1180294D01*
X1181139Y1131461D01*
X1182581Y1129581D01*
X1184461Y1128139D01*
X1186500Y1127294D01*
Y1133500D01*
D02*
G37*
G36*
X1269800Y1121352D02*
X1265683Y1120946D01*
X1261725Y1119745D01*
X1258077Y1117795D01*
X1254879Y1115171D01*
X1252255Y1111973D01*
X1250305Y1108325D01*
X1249104Y1104367D01*
X1248698Y1100250D01*
X1249104Y1096133D01*
X1250305Y1092175D01*
X1252255Y1088527D01*
X1254879Y1085329D01*
X1258077Y1082705D01*
X1261725Y1080755D01*
X1265683Y1079554D01*
X1269800Y1079148D01*
X1273917Y1079554D01*
X1277875Y1080755D01*
X1281523Y1082705D01*
X1284721Y1085329D01*
X1287345Y1088527D01*
X1289295Y1092175D01*
X1290496Y1096133D01*
X1290902Y1100250D01*
X1290496Y1104367D01*
X1289295Y1108325D01*
X1287345Y1111973D01*
X1284721Y1115171D01*
X1281523Y1117795D01*
X1277875Y1119745D01*
X1273917Y1120946D01*
X1269800Y1121352D01*
D02*
G37*
G36*
X1213706Y1082500D02*
X1207500D01*
Y1076294D01*
X1209539Y1077139D01*
X1211419Y1078581D01*
X1212861Y1080461D01*
X1213706Y1082500D01*
D02*
G37*
G36*
X1202500D02*
X1196294D01*
X1197139Y1080461D01*
X1198581Y1078581D01*
X1200461Y1077139D01*
X1202500Y1076294D01*
Y1082500D01*
D02*
G37*
G36*
X1026500Y1095500D02*
X1020294D01*
X1021139Y1093461D01*
X1022581Y1091581D01*
X1024461Y1090138D01*
X1026500Y1089294D01*
Y1095500D01*
D02*
G37*
G36*
X1207500Y1093706D02*
Y1087500D01*
X1213706D01*
X1212861Y1089539D01*
X1211419Y1091419D01*
X1209539Y1092861D01*
X1207500Y1093706D01*
D02*
G37*
G36*
X1202500D02*
X1200461Y1092861D01*
X1198581Y1091419D01*
X1197139Y1089539D01*
X1196294Y1087500D01*
X1202500D01*
Y1093706D01*
D02*
G37*
G36*
X1091500Y1235500D02*
X1085294D01*
X1086139Y1233461D01*
X1087581Y1231581D01*
X1089461Y1230138D01*
X1091500Y1229294D01*
Y1235500D01*
D02*
G37*
G36*
X1096500Y1376706D02*
Y1370500D01*
X1102706D01*
X1101861Y1372539D01*
X1100419Y1374419D01*
X1098539Y1375862D01*
X1096500Y1376706D01*
D02*
G37*
G36*
X1091500D02*
X1089461Y1375862D01*
X1087581Y1374419D01*
X1086139Y1372539D01*
X1085294Y1370500D01*
X1091500D01*
Y1376706D01*
D02*
G37*
G36*
X1212706Y1368500D02*
X1206500D01*
Y1362294D01*
X1208539Y1363138D01*
X1210419Y1364581D01*
X1211861Y1366461D01*
X1212706Y1368500D01*
D02*
G37*
G36*
X1039700Y1397500D02*
X1029921D01*
X1030022Y1396737D01*
X1031281Y1393696D01*
X1033285Y1391085D01*
X1035896Y1389081D01*
X1038937Y1387822D01*
X1039700Y1387721D01*
Y1397500D01*
D02*
G37*
G36*
X1206500Y1379706D02*
Y1373500D01*
X1212706D01*
X1211861Y1375539D01*
X1210419Y1377419D01*
X1208539Y1378862D01*
X1206500Y1379706D01*
D02*
G37*
G36*
X1201500D02*
X1199461Y1378862D01*
X1197581Y1377419D01*
X1196139Y1375539D01*
X1195294Y1373500D01*
X1201500D01*
Y1379706D01*
D02*
G37*
G36*
X1283500Y1341706D02*
Y1335500D01*
X1289706D01*
X1288862Y1337539D01*
X1287419Y1339419D01*
X1285539Y1340862D01*
X1283500Y1341706D01*
D02*
G37*
G36*
X1278500D02*
X1276461Y1340862D01*
X1274581Y1339419D01*
X1273139Y1337539D01*
X1272294Y1335500D01*
X1278500D01*
Y1341706D01*
D02*
G37*
G36*
X1042200Y1371102D02*
X1038083Y1370696D01*
X1034125Y1369495D01*
X1030477Y1367545D01*
X1027279Y1364921D01*
X1024655Y1361723D01*
X1022705Y1358075D01*
X1021504Y1354117D01*
X1021098Y1350000D01*
X1021504Y1345883D01*
X1022705Y1341925D01*
X1024655Y1338277D01*
X1027279Y1335079D01*
X1030477Y1332455D01*
X1034125Y1330505D01*
X1038083Y1329304D01*
X1042200Y1328898D01*
X1046317Y1329304D01*
X1050275Y1330505D01*
X1053923Y1332455D01*
X1057121Y1335079D01*
X1059745Y1338277D01*
X1061695Y1341925D01*
X1062896Y1345883D01*
X1063302Y1350000D01*
X1062896Y1354117D01*
X1061695Y1358075D01*
X1059745Y1361723D01*
X1057121Y1364921D01*
X1053923Y1367545D01*
X1050275Y1369495D01*
X1046317Y1370696D01*
X1042200Y1371102D01*
D02*
G37*
G36*
X1201500Y1368500D02*
X1195294D01*
X1196139Y1366461D01*
X1197581Y1364581D01*
X1199461Y1363138D01*
X1201500Y1362294D01*
Y1368500D01*
D02*
G37*
G36*
X1102706Y1365500D02*
X1096500D01*
Y1359294D01*
X1098539Y1360139D01*
X1100419Y1361581D01*
X1101861Y1363461D01*
X1102706Y1365500D01*
D02*
G37*
G36*
X1091500D02*
X1085294D01*
X1086139Y1363461D01*
X1087581Y1361581D01*
X1089461Y1360139D01*
X1091500Y1359294D01*
Y1365500D01*
D02*
G37*
G36*
X1021500Y1425500D02*
X1015294D01*
X1016139Y1423461D01*
X1017581Y1421581D01*
X1019461Y1420139D01*
X1021500Y1419294D01*
Y1425500D01*
D02*
G37*
G36*
X1283500Y1419706D02*
Y1413500D01*
X1289706D01*
X1288862Y1415539D01*
X1287419Y1417419D01*
X1285539Y1418861D01*
X1283500Y1419706D01*
D02*
G37*
G36*
X1278500D02*
X1276461Y1418861D01*
X1274581Y1417419D01*
X1273139Y1415539D01*
X1272294Y1413500D01*
X1278500D01*
Y1419706D01*
D02*
G37*
G36*
X1026500Y1436706D02*
Y1430500D01*
X1032706D01*
X1031861Y1432539D01*
X1030419Y1434419D01*
X1028539Y1435861D01*
X1026500Y1436706D01*
D02*
G37*
G36*
X1021500D02*
X1019461Y1435861D01*
X1017581Y1434419D01*
X1016139Y1432539D01*
X1015294Y1430500D01*
X1021500D01*
Y1436706D01*
D02*
G37*
G36*
X1032706Y1425500D02*
X1026500D01*
Y1419294D01*
X1028539Y1420139D01*
X1030419Y1421581D01*
X1031861Y1423461D01*
X1032706Y1425500D01*
D02*
G37*
G36*
X1039700Y1412279D02*
X1038937Y1412178D01*
X1035896Y1410919D01*
X1033285Y1408915D01*
X1031281Y1406304D01*
X1030022Y1403263D01*
X1029921Y1402500D01*
X1039700D01*
Y1412279D01*
D02*
G37*
G36*
X1289706Y1408500D02*
X1283500D01*
Y1402294D01*
X1285539Y1403138D01*
X1287419Y1404581D01*
X1288862Y1406461D01*
X1289706Y1408500D01*
D02*
G37*
G36*
X1278500D02*
X1272294D01*
X1273139Y1406461D01*
X1274581Y1404581D01*
X1276461Y1403138D01*
X1278500Y1402294D01*
Y1408500D01*
D02*
G37*
G36*
X1194600Y1412608D02*
X1191337Y1412178D01*
X1188296Y1410919D01*
X1185685Y1408915D01*
X1183681Y1406304D01*
X1182535Y1403537D01*
X1182422D01*
Y1403537D01*
D01*
D01*
X1182422D01*
X1181733D01*
X1181086Y1403969D01*
X1180119Y1406304D01*
X1178115Y1408915D01*
X1175504Y1410919D01*
X1172463Y1412178D01*
X1169200Y1412608D01*
X1165937Y1412178D01*
X1162896Y1410919D01*
X1160285Y1408915D01*
X1158281Y1406304D01*
X1157135Y1403537D01*
X1157022D01*
Y1403537D01*
D01*
D01*
X1157022D01*
X1156333D01*
X1155686Y1403969D01*
X1154719Y1406304D01*
X1152715Y1408915D01*
X1150104Y1410919D01*
X1147063Y1412178D01*
X1143800Y1412608D01*
X1140537Y1412178D01*
X1137496Y1410919D01*
X1134885Y1408915D01*
X1132881Y1406304D01*
X1131735Y1403537D01*
X1131622D01*
Y1403537D01*
D01*
D01*
X1131622D01*
X1130933D01*
X1130286Y1403969D01*
X1129319Y1406304D01*
X1127315Y1408915D01*
X1124704Y1410919D01*
X1121663Y1412178D01*
X1118400Y1412608D01*
X1115137Y1412178D01*
X1112096Y1410919D01*
X1109485Y1408915D01*
X1107481Y1406304D01*
X1106335Y1403537D01*
X1106222D01*
Y1403537D01*
D01*
D01*
X1106222D01*
X1105533D01*
X1104886Y1403969D01*
X1103919Y1406304D01*
X1101915Y1408915D01*
X1099304Y1410919D01*
X1096263Y1412178D01*
X1095500Y1412279D01*
Y1399998D01*
Y1387721D01*
X1096263Y1387822D01*
X1099304Y1389081D01*
X1101915Y1391085D01*
X1103919Y1393696D01*
X1105065Y1396463D01*
X1105178D01*
Y1396463D01*
D01*
D01*
X1105178D01*
X1106222D01*
Y1396463D01*
X1106335D01*
X1107481Y1393696D01*
X1109485Y1391085D01*
X1112096Y1389081D01*
X1115137Y1387822D01*
X1118400Y1387392D01*
X1121663Y1387822D01*
X1124704Y1389081D01*
X1127315Y1391085D01*
X1129319Y1393696D01*
X1130465Y1396463D01*
X1130578D01*
Y1396463D01*
D01*
D01*
X1130578D01*
X1131622D01*
Y1396463D01*
X1131735D01*
X1132881Y1393696D01*
X1134885Y1391085D01*
X1137496Y1389081D01*
X1140537Y1387822D01*
X1143800Y1387392D01*
X1147063Y1387822D01*
X1150104Y1389081D01*
X1152715Y1391085D01*
X1154719Y1393696D01*
X1155865Y1396463D01*
X1155978D01*
Y1396463D01*
D01*
D01*
X1155978D01*
X1157022D01*
Y1396463D01*
X1157135D01*
X1158281Y1393696D01*
X1160285Y1391085D01*
X1162896Y1389081D01*
X1165937Y1387822D01*
X1169200Y1387392D01*
X1172463Y1387822D01*
X1175504Y1389081D01*
X1178115Y1391085D01*
X1180119Y1393696D01*
X1181265Y1396463D01*
X1181378D01*
Y1396463D01*
D01*
D01*
X1181378D01*
X1182422D01*
Y1396463D01*
X1182535D01*
X1183681Y1393696D01*
X1185685Y1391085D01*
X1188296Y1389081D01*
X1191337Y1387822D01*
X1194600Y1387392D01*
X1197863Y1387822D01*
X1200904Y1389081D01*
X1203515Y1391085D01*
X1205519Y1393696D01*
X1206254Y1395472D01*
X1207500Y1395224D01*
Y1387500D01*
X1232500D01*
Y1412500D01*
X1207500D01*
Y1404776D01*
X1206254Y1404528D01*
X1205519Y1406304D01*
X1203515Y1408915D01*
X1200904Y1410919D01*
X1197863Y1412178D01*
X1194600Y1412608D01*
D02*
G37*
G36*
X1090500Y1412279D02*
X1089737Y1412178D01*
X1086696Y1410919D01*
X1084085Y1408915D01*
X1082081Y1406304D01*
X1080935Y1403537D01*
X1080822D01*
Y1403537D01*
D01*
D01*
X1080822D01*
X1080133D01*
X1079486Y1403969D01*
X1078519Y1406304D01*
X1076515Y1408915D01*
X1073904Y1410919D01*
X1070863Y1412178D01*
X1070100Y1412279D01*
Y1399998D01*
Y1387721D01*
X1070863Y1387822D01*
X1073904Y1389081D01*
X1076515Y1391085D01*
X1078519Y1393696D01*
X1079665Y1396463D01*
X1079778D01*
Y1396463D01*
D01*
D01*
X1079778D01*
X1080822D01*
Y1396463D01*
X1080935D01*
X1082081Y1393696D01*
X1084085Y1391085D01*
X1086696Y1389081D01*
X1089737Y1387822D01*
X1090500Y1387721D01*
Y1399998D01*
Y1412279D01*
D02*
G37*
G36*
X1065100D02*
X1064337Y1412178D01*
X1061296Y1410919D01*
X1058685Y1408915D01*
X1056681Y1406304D01*
X1055535Y1403537D01*
X1055422D01*
Y1403537D01*
D01*
D01*
X1055422D01*
X1054733D01*
X1054086Y1403969D01*
X1053119Y1406304D01*
X1051115Y1408915D01*
X1048504Y1410919D01*
X1045463Y1412178D01*
X1044700Y1412279D01*
Y1399998D01*
Y1387721D01*
X1045463Y1387822D01*
X1048504Y1389081D01*
X1051115Y1391085D01*
X1053119Y1393696D01*
X1054265Y1396463D01*
X1054378D01*
Y1396463D01*
D01*
D01*
X1054378D01*
X1055422D01*
Y1396463D01*
X1055535D01*
X1056681Y1393696D01*
X1058685Y1391085D01*
X1061296Y1389081D01*
X1064337Y1387822D01*
X1065100Y1387721D01*
Y1399998D01*
Y1412279D01*
D02*
G37*
G36*
X1289706Y1330500D02*
X1283500D01*
Y1324294D01*
X1285539Y1325139D01*
X1287419Y1326581D01*
X1288862Y1328461D01*
X1289706Y1330500D01*
D02*
G37*
G36*
X1288706Y1249500D02*
X1282500D01*
Y1243294D01*
X1284539Y1244139D01*
X1286419Y1245581D01*
X1287861Y1247461D01*
X1288706Y1249500D01*
D02*
G37*
G36*
X1277500D02*
X1271294D01*
X1272139Y1247461D01*
X1273581Y1245581D01*
X1275461Y1244139D01*
X1277500Y1243294D01*
Y1249500D01*
D02*
G37*
G36*
X1127500Y1246706D02*
Y1240500D01*
X1133706D01*
X1132861Y1242539D01*
X1131419Y1244419D01*
X1129539Y1245861D01*
X1127500Y1246706D01*
D02*
G37*
G36*
X1277500Y1260706D02*
X1275461Y1259862D01*
X1273581Y1258419D01*
X1272139Y1256539D01*
X1271294Y1254500D01*
X1277500D01*
Y1260706D01*
D02*
G37*
G36*
X1043706Y1258500D02*
X1037500D01*
Y1252294D01*
X1039539Y1253139D01*
X1041419Y1254581D01*
X1042861Y1256461D01*
X1043706Y1258500D01*
D02*
G37*
G36*
X1032500D02*
X1026294D01*
X1027139Y1256461D01*
X1028581Y1254581D01*
X1030461Y1253139D01*
X1032500Y1252294D01*
Y1258500D01*
D02*
G37*
G36*
X1133706Y1235500D02*
X1127500D01*
Y1229294D01*
X1129539Y1230138D01*
X1131419Y1231581D01*
X1132861Y1233461D01*
X1133706Y1235500D01*
D02*
G37*
G36*
X1122500D02*
X1116294D01*
X1117139Y1233461D01*
X1118581Y1231581D01*
X1120461Y1230138D01*
X1122500Y1229294D01*
Y1235500D01*
D02*
G37*
G36*
X1102706D02*
X1096500D01*
Y1229294D01*
X1098539Y1230138D01*
X1100419Y1231581D01*
X1101861Y1233461D01*
X1102706Y1235500D01*
D02*
G37*
G36*
X1122500Y1246706D02*
X1120461Y1245861D01*
X1118581Y1244419D01*
X1117139Y1242539D01*
X1116294Y1240500D01*
X1122500D01*
Y1246706D01*
D02*
G37*
G36*
X1096500D02*
Y1240500D01*
X1102706D01*
X1101861Y1242539D01*
X1100419Y1244419D01*
X1098539Y1245861D01*
X1096500Y1246706D01*
D02*
G37*
G36*
X1091500D02*
X1089461Y1245861D01*
X1087581Y1244419D01*
X1086139Y1242539D01*
X1085294Y1240500D01*
X1091500D01*
Y1246706D01*
D02*
G37*
G36*
X1097500Y1294706D02*
Y1288500D01*
X1103706D01*
X1102861Y1290539D01*
X1101419Y1292419D01*
X1099539Y1293861D01*
X1097500Y1294706D01*
D02*
G37*
G36*
X1092500D02*
X1090461Y1293861D01*
X1088581Y1292419D01*
X1087139Y1290539D01*
X1086294Y1288500D01*
X1092500D01*
Y1294706D01*
D02*
G37*
G36*
X1235706Y1291500D02*
X1229500D01*
Y1285294D01*
X1231539Y1286139D01*
X1233419Y1287581D01*
X1234862Y1289461D01*
X1235706Y1291500D01*
D02*
G37*
G36*
X1278500Y1330500D02*
X1272294D01*
X1273139Y1328461D01*
X1274581Y1326581D01*
X1276461Y1325139D01*
X1278500Y1324294D01*
Y1330500D01*
D02*
G37*
G36*
X1229500Y1302706D02*
Y1296500D01*
X1235706D01*
X1234862Y1298539D01*
X1233419Y1300419D01*
X1231539Y1301862D01*
X1229500Y1302706D01*
D02*
G37*
G36*
X1224500D02*
X1222461Y1301862D01*
X1220581Y1300419D01*
X1219139Y1298539D01*
X1218294Y1296500D01*
X1224500D01*
Y1302706D01*
D02*
G37*
G36*
X1037500Y1269706D02*
Y1263500D01*
X1043706D01*
X1042861Y1265539D01*
X1041419Y1267419D01*
X1039539Y1268861D01*
X1037500Y1269706D01*
D02*
G37*
G36*
X1032500D02*
X1030461Y1268861D01*
X1028581Y1267419D01*
X1027139Y1265539D01*
X1026294Y1263500D01*
X1032500D01*
Y1269706D01*
D02*
G37*
G36*
X1282500Y1260706D02*
Y1254500D01*
X1288706D01*
X1287861Y1256539D01*
X1286419Y1258419D01*
X1284539Y1259862D01*
X1282500Y1260706D01*
D02*
G37*
G36*
X1224500Y1291500D02*
X1218294D01*
X1219139Y1289461D01*
X1220581Y1287581D01*
X1222461Y1286139D01*
X1224500Y1285294D01*
Y1291500D01*
D02*
G37*
G36*
X1103706Y1283500D02*
X1097500D01*
Y1277294D01*
X1099539Y1278139D01*
X1101419Y1279581D01*
X1102861Y1281461D01*
X1103706Y1283500D01*
D02*
G37*
G36*
X1092500D02*
X1086294D01*
X1087139Y1281461D01*
X1088581Y1279581D01*
X1090461Y1278139D01*
X1092500Y1277294D01*
Y1283500D01*
D02*
G37*
%LPD*%
D20*
X1054998Y1193002D02*
Y1194998D01*
X1045995Y1190000D02*
X1052998Y1182998D01*
X1034000Y1190000D02*
X1045995D01*
X1031000Y1187000D02*
X1034000Y1190000D01*
X1031000Y1176000D02*
Y1187000D01*
Y1176000D02*
X1126000Y1081000D01*
X1163400D01*
X1194400Y1050000D01*
X1054995Y1195000D02*
X1054998Y1194998D01*
X1031929Y1195000D02*
X1054995D01*
X1026000Y1189071D02*
X1031929Y1195000D01*
X1026000Y1173929D02*
Y1189071D01*
Y1173929D02*
X1118200Y1081729D01*
Y1050000D02*
Y1081729D01*
X1021000Y1171858D02*
Y1191142D01*
X1034858Y1205000D02*
X1063000D01*
X1021000Y1191142D02*
X1034858Y1205000D01*
X1021000Y1171858D02*
X1092800Y1100058D01*
Y1050000D02*
Y1100058D01*
X1074814Y1204500D02*
X1077000D01*
X1066314Y1213000D02*
X1074814Y1204500D01*
X1016000Y1159000D02*
Y1193213D01*
X1035787Y1213000D02*
X1066314D01*
X1016000Y1193213D02*
X1035787Y1213000D01*
X1016000Y1159000D02*
X1080000Y1095000D01*
Y1045000D02*
Y1095000D01*
Y1045000D02*
X1087000Y1038000D01*
X1131600D01*
X1143600Y1050000D01*
X1109998Y1201998D02*
X1110000Y1202000D01*
D21*
X1039998Y1179998D02*
X1085998Y1133998D01*
X1039998Y1179998D02*
Y1180998D01*
X1085998Y1133998D02*
Y1140000D01*
X1123000D01*
D23*
X1253000Y1195000D02*
D03*
Y1145000D02*
D03*
X1278000Y1170000D02*
D03*
X1303000Y1195000D02*
D03*
Y1145000D02*
D03*
D24*
X1219800Y1050000D02*
D03*
X1194400D02*
D03*
X1169000D02*
D03*
X1143600D02*
D03*
X1118200D02*
D03*
X1092800D02*
D03*
X1067400D02*
D03*
X1042200Y1400000D02*
D03*
X1067600D02*
D03*
X1093000D02*
D03*
X1118400D02*
D03*
X1143800D02*
D03*
X1169200D02*
D03*
X1194600D02*
D03*
D25*
X1042000Y1050000D02*
D03*
X1220000Y1400000D02*
D03*
D26*
X1085000Y1181000D02*
D03*
X1097000D02*
D03*
X1085000Y1169000D02*
D03*
X1097000D02*
D03*
X1085998Y1133998D02*
D03*
X1094000Y1238000D02*
D03*
X1125000D02*
D03*
X1054998Y1194998D02*
D03*
X1039998Y1180998D02*
D03*
X1052998Y1182998D02*
D03*
X1123000Y1140000D02*
D03*
X1077000Y1204500D02*
D03*
X1063000Y1205000D02*
D03*
X1109998Y1201998D02*
D03*
X1281000Y1411000D02*
D03*
Y1333000D02*
D03*
X1280000Y1252000D02*
D03*
X1203000Y1210000D02*
D03*
X1227000Y1294000D02*
D03*
X1204000Y1371000D02*
D03*
X1094000Y1368000D02*
D03*
X1095000Y1286000D02*
D03*
X1035000Y1261000D02*
D03*
X1029000Y1098000D02*
D03*
X1189000Y1136000D02*
D03*
X1205000Y1085000D02*
D03*
X1287000Y1035000D02*
D03*
X1025000Y1019000D02*
D03*
X1024000Y1428000D02*
D03*
M02*
