%FSLAX44Y44*%
%MOMM*%
G71*
G01*
G75*
G04 Layer_Color=16711935*
%ADD10R,0.9000X0.8000*%
%ADD11R,0.8000X1.1000*%
%ADD12R,0.8000X0.9000*%
%ADD13R,1.1000X0.8000*%
%ADD14R,2.0000X1.4000*%
%ADD15R,1.0500X0.2500*%
%ADD16R,0.2500X1.0500*%
%ADD17R,2.5000X2.5000*%
%ADD18C,1.5000*%
%ADD19C,0.7500*%
%ADD20C,0.2000*%
%ADD21C,0.5000*%
%ADD22C,0.3000*%
%ADD23C,2.5000*%
%ADD24C,1.5000*%
%ADD25R,1.5000X1.5000*%
%ADD26C,0.8000*%
%ADD27R,1.1032X1.0032*%
%ADD28R,1.0032X1.3032*%
%ADD29R,1.0032X1.1032*%
%ADD30R,1.3032X1.0032*%
%ADD31R,2.2032X1.6032*%
%ADD32R,1.2532X0.4532*%
%ADD33R,0.4532X1.2532*%
%ADD34R,2.7032X2.7032*%
%ADD35C,0.2032*%
%ADD36C,2.7032*%
%ADD37C,1.7032*%
%ADD38R,1.7032X1.7032*%
%ADD39C,1.0032*%
D35*
X1042200Y1350000D02*
D03*
X1269800Y1100250D02*
D03*
D36*
X1253000Y1195000D02*
D03*
Y1145000D02*
D03*
X1278000Y1170000D02*
D03*
X1303000Y1195000D02*
D03*
Y1145000D02*
D03*
D37*
X1219800Y1050000D02*
D03*
X1194400D02*
D03*
X1169000D02*
D03*
X1143600D02*
D03*
X1118200D02*
D03*
X1092800D02*
D03*
X1067400D02*
D03*
X1042200Y1400000D02*
D03*
X1067600D02*
D03*
X1093000D02*
D03*
X1118400D02*
D03*
X1143800D02*
D03*
X1169200D02*
D03*
X1194600D02*
D03*
D38*
X1042000Y1050000D02*
D03*
X1220000Y1400000D02*
D03*
M02*
