M48
;Layer_Color=9474304
;FILE_FORMAT=4:4
METRIC,LZ
;TYPE=PLATED
T1F00S00C0.4000
T2F00S00C0.9000
T3F00S00C1.5000
T4F00S00C3.2000
%
T01
X01025Y01019
X01029Y01098
X01085998Y01133998
X01085Y01169
Y01181
X01097
Y01169
X01123Y0114
X01189Y01136
X01052998Y01182998
X01039998Y01180998
X01205Y01085
X01287Y01035
X0128Y01252
X01281Y01333
Y01411
X01204Y01371
X01227Y01294
X01203Y0121
X01109998Y01201998
X01077Y012045
X01063Y01205
X01054998Y01194998
X01094Y01238
X01125
X01095Y01286
X01094Y01368
X01024Y01428
X01035Y01261
T02
X01042Y0105
X010674
X010928
X011182
X011436
X01169
X011944
X012198
X0122Y014
X011946
X011692
X011438
X011184
X01093
X010676
X010422
T03
X01253Y01145
X01278Y0117
X01303Y01145
Y01195
X01253
T04
X012698Y0110025
X010422Y0135
M30
