%FSLAX44Y44*%
%MOMM*%
G71*
G01*
G75*
G04 Layer_Color=8388736*
%ADD10R,0.9000X0.8000*%
%ADD11R,0.8000X1.1000*%
%ADD12R,0.8000X0.9000*%
%ADD13R,1.1000X0.8000*%
%ADD14R,2.0000X1.4000*%
%ADD15R,1.0500X0.2500*%
%ADD16R,0.2500X1.0500*%
%ADD17R,2.5000X2.5000*%
%ADD18C,1.5000*%
%ADD19C,0.7500*%
%ADD20C,0.2000*%
%ADD21C,0.5000*%
%ADD22C,0.3000*%
%ADD23C,2.5000*%
%ADD24C,1.5000*%
%ADD25R,1.5000X1.5000*%
%ADD26C,0.8000*%
%ADD27R,1.1032X1.0032*%
%ADD28R,1.0032X1.3032*%
%ADD29R,1.0032X1.1032*%
%ADD30R,1.3032X1.0032*%
%ADD31R,2.2032X1.6032*%
%ADD32R,1.2532X0.4532*%
%ADD33R,0.4532X1.2532*%
%ADD34R,2.7032X2.7032*%
%ADD35C,0.2032*%
%ADD36C,2.7032*%
%ADD37C,1.7032*%
%ADD38R,1.7032X1.7032*%
%ADD39C,1.0032*%
D27*
X1145000Y1200000D02*
D03*
Y1186000D02*
D03*
X1184000Y1197000D02*
D03*
Y1183000D02*
D03*
X1209000Y1156000D02*
D03*
Y1170000D02*
D03*
X1100000Y1228000D02*
D03*
Y1214000D02*
D03*
X1096000Y1122000D02*
D03*
Y1136000D02*
D03*
X1131000Y1228000D02*
D03*
Y1214000D02*
D03*
X1118000Y1228000D02*
D03*
Y1214000D02*
D03*
X1087000Y1228000D02*
D03*
Y1214000D02*
D03*
D28*
X1170000Y1185000D02*
D03*
X1156000D02*
D03*
X1184000Y1171000D02*
D03*
X1170000D02*
D03*
X1209000Y1182000D02*
D03*
X1195000D02*
D03*
D29*
X1220000Y1170000D02*
D03*
X1234000D02*
D03*
X1170000Y1159000D02*
D03*
X1156000D02*
D03*
X1143000Y1134000D02*
D03*
X1157000D02*
D03*
X1169000Y1363000D02*
D03*
X1155000D02*
D03*
X1122000Y1122000D02*
D03*
X1108000D02*
D03*
X1070000Y1122000D02*
D03*
X1084000D02*
D03*
X1050000Y1156000D02*
D03*
X1036000D02*
D03*
X1157000Y1121000D02*
D03*
X1143000D02*
D03*
X1036000Y1169000D02*
D03*
X1050000D02*
D03*
D30*
X1144000Y1145000D02*
D03*
Y1159000D02*
D03*
D31*
X1073500Y1105500D02*
D03*
X1118500D02*
D03*
Y1080500D02*
D03*
X1073500D02*
D03*
D32*
X1071250Y1185000D02*
D03*
Y1180000D02*
D03*
Y1175000D02*
D03*
Y1170000D02*
D03*
Y1165000D02*
D03*
X1110750D02*
D03*
Y1170000D02*
D03*
Y1175000D02*
D03*
Y1180000D02*
D03*
Y1185000D02*
D03*
D33*
X1081000Y1155250D02*
D03*
X1086000D02*
D03*
X1091000D02*
D03*
X1096000D02*
D03*
X1101000D02*
D03*
Y1194750D02*
D03*
X1096000D02*
D03*
X1091000D02*
D03*
X1086000D02*
D03*
X1081000D02*
D03*
D34*
X1091000Y1175000D02*
D03*
D35*
X1042200Y1350000D02*
D03*
X1269800Y1100250D02*
D03*
D36*
X1253000Y1195000D02*
D03*
Y1145000D02*
D03*
X1278000Y1170000D02*
D03*
X1303000Y1195000D02*
D03*
Y1145000D02*
D03*
D37*
X1219800Y1050000D02*
D03*
X1194400D02*
D03*
X1169000D02*
D03*
X1143600D02*
D03*
X1118200D02*
D03*
X1092800D02*
D03*
X1067400D02*
D03*
X1042200Y1400000D02*
D03*
X1067600D02*
D03*
X1093000D02*
D03*
X1118400D02*
D03*
X1143800D02*
D03*
X1169200D02*
D03*
X1194600D02*
D03*
D38*
X1042000Y1050000D02*
D03*
X1220000Y1400000D02*
D03*
D39*
X1085000Y1181000D02*
D03*
X1097000D02*
D03*
X1085000Y1169000D02*
D03*
X1097000D02*
D03*
M02*
