%FSLAX44Y44*%
%MOMM*%
G71*
G01*
G75*
G04 Layer_Physical_Order=1*
G04 Layer_Color=255*
%ADD10R,0.9100X1.2200*%
%ADD11R,1.0000X1.0000*%
%ADD12R,0.8000X0.9000*%
%ADD13R,0.9000X0.8000*%
%ADD14C,0.3000*%
%ADD15C,0.5000*%
%ADD16O,2.0000X1.5000*%
%ADD17R,2.0000X1.5000*%
%ADD18O,1.7000X2.0000*%
%ADD19C,5.0000*%
%ADD20C,2.0000*%
%ADD21R,2.0000X2.0000*%
%ADD22C,1.2000*%
G36*
X920000Y596013D02*
X918797Y595605D01*
X917845Y596845D01*
X915547Y598609D01*
X912872Y599717D01*
X910000Y600095D01*
X908511Y599899D01*
X907556Y600736D01*
Y701165D01*
X908845Y702155D01*
X910609Y704453D01*
X911717Y707128D01*
X912095Y710000D01*
X911717Y712872D01*
X910609Y715547D01*
X908845Y717845D01*
X906547Y719609D01*
X903872Y720717D01*
X901000Y721095D01*
X898128Y720717D01*
X895453Y719609D01*
X893155Y717845D01*
X891392Y715547D01*
X890283Y712872D01*
X889905Y710000D01*
X890035Y709011D01*
X889028Y708238D01*
X887872Y708717D01*
X885000Y709095D01*
X882128Y708717D01*
X879453Y707608D01*
X877155Y705845D01*
X875391Y703547D01*
X874283Y700872D01*
X873905Y698000D01*
X874283Y695128D01*
X875391Y692453D01*
X877155Y690155D01*
X879453Y688391D01*
X882128Y687283D01*
X885000Y686905D01*
X887495Y687234D01*
X888444Y686284D01*
Y681822D01*
X887305Y681260D01*
X885547Y682608D01*
X882872Y683717D01*
X882500Y683766D01*
Y672998D01*
Y662234D01*
X882872Y662283D01*
X885547Y663391D01*
X887305Y664740D01*
X888444Y664178D01*
Y646487D01*
X887271Y646001D01*
X885136Y648136D01*
X883778Y649178D01*
X882852Y649561D01*
X882197Y649833D01*
X880500Y650056D01*
X853416D01*
X852710Y651112D01*
X852717Y651128D01*
X853095Y654000D01*
X852717Y656872D01*
X851609Y659547D01*
X849845Y661845D01*
X847548Y663608D01*
X844872Y664717D01*
X842000Y665095D01*
X839128Y664717D01*
X836452Y663608D01*
X834155Y661845D01*
X833166Y660556D01*
X820835D01*
X819845Y661845D01*
X817548Y663608D01*
X814872Y664717D01*
X812000Y665095D01*
X809128Y664717D01*
X806452Y663608D01*
X804155Y661845D01*
X802392Y659547D01*
X801283Y656872D01*
X801240Y656543D01*
X801152Y656555D01*
X787833D01*
X786844Y657844D01*
X784546Y659607D01*
X781870Y660715D01*
X778998Y661094D01*
X776127Y660715D01*
X773451Y659607D01*
X771153Y657844D01*
X769390Y655546D01*
X768282Y652870D01*
X767904Y649999D01*
X768282Y647127D01*
X769390Y644451D01*
X771153Y642153D01*
X773451Y640390D01*
X776127Y639282D01*
X778998Y638904D01*
X781870Y639282D01*
X784546Y640390D01*
X786844Y642153D01*
X787833Y643443D01*
X798437D01*
X803015Y638864D01*
X804373Y637822D01*
X805491Y637359D01*
X805954Y637167D01*
X807651Y636944D01*
X877784D01*
X881444Y633284D01*
Y581000D01*
X881667Y579303D01*
X881995Y578513D01*
X882322Y577722D01*
X883364Y576364D01*
X899117Y560611D01*
X898905Y559000D01*
X899283Y556128D01*
X900391Y553452D01*
X902155Y551155D01*
X904453Y549392D01*
X907128Y548283D01*
X910000Y547905D01*
X912872Y548283D01*
X915547Y549392D01*
X917845Y551155D01*
X918797Y552396D01*
X920000Y551987D01*
Y516237D01*
X918845Y515845D01*
X916547Y517608D01*
X913872Y518717D01*
X913500Y518766D01*
Y507998D01*
X911003D01*
Y505500D01*
X900234D01*
X900283Y505128D01*
X901392Y502453D01*
X902399Y501139D01*
X901838Y500000D01*
X500000D01*
Y770000D01*
X664000D01*
Y763500D01*
X684000D01*
Y770000D01*
X920000D01*
Y596013D01*
D02*
G37*
%LPC*%
G36*
X585500Y604696D02*
X583293Y604522D01*
X578701Y603420D01*
X574338Y601613D01*
X570312Y599146D01*
X566721Y596079D01*
X563654Y592488D01*
X561187Y588462D01*
X559380Y584099D01*
X558278Y579507D01*
X558104Y577300D01*
X585500D01*
Y604696D01*
D02*
G37*
G36*
X590500D02*
Y577300D01*
X617896D01*
X617722Y579507D01*
X616620Y584099D01*
X614813Y588462D01*
X612346Y592488D01*
X609279Y596079D01*
X605688Y599146D01*
X601662Y601613D01*
X597299Y603420D01*
X592707Y604522D01*
X590500Y604696D01*
D02*
G37*
G36*
X585500Y572300D02*
X558104D01*
X558278Y570093D01*
X559380Y565501D01*
X561187Y561138D01*
X563654Y557112D01*
X566721Y553521D01*
X570312Y550454D01*
X574338Y547987D01*
X578701Y546180D01*
X583293Y545078D01*
X585500Y544904D01*
Y572300D01*
D02*
G37*
G36*
X617896D02*
X590500D01*
Y544904D01*
X592707Y545078D01*
X597299Y546180D01*
X601662Y547987D01*
X605688Y550454D01*
X609279Y553521D01*
X612346Y557112D01*
X614813Y561138D01*
X616620Y565501D01*
X617722Y570093D01*
X617896Y572300D01*
D02*
G37*
G36*
X612600Y620000D02*
X601615D01*
X601948Y617476D01*
X603308Y614192D01*
X605472Y611372D01*
X608292Y609208D01*
X611576Y607848D01*
X612600Y607713D01*
Y620000D01*
D02*
G37*
G36*
X530000Y766773D02*
X527060Y766483D01*
X524232Y765625D01*
X521626Y764232D01*
X519342Y762358D01*
X517468Y760074D01*
X516075Y757468D01*
X515217Y754641D01*
X514927Y751700D01*
X515217Y748760D01*
X516075Y745932D01*
X517468Y743326D01*
X518188Y742448D01*
X517645Y741300D01*
X515000D01*
Y711300D01*
X545000D01*
Y741300D01*
X542355D01*
X541812Y742448D01*
X542532Y743326D01*
X543504Y745144D01*
X585584D01*
X627364Y703364D01*
X628722Y702322D01*
X629306Y702080D01*
X630303Y701667D01*
X632000Y701444D01*
X648513D01*
X648904Y700999D01*
X649282Y698127D01*
X650390Y695451D01*
X652153Y693153D01*
X654451Y691390D01*
X657127Y690282D01*
X659999Y689904D01*
X660927Y690026D01*
X661825Y689128D01*
X661492Y686600D01*
X661922Y683337D01*
X663181Y680296D01*
X665185Y677685D01*
X667796Y675681D01*
X670563Y674535D01*
Y673265D01*
X667796Y672119D01*
X665185Y670115D01*
X663181Y667504D01*
X661922Y664463D01*
X661492Y661200D01*
X661922Y657937D01*
X662550Y656421D01*
X655364Y649236D01*
X654322Y647878D01*
X653995Y647087D01*
X653667Y646297D01*
X653444Y644600D01*
Y566487D01*
X652271Y566001D01*
X641656Y576616D01*
Y609103D01*
X641908Y609208D01*
X644728Y611372D01*
X646892Y614192D01*
X648252Y617476D01*
X648717Y621000D01*
Y624000D01*
X648252Y627524D01*
X646892Y630808D01*
X644728Y633628D01*
X643768Y634365D01*
Y635635D01*
X644728Y636372D01*
X646892Y639192D01*
X648252Y642476D01*
X648717Y646000D01*
Y649000D01*
X648252Y652524D01*
X646892Y655808D01*
X644728Y658628D01*
X641908Y660792D01*
X638624Y662152D01*
X635100Y662617D01*
X631576Y662152D01*
X628292Y660792D01*
X625472Y658628D01*
X624728D01*
X621908Y660792D01*
X618624Y662152D01*
X615100Y662617D01*
X611576Y662152D01*
X608292Y660792D01*
X605472Y658628D01*
X603308Y655808D01*
X601948Y652524D01*
X601483Y649000D01*
Y646000D01*
X601948Y642476D01*
X603308Y639192D01*
X605472Y636372D01*
X606432Y635635D01*
Y634365D01*
X605472Y633628D01*
X603308Y630808D01*
X601948Y627524D01*
X601615Y625000D01*
X615103D01*
Y622503D01*
X617600D01*
Y607713D01*
X618624Y607848D01*
X621908Y609208D01*
X624728Y611372D01*
X625472D01*
X628292Y609208D01*
X628544Y609103D01*
Y573900D01*
X628767Y572203D01*
X629039Y571548D01*
X629422Y570622D01*
X630464Y569264D01*
X678864Y520864D01*
X680222Y519822D01*
X680806Y519580D01*
X681803Y519167D01*
X683500Y518944D01*
X712500D01*
X714197Y519167D01*
X714852Y519439D01*
X715778Y519822D01*
X717136Y520864D01*
X721421Y525149D01*
X722688Y525066D01*
X724155Y523155D01*
X726452Y521391D01*
X729128Y520283D01*
X732000Y519905D01*
X734872Y520283D01*
X737548Y521391D01*
X739845Y523155D01*
X741609Y525452D01*
X742717Y528128D01*
X743095Y531000D01*
X742717Y533872D01*
X741609Y536548D01*
X739845Y538845D01*
X738556Y539835D01*
Y549151D01*
X738333Y550848D01*
X738005Y551638D01*
X737678Y552429D01*
X736636Y553787D01*
X736685Y554034D01*
X737548Y554392D01*
X739845Y556155D01*
X741609Y558452D01*
X742717Y561128D01*
X743095Y564000D01*
X742717Y566872D01*
X741609Y569548D01*
X739845Y571845D01*
X738556Y572835D01*
Y641178D01*
X739695Y641740D01*
X741453Y640391D01*
X744128Y639283D01*
X744500Y639234D01*
Y649997D01*
Y659228D01*
X746272Y661000D01*
X747000Y661095D01*
X746791Y661519D01*
X751289Y666018D01*
X752557Y665934D01*
X753155Y665155D01*
X755452Y663391D01*
X758128Y662283D01*
X761000Y661905D01*
X763872Y662283D01*
X766547Y663391D01*
X768845Y665155D01*
X770609Y667453D01*
X771717Y670128D01*
X772095Y673000D01*
X771717Y675872D01*
X770609Y678547D01*
X768845Y680845D01*
X766547Y682608D01*
X763872Y683717D01*
X761000Y684095D01*
X758128Y683717D01*
X755452Y682608D01*
X753155Y680845D01*
X752636Y680169D01*
X751367Y680128D01*
X751031Y680511D01*
X751095Y681000D01*
X750717Y683872D01*
X749609Y686547D01*
X747845Y688845D01*
X745547Y690609D01*
X742872Y691717D01*
X740000Y692095D01*
X737128Y691717D01*
X734453Y690609D01*
X734006Y690266D01*
X727364Y696908D01*
X727926Y698046D01*
X726500Y698234D01*
Y708997D01*
Y719766D01*
X726128Y719717D01*
X723612Y718674D01*
X722556Y719380D01*
Y726500D01*
X725000D01*
Y745500D01*
X723082D01*
X722904Y745932D01*
X722551Y746782D01*
X721349Y748349D01*
X721349Y748349D01*
X712849Y756849D01*
X711282Y758051D01*
X710748Y758272D01*
X709500Y758790D01*
Y761500D01*
X689500D01*
Y741500D01*
X693000D01*
Y733100D01*
X684000D01*
Y751000D01*
Y758500D01*
X664000D01*
Y751000D01*
Y733100D01*
X657150D01*
Y724500D01*
X664200D01*
Y732000D01*
X677800D01*
Y710900D01*
X692500D01*
Y701000D01*
X694435D01*
Y698032D01*
X693196Y697519D01*
X690585Y695515D01*
X689935Y694668D01*
X688665D01*
X688015Y695515D01*
X685404Y697519D01*
X682363Y698778D01*
X679100Y699208D01*
X674100D01*
X671835Y698910D01*
X670937Y699808D01*
X671094Y700999D01*
X670715Y703870D01*
X669607Y706546D01*
X667844Y708844D01*
X665546Y710607D01*
X664200Y711165D01*
Y719500D01*
X645100D01*
Y714556D01*
X634716D01*
X592936Y756336D01*
X591578Y757378D01*
X590652Y757761D01*
X589997Y758033D01*
X588300Y758256D01*
X543504D01*
X542532Y760074D01*
X540658Y762358D01*
X538374Y764232D01*
X535768Y765625D01*
X532940Y766483D01*
X530000Y766773D01*
D02*
G37*
G36*
X877500Y670500D02*
X869234D01*
X869283Y670128D01*
X870391Y667453D01*
X872155Y665155D01*
X874453Y663391D01*
X877128Y662283D01*
X877500Y662234D01*
Y670500D01*
D02*
G37*
G36*
X757766Y647500D02*
X749500D01*
Y639234D01*
X749872Y639283D01*
X752547Y640391D01*
X754845Y642155D01*
X756609Y644453D01*
X757717Y647128D01*
X757766Y647500D01*
D02*
G37*
G36*
X749500Y660766D02*
Y652500D01*
X757766D01*
X757717Y652872D01*
X756609Y655547D01*
X754845Y657845D01*
X752547Y659609D01*
X749872Y660717D01*
X749500Y660766D01*
D02*
G37*
G36*
X569500Y547766D02*
Y539500D01*
X577766D01*
X577717Y539872D01*
X576609Y542547D01*
X574845Y544845D01*
X572547Y546609D01*
X569872Y547717D01*
X569500Y547766D01*
D02*
G37*
G36*
X638766Y518500D02*
X630500D01*
Y510234D01*
X630872Y510283D01*
X633547Y511391D01*
X635845Y513155D01*
X637608Y515453D01*
X638717Y518128D01*
X638766Y518500D01*
D02*
G37*
G36*
X908500Y518766D02*
X908128Y518717D01*
X905452Y517608D01*
X903155Y515845D01*
X901392Y513548D01*
X900283Y510872D01*
X900234Y510500D01*
X908500D01*
Y518766D01*
D02*
G37*
G36*
X545000Y558700D02*
X515000D01*
Y528700D01*
X517645D01*
X518188Y527552D01*
X517468Y526674D01*
X516075Y524068D01*
X515217Y521241D01*
X514927Y518300D01*
X515217Y515359D01*
X516075Y512532D01*
X517468Y509926D01*
X519342Y507642D01*
X521626Y505768D01*
X524232Y504375D01*
X527060Y503517D01*
X530000Y503227D01*
X532940Y503517D01*
X535768Y504375D01*
X538374Y505768D01*
X540658Y507642D01*
X542532Y509926D01*
X543925Y512532D01*
X544783Y515359D01*
X545073Y518300D01*
X544783Y521241D01*
X543925Y524068D01*
X542532Y526674D01*
X541812Y527552D01*
X542355Y528700D01*
X545000D01*
Y558700D01*
D02*
G37*
G36*
X625500Y518500D02*
X617234D01*
X617283Y518128D01*
X618391Y515453D01*
X620155Y513155D01*
X622453Y511391D01*
X625128Y510283D01*
X625500Y510234D01*
Y518500D01*
D02*
G37*
G36*
Y531766D02*
X625128Y531717D01*
X622453Y530608D01*
X620155Y528845D01*
X618391Y526547D01*
X617283Y523872D01*
X617234Y523500D01*
X625500D01*
Y531766D01*
D02*
G37*
G36*
X577766Y534500D02*
X569500D01*
Y526234D01*
X569872Y526283D01*
X572547Y527392D01*
X574845Y529155D01*
X576609Y531452D01*
X577717Y534128D01*
X577766Y534500D01*
D02*
G37*
G36*
X564500Y547766D02*
X564128Y547717D01*
X561453Y546609D01*
X559155Y544845D01*
X557392Y542547D01*
X556283Y539872D01*
X556234Y539500D01*
X564500D01*
Y547766D01*
D02*
G37*
G36*
X630500Y531766D02*
Y523500D01*
X638766D01*
X638717Y523872D01*
X637608Y526547D01*
X635845Y528845D01*
X633547Y530608D01*
X630872Y531717D01*
X630500Y531766D01*
D02*
G37*
G36*
X564500Y534500D02*
X556234D01*
X556283Y534128D01*
X557392Y531452D01*
X559155Y529155D01*
X561453Y527392D01*
X564128Y526283D01*
X564500Y526234D01*
Y534500D01*
D02*
G37*
G36*
X585500Y692700D02*
X558104D01*
X558278Y690492D01*
X559380Y685901D01*
X561187Y681538D01*
X563654Y677512D01*
X566721Y673921D01*
X570312Y670854D01*
X574338Y668387D01*
X578701Y666580D01*
X583293Y665478D01*
X585500Y665304D01*
Y692700D01*
D02*
G37*
G36*
X757766Y752500D02*
X749500D01*
Y744234D01*
X749872Y744283D01*
X752547Y745391D01*
X754845Y747155D01*
X756609Y749453D01*
X757717Y752128D01*
X757766Y752500D01*
D02*
G37*
G36*
X882500Y752766D02*
X882128Y752717D01*
X879453Y751609D01*
X877155Y749845D01*
X875391Y747548D01*
X874283Y744872D01*
X874234Y744500D01*
X882500D01*
Y752766D01*
D02*
G37*
G36*
X636766Y751500D02*
X628500D01*
Y743234D01*
X628872Y743283D01*
X631547Y744391D01*
X633845Y746155D01*
X635608Y748453D01*
X636717Y751128D01*
X636766Y751500D01*
D02*
G37*
G36*
X744500Y752500D02*
X736234D01*
X736283Y752128D01*
X737392Y749453D01*
X739155Y747155D01*
X741453Y745391D01*
X744128Y744283D01*
X744500Y744234D01*
Y752500D01*
D02*
G37*
G36*
X887500Y752766D02*
Y744500D01*
X895766D01*
X895717Y744872D01*
X894609Y747548D01*
X892845Y749845D01*
X890547Y751609D01*
X887872Y752717D01*
X887500Y752766D01*
D02*
G37*
G36*
X744500Y765766D02*
X744128Y765717D01*
X741453Y764609D01*
X739155Y762845D01*
X737392Y760547D01*
X736283Y757872D01*
X736234Y757500D01*
X744500D01*
Y765766D01*
D02*
G37*
G36*
X749500D02*
Y757500D01*
X757766D01*
X757717Y757872D01*
X756609Y760547D01*
X754845Y762845D01*
X752547Y764609D01*
X749872Y765717D01*
X749500Y765766D01*
D02*
G37*
G36*
X623500Y764766D02*
X623128Y764717D01*
X620453Y763608D01*
X618155Y761845D01*
X616391Y759547D01*
X615283Y756872D01*
X615234Y756500D01*
X623500D01*
Y764766D01*
D02*
G37*
G36*
X628500D02*
Y756500D01*
X636766D01*
X636717Y756872D01*
X635608Y759547D01*
X633845Y761845D01*
X631547Y763608D01*
X628872Y764717D01*
X628500Y764766D01*
D02*
G37*
G36*
X623500Y751500D02*
X615234D01*
X615283Y751128D01*
X616391Y748453D01*
X618155Y746155D01*
X620453Y744391D01*
X623128Y743283D01*
X623500Y743234D01*
Y751500D01*
D02*
G37*
G36*
X585500Y725096D02*
X583293Y724922D01*
X578701Y723820D01*
X574338Y722013D01*
X570312Y719546D01*
X566721Y716479D01*
X563654Y712888D01*
X561187Y708862D01*
X559380Y704499D01*
X558278Y699908D01*
X558104Y697700D01*
X585500D01*
Y725096D01*
D02*
G37*
G36*
X590500D02*
Y697700D01*
X617896D01*
X617722Y699908D01*
X616620Y704499D01*
X614813Y708862D01*
X612346Y712888D01*
X609279Y716479D01*
X605688Y719546D01*
X601662Y722013D01*
X597299Y723820D01*
X592707Y724922D01*
X590500Y725096D01*
D02*
G37*
G36*
X617896Y692700D02*
X590500D01*
Y665304D01*
X592707Y665478D01*
X597299Y666580D01*
X601662Y668387D01*
X605688Y670854D01*
X609279Y673921D01*
X612346Y677512D01*
X614813Y681538D01*
X616620Y685901D01*
X617722Y690492D01*
X617896Y692700D01*
D02*
G37*
G36*
X877500Y683766D02*
X877128Y683717D01*
X874453Y682608D01*
X872155Y680845D01*
X870391Y678547D01*
X869283Y675872D01*
X869234Y675500D01*
X877500D01*
Y683766D01*
D02*
G37*
G36*
X739766Y706500D02*
X731500D01*
Y698234D01*
X731872Y698283D01*
X734547Y699391D01*
X736845Y701155D01*
X738608Y703453D01*
X739717Y706128D01*
X739766Y706500D01*
D02*
G37*
G36*
X882500Y739500D02*
X874234D01*
X874283Y739128D01*
X875391Y736452D01*
X877155Y734155D01*
X879453Y732392D01*
X882128Y731283D01*
X882500Y731234D01*
Y739500D01*
D02*
G37*
G36*
X895766D02*
X887500D01*
Y731234D01*
X887872Y731283D01*
X890547Y732392D01*
X892845Y734155D01*
X894609Y736452D01*
X895717Y739128D01*
X895766Y739500D01*
D02*
G37*
G36*
X731500Y719766D02*
Y711500D01*
X739766D01*
X739717Y711872D01*
X738608Y714548D01*
X736845Y716845D01*
X734547Y718608D01*
X731872Y719717D01*
X731500Y719766D01*
D02*
G37*
G36*
X652150Y733100D02*
X645100D01*
Y724500D01*
X652150D01*
Y733100D01*
D02*
G37*
%LPD*%
D10*
X687350Y722000D02*
D03*
X654650D02*
D03*
D11*
X674000Y761000D02*
D03*
Y742000D02*
D03*
X699500Y751500D02*
D03*
D12*
X716000Y736000D02*
D03*
X702000D02*
D03*
D13*
X702000Y724000D02*
D03*
Y710000D02*
D03*
D14*
X749000Y673000D02*
X761000D01*
X732000Y656000D02*
X749000Y673000D01*
X732000Y564000D02*
Y656000D01*
X734000Y681000D02*
X740000D01*
X716000Y699000D02*
X734000Y681000D01*
X716000Y699000D02*
Y736000D01*
X635100Y573900D02*
Y622500D01*
Y573900D02*
X683500Y525500D01*
X712500D01*
X719000Y532000D01*
Y546997D01*
X714999Y550999D02*
X719000Y546997D01*
X714999Y550999D02*
X715999D01*
X687000Y537000D02*
X707000D01*
X660000Y564000D02*
X687000Y537000D01*
X660000Y564000D02*
Y644600D01*
X530000Y751700D02*
X588300D01*
X632000Y708000D01*
X652997D01*
X659999Y700999D01*
X702000Y661200D02*
X721500Y641700D01*
Y559651D02*
Y641700D01*
Y559651D02*
X732000Y549151D01*
Y531000D02*
Y549151D01*
X660000Y644600D02*
X676600Y661200D01*
X888000Y581000D02*
X910000Y559000D01*
X888000Y581000D02*
Y636000D01*
X880500Y643500D02*
X888000Y636000D01*
X807651Y643500D02*
X880500D01*
X801152Y649999D02*
X807651Y643500D01*
X778998Y649999D02*
X801152D01*
X810000Y654000D02*
X812000D01*
X810000Y654000D02*
X810000Y654000D01*
X885000Y698000D02*
X886000D01*
X895000Y689000D01*
Y589151D02*
Y689000D01*
Y589151D02*
X910000Y574151D01*
Y574000D02*
Y574151D01*
X901000Y598000D02*
X910000Y589000D01*
X901000Y598000D02*
Y710000D01*
X842000Y654000D02*
X842000Y654000D01*
X810000Y654000D02*
X842000D01*
D15*
X716000Y736000D02*
Y743000D01*
X707500Y751500D02*
X716000Y743000D01*
X699500Y751500D02*
X707500D01*
X687350Y722000D02*
X689350Y724000D01*
X702000D01*
X702000Y736000D02*
X702000Y736000D01*
Y724000D02*
Y736000D01*
X702000Y710000D02*
X702000Y710000D01*
X702000Y686600D02*
Y710000D01*
D16*
X676600Y686600D02*
D03*
X702000D02*
D03*
X676600Y661200D02*
D03*
X702000D02*
D03*
X676600Y635800D02*
D03*
X702000D02*
D03*
X676600Y610400D02*
D03*
X702000D02*
D03*
X676600Y585000D02*
D03*
D17*
X702000D02*
D03*
D18*
X615100Y622500D02*
D03*
Y647500D02*
D03*
X635100D02*
D03*
Y622500D02*
D03*
D19*
X588000Y574800D02*
D03*
Y695200D02*
D03*
D20*
X530000Y751700D02*
D03*
Y518300D02*
D03*
D21*
Y726300D02*
D03*
Y543700D02*
D03*
D22*
X567000Y537000D02*
D03*
X626000Y754000D02*
D03*
X628000Y521000D02*
D03*
X880000Y673000D02*
D03*
X911000Y508000D02*
D03*
X747000Y650000D02*
D03*
X885000Y742000D02*
D03*
X747000Y755000D02*
D03*
X729000Y709000D02*
D03*
X659999Y700999D02*
D03*
X714999Y550999D02*
D03*
X707000Y536000D02*
D03*
X740000Y681000D02*
D03*
X732000Y531000D02*
D03*
Y564000D02*
D03*
X761000Y673000D02*
D03*
X778998Y649999D02*
D03*
X812000Y654000D02*
D03*
X901000Y710000D02*
D03*
X885000Y698000D02*
D03*
X910000Y589000D02*
D03*
Y574000D02*
D03*
Y559000D02*
D03*
X842000Y654000D02*
D03*
M02*
