%FSLAX44Y44*%
%MOMM*%
G71*
G01*
G75*
G04 Layer_Color=16711935*
%ADD10R,0.9100X1.2200*%
%ADD11R,1.0000X1.0000*%
%ADD12R,0.8000X0.9000*%
%ADD13R,0.9000X0.8000*%
%ADD14C,0.3000*%
%ADD15C,0.5000*%
%ADD16O,2.0000X1.5000*%
%ADD17R,2.0000X1.5000*%
%ADD18O,1.7000X2.0000*%
%ADD19C,5.0000*%
%ADD20C,2.0000*%
%ADD21R,2.0000X2.0000*%
%ADD22C,1.2000*%
%ADD23O,0.6000X2.3500*%
%ADD24O,0.3500X2.1000*%
%ADD25R,1.4000X1.1000*%
%ADD26R,1.1132X1.4232*%
%ADD27R,1.2032X1.2032*%
%ADD28R,1.0032X1.1032*%
%ADD29R,1.1032X1.0032*%
%ADD30O,2.2032X1.7032*%
%ADD31R,2.2032X1.7032*%
%ADD32O,1.9032X2.2032*%
%ADD33C,5.2032*%
%ADD34C,2.2032*%
%ADD35R,2.2032X2.2032*%
%ADD36C,1.4032*%
%ADD37O,0.8032X2.5532*%
%ADD38O,0.5532X2.3032*%
%ADD39R,1.6032X1.3032*%
D28*
X739000Y726000D02*
D03*
X753000D02*
D03*
X879000Y507000D02*
D03*
X893000D02*
D03*
X892000Y648000D02*
D03*
X878000D02*
D03*
D29*
X911000Y534000D02*
D03*
Y520000D02*
D03*
X530000Y710000D02*
D03*
Y696000D02*
D03*
X530000Y561000D02*
D03*
Y575000D02*
D03*
X906000Y644000D02*
D03*
Y630000D02*
D03*
X566000Y608000D02*
D03*
Y622000D02*
D03*
X906000Y670000D02*
D03*
Y656000D02*
D03*
D30*
X676600Y686600D02*
D03*
X702000D02*
D03*
X676600Y661200D02*
D03*
X702000D02*
D03*
X676600Y635800D02*
D03*
X702000D02*
D03*
X676600Y610400D02*
D03*
X702000D02*
D03*
X676600Y585000D02*
D03*
D31*
X702000D02*
D03*
D32*
X615100Y622500D02*
D03*
Y647500D02*
D03*
X635100D02*
D03*
Y622500D02*
D03*
D33*
X588000Y574800D02*
D03*
Y695200D02*
D03*
D34*
X530000Y751700D02*
D03*
Y518300D02*
D03*
D35*
Y726300D02*
D03*
Y543700D02*
D03*
D36*
X567000Y537000D02*
D03*
X626000Y754000D02*
D03*
X628000Y521000D02*
D03*
X880000Y673000D02*
D03*
X911000Y508000D02*
D03*
X747000Y650000D02*
D03*
X885000Y742000D02*
D03*
X747000Y755000D02*
D03*
X729000Y709000D02*
D03*
X659999Y700999D02*
D03*
X714999Y550999D02*
D03*
X707000Y536000D02*
D03*
X740000Y681000D02*
D03*
X732000Y531000D02*
D03*
Y564000D02*
D03*
X761000Y673000D02*
D03*
X778998Y649999D02*
D03*
X812000Y654000D02*
D03*
X901000Y710000D02*
D03*
X885000Y698000D02*
D03*
X910000Y589000D02*
D03*
Y574000D02*
D03*
Y559000D02*
D03*
X842000Y654000D02*
D03*
D37*
X752150Y626750D02*
D03*
X764850D02*
D03*
X777550D02*
D03*
X790250D02*
D03*
X802950D02*
D03*
X815650D02*
D03*
X828350D02*
D03*
X841050D02*
D03*
X853750D02*
D03*
X866450D02*
D03*
X879150D02*
D03*
X891850D02*
D03*
X752150Y529250D02*
D03*
X764850D02*
D03*
X777550D02*
D03*
X790250D02*
D03*
X802950D02*
D03*
X815650D02*
D03*
X828350D02*
D03*
X841050D02*
D03*
X853750D02*
D03*
X866450D02*
D03*
X879150D02*
D03*
X891850D02*
D03*
D38*
X773750Y746500D02*
D03*
X780250D02*
D03*
X786750D02*
D03*
X793250D02*
D03*
X799750D02*
D03*
X806250D02*
D03*
X812750D02*
D03*
X819250D02*
D03*
X825750D02*
D03*
X832250D02*
D03*
X838750D02*
D03*
X845250D02*
D03*
X851750D02*
D03*
X858250D02*
D03*
X773750Y677500D02*
D03*
X780250D02*
D03*
X786750D02*
D03*
X793250D02*
D03*
X799750D02*
D03*
X806250D02*
D03*
X812750D02*
D03*
X819250D02*
D03*
X825750D02*
D03*
X832250D02*
D03*
X838750D02*
D03*
X845250D02*
D03*
X851750D02*
D03*
X858250D02*
D03*
D39*
X584000Y609500D02*
D03*
Y624500D02*
D03*
M02*
