M48
;Layer_Color=9474304
;FILE_FORMAT=4:4
METRIC,LZ
;TYPE=PLATED
T1F00S00C0.5000
T2F00S00C0.9000
T3F00S00C2.3000
%
T01
X00911Y00508
X0091Y00559
Y00574
Y00589
X0088Y00673
X00885Y00698
X00901Y0071
X00885Y00742
X00842Y00654
X00812
X00778998Y00649999
X00747Y0065
X00761Y00673
X0074Y00681
X00729Y00709
X00747Y00755
X00626Y00754
X00659999Y00700999
X00714999Y00550999
X00707Y00536
X00732Y00531
Y00564
X00628Y00521
X00567Y00537
T02
X0053Y005183
Y005437
X006151Y006225
X006351
Y006475
X006151
X006766Y006358
Y006612
Y006866
X00702
Y006612
Y006358
Y006104
X006766
Y00585
X00702
X0053Y007263
Y007517
T03
X00588Y005748
Y006952
M30
