M48
;Layer_Color=9474304
;FILE_FORMAT=4:4
METRIC,LZ
;TYPE=PLATED
T1F00S00C0.5000
;TYPE=NON_PLATED
T2F00S00C6.0000
%
T01
X00126Y00115
X00146
X00163Y00273
X00137Y00290999
X00158Y00333
X00166Y00354
X00168Y00374
X00241Y00387
X00261Y00376
X00328Y0038
X00345Y00341
X003545Y003215
X004005Y00487
X00313Y00415
X00239Y00408
X00121Y00406
X000855Y004743
Y004997
X00218Y0057
X00281Y00568
T02
X00215Y0033
M30
