%FSLAX44Y44*%
%MOMM*%
G71*
G01*
G75*
G04 Layer_Physical_Order=1*
G04 Layer_Color=255*
%ADD10R,1.5000X1.3000*%
%ADD11R,0.9000X1.2000*%
%ADD12R,0.6000X1.3000*%
%ADD13O,0.7000X2.6000*%
G04:AMPARAMS|DCode=14|XSize=1.6mm|YSize=0.9mm|CornerRadius=0.225mm|HoleSize=0mm|Usage=FLASHONLY|Rotation=180.000|XOffset=0mm|YOffset=0mm|HoleType=Round|Shape=RoundedRectangle|*
%AMROUNDEDRECTD14*
21,1,1.6000,0.4500,0,0,180.0*
21,1,1.1500,0.9000,0,0,180.0*
1,1,0.4500,-0.5750,0.2250*
1,1,0.4500,0.5750,0.2250*
1,1,0.4500,0.5750,-0.2250*
1,1,0.4500,-0.5750,-0.2250*
%
%ADD14ROUNDEDRECTD14*%
%ADD15R,1.3000X1.5000*%
%ADD16C,0.5000*%
%ADD17C,0.3000*%
%ADD18C,0.7500*%
%ADD19C,0.2000*%
%ADD20C,2.0000*%
%ADD21C,1.6000*%
%ADD22R,1.6000X1.6000*%
%ADD23C,1.5000*%
G36*
X365444Y375284D02*
Y329746D01*
X364241Y329338D01*
X363415Y330415D01*
X360804Y332419D01*
X357763Y333678D01*
X356258Y333876D01*
X355919Y334696D01*
X357178Y337737D01*
X357608Y341000D01*
X357178Y344263D01*
X355919Y347304D01*
X353915Y349915D01*
X351304Y351919D01*
X349170Y352803D01*
X349813Y354357D01*
X350063Y356250D01*
Y360750D01*
X349813Y362643D01*
X349083Y364406D01*
X347921Y365921D01*
X346406Y367083D01*
X344643Y367813D01*
X342750Y368063D01*
X338136D01*
X336577Y369622D01*
X336660Y370889D01*
X336915Y371085D01*
X338919Y373696D01*
X340178Y376737D01*
X340608Y380000D01*
X340178Y383263D01*
X338919Y386304D01*
X336915Y388915D01*
X334304Y390919D01*
X331263Y392178D01*
X328000Y392608D01*
X326890Y392462D01*
X326328Y393601D01*
X328171Y395444D01*
X345284D01*
X365444Y375284D01*
D02*
G37*
G36*
X269364Y392364D02*
X270722Y391322D01*
X272303Y390667D01*
X274000Y390444D01*
X319102D01*
X319510Y389241D01*
X319085Y388915D01*
X317081Y386304D01*
X315822Y383263D01*
X315392Y380000D01*
X315822Y376737D01*
X317081Y373696D01*
X319085Y371085D01*
X320435Y370049D01*
Y367500D01*
X320499Y367020D01*
X319661Y366065D01*
X283733D01*
X282406Y367083D01*
X280642Y367813D01*
X278750Y368063D01*
X272101D01*
X271539Y369202D01*
X271919Y369696D01*
X273178Y372737D01*
X273608Y376000D01*
X273178Y379263D01*
X271919Y382304D01*
X269915Y384915D01*
X267304Y386919D01*
X264263Y388178D01*
X261000Y388608D01*
X257737Y388178D01*
X254696Y386919D01*
X253395Y388614D01*
X253178Y390263D01*
X251919Y393304D01*
X249915Y395915D01*
X247304Y397919D01*
X247221Y398552D01*
X247915Y399085D01*
X249919Y401696D01*
X251178Y404737D01*
X251608Y408000D01*
X251544Y408483D01*
X252683Y409045D01*
X269364Y392364D01*
D02*
G37*
G36*
X179444Y457513D02*
Y381595D01*
X178241Y381187D01*
X176915Y382915D01*
X174556Y384725D01*
Y454284D01*
X178271Y457999D01*
X179444Y457513D01*
D02*
G37*
G36*
X327594Y312917D02*
X327872Y312802D01*
X327624Y311556D01*
X298000D01*
X296303Y311333D01*
X295840Y311141D01*
X294722Y310678D01*
X293364Y309636D01*
X285729Y302000D01*
X283000D01*
Y299271D01*
X258729Y275000D01*
X252171D01*
X251686Y276173D01*
X263849Y288337D01*
X265051Y289903D01*
X265807Y291728D01*
X266064Y293686D01*
X266064Y293686D01*
Y311130D01*
X267019Y311968D01*
X267250Y311937D01*
X278750D01*
X280642Y312186D01*
X282406Y312917D01*
X283733Y313935D01*
X326267D01*
X327594Y312917D01*
D02*
G37*
G36*
X110435Y376717D02*
Y194000D01*
X110693Y192042D01*
X111227Y190752D01*
X111449Y190218D01*
X112651Y188651D01*
X118436Y182866D01*
Y166500D01*
X116000D01*
Y141500D01*
X118436D01*
Y125540D01*
X115460D01*
Y104460D01*
X136540D01*
Y108039D01*
X137743Y108447D01*
X138483Y107483D01*
X140685Y105793D01*
X143249Y104731D01*
X144500Y104567D01*
Y114998D01*
Y125434D01*
X143249Y125269D01*
X140685Y124207D01*
X138483Y122517D01*
X137743Y121553D01*
X136540Y121961D01*
Y125540D01*
X133565D01*
Y141500D01*
X145000D01*
Y153998D01*
Y166500D01*
X133565D01*
Y186000D01*
X133307Y187958D01*
X132551Y189782D01*
X131349Y191349D01*
X131349Y191349D01*
X127077Y195622D01*
X127250Y196938D01*
X138750D01*
X140642Y197187D01*
X142406Y197917D01*
X143733Y198935D01*
X186267D01*
X187594Y197917D01*
X189357Y197187D01*
X191250Y196938D01*
X202750D01*
X204643Y197187D01*
X206406Y197917D01*
X207733Y198935D01*
X215500D01*
X217458Y199193D01*
X219282Y199949D01*
X220849Y201151D01*
X239349Y219651D01*
X240551Y221218D01*
X240551Y221218D01*
X240551Y221218D01*
X241307Y223042D01*
X241565Y225000D01*
Y266052D01*
X246327Y270815D01*
X247500Y270329D01*
Y253000D01*
X263069D01*
X263555Y251827D01*
X258729Y247000D01*
X247500D01*
Y225000D01*
X250444D01*
Y223000D01*
X250668Y221303D01*
X250995Y220512D01*
X251322Y219722D01*
X252364Y218364D01*
X259444Y211284D01*
Y206000D01*
X253500D01*
Y183000D01*
Y177000D01*
X278500D01*
Y183000D01*
Y206000D01*
X272556D01*
Y214000D01*
X272333Y215697D01*
X272005Y216488D01*
X271678Y217278D01*
X270636Y218636D01*
X265445Y223827D01*
X265931Y225000D01*
X283000D01*
Y103414D01*
X282000Y103000D01*
Y103000D01*
X282000Y103000D01*
X103000D01*
Y382493D01*
X104173Y382979D01*
X110435Y376717D01*
D02*
G37*
G36*
X226435Y260578D02*
Y228133D01*
X212367Y214065D01*
X207733D01*
X206406Y215083D01*
X204643Y215814D01*
X202750Y216063D01*
X191250D01*
X189357Y215814D01*
X187594Y215083D01*
X186267Y214065D01*
X143733D01*
X142406Y215083D01*
X140642Y215814D01*
X138750Y216063D01*
X127250D01*
X126520Y215966D01*
X125565Y216804D01*
Y233196D01*
X126520Y234033D01*
X127250Y233937D01*
X138750D01*
X140642Y234186D01*
X142406Y234917D01*
X143733Y235935D01*
X186267D01*
X187594Y234917D01*
X189357Y234186D01*
X191250Y233937D01*
X202750D01*
X204643Y234186D01*
X206406Y234917D01*
X207921Y236079D01*
X209083Y237593D01*
X209813Y239357D01*
X210063Y241250D01*
Y245750D01*
X210049Y245851D01*
X225262Y261063D01*
X226435Y260578D01*
D02*
G37*
G36*
X180149Y326732D02*
X180324Y324508D01*
X181610Y319151D01*
X183718Y314061D01*
X186597Y309364D01*
X190175Y305175D01*
X194364Y301597D01*
X199061Y298718D01*
X204151Y296610D01*
X209508Y295324D01*
X215000Y294892D01*
X220492Y295324D01*
X225849Y296610D01*
X230939Y298718D01*
X235636Y301597D01*
X239825Y305175D01*
X241744Y307421D01*
X242935Y306981D01*
Y300133D01*
X195865Y253062D01*
X191250D01*
X189357Y252813D01*
X187594Y252083D01*
X186267Y251064D01*
X143733D01*
X142406Y252083D01*
X140642Y252813D01*
X138750Y253062D01*
X127250D01*
X126520Y252966D01*
X125565Y253804D01*
Y283393D01*
X126767Y283801D01*
X128085Y282084D01*
X130696Y280081D01*
X133737Y278821D01*
X137000Y278392D01*
X140263Y278821D01*
X143304Y280081D01*
X145915Y282084D01*
X147918Y284695D01*
X149178Y287736D01*
X149608Y290999D01*
X149178Y294263D01*
X147918Y297303D01*
X145915Y299914D01*
X145556Y300190D01*
Y327122D01*
X146802Y327370D01*
X147081Y326696D01*
X149085Y324085D01*
X151696Y322081D01*
X154737Y320822D01*
X156444Y320597D01*
Y283725D01*
X154085Y281915D01*
X152081Y279304D01*
X150822Y276263D01*
X150392Y273000D01*
X150822Y269737D01*
X152081Y266696D01*
X154085Y264085D01*
X156696Y262081D01*
X159737Y260822D01*
X163000Y260392D01*
X166263Y260822D01*
X169304Y262081D01*
X171915Y264085D01*
X173919Y266696D01*
X175178Y269737D01*
X175608Y273000D01*
X175178Y276263D01*
X173919Y279304D01*
X171915Y281915D01*
X169556Y283725D01*
Y327444D01*
X178500D01*
X179162Y327531D01*
X180149Y326732D01*
D02*
G37*
G36*
X80151Y407001D02*
X102979Y384173D01*
X102493Y383000D01*
X78000D01*
Y407829D01*
X79203Y408237D01*
X80151Y407001D01*
D02*
G37*
G36*
X269327Y457401D02*
X268622Y456345D01*
X267569Y456781D01*
X265350Y457073D01*
X263131Y456781D01*
X261064Y455925D01*
X259288Y454562D01*
X258713D01*
X256937Y455925D01*
X254869Y456781D01*
X252650Y457073D01*
X250431Y456781D01*
X248364Y455925D01*
X246588Y454562D01*
X246012D01*
X244237Y455925D01*
X242169Y456781D01*
X239950Y457073D01*
X237731Y456781D01*
X235664Y455925D01*
X233888Y454562D01*
X233312D01*
X231537Y455925D01*
X229469Y456781D01*
X227250Y457073D01*
X225031Y456781D01*
X222964Y455925D01*
X221188Y454562D01*
X220613D01*
X218837Y455925D01*
X216769Y456781D01*
X214550Y457073D01*
X212331Y456781D01*
X210264Y455925D01*
X208488Y454562D01*
X207913D01*
X206137Y455925D01*
X204069Y456781D01*
X201850Y457073D01*
X199772Y456800D01*
X199210Y457939D01*
X204716Y463444D01*
X263284D01*
X269327Y457401D01*
D02*
G37*
G36*
X383000Y523000D02*
X408000D01*
Y501235D01*
X406911Y500582D01*
X406268Y500925D01*
X403441Y501783D01*
X400500Y502073D01*
X397560Y501783D01*
X394732Y500925D01*
X392126Y499533D01*
X389842Y497658D01*
X387968Y495374D01*
X386575Y492768D01*
X385717Y489941D01*
X385428Y487000D01*
X385717Y484060D01*
X386575Y481232D01*
X387968Y478626D01*
X389842Y476342D01*
X392126Y474468D01*
X394732Y473075D01*
X397560Y472217D01*
X400500Y471928D01*
X403441Y472217D01*
X406268Y473075D01*
X406911Y473419D01*
X408000Y472766D01*
Y383000D01*
X384556D01*
Y385000D01*
X384333Y386697D01*
X384141Y387160D01*
X383678Y388278D01*
X382636Y389636D01*
X358636Y413636D01*
X357278Y414678D01*
X356488Y415005D01*
X355697Y415333D01*
X354000Y415556D01*
X325535D01*
X325178Y418263D01*
X323919Y421304D01*
X323715Y421570D01*
Y425551D01*
X324431Y427281D01*
X324724Y429500D01*
Y448500D01*
X324431Y450719D01*
X323575Y452786D01*
X322212Y454562D01*
X320437Y455925D01*
X318369Y456781D01*
X316150Y457073D01*
X313931Y456781D01*
X311864Y455925D01*
X310695Y455028D01*
X309556Y455590D01*
Y465000D01*
X309333Y466697D01*
X308678Y468278D01*
X308157Y468957D01*
X307636Y469636D01*
X290636Y486636D01*
X289278Y487678D01*
X288352Y488061D01*
X287697Y488333D01*
X286000Y488556D01*
X193000D01*
X191303Y488333D01*
X190840Y488141D01*
X189722Y487678D01*
X188364Y486636D01*
X163364Y461636D01*
X162322Y460278D01*
X161939Y459352D01*
X161667Y458697D01*
X161444Y457000D01*
Y384725D01*
X159085Y382915D01*
X157081Y380304D01*
X155822Y377263D01*
X155392Y374000D01*
X155822Y370737D01*
X157081Y367696D01*
X158845Y365398D01*
X158679Y364138D01*
X157085Y362915D01*
X155081Y360304D01*
X153822Y357263D01*
X153392Y354000D01*
X153822Y350737D01*
X155081Y347696D01*
X156031Y346458D01*
X155545Y345285D01*
X154737Y345178D01*
X151696Y343919D01*
X149085Y341915D01*
X147081Y339304D01*
X146802Y338630D01*
X145556Y338878D01*
Y461285D01*
X184716Y500444D01*
X305000D01*
X306697Y500667D01*
X307487Y500995D01*
X308278Y501322D01*
X309636Y502364D01*
X320786Y513514D01*
X321828Y514872D01*
X321992Y515269D01*
X322212Y515438D01*
X323575Y517214D01*
X324431Y519281D01*
X324724Y521500D01*
Y540500D01*
X324431Y542719D01*
X323575Y544787D01*
X322212Y546562D01*
X320437Y547925D01*
X318369Y548781D01*
X316150Y549074D01*
X313931Y548781D01*
X311864Y547925D01*
X310088Y546562D01*
X309513D01*
X307737Y547925D01*
X305669Y548781D01*
X303450Y549074D01*
X301231Y548781D01*
X299164Y547925D01*
X297388Y546562D01*
X296812D01*
X295037Y547925D01*
X292969Y548781D01*
X290750Y549074D01*
X288531Y548781D01*
X286464Y547925D01*
X284688Y546562D01*
X284112D01*
X282337Y547925D01*
X280269Y548781D01*
X278050Y549074D01*
X275831Y548781D01*
X273764Y547925D01*
X271988Y546562D01*
X271413D01*
X269637Y547925D01*
X267569Y548781D01*
X265350Y549074D01*
X263131Y548781D01*
X263103Y548770D01*
X262330Y549777D01*
X263051Y550718D01*
X263807Y552542D01*
X264065Y554500D01*
X264065Y554500D01*
Y557000D01*
X264500D01*
Y560435D01*
X271049D01*
X272085Y559085D01*
X274696Y557081D01*
X277737Y555822D01*
X281000Y555392D01*
X284263Y555822D01*
X287304Y557081D01*
X289915Y559085D01*
X291919Y561696D01*
X293178Y564737D01*
X293608Y568000D01*
X293178Y571263D01*
X291919Y574304D01*
X289915Y576915D01*
X287304Y578919D01*
X284263Y580178D01*
X281000Y580608D01*
X277737Y580178D01*
X274696Y578919D01*
X272085Y576915D01*
X271049Y575565D01*
X264500D01*
Y580000D01*
X255000D01*
Y588000D01*
X239000D01*
Y580000D01*
X229500D01*
Y577522D01*
X228297Y577114D01*
X226915Y578915D01*
X224304Y580919D01*
X221263Y582178D01*
X218000Y582608D01*
X214737Y582178D01*
X211696Y580919D01*
X209085Y578915D01*
X207081Y576304D01*
X205822Y573263D01*
X205392Y570000D01*
X205822Y566737D01*
X207081Y563696D01*
X209085Y561085D01*
X211696Y559081D01*
X214737Y557822D01*
X218000Y557392D01*
X221263Y557822D01*
X224304Y559081D01*
X226720Y560935D01*
X229500D01*
Y557000D01*
X229935D01*
Y551500D01*
X230172Y549705D01*
X229273Y548807D01*
X227250Y549074D01*
X225031Y548781D01*
X222964Y547925D01*
X221188Y546562D01*
X220613D01*
X218837Y547925D01*
X216769Y548781D01*
X214550Y549074D01*
X212331Y548781D01*
X210264Y547925D01*
X208488Y546562D01*
X207913D01*
X206137Y547925D01*
X204069Y548781D01*
X203350Y548876D01*
Y530998D01*
X201853D01*
Y529500D01*
X193277D01*
Y521500D01*
X193569Y519281D01*
X194426Y517214D01*
X195788Y515438D01*
X196673Y514759D01*
X196265Y513556D01*
X182000D01*
X180303Y513333D01*
X179840Y513141D01*
X178722Y512678D01*
X177364Y511636D01*
X134364Y468636D01*
X133322Y467278D01*
X132995Y466488D01*
X132668Y465697D01*
X132444Y464000D01*
Y302642D01*
X130696Y301918D01*
X128085Y299914D01*
X126767Y298198D01*
X125565Y298606D01*
Y379850D01*
X125307Y381808D01*
X124551Y383633D01*
X123349Y385199D01*
X93065Y415484D01*
Y461335D01*
X93874Y461768D01*
X96158Y463642D01*
X98032Y465926D01*
X99425Y468532D01*
X100283Y471360D01*
X100573Y474300D01*
X100283Y477241D01*
X99425Y480068D01*
X98032Y482674D01*
X96158Y484958D01*
X93874Y486833D01*
Y487168D01*
X96158Y489042D01*
X98032Y491326D01*
X99425Y493932D01*
X100283Y496760D01*
X100573Y499700D01*
X100283Y502641D01*
X99425Y505468D01*
X98032Y508074D01*
X96158Y510358D01*
X93874Y512233D01*
X91268Y513625D01*
X88440Y514483D01*
X85500Y514773D01*
X82559Y514483D01*
X79732Y513625D01*
X79089Y513282D01*
X78000Y513935D01*
Y523000D01*
X103000D01*
Y623000D01*
X383000D01*
Y523000D01*
D02*
G37*
G36*
X207994Y422065D02*
Y391450D01*
X208218Y389753D01*
X208545Y388962D01*
X208873Y388172D01*
X209914Y386814D01*
X226364Y370364D01*
X227722Y369322D01*
X228648Y368939D01*
X229303Y368667D01*
X231000Y368444D01*
X251042D01*
X252085Y367085D01*
X254696Y365081D01*
X257737Y363822D01*
X259407Y363602D01*
X260180Y362594D01*
X259937Y360750D01*
Y356250D01*
X260186Y354357D01*
X260917Y352594D01*
X262079Y351079D01*
X263594Y349917D01*
X265357Y349187D01*
X267250Y348937D01*
X278750D01*
X280642Y349187D01*
X282406Y349917D01*
X283733Y350935D01*
X326267D01*
X327594Y349917D01*
X329357Y349187D01*
X331250Y348937D01*
X333899D01*
X334044Y348643D01*
X333373Y347565D01*
X266000D01*
X266000Y347565D01*
X264042Y347307D01*
X262218Y346551D01*
X260651Y345349D01*
X250811Y335509D01*
X249589Y335854D01*
X248390Y340849D01*
X246282Y345939D01*
X243403Y350636D01*
X239825Y354825D01*
X235636Y358403D01*
X230939Y361282D01*
X225849Y363390D01*
X220492Y364676D01*
X215000Y365108D01*
X209508Y364676D01*
X204151Y363390D01*
X199061Y361282D01*
X194364Y358403D01*
X193096Y357320D01*
X192234Y358253D01*
X196636Y362655D01*
X197678Y364013D01*
X198061Y364939D01*
X198333Y365594D01*
X198556Y367291D01*
Y420521D01*
X199612Y421227D01*
X199631Y421219D01*
X201850Y420927D01*
X204069Y421219D01*
X206137Y422075D01*
X206855Y422626D01*
X207994Y422065D01*
D02*
G37*
G36*
X299164Y422075D02*
X301231Y421219D01*
X301706Y420397D01*
X300822Y418263D01*
X300392Y415000D01*
X300822Y411737D01*
X301288Y410612D01*
X300582Y409556D01*
X284716D01*
X273390Y420882D01*
X274096Y421938D01*
X275831Y421219D01*
X278050Y420927D01*
X280269Y421219D01*
X282337Y422075D01*
X284112Y423438D01*
X284688D01*
X286464Y422075D01*
X288531Y421219D01*
X290750Y420927D01*
X292969Y421219D01*
X295037Y422075D01*
X296812Y423438D01*
X297388D01*
X299164Y422075D01*
D02*
G37*
%LPC*%
G36*
X147500Y125434D02*
Y116500D01*
X156434D01*
X156269Y117752D01*
X155207Y120316D01*
X153517Y122517D01*
X151316Y124207D01*
X148752Y125269D01*
X147500Y125434D01*
D02*
G37*
G36*
X158000Y152500D02*
X148000D01*
Y141500D01*
X158000D01*
Y152500D01*
D02*
G37*
G36*
X255000Y601000D02*
X248500D01*
Y591000D01*
X255000D01*
Y601000D01*
D02*
G37*
G36*
X156434Y113500D02*
X147500D01*
Y104567D01*
X148752Y104731D01*
X151316Y105793D01*
X153517Y107483D01*
X155207Y109685D01*
X156269Y112248D01*
X156434Y113500D01*
D02*
G37*
G36*
X158000Y166500D02*
X148000D01*
Y155500D01*
X158000D01*
Y166500D01*
D02*
G37*
G36*
X245500Y601000D02*
X239000D01*
Y591000D01*
X245500D01*
Y601000D01*
D02*
G37*
G36*
X200350Y548876D02*
X199631Y548781D01*
X197564Y547925D01*
X195788Y546562D01*
X194426Y544787D01*
X193569Y542719D01*
X193277Y540500D01*
Y532500D01*
X200350D01*
Y548876D01*
D02*
G37*
G36*
X264500Y174000D02*
X253500D01*
Y164000D01*
X264500D01*
Y174000D01*
D02*
G37*
G36*
X278500D02*
X267500D01*
Y164000D01*
X278500D01*
Y174000D01*
D02*
G37*
%LPD*%
D10*
X266000Y194500D02*
D03*
Y175500D02*
D03*
D11*
X257000Y264000D02*
D03*
X275000D02*
D03*
X257000Y236000D02*
D03*
X275000D02*
D03*
D12*
X247000Y589500D02*
D03*
X256500Y568500D02*
D03*
X237500D02*
D03*
D13*
X316150Y531000D02*
D03*
X303450D02*
D03*
X290750D02*
D03*
X278050D02*
D03*
X265350D02*
D03*
X252650D02*
D03*
X239950D02*
D03*
X227250D02*
D03*
X214550D02*
D03*
X201850D02*
D03*
X316150Y439000D02*
D03*
X303450D02*
D03*
X290750D02*
D03*
X278050D02*
D03*
X265350D02*
D03*
X252650D02*
D03*
X239950D02*
D03*
X227250D02*
D03*
X214550D02*
D03*
X201850D02*
D03*
D14*
X133000Y206500D02*
D03*
Y243500D02*
D03*
X197000Y206500D02*
D03*
Y243500D02*
D03*
X273000Y321500D02*
D03*
Y358500D02*
D03*
X337000Y321500D02*
D03*
Y358500D02*
D03*
D15*
X146500Y154000D02*
D03*
X127500D02*
D03*
D16*
X85500Y412350D02*
Y474300D01*
Y412350D02*
X118000Y379850D01*
Y194000D02*
Y379850D01*
Y194000D02*
X126000Y186000D01*
X313000Y415000D02*
X316150Y418150D01*
Y439000D01*
X239950Y531000D02*
X240000Y531050D01*
Y549000D01*
X237500Y551500D02*
X240000Y549000D01*
X237500Y551500D02*
Y568500D01*
X219500D02*
X237500D01*
X218000Y570000D02*
X219500Y568500D01*
X328000Y367500D02*
Y380000D01*
Y367500D02*
X337000Y358500D01*
X266000Y340000D02*
X345000D01*
X252650Y531000D02*
Y550650D01*
X256500Y554500D01*
Y568500D01*
X257000Y568000D01*
X281000D01*
X345000Y340000D02*
Y341000D01*
X250500Y324500D02*
X266000Y340000D01*
X250500Y296999D02*
Y324500D01*
X258500Y314500D02*
X265500Y321500D01*
X258500Y293686D02*
Y314500D01*
X234000Y269186D02*
X258500Y293686D01*
X234000Y225000D02*
Y269186D01*
X197000Y243500D02*
X250500Y296999D01*
X215500Y206500D02*
X234000Y225000D01*
X273000Y358500D02*
X337000D01*
X273000Y321500D02*
X337000D01*
X133000Y243500D02*
X197000D01*
X265500Y321500D02*
X273000D01*
X197000Y206500D02*
X215500D01*
X133000D02*
X197000D01*
X85500Y474300D02*
Y499700D01*
X126000Y115000D02*
Y186000D01*
D17*
X252650Y418350D02*
X274000Y397000D01*
X265350Y419650D02*
X282000Y403000D01*
X317971D01*
X274000Y397000D02*
X320456D01*
X325456Y402000D01*
X348000D01*
X317971Y403000D02*
X323970Y409000D01*
X354000D01*
X372000Y312000D02*
Y378000D01*
X378000Y309515D02*
Y385000D01*
X365000Y305000D02*
X372000Y312000D01*
X348000Y402000D02*
X372000Y378000D01*
X367485Y299000D02*
X378000Y309515D01*
X354000Y409000D02*
X378000Y385000D01*
X298000Y305000D02*
X365000D01*
X304000Y299000D02*
X367485D01*
X266000Y194500D02*
Y214000D01*
X257000Y223000D02*
X266000Y214000D01*
X257000Y223000D02*
Y236000D01*
X275000Y254000D01*
Y264000D01*
X252650Y418350D02*
Y439000D01*
X257000Y264000D02*
X298000Y305000D01*
X295000Y290000D02*
X304000Y299000D01*
X265350Y419650D02*
Y439000D01*
X295000Y256000D02*
Y290000D01*
X275000Y236000D02*
X295000Y256000D01*
X163000Y273000D02*
Y328000D01*
X214550Y391450D02*
Y439000D01*
Y391450D02*
X231000Y375000D01*
X260000D01*
X261000Y376000D01*
X192000Y367291D02*
Y460000D01*
X186000Y374000D02*
Y464000D01*
X192000Y460000D02*
X202000Y470000D01*
X186000Y464000D02*
X198000Y476000D01*
X166000Y354000D02*
X186000Y374000D01*
X227000Y398000D02*
Y438750D01*
Y398000D02*
X238000Y387000D01*
X227000Y438750D02*
X227250Y439000D01*
X238000Y387000D02*
X241000D01*
X239000Y438050D02*
X239950Y439000D01*
X239000Y408000D02*
Y438050D01*
X137000Y290999D02*
X137001D01*
X139000Y289000D01*
X303000Y439450D02*
X303450Y439000D01*
X303000Y439450D02*
Y465000D01*
X286000Y482000D02*
X303000Y465000D01*
X193000Y482000D02*
X286000D01*
X266000Y470000D02*
X278050Y457950D01*
X202000Y470000D02*
X266000D01*
X278000Y476000D02*
X290750Y463250D01*
X198000Y476000D02*
X278000D01*
X168000Y457000D02*
X193000Y482000D01*
X168000Y374000D02*
Y457000D01*
X290750Y439000D02*
Y463250D01*
X180500Y355790D02*
X192000Y367291D01*
X278050Y439000D02*
Y457950D01*
X180500Y336000D02*
Y355790D01*
X178500Y334000D02*
X180500Y336000D01*
X159000Y334000D02*
X178500D01*
X158000Y333000D02*
X159000Y334000D01*
X158000Y333000D02*
X163000Y328000D01*
X305000Y507000D02*
X316150Y518150D01*
X182000Y507000D02*
X305000D01*
X139000Y464000D02*
X182000Y507000D01*
X139000Y289000D02*
Y464000D01*
D18*
X354500Y321500D02*
Y321500D01*
X337000Y321500D02*
X354500D01*
D19*
X4000Y620000D02*
X78000D01*
X39000Y591000D02*
Y653000D01*
X436000Y591000D02*
Y653000D01*
X401000Y620000D02*
X475000D01*
X254000Y26000D02*
Y88000D01*
X219000Y55000D02*
X293000D01*
D20*
X85500Y499700D02*
D03*
Y474300D02*
D03*
X400500Y487000D02*
D03*
D21*
X146000Y115000D02*
D03*
D22*
X126000D02*
D03*
D23*
X121000Y406000D02*
D03*
X313000Y415000D02*
D03*
X218000Y570000D02*
D03*
X328000Y380000D02*
D03*
X281000Y568000D02*
D03*
X345000Y341000D02*
D03*
X354500Y321500D02*
D03*
X137000Y290999D02*
D03*
X241000Y387000D02*
D03*
X166000Y354000D02*
D03*
X239000Y408000D02*
D03*
X261000Y376000D02*
D03*
X168000Y374000D02*
D03*
X163000Y273000D02*
D03*
X158000Y333000D02*
D03*
M02*
