%FSLAX44Y44*%
%MOMM*%
G71*
G01*
G75*
G04 Layer_Color=2752767*
%ADD10R,1.5000X1.3000*%
%ADD11R,0.9000X1.2000*%
%ADD12R,0.6000X1.3000*%
%ADD13O,0.7000X2.6000*%
G04:AMPARAMS|DCode=14|XSize=1.6mm|YSize=0.9mm|CornerRadius=0.225mm|HoleSize=0mm|Usage=FLASHONLY|Rotation=180.000|XOffset=0mm|YOffset=0mm|HoleType=Round|Shape=RoundedRectangle|*
%AMROUNDEDRECTD14*
21,1,1.6000,0.4500,0,0,180.0*
21,1,1.1500,0.9000,0,0,180.0*
1,1,0.4500,-0.5750,0.2250*
1,1,0.4500,0.5750,0.2250*
1,1,0.4500,0.5750,-0.2250*
1,1,0.4500,-0.5750,-0.2250*
%
%ADD14ROUNDEDRECTD14*%
%ADD15R,1.3000X1.5000*%
%ADD16C,0.5000*%
%ADD17C,0.3000*%
%ADD18C,0.7500*%
%ADD19C,0.2000*%
%ADD20C,2.0000*%
%ADD21C,1.6000*%
%ADD22R,1.6000X1.6000*%
%ADD23C,1.5000*%
%ADD24R,1.5500X0.6000*%
%ADD25R,1.8000X1.2000*%
%ADD26R,2.0000X1.0000*%
%ADD27R,1.0000X2.0000*%
%ADD28C,0.1270*%
%ADD29C,0.1693*%
D28*
X80420Y494620D02*
Y504780D01*
X90580D01*
Y494620D01*
X80420D01*
Y469220D02*
Y479380D01*
X90580D01*
Y469220D01*
X80420D01*
X395420Y481920D02*
Y492080D01*
X405580D01*
Y481920D01*
X395420D01*
X140920Y109920D02*
Y120080D01*
X151080D01*
Y109920D01*
X140920D01*
X120920D02*
Y120080D01*
X131080D01*
Y109920D01*
X120920D01*
X115920Y400920D02*
Y411080D01*
X126080D01*
Y400920D01*
X115920D01*
X307920Y409920D02*
Y420080D01*
X318080D01*
Y409920D01*
X307920D01*
X212920Y564920D02*
Y575080D01*
X223080D01*
Y564920D01*
X212920D01*
X322920Y374920D02*
Y385080D01*
X333080D01*
Y374920D01*
X322920D01*
X275920Y562920D02*
Y573080D01*
X286080D01*
Y562920D01*
X275920D01*
X339920Y335920D02*
Y346080D01*
X350080D01*
Y335920D01*
X339920D01*
X349420Y316420D02*
Y326580D01*
X359580D01*
Y316420D01*
X349420D01*
X131920Y285919D02*
Y296079D01*
X142080D01*
Y285919D01*
X131920D01*
X235920Y381920D02*
Y392080D01*
X246080D01*
Y381920D01*
X235920D01*
X160920Y348920D02*
Y359080D01*
X171080D01*
Y348920D01*
X160920D01*
X233920Y402920D02*
Y413080D01*
X244080D01*
Y402920D01*
X233920D01*
X255920Y370920D02*
Y381080D01*
X266080D01*
Y370920D01*
X255920D01*
X162920Y368920D02*
Y379080D01*
X173080D01*
Y368920D01*
X162920D01*
X157920Y267920D02*
Y278080D01*
X168080D01*
Y267920D01*
X157920D01*
X152920Y327920D02*
Y338080D01*
X163080D01*
Y327920D01*
X152920D01*
D29*
X220080Y330000D02*
G03*
X220080Y330000I-5080J0D01*
G01*
M02*
