%FSLAX44Y44*%
%MOMM*%
G71*
G01*
G75*
G04 Layer_Physical_Order=2*
G04 Layer_Color=16711680*
%ADD10R,1.5000X1.3000*%
%ADD11R,0.9000X1.2000*%
%ADD12R,0.6000X1.3000*%
%ADD13O,0.7000X2.6000*%
G04:AMPARAMS|DCode=14|XSize=1.6mm|YSize=0.9mm|CornerRadius=0.225mm|HoleSize=0mm|Usage=FLASHONLY|Rotation=180.000|XOffset=0mm|YOffset=0mm|HoleType=Round|Shape=RoundedRectangle|*
%AMROUNDEDRECTD14*
21,1,1.6000,0.4500,0,0,180.0*
21,1,1.1500,0.9000,0,0,180.0*
1,1,0.4500,-0.5750,0.2250*
1,1,0.4500,0.5750,0.2250*
1,1,0.4500,0.5750,-0.2250*
1,1,0.4500,-0.5750,-0.2250*
%
%ADD14ROUNDEDRECTD14*%
%ADD15R,1.3000X1.5000*%
%ADD16C,0.5000*%
%ADD17C,0.3000*%
%ADD18C,0.7500*%
%ADD19C,0.2000*%
%ADD20C,2.0000*%
%ADD21C,1.6000*%
%ADD22R,1.6000X1.6000*%
%ADD23C,1.5000*%
%ADD24R,1.5500X0.6000*%
%ADD25R,1.8000X1.2000*%
%ADD26R,2.0000X1.0000*%
%ADD27R,1.0000X2.0000*%
G36*
X287944Y328394D02*
Y317000D01*
X284500D01*
Y301997D01*
X283003D01*
Y300500D01*
X273000D01*
Y287000D01*
X281262D01*
X281748Y285827D01*
X263229Y267308D01*
X262056Y267794D01*
Y295659D01*
X270636Y304239D01*
X271678Y305597D01*
X271755Y305783D01*
X273000Y305535D01*
Y303500D01*
X281500D01*
Y317000D01*
X273000D01*
D01*
X273000D01*
X272556Y317444D01*
Y342123D01*
X273729Y342609D01*
X287944Y328394D01*
D02*
G37*
G36*
X79732Y460375D02*
X82559Y459517D01*
X85500Y459228D01*
X87859Y459460D01*
X139559Y407760D01*
X139559Y407760D01*
X139559D01*
X139559Y407759D01*
X139560D01*
X139560Y407759D01*
Y407759D01*
Y407759D01*
D01*
D01*
X139560D01*
Y407759D01*
X141387Y406357D01*
X142435Y405923D01*
Y372133D01*
X140867Y370565D01*
X139000D01*
X137042Y370307D01*
X135218Y369551D01*
X133900Y368540D01*
X128710D01*
Y357460D01*
Y347460D01*
Y337460D01*
Y327460D01*
Y317460D01*
Y314500D01*
X139003D01*
Y313003D01*
X140500D01*
Y307460D01*
X146694D01*
Y306216D01*
X142662Y302184D01*
X140263Y303178D01*
X137000Y303607D01*
X133737Y303178D01*
X130696Y301918D01*
X128085Y299914D01*
X126243Y297514D01*
X125040Y297922D01*
Y298500D01*
X115000D01*
Y291460D01*
X123988D01*
X124392Y290999D01*
X124822Y287736D01*
X126081Y284695D01*
X128085Y282084D01*
X130696Y280081D01*
X133737Y278821D01*
X137000Y278392D01*
X137489Y278456D01*
X138444Y277619D01*
Y219000D01*
X138667Y217303D01*
X138995Y216513D01*
X139322Y215722D01*
X140364Y214364D01*
X147364Y207364D01*
X148722Y206322D01*
X150303Y205667D01*
X152000Y205444D01*
X152000Y205444D01*
X168000D01*
Y202000D01*
Y182000D01*
Y162000D01*
Y142000D01*
Y122000D01*
D01*
X168000Y122000D01*
X168000Y122000D01*
D01*
D01*
Y122000D01*
X168000D01*
D01*
Y113500D01*
X198000D01*
Y122000D01*
D01*
Y122000D01*
X198000Y122000D01*
Y122000D01*
X198000D01*
D01*
Y142000D01*
Y145444D01*
X221000D01*
X222697Y145667D01*
X223352Y145939D01*
X224278Y146322D01*
X225636Y147364D01*
X266136Y187864D01*
X267178Y189222D01*
X267178Y189222D01*
X267178Y189222D01*
X267833Y190803D01*
X268056Y192500D01*
Y253591D01*
X281827Y267362D01*
X283000Y266877D01*
Y117000D01*
X284500D01*
Y101997D01*
X283003D01*
Y100500D01*
X273000D01*
Y102000D01*
X198000D01*
Y110500D01*
X168000D01*
Y102000D01*
X104000D01*
X103000Y103000D01*
Y291460D01*
X112000D01*
Y299997D01*
Y308540D01*
X103000D01*
Y367460D01*
X112000D01*
Y375997D01*
Y384540D01*
X101960D01*
Y383000D01*
X79000D01*
X79000Y383000D01*
X79000Y383000D01*
X78000Y383414D01*
Y460066D01*
X79089Y460718D01*
X79732Y460375D01*
D02*
G37*
%LPC*%
G36*
X156434Y113500D02*
X147500D01*
Y104567D01*
X148752Y104731D01*
X151316Y105793D01*
X153517Y107483D01*
X155207Y109685D01*
X156269Y112248D01*
X156434Y113500D01*
D02*
G37*
G36*
X147500Y125434D02*
Y116500D01*
X156434D01*
X156269Y117752D01*
X155207Y120316D01*
X153517Y122517D01*
X151316Y124207D01*
X148752Y125269D01*
X147500Y125434D01*
D02*
G37*
G36*
X281500Y117000D02*
X273000D01*
Y103500D01*
X281500D01*
Y117000D01*
D02*
G37*
G36*
X136540Y125540D02*
X115460D01*
Y104460D01*
X136540D01*
Y108039D01*
X137743Y108447D01*
X138483Y107483D01*
X140685Y105793D01*
X143249Y104731D01*
X144500Y104567D01*
Y114998D01*
Y125434D01*
X143249Y125269D01*
X140685Y124207D01*
X138483Y122517D01*
X137743Y121553D01*
X136540Y121961D01*
Y125540D01*
D02*
G37*
G36*
X125040Y374500D02*
X115000D01*
Y367460D01*
X125040D01*
Y374500D01*
D02*
G37*
G36*
X137500Y311500D02*
X128710D01*
Y307460D01*
X137500D01*
Y311500D01*
D02*
G37*
G36*
X125040Y308540D02*
X115000D01*
Y301500D01*
X125040D01*
Y308540D01*
D02*
G37*
G36*
Y384540D02*
X115000D01*
Y377500D01*
X125040D01*
Y384540D01*
D02*
G37*
%LPD*%
D16*
X182972Y414000D02*
X199972Y431000D01*
X297000D01*
X313000Y415000D01*
X218000Y570000D02*
X255000D01*
X328000Y497000D01*
Y380000D02*
Y497000D01*
X281000Y568000D02*
X345000Y504000D01*
Y341000D02*
Y504000D01*
X150000Y369000D02*
Y414000D01*
X144000Y363000D02*
X150000Y369000D01*
X139000Y363000D02*
X144000D01*
D17*
X163000Y273000D02*
X164000Y272000D01*
X147000Y353000D02*
X168000Y374000D01*
X139000Y353000D02*
X147000D01*
X246000Y362639D02*
X260000Y348639D01*
X246000Y362639D02*
Y364667D01*
X229000Y381667D02*
X246000Y364667D01*
X249000Y371030D02*
Y384000D01*
Y371030D02*
X252000Y368029D01*
Y365125D02*
Y368029D01*
Y365125D02*
X266000Y351125D01*
Y308875D02*
Y351125D01*
X229000Y381667D02*
Y391970D01*
X246000Y387000D02*
X249000Y384000D01*
X258000Y367610D02*
X294500Y331110D01*
X258000Y367610D02*
Y379000D01*
X255500Y298375D02*
X266000Y308875D01*
X260000Y311360D02*
Y348639D01*
X249500Y300860D02*
X260000Y311360D01*
X249500Y300500D02*
Y300860D01*
X178000Y327545D02*
Y358971D01*
X170000Y328030D02*
Y337971D01*
X162500Y320530D02*
X170000Y328030D01*
X201000Y252000D02*
X249500Y300500D01*
X183000Y252000D02*
X201000D01*
X162000Y354000D02*
X166000D01*
X239000Y401970D02*
Y408000D01*
X229000Y391970D02*
X239000Y401970D01*
X258000Y379000D02*
X261000Y376000D01*
X241000Y387000D02*
X246000D01*
X137000Y290999D02*
X137001D01*
X139000Y289000D01*
X164000Y272000D02*
X183000D01*
X183000Y232000D02*
X183000Y232000D01*
X168000Y368971D02*
X178000Y358971D01*
X168000Y368971D02*
Y374000D01*
X139000Y289000D02*
Y289250D01*
Y333000D02*
X158000D01*
X139500Y322500D02*
X149443D01*
X139000Y323000D02*
X139500Y322500D01*
X168500Y318044D02*
X178000Y327545D01*
X183000Y152000D02*
X221000D01*
X139000Y289250D02*
X153250Y303500D01*
Y318693D01*
X149443Y322500D02*
X153250Y318693D01*
X139000Y343000D02*
X151000D01*
X162000Y354000D01*
X166000Y341970D02*
Y354000D01*
Y341970D02*
X170000Y337971D01*
X168500Y295470D02*
Y318044D01*
X151000Y277971D02*
X168500Y295470D01*
X162500Y297956D02*
Y320530D01*
X145000Y280456D02*
X162500Y297956D01*
X145000Y219000D02*
Y280456D01*
Y219000D02*
X152000Y212000D01*
X151000Y239000D02*
Y277971D01*
X152000Y212000D02*
X152000Y212000D01*
X158000Y232000D02*
X183000D01*
X151000Y239000D02*
X158000Y232000D01*
X152000Y212000D02*
X183000D01*
X294500Y289307D02*
Y331110D01*
X221000Y152000D02*
X261500Y192500D01*
Y256307D01*
X294500Y289307D01*
X243000Y251000D02*
X264000Y272000D01*
X235000Y254314D02*
X255500Y274813D01*
Y298375D01*
X235000Y221000D02*
Y254314D01*
X243000Y208000D02*
Y251000D01*
X217000Y182000D02*
X243000Y208000D01*
X197192Y182000D02*
X217000D01*
X197192Y182000D02*
X197192Y182000D01*
X206000Y192000D02*
X235000Y221000D01*
X183000Y192000D02*
X206000D01*
X168000Y182000D02*
X197192D01*
D18*
X354500Y351653D02*
Y441000D01*
Y351653D02*
X359250Y346903D01*
Y335098D02*
Y346903D01*
X354500Y330347D02*
X359250Y335098D01*
X354500Y321500D02*
Y330347D01*
Y441000D02*
X400500Y487000D01*
X150000Y414000D02*
X182972D01*
X145800D02*
X150000D01*
X182972D02*
X251750Y345222D01*
X85500Y474300D02*
Y499700D01*
Y474300D02*
X145800Y414000D01*
X230222Y293250D02*
X251750Y314778D01*
Y345222D01*
X184250Y293250D02*
X230222D01*
X183000Y292000D02*
X184250Y293250D01*
D19*
X4000Y620000D02*
X78000D01*
X39000Y591000D02*
Y653000D01*
X436000Y591000D02*
Y653000D01*
X401000Y620000D02*
X475000D01*
X254000Y26000D02*
Y88000D01*
X219000Y55000D02*
X293000D01*
D20*
X85500Y499700D02*
D03*
Y474300D02*
D03*
X400500Y487000D02*
D03*
D21*
X146000Y115000D02*
D03*
D22*
X126000D02*
D03*
D23*
X121000Y406000D02*
D03*
X313000Y415000D02*
D03*
X218000Y570000D02*
D03*
X328000Y380000D02*
D03*
X281000Y568000D02*
D03*
X345000Y341000D02*
D03*
X354500Y321500D02*
D03*
X137000Y290999D02*
D03*
X241000Y387000D02*
D03*
X166000Y354000D02*
D03*
X239000Y408000D02*
D03*
X261000Y376000D02*
D03*
X168000Y374000D02*
D03*
X163000Y273000D02*
D03*
X158000Y333000D02*
D03*
D24*
X139000D02*
D03*
Y343000D02*
D03*
Y353000D02*
D03*
Y363000D02*
D03*
Y313000D02*
D03*
Y323000D02*
D03*
D25*
X113500Y376000D02*
D03*
Y300000D02*
D03*
D26*
X183000Y132000D02*
D03*
Y292000D02*
D03*
Y212000D02*
D03*
Y232000D02*
D03*
Y252000D02*
D03*
Y272000D02*
D03*
Y152000D02*
D03*
Y172000D02*
D03*
Y192000D02*
D03*
Y112000D02*
D03*
D27*
X283000Y302000D02*
D03*
Y102000D02*
D03*
M02*
