%FSLAX44Y44*%
%MOMM*%
G71*
G01*
G75*
G04 Layer_Color=16711935*
%ADD10C,0.2000*%
%ADD11R,1.7032X1.5032*%
%ADD12R,1.1032X1.4032*%
%ADD13R,0.8032X1.5032*%
%ADD14O,0.9032X2.8032*%
G04:AMPARAMS|DCode=15|XSize=1.8032mm|YSize=1.1032mm|CornerRadius=0.3266mm|HoleSize=0mm|Usage=FLASHONLY|Rotation=180.000|XOffset=0mm|YOffset=0mm|HoleType=Round|Shape=RoundedRectangle|*
%AMROUNDEDRECTD15*
21,1,1.8032,0.4500,0,0,180.0*
21,1,1.1500,1.1032,0,0,180.0*
1,1,0.6532,-0.5750,0.2250*
1,1,0.6532,0.5750,0.2250*
1,1,0.6532,0.5750,-0.2250*
1,1,0.6532,-0.5750,-0.2250*
%
%ADD15ROUNDEDRECTD15*%
%ADD16R,1.5032X1.7032*%
%ADD17C,2.2032*%
%ADD18C,0.2032*%
%ADD19C,1.8032*%
%ADD20R,1.8032X1.8032*%
%ADD21C,1.7032*%
%ADD22R,1.7532X0.8032*%
%ADD23R,2.0032X1.4032*%
%ADD24R,2.2032X1.2032*%
%ADD25R,1.2032X2.2032*%
D10*
X4000Y620000D02*
X78000D01*
X39000Y591000D02*
Y653000D01*
X436000Y591000D02*
Y653000D01*
X401000Y620000D02*
X475000D01*
X254000Y26000D02*
Y88000D01*
X219000Y55000D02*
X293000D01*
D17*
X85500Y499700D02*
D03*
Y474300D02*
D03*
X400500Y487000D02*
D03*
D18*
X215000Y330000D02*
D03*
D19*
X146000Y115000D02*
D03*
D20*
X126000D02*
D03*
D21*
X121000Y406000D02*
D03*
X313000Y415000D02*
D03*
X218000Y570000D02*
D03*
X328000Y380000D02*
D03*
X281000Y568000D02*
D03*
X345000Y341000D02*
D03*
X354500Y321500D02*
D03*
X137000Y290999D02*
D03*
X241000Y387000D02*
D03*
X166000Y354000D02*
D03*
X239000Y408000D02*
D03*
X261000Y376000D02*
D03*
X168000Y374000D02*
D03*
X163000Y273000D02*
D03*
X158000Y333000D02*
D03*
D22*
X139000D02*
D03*
Y343000D02*
D03*
Y353000D02*
D03*
Y363000D02*
D03*
Y313000D02*
D03*
Y323000D02*
D03*
D23*
X113500Y376000D02*
D03*
Y300000D02*
D03*
D24*
X183000Y132000D02*
D03*
Y292000D02*
D03*
Y212000D02*
D03*
Y232000D02*
D03*
Y252000D02*
D03*
Y272000D02*
D03*
Y152000D02*
D03*
Y172000D02*
D03*
Y192000D02*
D03*
Y112000D02*
D03*
D25*
X283000Y302000D02*
D03*
Y102000D02*
D03*
M02*
