%FSLAX44Y44*%
%MOMM*%
G71*
G01*
G75*
G04 Layer_Color=8388736*
%ADD10R,1.2000X2.0000*%
%ADD11R,1.4000X1.2000*%
%ADD12R,1.2200X0.9100*%
%ADD13R,0.9100X1.2200*%
%ADD14R,0.9000X0.6000*%
%ADD15R,0.6000X0.9000*%
%ADD16R,0.8000X2.6000*%
%ADD17R,2.6000X0.8000*%
%ADD18R,1.0000X1.0000*%
%ADD19R,1.0000X1.0000*%
%ADD20R,1.5000X1.3000*%
%ADD21R,1.3000X1.5000*%
%ADD22R,0.8000X0.9000*%
%ADD23R,0.9000X0.8000*%
%ADD24R,1.7000X3.5000*%
%ADD25R,7.7000X5.5500*%
%ADD26R,2.2000X1.0000*%
%ADD27R,1.1000X2.6000*%
%ADD28O,0.3000X2.1000*%
%ADD29O,2.1000X0.3000*%
%ADD30O,1.7000X0.4500*%
%ADD31R,2.4000X3.3000*%
%ADD32R,2.4000X1.0000*%
%ADD33R,5.5500X7.7000*%
%ADD34R,1.0000X2.2000*%
%ADD35C,0.5000*%
%ADD36C,0.3000*%
%ADD37C,0.7500*%
%ADD38C,1.0000*%
%ADD39C,1.5000*%
%ADD40C,0.8000*%
%ADD41C,3.5000*%
%ADD42C,3.0000*%
%ADD43C,5.0000*%
%ADD44C,1.2500*%
%ADD45C,2.5000*%
%ADD46C,1.6000*%
%ADD47C,2.0000*%
%ADD48R,2.0000X2.0000*%
%ADD49R,2.5000X2.5000*%
%ADD50R,2.5000X2.5000*%
%ADD51C,3.5000*%
%ADD52C,3.0000*%
%ADD53C,2.8000*%
%ADD54O,3.5000X3.2000*%
%ADD55C,1.5000*%
%ADD56R,1.5000X1.5000*%
%ADD57C,0.8000*%
%ADD58C,1.0000*%
%ADD59R,3.1000X5.6000*%
%ADD60R,1.0000X3.0000*%
%ADD61R,1.5000X4.0000*%
%ADD62R,1.5000X0.7000*%
%ADD63R,1.7000X1.7000*%
%ADD64R,1.1000X3.5000*%
%ADD65R,10.5000X8.6000*%
%ADD66R,1.0000X2.0000*%
%ADD67R,2.0000X1.0000*%
G04:AMPARAMS|DCode=68|XSize=2.2mm|YSize=0.6mm|CornerRadius=0.15mm|HoleSize=0mm|Usage=FLASHONLY|Rotation=180.000|XOffset=0mm|YOffset=0mm|HoleType=Round|Shape=RoundedRectangle|*
%AMROUNDEDRECTD68*
21,1,2.2000,0.3000,0,0,180.0*
21,1,1.9000,0.6000,0,0,180.0*
1,1,0.3000,-0.9500,0.1500*
1,1,0.3000,0.9500,0.1500*
1,1,0.3000,0.9500,-0.1500*
1,1,0.3000,-0.9500,-0.1500*
%
%ADD68ROUNDEDRECTD68*%
%ADD69R,10.5000X8.4000*%
%ADD70R,1.0500X3.3000*%
%ADD71C,2.0000*%
%ADD72R,1.6000X2.4000*%
%ADD73R,1.8000X1.6000*%
%ADD74R,1.6200X1.3100*%
%ADD75R,1.3100X1.6200*%
%ADD76R,1.3000X1.0000*%
%ADD77R,1.0000X1.3000*%
%ADD78R,1.2000X3.0000*%
%ADD79R,3.0000X1.2000*%
%ADD80R,1.4000X1.4000*%
%ADD81R,1.4000X1.4000*%
%ADD82R,1.9000X1.7000*%
%ADD83R,1.7000X1.9000*%
%ADD84R,1.2000X1.3000*%
%ADD85R,1.3000X1.2000*%
%ADD86R,2.1000X3.9000*%
%ADD87R,8.1000X5.9500*%
%ADD88R,2.6000X1.4000*%
%ADD89R,1.5000X3.0000*%
%ADD90O,0.7000X2.5000*%
%ADD91O,2.5000X0.7000*%
%ADD92O,2.1000X0.8500*%
%ADD93R,2.8000X3.7000*%
%ADD94R,2.8000X1.4000*%
%ADD95R,5.9500X8.1000*%
%ADD96R,1.4000X2.6000*%
%ADD97C,2.9000*%
%ADD98C,2.0000*%
%ADD99C,2.4000*%
%ADD100R,2.4000X2.4000*%
%ADD101R,2.9000X2.9000*%
%ADD102R,2.9000X2.9000*%
%ADD103C,3.9000*%
%ADD104C,3.4000*%
%ADD105C,3.2000*%
%ADD106O,3.9000X3.6000*%
%ADD107O,0.4000X3.6000*%
%ADD108C,0.4000*%
%ADD109C,1.9000*%
%ADD110R,1.9000X1.9000*%
D72*
X825300Y430000D02*
D03*
X850700D02*
D03*
X876100D02*
D03*
Y178000D02*
D03*
X850700D02*
D03*
X825300D02*
D03*
X1017300Y430000D02*
D03*
X1042700D02*
D03*
X1068100D02*
D03*
Y178000D02*
D03*
X1042700D02*
D03*
X1017300D02*
D03*
X1209300Y430000D02*
D03*
X1234700D02*
D03*
X1260100D02*
D03*
Y178000D02*
D03*
X1234700D02*
D03*
X1209300D02*
D03*
D73*
X927000Y625500D02*
D03*
X899000D02*
D03*
Y608500D02*
D03*
X927000D02*
D03*
D74*
X151000Y965350D02*
D03*
Y932650D02*
D03*
X467000Y736650D02*
D03*
Y769350D02*
D03*
X152000Y855350D02*
D03*
Y822650D02*
D03*
X327000Y806350D02*
D03*
Y773650D02*
D03*
X347000Y792650D02*
D03*
Y825350D02*
D03*
X305000Y566650D02*
D03*
Y599350D02*
D03*
X427500Y566150D02*
D03*
Y598850D02*
D03*
X189000Y262350D02*
D03*
Y229650D02*
D03*
X639000Y373350D02*
D03*
Y340650D02*
D03*
D75*
X258350Y494000D02*
D03*
X225650D02*
D03*
X452650Y488000D02*
D03*
X485350D02*
D03*
X331650D02*
D03*
X364350D02*
D03*
X384350Y422000D02*
D03*
X351650D02*
D03*
X524350D02*
D03*
X491650D02*
D03*
X666350D02*
D03*
X633650D02*
D03*
D76*
X1417500Y731000D02*
D03*
Y721000D02*
D03*
Y711000D02*
D03*
Y701000D02*
D03*
Y691000D02*
D03*
Y681000D02*
D03*
Y671000D02*
D03*
Y661000D02*
D03*
X1300500D02*
D03*
Y671000D02*
D03*
Y681000D02*
D03*
Y691000D02*
D03*
Y701000D02*
D03*
Y711000D02*
D03*
Y721000D02*
D03*
Y731000D02*
D03*
D77*
X1419000Y650500D02*
D03*
X1409000D02*
D03*
X1399000D02*
D03*
X1389000D02*
D03*
X1379000D02*
D03*
X1369000D02*
D03*
X1359000D02*
D03*
X1349000D02*
D03*
X1339000D02*
D03*
X1329000D02*
D03*
X1319000D02*
D03*
X1309000D02*
D03*
X1419000Y741500D02*
D03*
X1409000D02*
D03*
X1399000D02*
D03*
X1389000D02*
D03*
X1379000D02*
D03*
X1369000D02*
D03*
X1359000D02*
D03*
X1349000D02*
D03*
X1339000D02*
D03*
X1329000D02*
D03*
X1319000D02*
D03*
X1309000D02*
D03*
D78*
X1009000Y1017550D02*
D03*
Y1060950D02*
D03*
D79*
X986250Y1026550D02*
D03*
Y1039250D02*
D03*
Y1051950D02*
D03*
X1031750D02*
D03*
Y1039250D02*
D03*
Y1026550D02*
D03*
D80*
X758500Y1053500D02*
D03*
X768000Y1028000D02*
D03*
X749000D02*
D03*
X214500Y1009500D02*
D03*
X224000Y984000D02*
D03*
X205000D02*
D03*
X146500Y893500D02*
D03*
X137000Y919000D02*
D03*
X156000D02*
D03*
X497500Y768500D02*
D03*
X507000Y743000D02*
D03*
X488000D02*
D03*
X146500Y781500D02*
D03*
X137000Y807000D02*
D03*
X156000D02*
D03*
X413500Y835500D02*
D03*
X423000Y810000D02*
D03*
X404000D02*
D03*
X394500Y771500D02*
D03*
X385000Y797000D02*
D03*
X404000D02*
D03*
X455500Y596500D02*
D03*
X465000Y571000D02*
D03*
X446000D02*
D03*
X333500Y596500D02*
D03*
X343000Y571000D02*
D03*
X324000D02*
D03*
X687500Y322500D02*
D03*
X678000Y348000D02*
D03*
X697000D02*
D03*
X452500Y503500D02*
D03*
X443000Y529000D02*
D03*
X462000D02*
D03*
X331500Y503500D02*
D03*
X322000Y529000D02*
D03*
X341000D02*
D03*
X405500Y412500D02*
D03*
X415000Y387000D02*
D03*
X396000D02*
D03*
X546500Y412500D02*
D03*
X556000Y387000D02*
D03*
X537000D02*
D03*
X687500Y412500D02*
D03*
X697000Y387000D02*
D03*
X678000D02*
D03*
D81*
X243500Y521500D02*
D03*
X269000Y531000D02*
D03*
Y512000D02*
D03*
X435500Y901500D02*
D03*
X461000Y911000D02*
D03*
Y892000D02*
D03*
X435500Y859500D02*
D03*
X461000Y869000D02*
D03*
Y850000D02*
D03*
X436500Y710500D02*
D03*
X462000Y720000D02*
D03*
Y701000D02*
D03*
D82*
X173000Y953500D02*
D03*
Y934500D02*
D03*
Y915500D02*
D03*
Y896500D02*
D03*
X416000Y852500D02*
D03*
Y871500D02*
D03*
Y890500D02*
D03*
Y909500D02*
D03*
X173000Y841500D02*
D03*
Y822500D02*
D03*
Y803500D02*
D03*
Y784500D02*
D03*
X208000Y478500D02*
D03*
Y497500D02*
D03*
X420000Y692500D02*
D03*
Y711500D02*
D03*
Y730500D02*
D03*
Y749500D02*
D03*
X640000Y283500D02*
D03*
Y302500D02*
D03*
D83*
X484500Y786000D02*
D03*
X503500D02*
D03*
X445500D02*
D03*
X464500D02*
D03*
X414500Y931000D02*
D03*
X433500D02*
D03*
Y953000D02*
D03*
X414500D02*
D03*
X288500Y821000D02*
D03*
X307500D02*
D03*
X367500Y819000D02*
D03*
X386500D02*
D03*
X348500Y774000D02*
D03*
X367500D02*
D03*
X287500D02*
D03*
X306500D02*
D03*
X409000Y615500D02*
D03*
X428000D02*
D03*
X447000D02*
D03*
X466000D02*
D03*
X266500Y182000D02*
D03*
X247500D02*
D03*
X329500Y616000D02*
D03*
X348500D02*
D03*
X289500D02*
D03*
X308500D02*
D03*
X226500Y182000D02*
D03*
X207500D02*
D03*
X208500Y518000D02*
D03*
X227500D02*
D03*
X639500Y323000D02*
D03*
X658500D02*
D03*
X1351500Y1019000D02*
D03*
X1332500D02*
D03*
X1351500Y1040000D02*
D03*
X1332500D02*
D03*
D84*
X618000Y960000D02*
D03*
X632000D02*
D03*
X770000Y1059000D02*
D03*
X784000D02*
D03*
X555750Y881750D02*
D03*
X569750D02*
D03*
X499000Y891000D02*
D03*
X485000D02*
D03*
X496000Y849000D02*
D03*
X482000D02*
D03*
X463000Y543000D02*
D03*
X449000D02*
D03*
X341000D02*
D03*
X327000D02*
D03*
X488000D02*
D03*
X474000D02*
D03*
X500000Y700750D02*
D03*
X486000D02*
D03*
X367000Y543000D02*
D03*
X353000D02*
D03*
X395000Y375000D02*
D03*
X409000D02*
D03*
X536000D02*
D03*
X550000D02*
D03*
X677000D02*
D03*
X691000D02*
D03*
X1273000Y701000D02*
D03*
X1287000D02*
D03*
X569750Y829000D02*
D03*
X555750D02*
D03*
X619000Y909000D02*
D03*
X633000D02*
D03*
X593000Y960000D02*
D03*
X607000D02*
D03*
X891000Y815000D02*
D03*
X905000D02*
D03*
X896000Y653000D02*
D03*
X882000D02*
D03*
X973000Y651000D02*
D03*
X959000D02*
D03*
X914000Y594000D02*
D03*
X900000D02*
D03*
X158000Y878000D02*
D03*
X172000D02*
D03*
X157000Y766000D02*
D03*
X171000D02*
D03*
D85*
X758000Y1080000D02*
D03*
Y1066000D02*
D03*
X238000Y1009000D02*
D03*
Y995000D02*
D03*
X252000Y995000D02*
D03*
Y1009000D02*
D03*
X666000Y913000D02*
D03*
Y927000D02*
D03*
X927000Y651000D02*
D03*
Y637000D02*
D03*
X963000Y999500D02*
D03*
Y1013500D02*
D03*
X1056000Y1000000D02*
D03*
Y1014000D02*
D03*
X1056000Y1040000D02*
D03*
Y1026000D02*
D03*
X963000Y1039500D02*
D03*
Y1025500D02*
D03*
X473000Y891000D02*
D03*
Y905000D02*
D03*
X472000Y849000D02*
D03*
Y863000D02*
D03*
X474000Y701000D02*
D03*
Y715000D02*
D03*
X382000Y400000D02*
D03*
Y386000D02*
D03*
X523000Y400000D02*
D03*
Y386000D02*
D03*
X664000Y401000D02*
D03*
Y387000D02*
D03*
X1347000Y622000D02*
D03*
Y636000D02*
D03*
X1359000Y622000D02*
D03*
Y636000D02*
D03*
X598500Y835500D02*
D03*
Y849500D02*
D03*
X489000Y940000D02*
D03*
Y926000D02*
D03*
X666000Y952000D02*
D03*
Y938000D02*
D03*
X1379000Y981750D02*
D03*
Y995750D02*
D03*
X1026000Y778000D02*
D03*
Y764000D02*
D03*
Y707000D02*
D03*
Y693000D02*
D03*
X859000Y685000D02*
D03*
Y699000D02*
D03*
X941000Y651000D02*
D03*
Y637000D02*
D03*
X942000Y609000D02*
D03*
Y623000D02*
D03*
X1009000Y994000D02*
D03*
Y980000D02*
D03*
X524000Y770000D02*
D03*
Y784000D02*
D03*
X436000Y822000D02*
D03*
Y836000D02*
D03*
X419000Y785000D02*
D03*
Y771000D02*
D03*
X479500Y578500D02*
D03*
Y592500D02*
D03*
X358000Y578000D02*
D03*
Y592000D02*
D03*
X231000Y551000D02*
D03*
Y537000D02*
D03*
X661000Y354000D02*
D03*
Y340000D02*
D03*
X1332000Y772000D02*
D03*
Y758000D02*
D03*
X1301000Y772000D02*
D03*
Y758000D02*
D03*
X1314000Y772000D02*
D03*
Y758000D02*
D03*
X1345000Y772000D02*
D03*
Y758000D02*
D03*
X1377000Y772000D02*
D03*
Y758000D02*
D03*
X1364000Y772000D02*
D03*
Y758000D02*
D03*
D86*
X562500Y1079000D02*
D03*
X497500D02*
D03*
X666500Y1080000D02*
D03*
X731500D02*
D03*
X293500Y1055000D02*
D03*
X358500D02*
D03*
X562500Y1017000D02*
D03*
X497500D02*
D03*
D87*
X325000Y871000D02*
D03*
X329000Y723000D02*
D03*
X325000Y950000D02*
D03*
D88*
X388500Y893800D02*
D03*
Y848200D02*
D03*
X392500Y745800D02*
D03*
Y700200D02*
D03*
X388500Y972800D02*
D03*
Y927200D02*
D03*
D89*
X903500Y846000D02*
D03*
X876500D02*
D03*
D90*
X902500Y678000D02*
D03*
X907500D02*
D03*
X912500D02*
D03*
X917500D02*
D03*
X922500D02*
D03*
X927500D02*
D03*
X932500D02*
D03*
X937500D02*
D03*
X942500D02*
D03*
X947500D02*
D03*
X952500D02*
D03*
X957500D02*
D03*
X962500D02*
D03*
X967500D02*
D03*
X972500D02*
D03*
X977500D02*
D03*
Y790000D02*
D03*
X972500D02*
D03*
X967500D02*
D03*
X962500D02*
D03*
X957500D02*
D03*
X952500D02*
D03*
X947500D02*
D03*
X942500D02*
D03*
X937500D02*
D03*
X932500D02*
D03*
X927500D02*
D03*
X922500D02*
D03*
X917500D02*
D03*
X912500D02*
D03*
X907500D02*
D03*
X902500D02*
D03*
D91*
X996000Y696500D02*
D03*
Y701500D02*
D03*
Y706500D02*
D03*
Y711500D02*
D03*
Y716500D02*
D03*
Y721500D02*
D03*
Y726500D02*
D03*
Y731500D02*
D03*
Y736500D02*
D03*
Y741500D02*
D03*
Y746500D02*
D03*
Y751500D02*
D03*
Y756500D02*
D03*
Y761500D02*
D03*
Y766500D02*
D03*
Y771500D02*
D03*
X884000D02*
D03*
Y766500D02*
D03*
Y761500D02*
D03*
Y756500D02*
D03*
Y751500D02*
D03*
Y746500D02*
D03*
Y741500D02*
D03*
Y736500D02*
D03*
Y731500D02*
D03*
Y726500D02*
D03*
Y721500D02*
D03*
Y716500D02*
D03*
Y711500D02*
D03*
Y706500D02*
D03*
Y701500D02*
D03*
Y696500D02*
D03*
D92*
X539000Y864750D02*
D03*
Y858250D02*
D03*
Y851750D02*
D03*
Y845250D02*
D03*
X581000Y864750D02*
D03*
Y858250D02*
D03*
Y851750D02*
D03*
Y845250D02*
D03*
X605000Y944750D02*
D03*
Y938250D02*
D03*
Y931750D02*
D03*
Y925250D02*
D03*
X647000Y944750D02*
D03*
Y938250D02*
D03*
Y931750D02*
D03*
Y925250D02*
D03*
D93*
X569000Y947000D02*
D03*
D94*
X511000Y924000D02*
D03*
Y947000D02*
D03*
Y970000D02*
D03*
D95*
X240000Y273000D02*
D03*
D96*
X262800Y209500D02*
D03*
X217200D02*
D03*
D97*
X784000Y1081000D02*
D03*
X584000D02*
D03*
X811000Y1079000D02*
D03*
X846000D02*
D03*
X646000Y1002000D02*
D03*
X470000Y1078000D02*
D03*
X1452000Y965000D02*
D03*
Y1015000D02*
D03*
X1427000Y990000D02*
D03*
X1402000Y965000D02*
D03*
Y1015000D02*
D03*
X1452000Y227000D02*
D03*
Y277000D02*
D03*
X1427000Y252000D02*
D03*
X1402000Y227000D02*
D03*
Y277000D02*
D03*
X1451000Y797000D02*
D03*
Y847000D02*
D03*
X1426000Y822000D02*
D03*
X1401000Y797000D02*
D03*
Y847000D02*
D03*
D98*
X764200Y991700D02*
D03*
Y966300D02*
D03*
X789600Y991700D02*
D03*
Y966300D02*
D03*
X815000Y991700D02*
D03*
X840400D02*
D03*
Y966300D02*
D03*
X865800Y991700D02*
D03*
Y966300D02*
D03*
D99*
X242000Y1073500D02*
D03*
D100*
Y1048500D02*
D03*
D101*
X596000Y1002000D02*
D03*
D102*
X470000Y1028000D02*
D03*
D103*
X406080Y436296D02*
D03*
X331080D02*
D03*
Y233296D02*
D03*
X406080D02*
D03*
Y283696D02*
D03*
X331080D02*
D03*
Y182896D02*
D03*
X406080D02*
D03*
X545780Y436296D02*
D03*
X470780D02*
D03*
Y233296D02*
D03*
X545780D02*
D03*
Y283696D02*
D03*
X470780D02*
D03*
Y182896D02*
D03*
X545780D02*
D03*
X686750Y436296D02*
D03*
X611750D02*
D03*
Y233296D02*
D03*
X686750D02*
D03*
Y283696D02*
D03*
X611750D02*
D03*
Y182896D02*
D03*
X686750D02*
D03*
D104*
X507200Y666000D02*
D03*
X431000D02*
D03*
X507200Y589800D02*
D03*
Y488200D02*
D03*
X431000D02*
D03*
X386200Y666000D02*
D03*
X310000D02*
D03*
X386200Y589800D02*
D03*
Y488200D02*
D03*
X310000D02*
D03*
D105*
X203500Y617000D02*
D03*
Y659000D02*
D03*
Y701000D02*
D03*
Y869000D02*
D03*
Y911000D02*
D03*
Y953000D02*
D03*
X258500D02*
D03*
Y617000D02*
D03*
Y659000D02*
D03*
Y701000D02*
D03*
Y911000D02*
D03*
Y869000D02*
D03*
Y827000D02*
D03*
X203500D02*
D03*
X258500Y785000D02*
D03*
X203500D02*
D03*
X258500Y743000D02*
D03*
X203500D02*
D03*
X161500Y572000D02*
D03*
Y998000D02*
D03*
D106*
X258500Y450000D02*
D03*
X203500D02*
D03*
X258500Y408000D02*
D03*
X203500D02*
D03*
X258500Y366000D02*
D03*
X203500D02*
D03*
D107*
X161500Y320000D02*
D03*
Y496000D02*
D03*
D108*
X1417800Y558000D02*
D03*
X1190000Y808000D02*
D03*
D109*
Y858000D02*
D03*
X1215400D02*
D03*
X1240800D02*
D03*
X1266200D02*
D03*
X1291600D02*
D03*
X1317000D02*
D03*
X1342400D02*
D03*
X1367800Y507750D02*
D03*
X1342400D02*
D03*
X1317000D02*
D03*
X1291600D02*
D03*
X1266200D02*
D03*
X1240800D02*
D03*
X1215400D02*
D03*
D110*
X1367800Y858000D02*
D03*
X1190000Y507750D02*
D03*
M02*
