%FSLAX44Y44*%
%MOMM*%
G71*
G01*
G75*
G04 Layer_Physical_Order=2*
G04 Layer_Color=16711680*
%ADD10R,1.2000X2.0000*%
%ADD11R,1.4000X1.2000*%
%ADD12R,1.2200X0.9100*%
%ADD13R,0.9100X1.2200*%
%ADD14R,0.9000X0.6000*%
%ADD15R,0.6000X0.9000*%
%ADD16R,0.8000X2.6000*%
%ADD17R,2.6000X0.8000*%
%ADD18R,1.0000X1.0000*%
%ADD19R,1.0000X1.0000*%
%ADD20R,1.5000X1.3000*%
%ADD21R,1.3000X1.5000*%
%ADD22R,0.8000X0.9000*%
%ADD23R,0.9000X0.8000*%
%ADD24R,1.7000X3.5000*%
%ADD25R,7.7000X5.5500*%
%ADD26R,2.2000X1.0000*%
%ADD27R,1.1000X2.6000*%
%ADD28O,0.3000X2.1000*%
%ADD29O,2.1000X0.3000*%
%ADD30O,1.7000X0.4500*%
%ADD31R,2.4000X3.3000*%
%ADD32R,2.4000X1.0000*%
%ADD33R,5.5500X7.7000*%
%ADD34R,1.0000X2.2000*%
%ADD35C,0.5000*%
%ADD36C,0.3000*%
%ADD37C,0.7500*%
%ADD38C,1.0000*%
%ADD39C,1.5000*%
%ADD40C,0.8000*%
%ADD41C,3.5000*%
%ADD42C,3.0000*%
%ADD43C,5.0000*%
%ADD44C,1.2500*%
%ADD45C,2.5000*%
%ADD46C,1.6000*%
%ADD47C,2.0000*%
%ADD48R,2.0000X2.0000*%
%ADD49R,2.5000X2.5000*%
%ADD50R,2.5000X2.5000*%
%ADD51C,3.5000*%
%ADD52C,3.0000*%
%ADD53C,2.8000*%
%ADD54O,3.5000X3.2000*%
%ADD55C,1.5000*%
%ADD56R,1.5000X1.5000*%
%ADD57C,0.8000*%
%ADD58C,1.0000*%
%ADD59R,3.1000X5.6000*%
%ADD60R,1.0000X3.0000*%
%ADD61R,1.5000X4.0000*%
%ADD62R,1.5000X0.7000*%
%ADD63R,1.7000X1.7000*%
%ADD64R,1.1000X3.5000*%
%ADD65R,10.5000X8.6000*%
%ADD66R,1.0000X2.0000*%
%ADD67R,2.0000X1.0000*%
G04:AMPARAMS|DCode=68|XSize=2.2mm|YSize=0.6mm|CornerRadius=0.15mm|HoleSize=0mm|Usage=FLASHONLY|Rotation=180.000|XOffset=0mm|YOffset=0mm|HoleType=Round|Shape=RoundedRectangle|*
%AMROUNDEDRECTD68*
21,1,2.2000,0.3000,0,0,180.0*
21,1,1.9000,0.6000,0,0,180.0*
1,1,0.3000,-0.9500,0.1500*
1,1,0.3000,0.9500,0.1500*
1,1,0.3000,0.9500,-0.1500*
1,1,0.3000,-0.9500,-0.1500*
%
%ADD68ROUNDEDRECTD68*%
%ADD69R,10.5000X8.4000*%
%ADD70R,1.0500X3.3000*%
%ADD71C,2.0000*%
G36*
X768175Y402844D02*
Y191500D01*
X768475Y189216D01*
X768840Y188334D01*
X769357Y187087D01*
X770759Y185259D01*
X796163Y159855D01*
X795398Y158008D01*
X706692D01*
X706000Y159884D01*
X708029Y161617D01*
X711096Y165208D01*
X713563Y169234D01*
X715370Y173597D01*
X716472Y178188D01*
X716843Y182896D01*
X716472Y187603D01*
X715370Y192195D01*
X713563Y196558D01*
X711096Y200584D01*
X708029Y204175D01*
X704438Y207241D01*
X700412Y209709D01*
X696049Y211516D01*
X695424Y211666D01*
X695402Y212408D01*
X699311Y214497D01*
X702737Y217309D01*
X705548Y220735D01*
X707638Y224644D01*
X708924Y228885D01*
X709359Y233296D01*
X708924Y237707D01*
X707638Y241948D01*
X705548Y245857D01*
X702737Y249283D01*
X699311Y252094D01*
X695402Y254184D01*
X691161Y255470D01*
X686750Y255905D01*
X682339Y255470D01*
X678098Y254184D01*
X674189Y252094D01*
X670763Y249283D01*
X668987D01*
X668097Y250013D01*
Y267990D01*
X669980Y268663D01*
X670763Y267709D01*
X674189Y264897D01*
X678098Y262808D01*
X682339Y261521D01*
X686750Y261087D01*
X691161Y261521D01*
X695402Y262808D01*
X699311Y264897D01*
X702737Y267709D01*
X705548Y271135D01*
X707638Y275044D01*
X708924Y279285D01*
X709359Y283696D01*
X708924Y288107D01*
X707638Y292348D01*
X705548Y296257D01*
X702737Y299683D01*
X699311Y302495D01*
X695402Y304584D01*
X691161Y305870D01*
X686750Y306305D01*
X682339Y305870D01*
X678098Y304584D01*
X674189Y302495D01*
X670763Y299683D01*
X669980Y298729D01*
X668097Y299402D01*
Y311000D01*
X667711Y314921D01*
X666567Y318691D01*
X664710Y322165D01*
X662211Y325211D01*
X662210Y325211D01*
X646210Y341211D01*
X643165Y343710D01*
X639691Y345567D01*
X635921Y346711D01*
X632000Y347097D01*
X398029D01*
X333060Y412065D01*
X333734Y413949D01*
X335491Y414122D01*
X339732Y415408D01*
X343641Y417497D01*
X347067Y420309D01*
X349879Y423735D01*
X351968Y427644D01*
X353254Y431885D01*
X353689Y436296D01*
X353254Y440707D01*
X352440Y443392D01*
X360758Y451710D01*
X387284D01*
X388139Y449902D01*
X387281Y448857D01*
X385192Y444948D01*
X383905Y440707D01*
X383471Y436296D01*
X383905Y431885D01*
X385192Y427644D01*
X387281Y423735D01*
X390093Y420309D01*
X393519Y417497D01*
X397428Y415408D01*
X401669Y414122D01*
X406080Y413687D01*
X410491Y414122D01*
X414732Y415408D01*
X418641Y417497D01*
X422067Y420309D01*
X424879Y423735D01*
X426968Y427644D01*
X428254Y431885D01*
X428689Y436296D01*
X428254Y440707D01*
X426968Y444948D01*
X424879Y448857D01*
X424021Y449902D01*
X424876Y451710D01*
X451984D01*
X452839Y449902D01*
X451981Y448857D01*
X449892Y444948D01*
X448605Y440707D01*
X448171Y436296D01*
X448605Y431885D01*
X449892Y427644D01*
X451981Y423735D01*
X454793Y420309D01*
X458219Y417497D01*
X462128Y415408D01*
X466369Y414122D01*
X470780Y413687D01*
X475191Y414122D01*
X479432Y415408D01*
X483341Y417497D01*
X486767Y420309D01*
X489579Y423735D01*
X491668Y427644D01*
X492954Y431885D01*
X493389Y436296D01*
X492954Y440707D01*
X491668Y444948D01*
X489579Y448857D01*
X488721Y449902D01*
X489576Y451710D01*
X526984D01*
X527839Y449902D01*
X526981Y448857D01*
X524892Y444948D01*
X523605Y440707D01*
X523171Y436296D01*
X523605Y431885D01*
X524892Y427644D01*
X526981Y423735D01*
X529793Y420309D01*
X533219Y417497D01*
X537128Y415408D01*
X541369Y414122D01*
X545780Y413687D01*
X550191Y414122D01*
X554432Y415408D01*
X558341Y417497D01*
X561767Y420309D01*
X564579Y423735D01*
X566668Y427644D01*
X567954Y431885D01*
X568389Y436296D01*
X567954Y440707D01*
X566668Y444948D01*
X564579Y448857D01*
X563721Y449902D01*
X564576Y451710D01*
X592026D01*
X593820Y449916D01*
X592951Y448857D01*
X590862Y444948D01*
X589576Y440707D01*
X589141Y436296D01*
X589576Y431885D01*
X590862Y427644D01*
X592951Y423735D01*
X595763Y420309D01*
X599189Y417497D01*
X603098Y415408D01*
X607339Y414122D01*
X611750Y413687D01*
X616161Y414122D01*
X620402Y415408D01*
X624311Y417497D01*
X627737Y420309D01*
X630549Y423735D01*
X632638Y427644D01*
X633924Y431885D01*
X634359Y436296D01*
X633924Y440707D01*
X632638Y444948D01*
X630549Y448857D01*
X627737Y452283D01*
X624311Y455094D01*
X620402Y457184D01*
X616161Y458470D01*
X613535Y458729D01*
X611749Y460515D01*
X611789Y460822D01*
X612453Y462425D01*
X708594D01*
X768175Y402844D01*
D02*
G37*
G36*
X1270028Y454272D02*
X1269232Y452350D01*
X1268922Y450000D01*
X1269232Y447650D01*
X1269335Y447401D01*
X1268800Y446600D01*
X1268800D01*
Y424000D01*
X1249800D01*
Y446600D01*
X1154800D01*
Y424000D01*
X1140000D01*
X1140218Y407023D01*
X1138812Y405600D01*
X1113800D01*
Y403165D01*
X1096600D01*
X1094642Y402907D01*
X1092818Y402151D01*
X1091251Y400949D01*
X1091251Y400949D01*
X1080651Y390349D01*
X1079449Y388782D01*
X1078693Y386958D01*
X1078435Y385000D01*
Y371902D01*
X1076541Y371259D01*
X1076419Y371419D01*
X1074539Y372862D01*
X1072500Y373706D01*
Y364997D01*
Y356294D01*
X1074539Y357139D01*
X1076419Y358581D01*
X1076541Y358741D01*
X1078435Y358098D01*
Y330000D01*
X1076000D01*
Y327290D01*
X1074752Y326772D01*
X1074218Y326551D01*
X1072651Y325349D01*
X1067802Y320500D01*
X1050556D01*
Y326109D01*
X1052450Y326752D01*
X1052581Y326581D01*
X1054461Y325139D01*
X1056500Y324294D01*
Y332998D01*
Y341706D01*
X1054461Y340861D01*
X1052581Y339419D01*
X1052450Y339248D01*
X1050556Y339891D01*
Y386284D01*
X1058575Y394304D01*
X1060537Y393913D01*
X1061139Y392461D01*
X1062581Y390581D01*
X1064461Y389138D01*
X1066500Y388294D01*
Y396997D01*
Y402228D01*
X1070193Y405921D01*
X1071349Y405769D01*
X1071018Y406746D01*
X1104319Y440048D01*
X1104539Y440139D01*
X1106419Y441581D01*
X1107861Y443461D01*
X1108768Y445650D01*
X1109078Y448000D01*
X1108768Y450350D01*
X1107861Y452539D01*
X1106419Y454419D01*
X1104539Y455861D01*
X1104554Y455935D01*
X1268917D01*
X1270028Y454272D01*
D02*
G37*
G36*
X576651Y966651D02*
X576651Y966651D01*
X576986Y966394D01*
X576343Y964500D01*
X575500D01*
Y942000D01*
X585500D01*
Y964435D01*
X646500D01*
Y942000D01*
X671500D01*
Y954189D01*
X673348Y954954D01*
X689198Y939104D01*
X687879Y937600D01*
X687539Y937861D01*
X685500Y938706D01*
Y932500D01*
X691706D01*
X690862Y934539D01*
X690600Y934879D01*
X692104Y936198D01*
X712898Y915404D01*
X712133Y913556D01*
X671500D01*
Y914500D01*
X671500D01*
Y937000D01*
X646500D01*
Y914500D01*
D01*
Y914500D01*
X645556Y913556D01*
X609004D01*
X609004Y913557D01*
X606021D01*
X606021Y913557D01*
X604324Y913333D01*
X602743Y912678D01*
X601385Y911636D01*
X600805Y911057D01*
X599195D01*
X598615Y911636D01*
X597257Y912678D01*
X595676Y913333D01*
X593979Y913557D01*
X593979Y913557D01*
X590996D01*
X590996Y913556D01*
X585500D01*
Y914500D01*
X585500D01*
Y937000D01*
X560500D01*
Y914500D01*
D01*
Y914500D01*
X559556Y913556D01*
X506848D01*
X505419Y915419D01*
X505616Y916000D01*
X506650D01*
Y951136D01*
X518882Y963368D01*
X520485Y965457D01*
X521493Y967889D01*
X521836Y970500D01*
Y987000D01*
X521493Y989611D01*
X520485Y992043D01*
X518882Y994132D01*
X519008Y994435D01*
X548867D01*
X576651Y966651D01*
D02*
G37*
G36*
X286227Y1092541D02*
X285368Y1091882D01*
X283765Y1089793D01*
X282757Y1087361D01*
X282414Y1084750D01*
Y1076000D01*
X277500D01*
Y1010000D01*
X287914D01*
Y1004250D01*
X287914Y1004250D01*
X287914D01*
X288257Y1001639D01*
X289265Y999207D01*
X290868Y997118D01*
X324138Y963848D01*
X323373Y962000D01*
X310903D01*
X309111Y962742D01*
X306500Y963086D01*
X278621D01*
X277299Y965561D01*
X274487Y968987D01*
X271061Y971798D01*
X267152Y973888D01*
X262911Y975174D01*
X258500Y975609D01*
X256090Y975371D01*
X254608Y976714D01*
Y1033500D01*
X257000D01*
Y1063500D01*
X255608D01*
X254580Y1065216D01*
X255925Y1067732D01*
X256783Y1070559D01*
X256826Y1071000D01*
X241998D01*
Y1073497D01*
X239500D01*
Y1088326D01*
X239060Y1088283D01*
X237143Y1087702D01*
X236115Y1089417D01*
X241133Y1094435D01*
X285584D01*
X286227Y1092541D01*
D02*
G37*
G36*
X1018435Y373984D02*
Y346142D01*
X1016932Y344824D01*
X1017350Y344769D01*
X1017500Y344706D01*
Y335997D01*
X1015003D01*
Y333500D01*
X1011253D01*
X1009739Y334662D01*
X1007550Y335569D01*
X1005951Y335779D01*
X1005922Y336000D01*
X1005200Y335878D01*
D01*
X1002850Y335568D01*
X1002729Y335518D01*
X1001836Y335888D01*
X1000875Y336625D01*
X1001056Y338000D01*
Y341000D01*
X1000833Y342697D01*
X1000178Y344278D01*
X999136Y345636D01*
X997778Y346678D01*
X996197Y347333D01*
X994500Y347556D01*
Y347744D01*
X996197Y347967D01*
X997778Y348622D01*
X999136Y349664D01*
X1000178Y351022D01*
X1000833Y352603D01*
X1000924Y353300D01*
X984997D01*
Y358300D01*
X1000924D01*
X1000833Y358997D01*
X1000178Y360578D01*
X999136Y361936D01*
X999139Y361944D01*
X1003500D01*
X1005197Y362167D01*
X1005852Y362439D01*
X1006778Y362822D01*
X1008136Y363864D01*
X1014636Y370364D01*
X1015678Y371722D01*
X1016005Y372513D01*
X1016333Y373303D01*
X1016440Y374115D01*
X1018435Y373984D01*
D02*
G37*
G36*
X903997Y422772D02*
X903532Y421649D01*
X903222Y419300D01*
X903532Y416950D01*
X904438Y414761D01*
X905881Y412881D01*
X907761Y411438D01*
X909950Y410532D01*
X912300Y410222D01*
X912629Y410266D01*
X914043Y408851D01*
X913944Y408100D01*
Y405100D01*
X914167Y403403D01*
X914822Y401822D01*
X915864Y400464D01*
Y400036D01*
X914822Y398678D01*
X914167Y397097D01*
X913944Y395400D01*
Y392400D01*
X914167Y390703D01*
X914822Y389122D01*
X915864Y387764D01*
Y387336D01*
X914822Y385978D01*
X914167Y384397D01*
X913944Y382700D01*
Y379700D01*
X914167Y378003D01*
X914281Y377728D01*
X913170Y376065D01*
X866633D01*
X836033Y406665D01*
X836078Y407000D01*
X835768Y409350D01*
X834861Y411539D01*
X833419Y413419D01*
X831539Y414861D01*
X829350Y415768D01*
X827000Y416078D01*
X826926Y416228D01*
X835133Y424435D01*
X902886D01*
X903997Y422772D01*
D02*
G37*
G36*
X452500Y1010500D02*
X474410D01*
X475218Y1008551D01*
X473651Y1007349D01*
X473651Y1007349D01*
X470134Y1003832D01*
X469650Y1003768D01*
X467461Y1002861D01*
X465581Y1001419D01*
X464138Y999539D01*
X463232Y997349D01*
X462922Y995000D01*
X463232Y992651D01*
X464138Y990461D01*
X465581Y988581D01*
X467461Y987139D01*
X469650Y986232D01*
X472000Y985922D01*
X474350Y986232D01*
X476539Y987139D01*
X478419Y988581D01*
X479861Y990461D01*
X480768Y992651D01*
X480832Y993134D01*
X482133Y994435D01*
X501706D01*
X502590Y992642D01*
X502515Y992543D01*
X501507Y990110D01*
X501164Y987500D01*
X501507Y984890D01*
X501664Y984512D01*
Y974678D01*
X497848Y970862D01*
X496000Y971627D01*
Y983500D01*
X429000D01*
Y970997D01*
Y958500D01*
X435350D01*
Y916000D01*
X455850D01*
Y958500D01*
X460750D01*
Y916000D01*
X462174D01*
Y889000D01*
X421792D01*
X419565Y889278D01*
X419436Y890257D01*
X419307Y891236D01*
X418773Y892526D01*
X418551Y893061D01*
X417349Y894627D01*
X414815Y897162D01*
Y898000D01*
X414557Y899958D01*
X413801Y901782D01*
X412599Y903349D01*
X411032Y904551D01*
X409208Y905307D01*
X407250Y905565D01*
X298372D01*
X297261Y907228D01*
X297743Y908390D01*
X298086Y911000D01*
Y942914D01*
X302322D01*
X309500Y935736D01*
Y917000D01*
X351500D01*
Y939502D01*
X356500D01*
Y917000D01*
X385500D01*
Y939502D01*
X387997D01*
Y942000D01*
X398500D01*
Y959500D01*
X406000D01*
Y978500D01*
X405826D01*
Y1010000D01*
X419000D01*
Y1017914D01*
X452500D01*
Y1010500D01*
D02*
G37*
G36*
X646500Y899500D02*
X646500D01*
Y849500D01*
X648391D01*
X649709Y847996D01*
X649414Y845750D01*
X649757Y843139D01*
X650765Y840707D01*
X652368Y838618D01*
X654457Y837015D01*
X656889Y836007D01*
X659500Y835664D01*
X662111Y836007D01*
X664543Y837015D01*
X666632Y838618D01*
X668235Y840707D01*
X669243Y843139D01*
X669586Y845750D01*
X669243Y848361D01*
X670004Y849500D01*
X671500D01*
Y868769D01*
X677906Y875174D01*
X732080D01*
X732846Y873327D01*
X653844Y794325D01*
X612000D01*
Y828000D01*
X592000D01*
Y798233D01*
X591867Y798130D01*
X590264Y796041D01*
X589256Y793609D01*
X588913Y790998D01*
X589256Y788388D01*
X589531Y787724D01*
X587868Y786613D01*
X581825Y792656D01*
Y849500D01*
X585500D01*
Y899500D01*
D01*
Y899500D01*
X586444Y900444D01*
X591264D01*
X591843Y899864D01*
X593201Y898822D01*
X593785Y898580D01*
X594782Y898167D01*
X596479Y897944D01*
X603521D01*
X605218Y898167D01*
X605873Y898439D01*
X606799Y898822D01*
X608157Y899864D01*
X608736Y900444D01*
X646500D01*
Y899500D01*
D02*
G37*
G36*
X825424Y662750D02*
X825725Y660466D01*
X826090Y659584D01*
X826607Y658337D01*
X828009Y656509D01*
X831266Y653253D01*
X830651Y652638D01*
X829449Y651071D01*
X828693Y649247D01*
X828435Y647289D01*
Y439133D01*
X828151Y438849D01*
X809651Y420349D01*
X808449Y418782D01*
X807693Y416958D01*
X807435Y415000D01*
Y393000D01*
X807693Y391042D01*
X808449Y389218D01*
X809651Y387651D01*
X863151Y334151D01*
X864718Y332949D01*
X866542Y332193D01*
X868500Y331935D01*
X869917D01*
X871028Y330272D01*
X870232Y328349D01*
X869922Y326000D01*
X870232Y323651D01*
X871139Y321461D01*
X871435Y321074D01*
Y215000D01*
X871693Y213042D01*
X872227Y211752D01*
X872449Y211218D01*
X873651Y209651D01*
X905151Y178151D01*
X905151Y178151D01*
X906718Y176949D01*
X908542Y176193D01*
X910500Y175935D01*
X910500Y175935D01*
X913170D01*
X914281Y174272D01*
X914167Y173997D01*
X913944Y172300D01*
Y169876D01*
X811106D01*
X785826Y195156D01*
Y406500D01*
X785525Y408784D01*
X785084Y409849D01*
X784643Y410913D01*
X783241Y412741D01*
X718491Y477491D01*
X716663Y478893D01*
X715599Y479334D01*
X714534Y479775D01*
X712250Y480075D01*
X615656D01*
X598825Y496906D01*
Y647234D01*
X600399Y648441D01*
X600619Y648550D01*
X602460Y647137D01*
X604649Y646230D01*
X606999Y645921D01*
X609348Y646230D01*
X611538Y647137D01*
X613239Y648443D01*
X694141D01*
X694650Y648232D01*
X697000Y647922D01*
X699350Y648232D01*
X701539Y649139D01*
X703419Y650581D01*
X704862Y652461D01*
X705768Y654650D01*
X706078Y657000D01*
X705940Y658046D01*
X707349Y658232D01*
X709539Y659139D01*
X711419Y660581D01*
X712861Y662461D01*
X713768Y664650D01*
X714078Y667000D01*
X713768Y669350D01*
X712861Y671539D01*
X711419Y673419D01*
X709539Y674862D01*
X707349Y675768D01*
X705000Y676078D01*
X702651Y675768D01*
X700461Y674862D01*
X698581Y673419D01*
X697919Y672556D01*
X611240D01*
X609539Y673861D01*
X607350Y674768D01*
X605000Y675078D01*
X602650Y674768D01*
X600488Y673873D01*
X598825Y674984D01*
Y772000D01*
X598525Y774284D01*
X597643Y776413D01*
X597545Y776541D01*
X598959Y777955D01*
X599087Y777857D01*
X601216Y776975D01*
X603500Y776674D01*
X657500D01*
X659784Y776975D01*
X660848Y777416D01*
X661913Y777857D01*
X663741Y779259D01*
X748406Y863924D01*
X825424D01*
Y662750D01*
D02*
G37*
G36*
X271500Y890435D02*
X296500D01*
Y846500D01*
X354002D01*
Y844003D01*
X356500D01*
Y796000D01*
X356801D01*
X358119Y794497D01*
X358231Y795350D01*
X358293Y795500D01*
X375706D01*
X375769Y795350D01*
X376203Y796000D01*
X404435D01*
Y793750D01*
X404435Y793750D01*
X404435D01*
X404693Y791792D01*
X405449Y789968D01*
X406651Y788401D01*
X432401Y762651D01*
X432401Y762651D01*
X433968Y761449D01*
X435792Y760693D01*
X437750Y760435D01*
X439574D01*
X439961Y760138D01*
X442150Y759232D01*
X444500Y758922D01*
X446850Y759232D01*
X449039Y760138D01*
X450919Y761581D01*
X452361Y763461D01*
X453268Y765650D01*
X453578Y768000D01*
X453268Y770350D01*
X452361Y772539D01*
X450919Y774419D01*
X449039Y775861D01*
X446850Y776768D01*
X444500Y777078D01*
X442150Y776768D01*
X440404Y776045D01*
X423296Y793152D01*
X424061Y795000D01*
X528500D01*
Y822486D01*
X530394Y823129D01*
X531581Y821581D01*
X533461Y820138D01*
X535500Y819294D01*
Y827998D01*
Y836706D01*
X533461Y835861D01*
X531581Y834419D01*
X530394Y832871D01*
X528500Y833514D01*
Y864414D01*
X538500D01*
Y848750D01*
Y846250D01*
X557500D01*
Y848750D01*
Y864414D01*
X560500D01*
Y849500D01*
X564174D01*
Y789000D01*
X564475Y786716D01*
X564840Y785834D01*
X565357Y784587D01*
X566759Y782759D01*
X572449Y777070D01*
X572267Y776157D01*
X570700Y775183D01*
X569860Y775537D01*
X568418Y777417D01*
X566538Y778860D01*
X564348Y779767D01*
X561999Y780076D01*
X559649Y779767D01*
X557460Y778860D01*
X555759Y777554D01*
X551717D01*
X546048Y783223D01*
X545768Y785350D01*
X544861Y787539D01*
X543419Y789419D01*
X541539Y790862D01*
X539350Y791768D01*
X537000Y792078D01*
X534650Y791768D01*
X532461Y790862D01*
X530581Y789419D01*
X529138Y787539D01*
X528232Y785350D01*
X527922Y783000D01*
X528232Y780650D01*
X529138Y778461D01*
X530581Y776581D01*
X532461Y775139D01*
X534650Y774232D01*
X536777Y773952D01*
X538976Y771752D01*
X538334Y769859D01*
X540000Y770078D01*
X540748Y769980D01*
X542500Y768228D01*
Y763500D01*
X548706D01*
X548556Y763862D01*
X549002Y764442D01*
X555759D01*
X557460Y763137D01*
X559619Y762243D01*
X560009Y760281D01*
X544364Y744636D01*
X543322Y743278D01*
X542939Y742352D01*
X542667Y741697D01*
X542444Y740000D01*
Y586918D01*
X540898Y585649D01*
X540170Y585794D01*
X539861Y586539D01*
X538419Y588419D01*
X536539Y589861D01*
X534350Y590768D01*
X532000Y591078D01*
X529650Y590768D01*
X528848Y590436D01*
X527133Y591464D01*
X526911Y593721D01*
X525767Y597491D01*
X523910Y600965D01*
X521411Y604011D01*
X519808Y605326D01*
Y610800D01*
X519378Y614063D01*
X518119Y617104D01*
X516115Y619715D01*
X475608Y660222D01*
Y668405D01*
X477456Y669170D01*
X488997Y657629D01*
X490490Y654835D01*
X492989Y651789D01*
X496035Y649290D01*
X499509Y647433D01*
X503279Y646289D01*
X507200Y645903D01*
X511121Y646289D01*
X514891Y647433D01*
X518365Y649290D01*
X521411Y651789D01*
X523910Y654835D01*
X525767Y658309D01*
X526911Y662079D01*
X527297Y666000D01*
X526911Y669921D01*
X525767Y673691D01*
X523910Y677165D01*
X521411Y680211D01*
X518365Y682710D01*
X514891Y684567D01*
X511121Y685711D01*
X507200Y686097D01*
X503279Y685711D01*
X499509Y684567D01*
X498343Y683943D01*
X451021Y731265D01*
X451349Y732231D01*
X450206Y732081D01*
X446500Y735787D01*
Y740997D01*
Y749706D01*
X444461Y748861D01*
X442581Y747419D01*
X441138Y745539D01*
X440405Y743768D01*
X438557Y743003D01*
X435719Y744178D01*
X432456Y744608D01*
X383678D01*
X338371Y789915D01*
X335760Y791919D01*
X332719Y793178D01*
X329456Y793608D01*
X310752D01*
X309641Y795271D01*
X309943Y796000D01*
X351500D01*
Y841500D01*
X296500D01*
Y809443D01*
X294652Y808678D01*
X280680Y822650D01*
X281109Y827000D01*
X280674Y831411D01*
X279388Y835652D01*
X277299Y839561D01*
X274487Y842987D01*
X271061Y845798D01*
X267152Y847888D01*
Y848112D01*
X271061Y850201D01*
X274487Y853013D01*
X277299Y856439D01*
X279388Y860348D01*
X280674Y864589D01*
X281109Y869000D01*
X280674Y873411D01*
X279388Y877652D01*
X277299Y881561D01*
X274487Y884987D01*
X271061Y887798D01*
X269299Y888740D01*
X269910Y890645D01*
X271500Y890435D01*
D02*
G37*
G36*
X911444Y690166D02*
Y464000D01*
X911667Y462303D01*
X911995Y461513D01*
X912322Y460722D01*
X913364Y459364D01*
X923952Y448777D01*
X924232Y446651D01*
X925138Y444461D01*
X926581Y442581D01*
X927404Y441950D01*
X926761Y440056D01*
X920500D01*
X918803Y439833D01*
X918156Y439565D01*
X843565D01*
Y566333D01*
X845359Y567217D01*
X845461Y567138D01*
X847500Y566294D01*
Y574997D01*
Y583706D01*
X845461Y582861D01*
X845359Y582783D01*
X843565Y583667D01*
Y613333D01*
X845359Y614217D01*
X845461Y614138D01*
X847500Y613294D01*
Y621997D01*
Y630706D01*
X845461Y629861D01*
X845359Y629783D01*
X843565Y630667D01*
Y644155D01*
X847834Y648425D01*
X883250D01*
X885534Y648725D01*
X886599Y649166D01*
X887663Y649607D01*
X889491Y651009D01*
X896886Y658405D01*
X898419Y659581D01*
X899861Y661461D01*
X900768Y663651D01*
X901078Y666000D01*
X900768Y668350D01*
X899861Y670539D01*
X898419Y672419D01*
X896539Y673861D01*
X894350Y674768D01*
X892000Y675078D01*
X889650Y674768D01*
X887461Y673861D01*
X885581Y672419D01*
X884405Y670886D01*
X879594Y666076D01*
X862354D01*
X861588Y667923D01*
X871328Y677663D01*
X872581Y677581D01*
X874461Y676139D01*
X876650Y675232D01*
X879000Y674922D01*
X881349Y675232D01*
X883539Y676139D01*
X885240Y677444D01*
X893393D01*
X895090Y677667D01*
X895881Y677995D01*
X896671Y678322D01*
X898029Y679364D01*
X909596Y690931D01*
X911444Y690166D01*
D02*
G37*
G36*
X581175Y757602D02*
Y493250D01*
X581475Y490966D01*
X581916Y489902D01*
X582357Y488837D01*
X583759Y487009D01*
X597094Y473675D01*
X596209Y471882D01*
X596204Y471882D01*
X521811D01*
X521138Y473765D01*
X521411Y473989D01*
X523910Y477035D01*
X525767Y480509D01*
X526911Y484279D01*
X527297Y488200D01*
X526911Y492121D01*
X525767Y495891D01*
X523910Y499365D01*
X521411Y502411D01*
X518365Y504910D01*
X514891Y506767D01*
X511121Y507911D01*
X507200Y508297D01*
X503279Y507911D01*
X499509Y506767D01*
X496035Y504910D01*
X492989Y502411D01*
X490490Y499365D01*
X488633Y495891D01*
X487489Y492121D01*
X487103Y488200D01*
X487489Y484279D01*
X488633Y480509D01*
X490490Y477035D01*
X492989Y473989D01*
X493262Y473765D01*
X492589Y471882D01*
X445611D01*
X444938Y473765D01*
X445211Y473989D01*
X447710Y477035D01*
X449567Y480509D01*
X450711Y484279D01*
X451097Y488200D01*
X450711Y492121D01*
X449567Y495891D01*
X447710Y499365D01*
X445211Y502411D01*
X442165Y504910D01*
X438691Y506767D01*
X434921Y507911D01*
X431000Y508297D01*
X427079Y507911D01*
X423309Y506767D01*
X419835Y504910D01*
X416789Y502411D01*
X414290Y499365D01*
X412433Y495891D01*
X411289Y492121D01*
X410903Y488200D01*
X411289Y484279D01*
X412433Y480509D01*
X414290Y477035D01*
X416789Y473989D01*
X417062Y473765D01*
X416389Y471882D01*
X400811D01*
X400137Y473765D01*
X400411Y473989D01*
X402910Y477035D01*
X404767Y480509D01*
X405911Y484279D01*
X406297Y488200D01*
X405911Y492121D01*
X404767Y495891D01*
X402910Y499365D01*
X400411Y502411D01*
X397365Y504910D01*
X393891Y506767D01*
X390121Y507911D01*
X387552Y508164D01*
X360058Y535658D01*
X357774Y537532D01*
X355168Y538925D01*
X352341Y539783D01*
X349400Y540073D01*
X313243D01*
X278899Y574417D01*
X278930Y574493D01*
X279779Y576215D01*
X282000Y575922D01*
X284349Y576232D01*
X286539Y577138D01*
X288240Y578444D01*
X355284D01*
X375364Y558364D01*
X376043Y557843D01*
X376722Y557322D01*
X378303Y556667D01*
X380000Y556444D01*
X529000D01*
X530697Y556667D01*
X531487Y556995D01*
X532278Y557322D01*
X533636Y558364D01*
X553636Y578364D01*
X554678Y579722D01*
X555061Y580648D01*
X555333Y581303D01*
X555556Y583000D01*
Y737284D01*
X576223Y757952D01*
X578349Y758232D01*
X579511Y758713D01*
X581175Y757602D01*
D02*
G37*
G36*
X230247Y1104945D02*
X214651Y1089349D01*
X213449Y1087782D01*
X212693Y1085958D01*
X212435Y1084000D01*
Y1007133D01*
X166651Y961349D01*
X165449Y959782D01*
X164693Y957958D01*
X164435Y956000D01*
Y872926D01*
X164139Y872539D01*
X163232Y870350D01*
X162922Y868000D01*
X163232Y865650D01*
X164139Y863461D01*
X165581Y861581D01*
X167461Y860138D01*
X169650Y859232D01*
X172000Y858922D01*
X174349Y859232D01*
X176539Y860138D01*
X178419Y861581D01*
X179824Y863412D01*
X180103Y863361D01*
X181927Y862605D01*
X182612Y860348D01*
X184701Y856439D01*
X187513Y853013D01*
X190939Y850201D01*
X193187Y849000D01*
Y847000D01*
X190939Y845798D01*
X187513Y842987D01*
X184701Y839561D01*
X182612Y835652D01*
X181326Y831411D01*
X180891Y827000D01*
X181326Y822589D01*
X182612Y818348D01*
X184701Y814439D01*
X187513Y811013D01*
X190939Y808201D01*
X193187Y807000D01*
Y805000D01*
X190939Y803799D01*
X187513Y800987D01*
X184701Y797561D01*
X182612Y793652D01*
X181326Y789411D01*
X180891Y785000D01*
X181326Y780589D01*
X182612Y776348D01*
X184701Y772439D01*
X187513Y769013D01*
X190939Y766201D01*
X193187Y765000D01*
Y763000D01*
X190939Y761798D01*
X187513Y758987D01*
X184701Y755561D01*
X182612Y751652D01*
X181326Y747411D01*
X180891Y743000D01*
X181326Y738589D01*
X182612Y734348D01*
X184701Y730439D01*
X187513Y727013D01*
X190939Y724201D01*
X193187Y723000D01*
Y721000D01*
X190939Y719799D01*
X187513Y716987D01*
X184701Y713561D01*
X182612Y709652D01*
X181326Y705411D01*
X180891Y701000D01*
X181326Y696589D01*
X182612Y692348D01*
X184701Y688439D01*
X187513Y685013D01*
X190939Y682201D01*
X193187Y681000D01*
Y679000D01*
X190939Y677798D01*
X187513Y674987D01*
X184701Y671561D01*
X182612Y667652D01*
X181326Y663411D01*
X180891Y659000D01*
X181326Y654589D01*
X182612Y650348D01*
X184701Y646439D01*
X187513Y643013D01*
X190939Y640201D01*
X193187Y639000D01*
Y637000D01*
X190939Y635798D01*
X187513Y632987D01*
X184701Y629561D01*
X182612Y625652D01*
X181326Y621411D01*
X181137Y619500D01*
X203503D01*
Y617002D01*
X206000D01*
Y594637D01*
X207911Y594826D01*
X212152Y596112D01*
X214440Y597335D01*
X215601Y597450D01*
X216915Y596905D01*
X217575Y594732D01*
X218968Y592126D01*
X220842Y589842D01*
X296342Y514342D01*
X298626Y512468D01*
X301232Y511075D01*
X304060Y510217D01*
X306625Y509964D01*
Y507964D01*
X306079Y507911D01*
X302309Y506767D01*
X298835Y504910D01*
X295790Y502411D01*
X293290Y499365D01*
X291433Y495891D01*
X290289Y492121D01*
X289903Y488200D01*
X290289Y484279D01*
X291433Y480509D01*
X293290Y477035D01*
X295790Y473989D01*
X298835Y471490D01*
X302309Y469633D01*
X306079Y468489D01*
X310000Y468103D01*
X313921Y468489D01*
X317691Y469633D01*
X321165Y471490D01*
X324211Y473989D01*
X326710Y477035D01*
X328567Y480509D01*
X329711Y484279D01*
X330097Y488200D01*
X329711Y492121D01*
X328567Y495891D01*
X326710Y499365D01*
X324211Y502411D01*
X321165Y504910D01*
X317691Y506767D01*
X313921Y507911D01*
X313725Y507930D01*
X313823Y509927D01*
X343157D01*
X366236Y486848D01*
X366489Y484279D01*
X367633Y480509D01*
X369490Y477035D01*
X371990Y473989D01*
X372262Y473765D01*
X371589Y471882D01*
X356580D01*
X353969Y471539D01*
X351537Y470531D01*
X349448Y468928D01*
X338176Y457656D01*
X335491Y458470D01*
X331080Y458905D01*
X326669Y458470D01*
X322428Y457184D01*
X318519Y455094D01*
X315093Y452283D01*
X312281Y448857D01*
X310192Y444948D01*
X308906Y440707D01*
X308732Y438950D01*
X306849Y438276D01*
X287415Y457710D01*
X284370Y460210D01*
X280895Y462067D01*
X277125Y463211D01*
X276734Y463249D01*
X274487Y465987D01*
X271061Y468798D01*
X267152Y470888D01*
X262911Y472174D01*
X258500Y472609D01*
X254089Y472174D01*
X249848Y470888D01*
X245939Y468798D01*
X242513Y465987D01*
X239701Y462561D01*
X237612Y458652D01*
X236326Y454411D01*
X235891Y450000D01*
X236326Y445589D01*
X237612Y441348D01*
X239701Y437439D01*
X242513Y434013D01*
X245939Y431201D01*
X248187Y430000D01*
Y428000D01*
X245939Y426799D01*
X242513Y423987D01*
X239701Y420561D01*
X237612Y416652D01*
X236326Y412411D01*
X235891Y408000D01*
X236326Y403589D01*
X237612Y399348D01*
X239701Y395439D01*
X242513Y392013D01*
X245939Y389201D01*
X248187Y388000D01*
Y386000D01*
X245939Y384799D01*
X242513Y381987D01*
X239701Y378561D01*
X237612Y374652D01*
X236326Y370411D01*
X235891Y366000D01*
X236326Y361589D01*
X236651Y360515D01*
X234897Y359555D01*
X234279Y360279D01*
X233593Y360965D01*
Y362500D01*
X233222Y367207D01*
X232120Y371799D01*
X230313Y376162D01*
X227845Y380188D01*
X224779Y383779D01*
X221188Y386846D01*
X217162Y389313D01*
X217057Y390019D01*
X219487Y392013D01*
X222299Y395439D01*
X224388Y399348D01*
X225674Y403589D01*
X226109Y408000D01*
X225674Y412411D01*
X224388Y416652D01*
X222299Y420561D01*
X219487Y423987D01*
X216061Y426799D01*
X212152Y428888D01*
Y429112D01*
X216061Y431201D01*
X219487Y434013D01*
X222299Y437439D01*
X224388Y441348D01*
X225674Y445589D01*
X226109Y450000D01*
X225674Y454411D01*
X224388Y458652D01*
X222299Y462561D01*
X219487Y465987D01*
X216061Y468798D01*
X212152Y470888D01*
X207911Y472174D01*
X203500Y472609D01*
X199089Y472174D01*
X194848Y470888D01*
X190939Y468798D01*
X187513Y465987D01*
X184701Y462561D01*
X182612Y458652D01*
X181326Y454411D01*
X180891Y450000D01*
X181326Y445589D01*
X182612Y441348D01*
X184701Y437439D01*
X187513Y434013D01*
X190939Y431201D01*
X193187Y430000D01*
Y428000D01*
X190939Y426799D01*
X187513Y423987D01*
X184701Y420561D01*
X182612Y416652D01*
X181326Y412411D01*
X180891Y408000D01*
X181326Y403589D01*
X182612Y399348D01*
X184701Y395439D01*
X187513Y392013D01*
X189058Y390746D01*
X188920Y388750D01*
X185812Y386846D01*
X182221Y383779D01*
X179154Y380188D01*
X176687Y376162D01*
X174880Y371799D01*
X173778Y367207D01*
X173407Y362500D01*
Y348500D01*
X173407Y348500D01*
X173778Y343792D01*
X174880Y339201D01*
X175197Y338435D01*
X173591Y337244D01*
X173223Y337545D01*
X169575Y339495D01*
X165617Y340696D01*
X161500Y341101D01*
X157383Y340696D01*
X153425Y339495D01*
X149777Y337545D01*
X146579Y334921D01*
X143955Y331723D01*
X142005Y328075D01*
X140804Y324117D01*
X140398Y320000D01*
X140804Y315883D01*
X142005Y311925D01*
X143955Y308277D01*
X146579Y305079D01*
X149777Y302455D01*
X153425Y300505D01*
X157383Y299304D01*
X161500Y298898D01*
X165617Y299304D01*
X169575Y300505D01*
X173223Y302455D01*
X176421Y305079D01*
X179045Y308277D01*
X180967Y311872D01*
X182125Y311582D01*
X182907Y311345D01*
Y236000D01*
X182907Y236000D01*
X183278Y231292D01*
X184360Y226784D01*
X182581Y225419D01*
X181139Y223539D01*
X180232Y221350D01*
X179922Y219000D01*
X180232Y216651D01*
X181139Y214461D01*
X182581Y212581D01*
X184461Y211138D01*
X186651Y210232D01*
X189000Y209922D01*
X190915Y210175D01*
X196000D01*
X196237Y210206D01*
X245825Y160617D01*
X245825Y160617D01*
X246684Y159884D01*
X245991Y158008D01*
X193558D01*
X193461Y159745D01*
X192228Y166998D01*
X190192Y174067D01*
X187376Y180864D01*
X183818Y187303D01*
X179561Y193303D01*
X174659Y198789D01*
X169173Y203691D01*
X163173Y207948D01*
X156734Y211507D01*
X149937Y214322D01*
X142868Y216358D01*
X135615Y217591D01*
X133878Y217688D01*
Y865580D01*
X135541Y866691D01*
X136500Y866294D01*
Y874997D01*
Y883706D01*
X135541Y883309D01*
X133878Y884420D01*
Y1047112D01*
X135615Y1047210D01*
X142868Y1048442D01*
X149937Y1050479D01*
X156734Y1053294D01*
X163173Y1056853D01*
X169173Y1061110D01*
X174659Y1066012D01*
X179561Y1071498D01*
X183818Y1077497D01*
X187376Y1083936D01*
X190192Y1090733D01*
X192228Y1097802D01*
X193461Y1105055D01*
X193558Y1106793D01*
X229482D01*
X230247Y1104945D01*
D02*
G37*
G36*
X1257374Y867644D02*
Y866984D01*
X1257285Y866915D01*
X1255281Y864304D01*
X1254500Y862418D01*
X1252500D01*
X1251719Y864304D01*
X1249715Y866915D01*
X1247104Y868919D01*
X1244063Y870178D01*
X1243300Y870279D01*
Y857998D01*
X1238300D01*
Y870279D01*
X1237537Y870178D01*
X1234496Y868919D01*
X1231885Y866915D01*
X1229881Y864304D01*
X1229100Y862418D01*
X1227100D01*
X1226319Y864304D01*
X1224315Y866915D01*
X1221704Y868919D01*
X1218663Y870178D01*
X1217900Y870279D01*
Y857998D01*
X1212900D01*
Y870279D01*
X1212137Y870178D01*
X1209096Y868919D01*
X1206485Y866915D01*
X1204481Y864304D01*
X1203700Y862418D01*
X1201700D01*
X1200919Y864304D01*
X1198915Y866915D01*
X1196304Y868919D01*
X1193263Y870178D01*
X1192500Y870279D01*
Y857998D01*
X1190003D01*
Y855500D01*
X1177721D01*
X1177806Y854853D01*
X1176254Y854088D01*
X1175999Y853982D01*
X1154404Y875577D01*
X1155170Y877424D01*
X1155453D01*
X1157737Y877725D01*
X1158801Y878166D01*
X1158822Y878175D01*
X1246844D01*
X1257374Y867644D01*
D02*
G37*
G36*
X929139Y693461D02*
X930581Y691581D01*
X932461Y690138D01*
X934650Y689232D01*
X937000Y688922D01*
X939350Y689232D01*
X939781Y689410D01*
X941444Y688299D01*
Y670004D01*
X939650Y669768D01*
X937461Y668861D01*
X935581Y667419D01*
X934138Y665539D01*
X933232Y663350D01*
X932922Y661000D01*
X933232Y658651D01*
X934138Y656461D01*
X935444Y654760D01*
Y621000D01*
X935667Y619303D01*
X935995Y618513D01*
X936322Y617722D01*
X937364Y616364D01*
X1062816Y490913D01*
X1062050Y489065D01*
X1036048D01*
X1034350Y489768D01*
X1032000Y490078D01*
X1029650Y489768D01*
X1027461Y488862D01*
X1025581Y487419D01*
X1024138Y485539D01*
X1023232Y483349D01*
X1023107Y482399D01*
X1021259Y481633D01*
X1020715Y482050D01*
X1018891Y482806D01*
X1016933Y483064D01*
X988499D01*
X986541Y482806D01*
X984717Y482050D01*
X983150Y480848D01*
X949651Y447349D01*
X948449Y445782D01*
X947693Y443958D01*
X947435Y442000D01*
Y436454D01*
X945474Y436063D01*
X945178Y436778D01*
X944136Y438136D01*
X942778Y439178D01*
X941197Y439833D01*
X939500Y440056D01*
X939239D01*
X938596Y441950D01*
X939419Y442581D01*
X940861Y444461D01*
X941768Y446651D01*
X942078Y449000D01*
X941768Y451349D01*
X940861Y453539D01*
X939419Y455419D01*
X937539Y456861D01*
X935350Y457768D01*
X933223Y458048D01*
X924556Y466716D01*
Y511859D01*
X926060Y513178D01*
X928000Y512922D01*
X930350Y513232D01*
X932539Y514138D01*
X934419Y515581D01*
X935862Y517461D01*
X936768Y519650D01*
X937048Y521777D01*
X966636Y551364D01*
X967678Y552722D01*
X967854Y553148D01*
X968419Y553581D01*
X969862Y555461D01*
X970768Y557650D01*
X971078Y560000D01*
X970768Y562350D01*
X969862Y564539D01*
X968419Y566419D01*
X966539Y567861D01*
X964350Y568768D01*
X962000Y569078D01*
X959650Y568768D01*
X957461Y567861D01*
X955581Y566419D01*
X954139Y564539D01*
X953232Y562350D01*
X952922Y560000D01*
X953232Y557650D01*
X953568Y556839D01*
X927777Y531048D01*
X926060Y530822D01*
X924556Y532141D01*
Y691760D01*
X925861Y693461D01*
X926500Y695003D01*
X928500D01*
X929139Y693461D01*
D02*
G37*
G36*
X1056828Y241350D02*
X1058000Y238521D01*
Y234500D01*
X1058000D01*
X1058104Y234381D01*
X1057922Y233000D01*
X1058232Y230651D01*
X1059138Y228461D01*
X1060581Y226581D01*
X1062461Y225138D01*
X1062510Y225118D01*
X1064581Y222419D01*
X1063139Y220539D01*
X1062294Y218500D01*
X1068500D01*
Y224119D01*
X1069350Y224231D01*
X1071299Y225039D01*
X1071556Y225005D01*
X1071539Y225138D01*
X1073419Y226581D01*
X1074862Y228461D01*
X1075768Y230651D01*
X1076078Y233000D01*
X1077393Y234500D01*
X1079999D01*
X1080651Y234000D01*
X1080718Y233949D01*
X1082542Y233193D01*
X1084500Y232935D01*
X1090500D01*
Y230500D01*
X1110500D01*
Y236802D01*
X1111952Y238254D01*
X1113800Y237489D01*
Y226600D01*
Y225000D01*
X1112500D01*
Y214998D01*
Y205000D01*
X1120000D01*
Y211600D01*
X1142723D01*
X1143000Y190000D01*
X1144000Y191000D01*
X1154800D01*
Y170600D01*
D01*
Y170600D01*
X1154075Y169876D01*
X1104500D01*
Y183000D01*
Y189500D01*
X1085500D01*
Y188265D01*
X1083996Y186947D01*
X1083000Y187078D01*
X1080650Y186768D01*
X1078461Y185861D01*
X1076581Y184419D01*
X1075138Y182539D01*
X1074232Y180350D01*
X1073922Y178000D01*
X1074232Y175651D01*
X1075138Y173461D01*
X1076514Y171669D01*
X1076270Y171176D01*
X1075272Y169876D01*
X1001056D01*
Y169876D01*
X984997D01*
Y173300D01*
X1000924D01*
X1000833Y173997D01*
X1000178Y175578D01*
X999136Y176936D01*
X999139Y176944D01*
X1000500D01*
X1002197Y177167D01*
X1002852Y177439D01*
X1003778Y177822D01*
X1005136Y178864D01*
X1008636Y182364D01*
X1009678Y183722D01*
X1009920Y184306D01*
X1010333Y185303D01*
X1010556Y187000D01*
Y193760D01*
X1011861Y195461D01*
X1012768Y197651D01*
X1013078Y200000D01*
X1012768Y202349D01*
X1011861Y204539D01*
X1011345Y205212D01*
X1025349Y219216D01*
X1025349Y219216D01*
X1026551Y220783D01*
X1027307Y222607D01*
X1027565Y224565D01*
Y237726D01*
X1029068Y239045D01*
X1030000Y238922D01*
X1032349Y239232D01*
X1034539Y240139D01*
X1036240Y241444D01*
X1055000D01*
X1056496Y241641D01*
X1056828Y241350D01*
D02*
G37*
G36*
X961651Y241651D02*
X961651Y241651D01*
X963218Y240449D01*
D01*
D01*
Y240449D01*
X963218Y240449D01*
D01*
D01*
X963218D01*
Y240449D01*
D01*
X963218D01*
Y240449D01*
X965042Y239693D01*
X967000Y239435D01*
X967000Y239435D01*
X968170D01*
X969281Y237772D01*
X969167Y237497D01*
X968944Y235800D01*
Y232800D01*
X969167Y231103D01*
X969822Y229522D01*
X970864Y228164D01*
Y227736D01*
X969822Y226378D01*
X969167Y224797D01*
X968944Y223100D01*
Y220100D01*
X969167Y218403D01*
X969822Y216822D01*
X970864Y215464D01*
Y215036D01*
X969822Y213678D01*
X969167Y212097D01*
X968944Y210400D01*
Y207400D01*
X969167Y205703D01*
X969822Y204122D01*
X970864Y202764D01*
Y202336D01*
X969822Y200978D01*
X969167Y199397D01*
X968944Y197700D01*
Y194700D01*
X969167Y193003D01*
X969822Y191422D01*
X970482Y190562D01*
X969265Y188975D01*
X967500Y189706D01*
Y180998D01*
X962500D01*
Y189706D01*
X961228Y189179D01*
X959565Y190290D01*
Y241124D01*
X961413Y241889D01*
X961651Y241651D01*
D02*
G37*
G36*
X709454Y1055848D02*
X708689Y1054000D01*
X708500D01*
Y1036500D01*
X716000D01*
Y1046689D01*
X717848Y1047454D01*
X736435Y1028867D01*
Y964000D01*
X736693Y962042D01*
X737227Y960752D01*
X737449Y960218D01*
X738651Y958651D01*
X770889Y926413D01*
X770124Y924565D01*
X725133D01*
X689247Y960451D01*
X689861Y962257D01*
X692075Y963175D01*
X701750D01*
X704034Y963475D01*
X704916Y963840D01*
X706163Y964357D01*
X707991Y965759D01*
X712231Y970000D01*
X716000D01*
Y1010000D01*
X696000D01*
Y980826D01*
X692075D01*
X689861Y981743D01*
X687250Y982086D01*
X684640Y981743D01*
X682207Y980735D01*
X680118Y979132D01*
X678515Y977043D01*
X677507Y974611D01*
X675701Y973997D01*
X672349Y977349D01*
X670782Y978551D01*
X668958Y979307D01*
X667000Y979565D01*
X585133D01*
X582046Y982652D01*
X582811Y984500D01*
X613500D01*
Y1019500D01*
X578500D01*
Y988811D01*
X576652Y988046D01*
X557349Y1007349D01*
X555782Y1008551D01*
X553958Y1009307D01*
X552000Y1009565D01*
X487500D01*
Y1010500D01*
X487500D01*
Y1045500D01*
X452500D01*
Y1038086D01*
X419000D01*
Y1076000D01*
X378000D01*
Y1010000D01*
X388175D01*
Y978500D01*
X360500D01*
Y968997D01*
X358003D01*
Y966500D01*
X349000D01*
Y966003D01*
X347004Y965872D01*
X346743Y967860D01*
X345735Y970293D01*
X344132Y972382D01*
X308086Y1008428D01*
Y1010000D01*
X318500D01*
Y1076000D01*
X302586D01*
Y1084750D01*
X302243Y1087361D01*
X301235Y1089793D01*
X299632Y1091882D01*
X297543Y1093485D01*
X297732Y1094435D01*
X459261D01*
X459902Y1093236D01*
X460146Y1092552D01*
X457566Y1090434D01*
X455379Y1087769D01*
X453754Y1084729D01*
X452753Y1081431D01*
X452662Y1080500D01*
X487338D01*
X487247Y1081431D01*
X486246Y1084729D01*
X484621Y1087769D01*
X482434Y1090434D01*
X479770Y1092621D01*
X476729Y1094246D01*
X476757Y1094435D01*
X570048D01*
X570904Y1092627D01*
X569379Y1090770D01*
X567754Y1087729D01*
X566753Y1084431D01*
X566415Y1081000D01*
X566753Y1077569D01*
X567754Y1074271D01*
X569379Y1071230D01*
X571566Y1068566D01*
X574230Y1066379D01*
X577271Y1064754D01*
X580569Y1063753D01*
X584000Y1063415D01*
X587431Y1063753D01*
X590729Y1064754D01*
X593769Y1066379D01*
X596434Y1068566D01*
X598621Y1071230D01*
X600246Y1074271D01*
X601247Y1077569D01*
X601585Y1081000D01*
X601247Y1084431D01*
X600246Y1087729D01*
X598621Y1090770D01*
X596434Y1093434D01*
X596792Y1094435D01*
X670867D01*
X709454Y1055848D01*
D02*
G37*
G36*
X1403080Y1105055D02*
X1404312Y1097802D01*
X1406349Y1090733D01*
X1409164Y1083936D01*
X1412723Y1077497D01*
X1416980Y1071498D01*
X1421882Y1066012D01*
X1427368Y1061110D01*
X1433368Y1056853D01*
X1439807Y1053294D01*
X1446603Y1050479D01*
X1453673Y1048442D01*
X1460925Y1047210D01*
X1462663Y1047112D01*
Y1031089D01*
X1460948Y1030060D01*
X1458729Y1031246D01*
X1455431Y1032247D01*
X1454500Y1032338D01*
Y1014997D01*
Y997662D01*
X1455431Y997753D01*
X1458729Y998754D01*
X1460948Y999940D01*
X1462663Y998911D01*
Y981089D01*
X1460948Y980060D01*
X1458729Y981246D01*
X1455431Y982247D01*
X1454500Y982338D01*
Y964997D01*
Y947662D01*
X1455431Y947753D01*
X1458729Y948754D01*
X1460948Y949940D01*
X1462663Y948911D01*
Y862406D01*
X1460855Y861551D01*
X1460770Y861621D01*
X1457729Y863246D01*
X1454431Y864247D01*
X1453500Y864339D01*
Y846998D01*
Y829662D01*
X1454431Y829753D01*
X1457729Y830754D01*
X1460770Y832379D01*
X1460855Y832449D01*
X1462663Y831594D01*
Y812406D01*
X1460855Y811551D01*
X1460770Y811621D01*
X1457729Y813246D01*
X1454431Y814247D01*
X1453500Y814339D01*
Y796998D01*
Y779662D01*
X1454431Y779753D01*
X1457729Y780754D01*
X1460770Y782379D01*
X1460855Y782449D01*
X1462663Y781594D01*
Y754608D01*
X1426000D01*
X1423854Y754181D01*
X1422035Y752965D01*
X1420819Y751146D01*
X1420392Y749000D01*
Y643000D01*
X1420392Y643000D01*
X1420392D01*
X1420819Y640854D01*
X1422035Y639035D01*
X1423854Y637819D01*
X1426000Y637392D01*
X1462663D01*
Y293089D01*
X1460948Y292060D01*
X1458729Y293246D01*
X1455431Y294247D01*
X1454500Y294338D01*
Y276998D01*
Y259662D01*
X1455431Y259753D01*
X1458729Y260754D01*
X1460948Y261940D01*
X1462663Y260911D01*
Y243089D01*
X1460948Y242060D01*
X1458729Y243246D01*
X1455431Y244247D01*
X1454500Y244338D01*
Y226998D01*
X1452003D01*
Y224500D01*
X1434662D01*
X1434753Y223569D01*
X1435754Y220271D01*
X1437379Y217230D01*
X1439566Y214566D01*
X1440620Y213700D01*
X1440327Y211722D01*
X1439807Y211507D01*
X1433368Y207948D01*
X1427368Y203691D01*
X1421882Y198789D01*
X1416980Y193303D01*
X1412723Y187303D01*
X1409164Y180864D01*
X1406349Y174067D01*
X1404312Y166998D01*
X1403080Y159745D01*
X1402982Y158008D01*
X1263000D01*
Y164500D01*
X1253997D01*
Y166997D01*
X1251500D01*
Y176500D01*
X1249800D01*
Y191000D01*
X1268800D01*
Y188100D01*
X1278802D01*
Y185602D01*
X1281300D01*
Y170600D01*
X1306300D01*
Y185602D01*
X1311300D01*
Y170600D01*
X1348800D01*
Y191000D01*
X1376000D01*
Y211600D01*
Y221602D01*
X1377300D01*
Y211600D01*
X1389800D01*
Y212035D01*
X1391608Y212890D01*
X1392231Y212379D01*
X1395271Y210754D01*
X1398569Y209753D01*
X1399500Y209662D01*
Y227003D01*
X1401998D01*
Y229500D01*
X1419338D01*
X1419247Y230431D01*
X1418246Y233729D01*
X1417545Y235040D01*
X1418960Y236455D01*
X1420271Y235754D01*
X1423569Y234753D01*
X1427000Y234415D01*
X1430431Y234753D01*
X1433729Y235754D01*
X1435040Y236455D01*
X1436455Y235040D01*
X1435754Y233729D01*
X1434753Y230431D01*
X1434662Y229500D01*
X1449500D01*
Y244338D01*
X1448569Y244247D01*
X1445271Y243246D01*
X1443960Y242545D01*
X1442545Y243960D01*
X1443246Y245271D01*
X1444247Y248569D01*
X1444585Y252000D01*
X1444247Y255431D01*
X1443246Y258729D01*
X1442545Y260040D01*
X1443960Y261455D01*
X1445271Y260754D01*
X1448569Y259753D01*
X1449500Y259662D01*
Y274500D01*
X1434662D01*
X1434753Y273569D01*
X1435754Y270271D01*
X1436455Y268960D01*
X1435040Y267545D01*
X1433729Y268246D01*
X1430431Y269247D01*
X1427000Y269585D01*
X1423569Y269247D01*
X1420271Y268246D01*
X1418960Y267545D01*
X1417545Y268960D01*
X1418246Y270271D01*
X1419247Y273569D01*
X1419338Y274500D01*
X1401998D01*
Y276998D01*
X1399500D01*
Y294338D01*
X1398569Y294247D01*
X1395271Y293246D01*
X1392231Y291621D01*
X1391608Y291110D01*
X1389800Y291965D01*
Y306600D01*
X1376000D01*
Y310600D01*
X1389800D01*
Y325600D01*
Y340600D01*
Y355600D01*
Y370600D01*
Y385500D01*
X1406500D01*
Y405500D01*
X1400500D01*
Y418000D01*
Y436000D01*
X1397556D01*
Y440000D01*
X1397333Y441697D01*
X1396920Y442694D01*
X1396678Y443278D01*
X1395636Y444636D01*
X1382636Y457636D01*
X1381278Y458678D01*
X1380487Y459005D01*
X1379697Y459333D01*
X1378000Y459556D01*
X1349514D01*
X1316935Y492136D01*
X1315577Y493178D01*
X1315040Y493400D01*
X1315558Y495332D01*
X1317000Y495142D01*
X1320263Y495572D01*
X1323304Y496831D01*
X1325915Y498835D01*
X1327919Y501446D01*
X1328700Y503332D01*
X1330700D01*
X1331481Y501446D01*
X1333485Y498835D01*
X1336096Y496831D01*
X1339137Y495572D01*
X1342400Y495142D01*
X1345663Y495572D01*
X1348704Y496831D01*
X1351315Y498835D01*
X1353319Y501446D01*
X1354100Y503332D01*
X1356100D01*
X1356881Y501446D01*
X1358885Y498835D01*
X1361496Y496831D01*
X1364537Y495572D01*
X1365300Y495471D01*
Y507747D01*
Y520029D01*
X1364537Y519928D01*
X1361496Y518669D01*
X1358885Y516665D01*
X1356881Y514054D01*
X1356100Y512168D01*
X1354100D01*
X1353319Y514054D01*
X1351315Y516665D01*
X1348704Y518669D01*
X1345663Y519928D01*
X1342400Y520358D01*
X1339137Y519928D01*
X1336096Y518669D01*
X1333485Y516665D01*
X1331481Y514054D01*
X1330700Y512168D01*
X1328700D01*
X1327919Y514054D01*
X1325915Y516665D01*
X1323304Y518669D01*
X1320263Y519928D01*
X1317000Y520358D01*
X1313737Y519928D01*
X1310696Y518669D01*
X1308085Y516665D01*
X1306081Y514054D01*
X1305300Y512168D01*
X1303300D01*
X1302519Y514054D01*
X1300515Y516665D01*
X1297904Y518669D01*
X1294863Y519928D01*
X1291600Y520358D01*
X1288337Y519928D01*
X1285296Y518669D01*
X1282685Y516665D01*
X1280681Y514054D01*
X1279900Y512168D01*
X1277900D01*
X1277119Y514054D01*
X1275115Y516665D01*
X1272504Y518669D01*
X1269463Y519928D01*
X1266200Y520358D01*
X1262937Y519928D01*
X1259896Y518669D01*
X1257285Y516665D01*
X1255281Y514054D01*
X1254500Y512168D01*
X1252500D01*
X1251719Y514054D01*
X1249715Y516665D01*
X1247104Y518669D01*
X1244063Y519928D01*
X1240800Y520358D01*
X1237537Y519928D01*
X1234496Y518669D01*
X1231885Y516665D01*
X1229881Y514054D01*
X1229100Y512168D01*
X1227100D01*
X1226319Y514054D01*
X1224315Y516665D01*
X1221704Y518669D01*
X1218663Y519928D01*
X1215400Y520358D01*
X1212137Y519928D01*
X1209096Y518669D01*
X1206485Y516665D01*
X1204481Y514054D01*
X1204462Y514006D01*
X1202500Y514397D01*
Y520250D01*
X1192500D01*
Y507747D01*
X1190003D01*
Y505250D01*
X1177500D01*
Y495470D01*
X1177500D01*
X1177500Y495470D01*
X1177500Y495250D01*
X1176306Y494056D01*
X1154338D01*
X1153020Y495560D01*
X1153078Y496000D01*
X1152768Y498349D01*
X1151861Y500539D01*
X1150419Y502419D01*
X1148539Y503862D01*
X1146349Y504768D01*
X1144510Y505010D01*
X1144268Y506850D01*
X1143361Y509039D01*
X1141919Y510919D01*
X1140039Y512361D01*
X1137850Y513268D01*
X1135500Y513578D01*
X1133150Y513268D01*
X1130961Y512361D01*
X1129260Y511056D01*
X1075358D01*
X999708Y586706D01*
X999708Y586706D01*
X999708D01*
X1000000Y588922D01*
X1002349Y589232D01*
X1004539Y590139D01*
X1006419Y591581D01*
X1007861Y593461D01*
X1008768Y595650D01*
X1009048Y597777D01*
X1063636Y652364D01*
X1064678Y653722D01*
X1065141Y654840D01*
X1065333Y655303D01*
X1065556Y657000D01*
Y738760D01*
X1066861Y740461D01*
X1067768Y742651D01*
X1068078Y745000D01*
X1067768Y747349D01*
X1066861Y749539D01*
X1065419Y751419D01*
X1063539Y752861D01*
X1061349Y753768D01*
X1059000Y754078D01*
X1056650Y753768D01*
X1054488Y752873D01*
X1052825Y753984D01*
Y777000D01*
Y787016D01*
X1054489Y788127D01*
X1056500Y787294D01*
Y795997D01*
Y804706D01*
X1054489Y803873D01*
X1052825Y804984D01*
Y817290D01*
X1054673Y818055D01*
X1146364Y726364D01*
X1147722Y725322D01*
X1148840Y724859D01*
X1149303Y724667D01*
X1151000Y724444D01*
X1280412D01*
X1281055Y722550D01*
X1279581Y721419D01*
X1278139Y719539D01*
X1277294Y717500D01*
X1294706D01*
X1293861Y719539D01*
X1292419Y721419D01*
X1290539Y722861D01*
Y724139D01*
X1292419Y725581D01*
X1293861Y727461D01*
X1294768Y729650D01*
X1295078Y732000D01*
X1294768Y734350D01*
X1293861Y736539D01*
X1292419Y738419D01*
Y739581D01*
X1293861Y741461D01*
X1294768Y743651D01*
X1295078Y746000D01*
X1294768Y748350D01*
X1293861Y750539D01*
X1292419Y752419D01*
X1290539Y753861D01*
X1290555Y753942D01*
X1399498D01*
X1401195Y754166D01*
X1401986Y754493D01*
X1402776Y754821D01*
X1402922Y754933D01*
X1403000Y754922D01*
X1405349Y755232D01*
X1407539Y756139D01*
X1409419Y757581D01*
X1410861Y759461D01*
X1411768Y761650D01*
X1412078Y764000D01*
X1411768Y766349D01*
X1410861Y768539D01*
X1409419Y770419D01*
X1407539Y771861D01*
X1405349Y772768D01*
X1403000Y773078D01*
X1400650Y772768D01*
X1398461Y771861D01*
X1396581Y770419D01*
X1395139Y768539D01*
X1394524Y767055D01*
X1235338D01*
X1234019Y768558D01*
X1234078Y769000D01*
X1233768Y771349D01*
X1232861Y773539D01*
X1231419Y775419D01*
X1229539Y776861D01*
X1227349Y777768D01*
X1226399Y777893D01*
X1218157Y786136D01*
X1216799Y787178D01*
X1215873Y787561D01*
X1215218Y787833D01*
X1213521Y788056D01*
X1201351D01*
X1200866Y789996D01*
X1201723Y790455D01*
X1204921Y793079D01*
X1207545Y796277D01*
X1209495Y799925D01*
X1210696Y803883D01*
X1211102Y808000D01*
X1210696Y812117D01*
X1209495Y816075D01*
X1207545Y819723D01*
X1204921Y822921D01*
X1201723Y825545D01*
X1198075Y827495D01*
X1194117Y828696D01*
X1190000Y829102D01*
X1185883Y828696D01*
X1181925Y827495D01*
X1178277Y825545D01*
X1175079Y822921D01*
X1172455Y819723D01*
X1170505Y816075D01*
X1169304Y812117D01*
X1168898Y808000D01*
X1169304Y803883D01*
X1170505Y799925D01*
X1172455Y796277D01*
X1175079Y793079D01*
X1178277Y790455D01*
X1179134Y789996D01*
X1178649Y788056D01*
X1147216D01*
X1092048Y843223D01*
X1091768Y845350D01*
X1090861Y847539D01*
X1089419Y849419D01*
X1087539Y850861D01*
X1085350Y851768D01*
X1083000Y852078D01*
X1080650Y851768D01*
X1078461Y850861D01*
X1076581Y849419D01*
X1075138Y847539D01*
X1074265Y847305D01*
X1073539Y847861D01*
X1071349Y848768D01*
X1069000Y849078D01*
X1066650Y848768D01*
X1064461Y847861D01*
X1062581Y846419D01*
X1061139Y844539D01*
X1061139D01*
X1060539Y843861D01*
X1058350Y844768D01*
X1056000Y845078D01*
X1054329Y844858D01*
X1052825Y846176D01*
Y855789D01*
X1052525Y858073D01*
X1052160Y858954D01*
X1051643Y860201D01*
X1050241Y862029D01*
X1050193Y862077D01*
X1050958Y863924D01*
X1141094D01*
X1171259Y833759D01*
X1173087Y832357D01*
X1174592Y831733D01*
X1175216Y831475D01*
X1177500Y831174D01*
X1299000D01*
X1301284Y831475D01*
X1302348Y831916D01*
X1303413Y832357D01*
X1305241Y833759D01*
X1316888Y845407D01*
X1317000Y845392D01*
X1320263Y845822D01*
X1323304Y847081D01*
X1325915Y849085D01*
X1325984Y849174D01*
X1333416D01*
X1333485Y849085D01*
X1336096Y847081D01*
X1339137Y845822D01*
X1342400Y845392D01*
X1345663Y845822D01*
X1348704Y847081D01*
X1351315Y849085D01*
X1351384Y849174D01*
X1355300D01*
Y845500D01*
X1380300D01*
Y870500D01*
X1355300D01*
Y866825D01*
X1351384D01*
X1351315Y866915D01*
X1348704Y868919D01*
X1345663Y870178D01*
X1342400Y870608D01*
X1339137Y870178D01*
X1336096Y868919D01*
X1333485Y866915D01*
X1333416Y866825D01*
X1325984D01*
X1325915Y866915D01*
X1323304Y868919D01*
X1320263Y870178D01*
X1317000Y870608D01*
X1313737Y870178D01*
X1310696Y868919D01*
X1308085Y866915D01*
X1306081Y864304D01*
X1305300Y862418D01*
X1303300D01*
X1302519Y864304D01*
X1300515Y866915D01*
X1297904Y868919D01*
X1294863Y870178D01*
X1291600Y870608D01*
X1288337Y870178D01*
X1285296Y868919D01*
X1282685Y866915D01*
X1282616Y866825D01*
X1275184D01*
X1275115Y866915D01*
X1275025Y866984D01*
Y871300D01*
X1274725Y873584D01*
X1274169Y874927D01*
X1273843Y875713D01*
X1272441Y877541D01*
X1261385Y888596D01*
X1262150Y890444D01*
X1386000D01*
X1387697Y890667D01*
X1388487Y890995D01*
X1389278Y891322D01*
X1390636Y892364D01*
X1397636Y899364D01*
X1398678Y900722D01*
X1399061Y901648D01*
X1399333Y902303D01*
X1399556Y904000D01*
X1402500D01*
Y918000D01*
Y936000D01*
X1400683D01*
X1400673Y936078D01*
X1400557Y936958D01*
X1399801Y938782D01*
X1398599Y940349D01*
X1398599Y940349D01*
X1394599Y944349D01*
X1393032Y945551D01*
X1391208Y946307D01*
X1389250Y946565D01*
X1372000D01*
Y947500D01*
Y950500D01*
Y960500D01*
Y971500D01*
X1358497D01*
Y976500D01*
X1372000D01*
Y977155D01*
X1373663Y978267D01*
X1374737Y977822D01*
X1378000Y977392D01*
X1387192D01*
X1388047Y975584D01*
X1387379Y974770D01*
X1385754Y971729D01*
X1384753Y968431D01*
X1384662Y967500D01*
X1419338D01*
X1419247Y968431D01*
X1418246Y971729D01*
X1417545Y973040D01*
X1418960Y974455D01*
X1420271Y973754D01*
X1423569Y972753D01*
X1427000Y972415D01*
X1430431Y972753D01*
X1433729Y973754D01*
X1435040Y974455D01*
X1436455Y973040D01*
X1435754Y971729D01*
X1434753Y968431D01*
X1434662Y967500D01*
X1449500D01*
Y982338D01*
X1448569Y982247D01*
X1445271Y981246D01*
X1443960Y980545D01*
X1442545Y981960D01*
X1443246Y983271D01*
X1444247Y986569D01*
X1444585Y990000D01*
X1444247Y993431D01*
X1443246Y996729D01*
X1442545Y998040D01*
X1443960Y999455D01*
X1445271Y998754D01*
X1448569Y997753D01*
X1449500Y997662D01*
Y1012500D01*
X1434662D01*
X1434753Y1011569D01*
X1435754Y1008271D01*
X1436455Y1006960D01*
X1435040Y1005545D01*
X1433729Y1006246D01*
X1430431Y1007247D01*
X1427000Y1007585D01*
X1423569Y1007247D01*
X1420271Y1006246D01*
X1418960Y1005545D01*
X1417545Y1006960D01*
X1418246Y1008271D01*
X1419247Y1011569D01*
X1419338Y1012500D01*
X1401998D01*
Y1014997D01*
X1399500D01*
Y1032338D01*
X1398569Y1032247D01*
X1395271Y1031246D01*
X1392231Y1029621D01*
X1390287Y1028027D01*
X1388539Y1028998D01*
X1388645Y1029800D01*
X1388336Y1032150D01*
X1387429Y1034339D01*
X1385986Y1036219D01*
X1384106Y1037662D01*
X1381917Y1038569D01*
X1379567Y1038878D01*
X1377218Y1038569D01*
X1375029Y1037662D01*
X1374315Y1037114D01*
X1372000D01*
Y1041500D01*
X1358497D01*
Y1046500D01*
X1372000D01*
Y1050500D01*
Y1060500D01*
Y1070500D01*
Y1080500D01*
Y1097500D01*
X1347000D01*
Y1092000D01*
X1344500D01*
Y1096500D01*
X1317500D01*
Y1092000D01*
X1290500D01*
Y1096500D01*
X1263500D01*
Y1092000D01*
X1236500D01*
Y1096500D01*
X1217001D01*
Y1097501D01*
X1209500D01*
Y1097500D01*
X1192000D01*
Y1080500D01*
Y1070500D01*
Y1060500D01*
Y1050500D01*
Y1046500D01*
X1205502D01*
Y1041500D01*
X1192000D01*
Y1030500D01*
Y1029500D01*
X1164000D01*
Y1029500D01*
X1163349Y1028768D01*
X1161000Y1029078D01*
X1158651Y1028768D01*
X1156461Y1027861D01*
X1154581Y1026419D01*
X1153139Y1024539D01*
X1152232Y1022349D01*
X1151922Y1020000D01*
X1152232Y1017651D01*
X1153139Y1015461D01*
X1154581Y1013581D01*
X1156461Y1012139D01*
X1158651Y1011232D01*
X1161000Y1010922D01*
X1162496Y1011119D01*
X1164000Y1009801D01*
Y997500D01*
X1164000D01*
X1164104Y997381D01*
X1163922Y996000D01*
X1164232Y993651D01*
X1165138Y991461D01*
X1166581Y989581D01*
X1168461Y988139D01*
X1170650Y987232D01*
X1173000Y986922D01*
X1175350Y987232D01*
X1177539Y988139D01*
X1179419Y989581D01*
X1180861Y991461D01*
X1181768Y993651D01*
X1182078Y996000D01*
X1183393Y997500D01*
X1192000D01*
Y990500D01*
Y980500D01*
Y976500D01*
X1205502D01*
Y971500D01*
X1192000D01*
Y960500D01*
Y950500D01*
Y940500D01*
Y930500D01*
Y920500D01*
X1217000D01*
Y925000D01*
X1220500D01*
Y921500D01*
X1247500D01*
Y925000D01*
X1273500D01*
Y921500D01*
X1300500D01*
Y925000D01*
X1327500D01*
Y921500D01*
X1341003D01*
Y916500D01*
X1327500D01*
Y909556D01*
X1300500D01*
Y916500D01*
X1273500D01*
Y909556D01*
X1247500D01*
Y916500D01*
X1220500D01*
Y909556D01*
X1160716D01*
X1160048Y910223D01*
X1159768Y912349D01*
X1158861Y914539D01*
X1157419Y916419D01*
X1155539Y917861D01*
X1153350Y918768D01*
X1151000Y919078D01*
X1148651Y918768D01*
X1146461Y917861D01*
X1144581Y916419D01*
X1143139Y914539D01*
X1142232Y912349D01*
X1141922Y910000D01*
X1142232Y907651D01*
X1143139Y905461D01*
X1144581Y903581D01*
Y903419D01*
X1143139Y901539D01*
X1142232Y899350D01*
X1141922Y897000D01*
X1142232Y894650D01*
X1142340Y894389D01*
X1142134Y893893D01*
X1140743Y892825D01*
X998915D01*
X997000Y893078D01*
X995085Y892825D01*
X917000D01*
X914716Y892525D01*
X913211Y891901D01*
X912587Y891643D01*
X910759Y890241D01*
X908344Y887825D01*
X882176D01*
X880858Y889329D01*
X880769Y888650D01*
X880706Y888500D01*
X863294D01*
X863231Y888650D01*
X863142Y889329D01*
X861824Y887825D01*
X848656D01*
X846241Y890241D01*
X844413Y891643D01*
X843348Y892084D01*
X842284Y892525D01*
X840000Y892825D01*
X829308D01*
X827990Y894329D01*
X827792Y892826D01*
X810208D01*
X810010Y894329D01*
X808692Y892825D01*
X711176D01*
X709858Y894329D01*
X709769Y893650D01*
X709706Y893500D01*
X700997D01*
Y898500D01*
X709706D01*
X709590Y898781D01*
X710701Y900444D01*
X809714D01*
X810825Y898781D01*
X810294Y897500D01*
X827706D01*
X826861Y899539D01*
X827308Y900444D01*
X866413D01*
X867055Y898550D01*
X865581Y897419D01*
X864139Y895539D01*
X863294Y893500D01*
X869500D01*
Y899706D01*
X869650Y899769D01*
X872000Y900078D01*
X872001Y900078D01*
X872366Y900444D01*
X921760D01*
X923461Y899138D01*
X925650Y898232D01*
X928000Y897922D01*
X930350Y898232D01*
X932539Y899138D01*
X934419Y900581D01*
X935862Y902461D01*
X936768Y904650D01*
X937078Y907000D01*
X936886Y908454D01*
X938539Y909138D01*
X940419Y910581D01*
X941861Y912461D01*
X942768Y914650D01*
X943078Y917000D01*
X942768Y919350D01*
X941861Y921539D01*
X940419Y923419D01*
X938539Y924861D01*
X936349Y925768D01*
X934000Y926078D01*
X931650Y925768D01*
X929461Y924861D01*
X929074Y924565D01*
X915274D01*
X913955Y926068D01*
X914078Y927000D01*
X913768Y929350D01*
X912861Y931539D01*
X911419Y933419D01*
X909539Y934862D01*
X907349Y935768D01*
X905000Y936078D01*
X902651Y935768D01*
X900461Y934862D01*
X900074Y934565D01*
X784133D01*
X768547Y950151D01*
X769033Y952091D01*
X769968Y952375D01*
X772574Y953768D01*
X774858Y955642D01*
X775900Y956912D01*
X777900D01*
X778942Y955642D01*
X781226Y953768D01*
X783832Y952375D01*
X786659Y951517D01*
X787100Y951474D01*
Y966302D01*
X789597D01*
Y968800D01*
X804426D01*
X804383Y969240D01*
X803525Y972068D01*
X802132Y974674D01*
X800258Y976958D01*
X797974Y978832D01*
Y979168D01*
X800258Y981042D01*
X801300Y982312D01*
X803300D01*
X804342Y981042D01*
X806626Y979168D01*
X809232Y977775D01*
X812059Y976917D01*
X815000Y976627D01*
X817941Y976917D01*
X820768Y977775D01*
X823374Y979168D01*
X825658Y981042D01*
X826700Y982312D01*
X828700D01*
X829742Y981042D01*
X831012Y980000D01*
Y978000D01*
X829742Y976958D01*
X827868Y974674D01*
X826475Y972068D01*
X825617Y969240D01*
X825327Y966300D01*
X825617Y963360D01*
X826475Y960532D01*
X827868Y957926D01*
X829742Y955642D01*
X832026Y953768D01*
X834632Y952375D01*
X837459Y951517D01*
X840400Y951227D01*
X843341Y951517D01*
X846168Y952375D01*
X848774Y953768D01*
X851058Y955642D01*
X852100Y956912D01*
X854100D01*
X855142Y955642D01*
X857426Y953768D01*
X860032Y952375D01*
X862859Y951517D01*
X865800Y951227D01*
X868740Y951517D01*
X871568Y952375D01*
X874174Y953768D01*
X876458Y955642D01*
X878332Y957926D01*
X879725Y960532D01*
X880583Y963360D01*
X880873Y966300D01*
X880583Y969240D01*
X879725Y972068D01*
X878332Y974674D01*
X876458Y976958D01*
X874174Y978832D01*
Y979168D01*
X876458Y981042D01*
X878332Y983326D01*
X879725Y985932D01*
X880583Y988760D01*
X880873Y991700D01*
X880583Y994641D01*
X879725Y997468D01*
X878332Y1000074D01*
X876458Y1002358D01*
X874174Y1004232D01*
X872746Y1004995D01*
X873000Y1006922D01*
X875350Y1007232D01*
X877539Y1008139D01*
X879419Y1009581D01*
X880862Y1011461D01*
X881768Y1013651D01*
X882078Y1016000D01*
X881768Y1018350D01*
X880862Y1020539D01*
X879419Y1022419D01*
X877539Y1023861D01*
X875350Y1024768D01*
X873223Y1025048D01*
X853636Y1044636D01*
X852278Y1045678D01*
X851352Y1046061D01*
X850697Y1046333D01*
X849000Y1046556D01*
X794081D01*
X793419Y1047419D01*
X791539Y1048861D01*
X789350Y1049768D01*
X787000Y1050078D01*
X784650Y1049768D01*
X782461Y1048861D01*
X780581Y1047419D01*
X779138Y1045539D01*
X778232Y1043350D01*
X777922Y1041000D01*
X778232Y1038651D01*
X779138Y1036461D01*
X780581Y1034581D01*
X782461Y1033139D01*
X784650Y1032232D01*
X787000Y1031922D01*
X789350Y1032232D01*
X791539Y1033139D01*
X791937Y1033444D01*
X846284D01*
X863952Y1015777D01*
X864232Y1013651D01*
X865139Y1011461D01*
X866581Y1009581D01*
X868006Y1008488D01*
X867271Y1006628D01*
X865800Y1006773D01*
X862859Y1006483D01*
X860032Y1005625D01*
X857426Y1004232D01*
X855142Y1002358D01*
X854100Y1001088D01*
X852100D01*
X851058Y1002358D01*
X848774Y1004232D01*
X846168Y1005625D01*
X843341Y1006483D01*
X840400Y1006773D01*
X837459Y1006483D01*
X834632Y1005625D01*
X832026Y1004232D01*
X829742Y1002358D01*
X828700Y1001088D01*
X826700D01*
X825658Y1002358D01*
X823374Y1004232D01*
X820768Y1005625D01*
X817941Y1006483D01*
X815000Y1006773D01*
X812059Y1006483D01*
X809232Y1005625D01*
X806626Y1004232D01*
X804342Y1002358D01*
X803300Y1001088D01*
X801300D01*
X800258Y1002358D01*
X797974Y1004232D01*
X795368Y1005625D01*
X792541Y1006483D01*
X789600Y1006773D01*
X786659Y1006483D01*
X783832Y1005625D01*
X781226Y1004232D01*
X778942Y1002358D01*
X777900Y1001088D01*
X775900D01*
X774858Y1002358D01*
X772574Y1004232D01*
X769968Y1005625D01*
X767141Y1006483D01*
X764200Y1006773D01*
X761260Y1006483D01*
X758432Y1005625D01*
X755826Y1004232D01*
X753542Y1002358D01*
X753448Y1002243D01*
X751565Y1002917D01*
Y1032000D01*
X751307Y1033958D01*
X750551Y1035782D01*
X749349Y1037349D01*
X681753Y1104945D01*
X682518Y1106793D01*
X1209500D01*
Y1101500D01*
X1236500D01*
Y1106793D01*
X1263500D01*
Y1101500D01*
X1290500D01*
Y1106793D01*
X1317500D01*
Y1101500D01*
X1344500D01*
Y1106793D01*
X1402982D01*
X1403080Y1105055D01*
D02*
G37*
%LPC*%
G36*
X1146500Y565706D02*
Y559500D01*
X1152706D01*
X1151861Y561539D01*
X1150419Y563419D01*
X1148539Y564861D01*
X1146500Y565706D01*
D02*
G37*
G36*
X1141500D02*
X1139461Y564861D01*
X1137581Y563419D01*
X1136139Y561539D01*
X1135294Y559500D01*
X1141500D01*
Y565706D01*
D02*
G37*
G36*
X1060500Y564706D02*
Y558500D01*
X1066706D01*
X1065861Y560539D01*
X1064419Y562419D01*
X1062539Y563862D01*
X1060500Y564706D01*
D02*
G37*
G36*
X735500Y562500D02*
X729294D01*
X730138Y560461D01*
X731581Y558581D01*
X733461Y557138D01*
X735500Y556294D01*
Y562500D01*
D02*
G37*
G36*
X216706Y559500D02*
X210500D01*
Y553294D01*
X212539Y554138D01*
X214419Y555581D01*
X215861Y557461D01*
X216706Y559500D01*
D02*
G37*
G36*
X746706Y562500D02*
X740500D01*
Y556294D01*
X742539Y557138D01*
X744419Y558581D01*
X745861Y560461D01*
X746706Y562500D01*
D02*
G37*
G36*
X1055500Y564706D02*
X1053461Y563862D01*
X1051581Y562419D01*
X1050138Y560539D01*
X1049294Y558500D01*
X1055500D01*
Y564706D01*
D02*
G37*
G36*
X741500Y179500D02*
X735294D01*
X736139Y177461D01*
X737581Y175581D01*
X739461Y174139D01*
X741500Y173294D01*
Y179500D01*
D02*
G37*
G36*
X1336500Y566500D02*
X1330294D01*
X1331138Y564461D01*
X1332581Y562581D01*
X1334461Y561139D01*
X1336500Y560294D01*
Y566500D01*
D02*
G37*
G36*
X735500Y573706D02*
X733461Y572861D01*
X731581Y571419D01*
X730138Y569539D01*
X729294Y567500D01*
X735500D01*
Y573706D01*
D02*
G37*
G36*
X858706Y572500D02*
X852500D01*
Y566294D01*
X854539Y567138D01*
X856419Y568581D01*
X857861Y570461D01*
X858706Y572500D01*
D02*
G37*
G36*
X1276300Y183100D02*
X1268800D01*
Y170600D01*
X1276300D01*
Y183100D01*
D02*
G37*
G36*
X1336500Y577706D02*
X1334461Y576861D01*
X1332581Y575419D01*
X1331138Y573539D01*
X1330294Y571500D01*
X1336500D01*
Y577706D01*
D02*
G37*
G36*
X740500Y573706D02*
Y567500D01*
X746706D01*
X745861Y569539D01*
X744419Y571419D01*
X742539Y572861D01*
X740500Y573706D01*
D02*
G37*
G36*
X330500Y569706D02*
X328461Y568861D01*
X326581Y567419D01*
X325139Y565539D01*
X324294Y563500D01*
X330500D01*
Y569706D01*
D02*
G37*
G36*
X1347706Y566500D02*
X1341500D01*
Y560294D01*
X1343539Y561139D01*
X1345419Y562581D01*
X1346861Y564461D01*
X1347706Y566500D01*
D02*
G37*
G36*
X335500Y569706D02*
Y563500D01*
X341706D01*
X340861Y565539D01*
X339419Y567419D01*
X337539Y568861D01*
X335500Y569706D01*
D02*
G37*
G36*
X210500Y570706D02*
Y564500D01*
X216706D01*
X215861Y566539D01*
X214419Y568419D01*
X212539Y569861D01*
X210500Y570706D01*
D02*
G37*
G36*
X205500D02*
X203461Y569861D01*
X201581Y568419D01*
X200138Y566539D01*
X199294Y564500D01*
X205500D01*
Y570706D01*
D02*
G37*
G36*
X805500Y539706D02*
Y533500D01*
X811706D01*
X810861Y535539D01*
X809419Y537419D01*
X807539Y538862D01*
X805500Y539706D01*
D02*
G37*
G36*
X800500D02*
X798461Y538862D01*
X796581Y537419D01*
X795138Y535539D01*
X794294Y533500D01*
X800500D01*
Y539706D01*
D02*
G37*
G36*
X996500Y542706D02*
X994461Y541861D01*
X992581Y540419D01*
X991139Y538539D01*
X990294Y536500D01*
X996500D01*
Y542706D01*
D02*
G37*
G36*
X1417800Y579102D02*
X1413683Y578696D01*
X1409725Y577495D01*
X1406077Y575545D01*
X1402879Y572921D01*
X1400255Y569723D01*
X1398305Y566075D01*
X1397104Y562117D01*
X1396698Y558000D01*
X1397104Y553883D01*
X1398305Y549925D01*
X1400255Y546277D01*
X1402879Y543079D01*
X1406077Y540455D01*
X1409725Y538505D01*
X1413683Y537304D01*
X1417800Y536898D01*
X1421917Y537304D01*
X1425875Y538505D01*
X1429523Y540455D01*
X1432721Y543079D01*
X1435345Y546277D01*
X1437295Y549925D01*
X1438496Y553883D01*
X1438902Y558000D01*
X1438496Y562117D01*
X1437295Y566075D01*
X1435345Y569723D01*
X1432721Y572921D01*
X1429523Y575545D01*
X1425875Y577495D01*
X1421917Y578696D01*
X1417800Y579102D01*
D02*
G37*
G36*
X1001500Y542706D02*
Y536500D01*
X1007706D01*
X1006861Y538539D01*
X1005419Y540419D01*
X1003539Y541861D01*
X1001500Y542706D01*
D02*
G37*
G36*
X527500Y533706D02*
X525461Y532861D01*
X523581Y531419D01*
X522139Y529539D01*
X521294Y527500D01*
X527500D01*
Y533706D01*
D02*
G37*
G36*
X406500Y532706D02*
Y526500D01*
X412706D01*
X411861Y528539D01*
X410419Y530419D01*
X408539Y531861D01*
X406500Y532706D01*
D02*
G37*
G36*
X532500Y533706D02*
Y527500D01*
X538706D01*
X537862Y529539D01*
X536419Y531419D01*
X534539Y532861D01*
X532500Y533706D01*
D02*
G37*
G36*
X894706Y537500D02*
X888500D01*
Y531294D01*
X890539Y532139D01*
X892419Y533581D01*
X893861Y535461D01*
X894706Y537500D01*
D02*
G37*
G36*
X883500D02*
X877294D01*
X878139Y535461D01*
X879581Y533581D01*
X881461Y532139D01*
X883500Y531294D01*
Y537500D01*
D02*
G37*
G36*
X161500Y593102D02*
X157383Y592696D01*
X153425Y591495D01*
X149777Y589545D01*
X146579Y586921D01*
X143955Y583723D01*
X142005Y580075D01*
X140804Y576117D01*
X140398Y572000D01*
X140804Y567883D01*
X142005Y563925D01*
X143955Y560276D01*
X146579Y557079D01*
X149777Y554455D01*
X153425Y552505D01*
X157383Y551304D01*
X161500Y550898D01*
X165617Y551304D01*
X169575Y552505D01*
X173223Y554455D01*
X176421Y557079D01*
X179045Y560276D01*
X180995Y563925D01*
X182196Y567883D01*
X182602Y572000D01*
X182196Y576117D01*
X180995Y580075D01*
X179045Y583723D01*
X176421Y586921D01*
X173223Y589545D01*
X169575Y591495D01*
X165617Y592696D01*
X161500Y593102D01*
D02*
G37*
G36*
X1152706Y554500D02*
X1146500D01*
Y548294D01*
X1148539Y549139D01*
X1150419Y550581D01*
X1151861Y552461D01*
X1152706Y554500D01*
D02*
G37*
G36*
X330500Y558500D02*
X324294D01*
X325139Y556461D01*
X326581Y554581D01*
X328461Y553139D01*
X330500Y552294D01*
Y558500D01*
D02*
G37*
G36*
X205500Y559500D02*
X199294D01*
X200138Y557461D01*
X201581Y555581D01*
X203461Y554138D01*
X205500Y553294D01*
Y559500D01*
D02*
G37*
G36*
X341706Y558500D02*
X335500D01*
Y552294D01*
X337539Y553139D01*
X339419Y554581D01*
X340861Y556461D01*
X341706Y558500D01*
D02*
G37*
G36*
X888500Y548706D02*
Y542500D01*
X894706D01*
X893861Y544539D01*
X892419Y546419D01*
X890539Y547862D01*
X888500Y548706D01*
D02*
G37*
G36*
X883500D02*
X881461Y547862D01*
X879581Y546419D01*
X878139Y544539D01*
X877294Y542500D01*
X883500D01*
Y548706D01*
D02*
G37*
G36*
X1055500Y553500D02*
X1049294D01*
X1050138Y551461D01*
X1051581Y549581D01*
X1053461Y548139D01*
X1055500Y547294D01*
Y553500D01*
D02*
G37*
G36*
X1141500Y554500D02*
X1135294D01*
X1136139Y552461D01*
X1137581Y550581D01*
X1139461Y549139D01*
X1141500Y548294D01*
Y554500D01*
D02*
G37*
G36*
X1066706Y553500D02*
X1060500D01*
Y547294D01*
X1062539Y548139D01*
X1064419Y549581D01*
X1065861Y551461D01*
X1066706Y553500D01*
D02*
G37*
G36*
X1264500Y627706D02*
Y621500D01*
X1270706D01*
X1269861Y623539D01*
X1268419Y625419D01*
X1266539Y626861D01*
X1264500Y627706D01*
D02*
G37*
G36*
X1259500D02*
X1257461Y626861D01*
X1255581Y625419D01*
X1254138Y623539D01*
X1253294Y621500D01*
X1259500D01*
Y627706D01*
D02*
G37*
G36*
X1387500Y629706D02*
X1385461Y628862D01*
X1383581Y627419D01*
X1382139Y625539D01*
X1381294Y623500D01*
X1387500D01*
Y629706D01*
D02*
G37*
G36*
X852500Y630706D02*
Y624500D01*
X858706D01*
X857861Y626539D01*
X856419Y628419D01*
X854539Y629861D01*
X852500Y630706D01*
D02*
G37*
G36*
X1392500Y629706D02*
Y623500D01*
X1398706D01*
X1397861Y625539D01*
X1396419Y627419D01*
X1394539Y628862D01*
X1392500Y629706D01*
D02*
G37*
G36*
X1041500Y619706D02*
X1039461Y618861D01*
X1037581Y617419D01*
X1036139Y615539D01*
X1035294Y613500D01*
X1041500D01*
Y619706D01*
D02*
G37*
G36*
X815500D02*
Y613500D01*
X821706D01*
X820862Y615539D01*
X819419Y617419D01*
X817539Y618861D01*
X815500Y619706D01*
D02*
G37*
G36*
X1046500D02*
Y613500D01*
X1052706D01*
X1051861Y615539D01*
X1050419Y617419D01*
X1048539Y618861D01*
X1046500Y619706D01*
D02*
G37*
G36*
X1441500Y620706D02*
Y614500D01*
X1447706D01*
X1446861Y616539D01*
X1445419Y618419D01*
X1443539Y619861D01*
X1441500Y620706D01*
D02*
G37*
G36*
X1436500D02*
X1434461Y619861D01*
X1432581Y618419D01*
X1431138Y616539D01*
X1430294Y614500D01*
X1436500D01*
Y620706D01*
D02*
G37*
G36*
X1069500Y648706D02*
X1067461Y647861D01*
X1065581Y646419D01*
X1064138Y644539D01*
X1063294Y642500D01*
X1069500D01*
Y648706D01*
D02*
G37*
G36*
X1327500Y645706D02*
Y639500D01*
X1333706D01*
X1332861Y641539D01*
X1331419Y643419D01*
X1329539Y644861D01*
X1327500Y645706D01*
D02*
G37*
G36*
X1074500Y648706D02*
Y642500D01*
X1080706D01*
X1079861Y644539D01*
X1078419Y646419D01*
X1076539Y647861D01*
X1074500Y648706D01*
D02*
G37*
G36*
X157706Y651500D02*
X151500D01*
Y645294D01*
X153539Y646139D01*
X155419Y647581D01*
X156861Y649461D01*
X157706Y651500D01*
D02*
G37*
G36*
X146500D02*
X140294D01*
X141139Y649461D01*
X142581Y647581D01*
X144461Y646139D01*
X146500Y645294D01*
Y651500D01*
D02*
G37*
G36*
X1333706Y634500D02*
X1327500D01*
Y628294D01*
X1329539Y629138D01*
X1331419Y630581D01*
X1332861Y632461D01*
X1333706Y634500D01*
D02*
G37*
G36*
X1322500D02*
X1316294D01*
X1317139Y632461D01*
X1318581Y630581D01*
X1320461Y629138D01*
X1322500Y628294D01*
Y634500D01*
D02*
G37*
G36*
X1069500Y637500D02*
X1063294D01*
X1064138Y635461D01*
X1065581Y633581D01*
X1067461Y632138D01*
X1069500Y631294D01*
Y637500D01*
D02*
G37*
G36*
X1322500Y645706D02*
X1320461Y644861D01*
X1318581Y643419D01*
X1317139Y641539D01*
X1316294Y639500D01*
X1322500D01*
Y645706D01*
D02*
G37*
G36*
X1080706Y637500D02*
X1074500D01*
Y631294D01*
X1076539Y632138D01*
X1078419Y633581D01*
X1079861Y635461D01*
X1080706Y637500D01*
D02*
G37*
G36*
X1041500Y608500D02*
X1035294D01*
X1036139Y606461D01*
X1037581Y604581D01*
X1039461Y603139D01*
X1041500Y602294D01*
Y608500D01*
D02*
G37*
G36*
X821706D02*
X815500D01*
Y602294D01*
X817539Y603139D01*
X819419Y604581D01*
X820862Y606461D01*
X821706Y608500D01*
D02*
G37*
G36*
X1052706D02*
X1046500D01*
Y602294D01*
X1048539Y603139D01*
X1050419Y604581D01*
X1051861Y606461D01*
X1052706Y608500D01*
D02*
G37*
G36*
X704706D02*
X698500D01*
Y602294D01*
X700539Y603139D01*
X702419Y604581D01*
X703861Y606461D01*
X704706Y608500D01*
D02*
G37*
G36*
X693500D02*
X687294D01*
X688139Y606461D01*
X689581Y604581D01*
X691461Y603139D01*
X693500Y602294D01*
Y608500D01*
D02*
G37*
G36*
X852500Y583706D02*
Y577500D01*
X858706D01*
X857861Y579539D01*
X856419Y581419D01*
X854539Y582861D01*
X852500Y583706D01*
D02*
G37*
G36*
X1341500Y577706D02*
Y571500D01*
X1347706D01*
X1346861Y573539D01*
X1345419Y575419D01*
X1343539Y576861D01*
X1341500Y577706D01*
D02*
G37*
G36*
X1263000Y176500D02*
X1256500D01*
Y169500D01*
X1263000D01*
Y176500D01*
D02*
G37*
G36*
X810500Y608500D02*
X804294D01*
X805138Y606461D01*
X806581Y604581D01*
X808461Y603139D01*
X810500Y602294D01*
Y608500D01*
D02*
G37*
G36*
X201000Y614500D02*
X181137D01*
X181326Y612589D01*
X182612Y608348D01*
X184701Y604439D01*
X187513Y601013D01*
X190939Y598201D01*
X194848Y596112D01*
X199089Y594826D01*
X201000Y594637D01*
Y614500D01*
D02*
G37*
G36*
X858706Y619500D02*
X852500D01*
Y613294D01*
X854539Y614138D01*
X856419Y615581D01*
X857861Y617461D01*
X858706Y619500D01*
D02*
G37*
G36*
X1398706Y618500D02*
X1392500D01*
Y612294D01*
X1394539Y613139D01*
X1396419Y614581D01*
X1397861Y616461D01*
X1398706Y618500D01*
D02*
G37*
G36*
X693500Y619706D02*
X691461Y618861D01*
X689581Y617419D01*
X688139Y615539D01*
X687294Y613500D01*
X693500D01*
Y619706D01*
D02*
G37*
G36*
X810500D02*
X808461Y618861D01*
X806581Y617419D01*
X805138Y615539D01*
X804294Y613500D01*
X810500D01*
Y619706D01*
D02*
G37*
G36*
X698500D02*
Y613500D01*
X704706D01*
X703861Y615539D01*
X702419Y617419D01*
X700539Y618861D01*
X698500Y619706D01*
D02*
G37*
G36*
X1447706Y609500D02*
X1441500D01*
Y603294D01*
X1443539Y604138D01*
X1445419Y605581D01*
X1446861Y607461D01*
X1447706Y609500D01*
D02*
G37*
G36*
X1436500D02*
X1430294D01*
X1431138Y607461D01*
X1432581Y605581D01*
X1434461Y604138D01*
X1436500Y603294D01*
Y609500D01*
D02*
G37*
G36*
X1259500Y616500D02*
X1253294D01*
X1254138Y614461D01*
X1255581Y612581D01*
X1257461Y611139D01*
X1259500Y610294D01*
Y616500D01*
D02*
G37*
G36*
X1387500Y618500D02*
X1381294D01*
X1382139Y616461D01*
X1383581Y614581D01*
X1385461Y613139D01*
X1387500Y612294D01*
Y618500D01*
D02*
G37*
G36*
X1270706Y616500D02*
X1264500D01*
Y610294D01*
X1266539Y611139D01*
X1268419Y612581D01*
X1269861Y614461D01*
X1270706Y616500D01*
D02*
G37*
G36*
X401500Y532706D02*
X399461Y531861D01*
X397581Y530419D01*
X396139Y528539D01*
X395294Y526500D01*
X401500D01*
Y532706D01*
D02*
G37*
G36*
X606500Y386500D02*
X600294D01*
X601138Y384461D01*
X602581Y382581D01*
X604461Y381139D01*
X606500Y380294D01*
Y386500D01*
D02*
G37*
G36*
X1432000Y383500D02*
X1424500D01*
Y376000D01*
X1432000D01*
Y383500D01*
D02*
G37*
G36*
X617706Y386500D02*
X611500D01*
Y380294D01*
X613539Y381139D01*
X615419Y382581D01*
X616861Y384461D01*
X617706Y386500D01*
D02*
G37*
G36*
X888706Y387500D02*
X882500D01*
Y381294D01*
X884539Y382139D01*
X886419Y383581D01*
X887861Y385461D01*
X888706Y387500D01*
D02*
G37*
G36*
X877500D02*
X871294D01*
X872139Y385461D01*
X873581Y383581D01*
X875461Y382139D01*
X877500Y381294D01*
Y387500D01*
D02*
G37*
G36*
X827500Y350706D02*
Y344500D01*
X833706D01*
X832861Y346539D01*
X831419Y348419D01*
X829539Y349861D01*
X827500Y350706D01*
D02*
G37*
G36*
X822500D02*
X820461Y349861D01*
X818581Y348419D01*
X817139Y346539D01*
X816294Y344500D01*
X822500D01*
Y350706D01*
D02*
G37*
G36*
X1067500Y362500D02*
X1061294D01*
X1062139Y360461D01*
X1063581Y358581D01*
X1065461Y357139D01*
X1067500Y356294D01*
Y362500D01*
D02*
G37*
G36*
X1419500Y383500D02*
X1412000D01*
Y376000D01*
X1419500D01*
Y383500D01*
D02*
G37*
G36*
X1067500Y373706D02*
X1065461Y372862D01*
X1063581Y371419D01*
X1062139Y369539D01*
X1061294Y367500D01*
X1067500D01*
Y373706D01*
D02*
G37*
G36*
X611500Y397706D02*
Y391500D01*
X617706D01*
X616861Y393539D01*
X615419Y395419D01*
X613539Y396861D01*
X611500Y397706D01*
D02*
G37*
G36*
X606500D02*
X604461Y396861D01*
X602581Y395419D01*
X601138Y393539D01*
X600294Y391500D01*
X606500D01*
Y397706D01*
D02*
G37*
G36*
X877500Y398706D02*
X875461Y397862D01*
X873581Y396419D01*
X872139Y394539D01*
X871294Y392500D01*
X877500D01*
Y398706D01*
D02*
G37*
G36*
X882500D02*
Y392500D01*
X888706D01*
X887861Y394539D01*
X886419Y396419D01*
X884539Y397862D01*
X882500Y398706D01*
D02*
G37*
G36*
X1068500Y213500D02*
X1062294D01*
X1063139Y211461D01*
X1064581Y209581D01*
X1066461Y208139D01*
X1068500Y207294D01*
Y213500D01*
D02*
G37*
G36*
X581706Y393500D02*
X575500D01*
Y387294D01*
X577539Y388139D01*
X579419Y389581D01*
X580861Y391461D01*
X581706Y393500D01*
D02*
G37*
G36*
X570500D02*
X564294D01*
X565139Y391461D01*
X566581Y389581D01*
X568461Y388139D01*
X570500Y387294D01*
Y393500D01*
D02*
G37*
G36*
X1077706Y394500D02*
X1071500D01*
Y388294D01*
X1073539Y389138D01*
X1075419Y390581D01*
X1076861Y392461D01*
X1077706Y394500D01*
D02*
G37*
G36*
X1432000Y402500D02*
X1412000D01*
Y395000D01*
Y388500D01*
X1432000D01*
Y395000D01*
Y402500D01*
D02*
G37*
G36*
X1419338Y224500D02*
X1404500D01*
Y209662D01*
X1405431Y209753D01*
X1408729Y210754D01*
X1411770Y212379D01*
X1414434Y214566D01*
X1416621Y217230D01*
X1418246Y220271D01*
X1419247Y223569D01*
X1419338Y224500D01*
D02*
G37*
G36*
X730500Y293500D02*
X724294D01*
X725139Y291461D01*
X726581Y289581D01*
X728461Y288139D01*
X730500Y287294D01*
Y293500D01*
D02*
G37*
G36*
X1449500Y294338D02*
X1448569Y294247D01*
X1445271Y293246D01*
X1442231Y291621D01*
X1439566Y289434D01*
X1437379Y286770D01*
X1435754Y283729D01*
X1434753Y280431D01*
X1434662Y279500D01*
X1449500D01*
Y294338D01*
D02*
G37*
G36*
X741706Y293500D02*
X735500D01*
Y287294D01*
X737539Y288139D01*
X739419Y289581D01*
X740862Y291461D01*
X741706Y293500D01*
D02*
G37*
G36*
X735500Y304706D02*
Y298500D01*
X741706D01*
X740862Y300539D01*
X739419Y302419D01*
X737539Y303861D01*
X735500Y304706D01*
D02*
G37*
G36*
X730500D02*
X728461Y303861D01*
X726581Y302419D01*
X725139Y300539D01*
X724294Y298500D01*
X730500D01*
Y304706D01*
D02*
G37*
G36*
X168706Y263500D02*
X162500D01*
Y257294D01*
X164539Y258139D01*
X166419Y259581D01*
X167861Y261461D01*
X168706Y263500D01*
D02*
G37*
G36*
X157500D02*
X151294D01*
X152139Y261461D01*
X153581Y259581D01*
X155461Y258139D01*
X157500Y257294D01*
Y263500D01*
D02*
G37*
G36*
Y274706D02*
X155461Y273862D01*
X153581Y272419D01*
X152139Y270539D01*
X151294Y268500D01*
X157500D01*
Y274706D01*
D02*
G37*
G36*
X1404500Y294338D02*
Y279500D01*
X1419338D01*
X1419247Y280431D01*
X1418246Y283729D01*
X1416621Y286770D01*
X1414434Y289434D01*
X1411770Y291621D01*
X1408729Y293246D01*
X1405431Y294247D01*
X1404500Y294338D01*
D02*
G37*
G36*
X162500Y274706D02*
Y268500D01*
X168706D01*
X167861Y270539D01*
X166419Y272419D01*
X164539Y273862D01*
X162500Y274706D01*
D02*
G37*
G36*
X833706Y339500D02*
X827500D01*
Y333294D01*
X829539Y334138D01*
X831419Y335581D01*
X832861Y337461D01*
X833706Y339500D01*
D02*
G37*
G36*
X822500D02*
X816294D01*
X817139Y337461D01*
X818581Y335581D01*
X820461Y334138D01*
X822500Y333294D01*
Y339500D01*
D02*
G37*
G36*
X1088500Y225000D02*
X1081000D01*
Y220502D01*
X1079038Y220112D01*
X1078861Y220539D01*
X1077419Y222419D01*
X1075539Y223862D01*
X1073500Y224706D01*
Y215998D01*
Y207294D01*
X1075539Y208139D01*
X1077419Y209581D01*
X1078861Y211461D01*
X1079038Y211889D01*
X1081000Y211498D01*
Y205000D01*
X1088500D01*
Y214998D01*
Y225000D01*
D02*
G37*
G36*
X1012500Y344706D02*
X1010461Y343861D01*
X1008581Y342419D01*
X1007139Y340539D01*
X1006294Y338500D01*
X1012500D01*
Y344706D01*
D02*
G37*
G36*
X1061500Y341706D02*
Y335500D01*
X1067706D01*
X1066861Y337539D01*
X1065419Y339419D01*
X1063539Y340861D01*
X1061500Y341706D01*
D02*
G37*
G36*
X1426706Y318500D02*
X1420500D01*
Y312294D01*
X1422539Y313139D01*
X1424419Y314581D01*
X1425862Y316461D01*
X1426706Y318500D01*
D02*
G37*
G36*
X1415500D02*
X1409294D01*
X1410139Y316461D01*
X1411581Y314581D01*
X1413461Y313139D01*
X1415500Y312294D01*
Y318500D01*
D02*
G37*
G36*
Y329706D02*
X1413461Y328861D01*
X1411581Y327419D01*
X1410139Y325539D01*
X1409294Y323500D01*
X1415500D01*
Y329706D01*
D02*
G37*
G36*
X1067706Y330500D02*
X1061500D01*
Y324294D01*
X1063539Y325139D01*
X1065419Y326581D01*
X1066861Y328461D01*
X1067706Y330500D01*
D02*
G37*
G36*
X1420500Y329706D02*
Y323500D01*
X1426706D01*
X1425862Y325539D01*
X1424419Y327419D01*
X1422539Y328861D01*
X1420500Y329706D01*
D02*
G37*
G36*
X655500Y516706D02*
Y510500D01*
X661706D01*
X660861Y512539D01*
X659419Y514419D01*
X657539Y515862D01*
X655500Y516706D01*
D02*
G37*
G36*
X650500D02*
X648461Y515862D01*
X646581Y514419D01*
X645138Y512539D01*
X644294Y510500D01*
X650500D01*
Y516706D01*
D02*
G37*
G36*
X856500Y518706D02*
X854461Y517861D01*
X852581Y516419D01*
X851139Y514539D01*
X850294Y512500D01*
X856500D01*
Y518706D01*
D02*
G37*
G36*
X746500Y190706D02*
Y184500D01*
X752706D01*
X751861Y186539D01*
X750419Y188419D01*
X748539Y189861D01*
X746500Y190706D01*
D02*
G37*
G36*
X861500Y518706D02*
Y512500D01*
X867706D01*
X866861Y514539D01*
X865419Y516419D01*
X863539Y517861D01*
X861500Y518706D01*
D02*
G37*
G36*
X856500Y507500D02*
X850294D01*
X851139Y505461D01*
X852581Y503581D01*
X854461Y502138D01*
X856500Y501294D01*
Y507500D01*
D02*
G37*
G36*
X661706Y505500D02*
X655500D01*
Y499294D01*
X657539Y500139D01*
X659419Y501581D01*
X660861Y503461D01*
X661706Y505500D01*
D02*
G37*
G36*
X867706Y507500D02*
X861500D01*
Y501294D01*
X863539Y502138D01*
X865419Y503581D01*
X866861Y505461D01*
X867706Y507500D01*
D02*
G37*
G36*
X1370300Y520029D02*
Y510250D01*
X1380079D01*
X1379978Y511013D01*
X1378719Y514054D01*
X1376715Y516665D01*
X1374104Y518669D01*
X1371063Y519928D01*
X1370300Y520029D01*
D02*
G37*
G36*
X1187500Y520250D02*
X1177500D01*
Y510250D01*
X1187500D01*
Y520250D01*
D02*
G37*
G36*
X800500Y528500D02*
X794294D01*
X795138Y526461D01*
X796581Y524581D01*
X798461Y523139D01*
X800500Y522294D01*
Y528500D01*
D02*
G37*
G36*
X538706Y522500D02*
X532500D01*
Y516294D01*
X534539Y517138D01*
X536419Y518581D01*
X537862Y520461D01*
X538706Y522500D01*
D02*
G37*
G36*
X811706Y528500D02*
X805500D01*
Y522294D01*
X807539Y523139D01*
X809419Y524581D01*
X810861Y526461D01*
X811706Y528500D01*
D02*
G37*
G36*
X1007706Y531500D02*
X1001500D01*
Y525294D01*
X1003539Y526138D01*
X1005419Y527581D01*
X1006861Y529461D01*
X1007706Y531500D01*
D02*
G37*
G36*
X996500D02*
X990294D01*
X991139Y529461D01*
X992581Y527581D01*
X994461Y526138D01*
X996500Y525294D01*
Y531500D01*
D02*
G37*
G36*
X752706Y179500D02*
X746500D01*
Y173294D01*
X748539Y174139D01*
X750419Y175581D01*
X751861Y177461D01*
X752706Y179500D01*
D02*
G37*
G36*
X741500Y190706D02*
X739461Y189861D01*
X737581Y188419D01*
X736139Y186539D01*
X735294Y184500D01*
X741500D01*
Y190706D01*
D02*
G37*
G36*
X401500Y521500D02*
X395294D01*
X396139Y519461D01*
X397581Y517581D01*
X399461Y516138D01*
X401500Y515294D01*
Y521500D01*
D02*
G37*
G36*
X527500Y522500D02*
X521294D01*
X522139Y520461D01*
X523581Y518581D01*
X525461Y517138D01*
X527500Y516294D01*
Y522500D01*
D02*
G37*
G36*
X412706Y521500D02*
X406500D01*
Y515294D01*
X408539Y516138D01*
X410419Y517581D01*
X411861Y519461D01*
X412706Y521500D01*
D02*
G37*
G36*
X686750Y458905D02*
X682339Y458470D01*
X678098Y457184D01*
X674189Y455094D01*
X670763Y452283D01*
X667951Y448857D01*
X665862Y444948D01*
X664576Y440707D01*
X664141Y436296D01*
X664576Y431885D01*
X665862Y427644D01*
X667951Y423735D01*
X670763Y420309D01*
X674189Y417497D01*
X678098Y415408D01*
X682339Y414122D01*
X686750Y413687D01*
X691161Y414122D01*
X695402Y415408D01*
X699311Y417497D01*
X702737Y420309D01*
X705548Y423735D01*
X707638Y427644D01*
X708924Y431885D01*
X709359Y436296D01*
X708924Y440707D01*
X707638Y444948D01*
X705548Y448857D01*
X702737Y452283D01*
X699311Y455094D01*
X695402Y457184D01*
X691161Y458470D01*
X686750Y458905D01*
D02*
G37*
G36*
X1107500Y225000D02*
X1093500D01*
Y214998D01*
Y205000D01*
X1107500D01*
Y214998D01*
Y225000D01*
D02*
G37*
G36*
X1104500Y201000D02*
X1097500D01*
Y194500D01*
X1104500D01*
Y201000D01*
D02*
G37*
G36*
X1447706Y442500D02*
X1441500D01*
Y436294D01*
X1443539Y437138D01*
X1445419Y438581D01*
X1446861Y440461D01*
X1447706Y442500D01*
D02*
G37*
G36*
X1436500D02*
X1430294D01*
X1431138Y440461D01*
X1432581Y438581D01*
X1434461Y437138D01*
X1436500Y436294D01*
Y442500D01*
D02*
G37*
G36*
X575500Y404706D02*
Y398500D01*
X581706D01*
X580861Y400539D01*
X579419Y402419D01*
X577539Y403861D01*
X575500Y404706D01*
D02*
G37*
G36*
X570500D02*
X568461Y403861D01*
X566581Y402419D01*
X565139Y400539D01*
X564294Y398500D01*
X570500D01*
Y404706D01*
D02*
G37*
G36*
X1071500Y405706D02*
Y399500D01*
X1077706D01*
X1076861Y401539D01*
X1075419Y403419D01*
X1073539Y404861D01*
X1071500Y405706D01*
D02*
G37*
G36*
X1432000Y415000D02*
X1424500D01*
Y407500D01*
X1432000D01*
Y415000D01*
D02*
G37*
G36*
X1419500D02*
X1412000D01*
Y407500D01*
X1419500D01*
Y415000D01*
D02*
G37*
G36*
X891500Y493706D02*
X889461Y492861D01*
X887581Y491419D01*
X886139Y489539D01*
X885294Y487500D01*
X891500D01*
Y493706D01*
D02*
G37*
G36*
X902706Y482500D02*
X896500D01*
Y476294D01*
X898539Y477138D01*
X900419Y478581D01*
X901861Y480461D01*
X902706Y482500D01*
D02*
G37*
G36*
X896500Y493706D02*
Y487500D01*
X902706D01*
X901861Y489539D01*
X900419Y491419D01*
X898539Y492861D01*
X896500Y493706D01*
D02*
G37*
G36*
X650500Y505500D02*
X644294D01*
X645138Y503461D01*
X646581Y501581D01*
X648461Y500139D01*
X650500Y499294D01*
Y505500D01*
D02*
G37*
G36*
X1380079Y505250D02*
X1370300D01*
Y495471D01*
X1371063Y495572D01*
X1374104Y496831D01*
X1376715Y498835D01*
X1378719Y501446D01*
X1379978Y504487D01*
X1380079Y505250D01*
D02*
G37*
G36*
X1441500Y453706D02*
Y447500D01*
X1447706D01*
X1446861Y449539D01*
X1445419Y451419D01*
X1443539Y452862D01*
X1441500Y453706D01*
D02*
G37*
G36*
X1436500D02*
X1434461Y452862D01*
X1432581Y451419D01*
X1431138Y449539D01*
X1430294Y447500D01*
X1436500D01*
Y453706D01*
D02*
G37*
G36*
X161500Y517102D02*
X157383Y516696D01*
X153425Y515495D01*
X149777Y513545D01*
X146579Y510921D01*
X143955Y507723D01*
X142005Y504075D01*
X140804Y500117D01*
X140398Y496000D01*
X140804Y491883D01*
X142005Y487925D01*
X143955Y484277D01*
X146579Y481079D01*
X149777Y478455D01*
X153425Y476505D01*
X157383Y475304D01*
X161500Y474898D01*
X165617Y475304D01*
X169575Y476505D01*
X173223Y478455D01*
X176421Y481079D01*
X179045Y484277D01*
X180995Y487925D01*
X182196Y491883D01*
X182602Y496000D01*
X182196Y500117D01*
X180995Y504075D01*
X179045Y507723D01*
X176421Y510921D01*
X173223Y513545D01*
X169575Y515495D01*
X165617Y516696D01*
X161500Y517102D01*
D02*
G37*
G36*
X891500Y482500D02*
X885294D01*
X886139Y480461D01*
X887581Y478581D01*
X889461Y477138D01*
X891500Y476294D01*
Y482500D01*
D02*
G37*
G36*
X1092500Y201000D02*
X1085500D01*
Y194500D01*
X1092500D01*
Y201000D01*
D02*
G37*
G36*
X1092500Y960706D02*
X1090461Y959862D01*
X1088581Y958419D01*
X1087139Y956539D01*
X1086294Y954500D01*
X1092500D01*
Y960706D01*
D02*
G37*
G36*
X804426Y963800D02*
X792100D01*
Y951474D01*
X792541Y951517D01*
X795368Y952375D01*
X797974Y953768D01*
X800258Y955642D01*
X802132Y957926D01*
X803525Y960532D01*
X804383Y963360D01*
X804426Y963800D01*
D02*
G37*
G36*
X1097500Y960706D02*
Y954500D01*
X1103706D01*
X1102861Y956539D01*
X1101419Y958419D01*
X1099539Y959862D01*
X1097500Y960706D01*
D02*
G37*
G36*
X1036706Y962500D02*
X1030500D01*
Y956294D01*
X1032539Y957139D01*
X1034419Y958581D01*
X1035862Y960461D01*
X1036706Y962500D01*
D02*
G37*
G36*
X1025500D02*
X1019294D01*
X1020138Y960461D01*
X1021581Y958581D01*
X1023461Y957139D01*
X1025500Y956294D01*
Y962500D01*
D02*
G37*
G36*
X735500Y949706D02*
Y943500D01*
X741706D01*
X740862Y945539D01*
X739419Y947419D01*
X737539Y948861D01*
X735500Y949706D01*
D02*
G37*
G36*
X730500D02*
X728461Y948861D01*
X726581Y947419D01*
X725139Y945539D01*
X724294Y943500D01*
X730500D01*
Y949706D01*
D02*
G37*
G36*
X1399500Y962500D02*
X1384662D01*
X1384753Y961569D01*
X1385754Y958271D01*
X1387379Y955230D01*
X1389566Y952566D01*
X1392231Y950379D01*
X1395271Y948754D01*
X1398569Y947753D01*
X1399500Y947662D01*
Y962500D01*
D02*
G37*
G36*
X1449500D02*
X1434662D01*
X1434753Y961569D01*
X1435754Y958271D01*
X1437379Y955230D01*
X1439566Y952566D01*
X1442231Y950379D01*
X1445271Y948754D01*
X1448569Y947753D01*
X1449500Y947662D01*
Y962500D01*
D02*
G37*
G36*
X1419338D02*
X1404500D01*
Y947662D01*
X1405431Y947753D01*
X1408729Y948754D01*
X1411770Y950379D01*
X1414434Y952566D01*
X1416621Y955230D01*
X1418246Y958271D01*
X1419247Y961569D01*
X1419338Y962500D01*
D02*
G37*
G36*
X424000Y968500D02*
X415000D01*
Y958500D01*
X424000D01*
Y968500D01*
D02*
G37*
G36*
X973500Y980706D02*
X971461Y979862D01*
X969581Y978419D01*
X968139Y976539D01*
X967294Y974500D01*
X973500D01*
Y980706D01*
D02*
G37*
G36*
X424000Y983500D02*
X415000D01*
Y973500D01*
X424000D01*
Y983500D01*
D02*
G37*
G36*
X978500Y980706D02*
Y974500D01*
X984706D01*
X983861Y976539D01*
X982419Y978419D01*
X980539Y979862D01*
X978500Y980706D01*
D02*
G37*
G36*
X643500Y999500D02*
X628662D01*
X628753Y998569D01*
X629754Y995271D01*
X631379Y992231D01*
X633566Y989566D01*
X636231Y987379D01*
X639271Y985754D01*
X642569Y984753D01*
X643500Y984662D01*
Y999500D01*
D02*
G37*
G36*
X161500Y1019101D02*
X157383Y1018696D01*
X153425Y1017495D01*
X149777Y1015545D01*
X146579Y1012921D01*
X143955Y1009723D01*
X142005Y1006075D01*
X140804Y1002117D01*
X140398Y998000D01*
X140804Y993883D01*
X142005Y989925D01*
X143955Y986276D01*
X146579Y983079D01*
X149777Y980455D01*
X153425Y978505D01*
X157383Y977304D01*
X161500Y976898D01*
X165617Y977304D01*
X169575Y978505D01*
X173223Y980455D01*
X176421Y983079D01*
X179045Y986276D01*
X180995Y989925D01*
X182196Y993883D01*
X182602Y998000D01*
X182196Y1002117D01*
X180995Y1006075D01*
X179045Y1009723D01*
X176421Y1012921D01*
X173223Y1015545D01*
X169575Y1017495D01*
X165617Y1018696D01*
X161500Y1019101D01*
D02*
G37*
G36*
X984706Y969500D02*
X978500D01*
Y963294D01*
X980539Y964139D01*
X982419Y965581D01*
X983861Y967461D01*
X984706Y969500D01*
D02*
G37*
G36*
X973500D02*
X967294D01*
X968139Y967461D01*
X969581Y965581D01*
X971461Y964139D01*
X973500Y963294D01*
Y969500D01*
D02*
G37*
G36*
X1025500Y973706D02*
X1023461Y972861D01*
X1021581Y971419D01*
X1020138Y969539D01*
X1019294Y967500D01*
X1025500D01*
Y973706D01*
D02*
G37*
G36*
X355500Y978500D02*
X349000D01*
Y971500D01*
X355500D01*
Y978500D01*
D02*
G37*
G36*
X1030500Y973706D02*
Y967500D01*
X1036706D01*
X1035862Y969539D01*
X1034419Y971419D01*
X1032539Y972861D01*
X1030500Y973706D01*
D02*
G37*
G36*
X972500Y913500D02*
X966294D01*
X967139Y911461D01*
X968581Y909581D01*
X970461Y908139D01*
X972500Y907294D01*
Y913500D01*
D02*
G37*
G36*
X874500Y899706D02*
Y893500D01*
X880706D01*
X879862Y895539D01*
X878419Y897419D01*
X876539Y898861D01*
X874500Y899706D01*
D02*
G37*
G36*
X983706Y913500D02*
X977500D01*
Y907294D01*
X979539Y908139D01*
X981419Y909581D01*
X982861Y911461D01*
X983706Y913500D01*
D02*
G37*
G36*
X602500Y921706D02*
Y915500D01*
X608706D01*
X607861Y917539D01*
X606419Y919419D01*
X604539Y920862D01*
X602500Y921706D01*
D02*
G37*
G36*
X597500D02*
X595461Y920862D01*
X593581Y919419D01*
X592138Y917539D01*
X591294Y915500D01*
X597500D01*
Y921706D01*
D02*
G37*
G36*
X1448500Y864339D02*
X1447569Y864247D01*
X1444271Y863246D01*
X1441230Y861621D01*
X1438566Y859434D01*
X1436379Y856769D01*
X1434754Y853729D01*
X1433753Y850431D01*
X1433661Y849500D01*
X1448500D01*
Y864339D01*
D02*
G37*
G36*
X1403500D02*
Y849500D01*
X1418338D01*
X1418247Y850431D01*
X1417246Y853729D01*
X1415621Y856769D01*
X1413434Y859434D01*
X1410770Y861621D01*
X1407729Y863246D01*
X1404431Y864247D01*
X1403500Y864339D01*
D02*
G37*
G36*
X1187500Y870279D02*
X1186737Y870178D01*
X1183696Y868919D01*
X1181085Y866915D01*
X1179081Y864304D01*
X1177822Y861263D01*
X1177721Y860500D01*
X1187500D01*
Y870279D01*
D02*
G37*
G36*
X141500Y883706D02*
Y877500D01*
X147706D01*
X146861Y879539D01*
X145419Y881419D01*
X143539Y882861D01*
X141500Y883706D01*
D02*
G37*
G36*
X147706Y872500D02*
X141500D01*
Y866294D01*
X143539Y867139D01*
X145419Y868581D01*
X146861Y870461D01*
X147706Y872500D01*
D02*
G37*
G36*
X398500Y937000D02*
X390500D01*
Y917000D01*
X398500D01*
Y937000D01*
D02*
G37*
G36*
X680500Y938706D02*
X678461Y937861D01*
X676581Y936419D01*
X675139Y934539D01*
X674294Y932500D01*
X680500D01*
Y938706D01*
D02*
G37*
G36*
X741706Y938500D02*
X735500D01*
Y932294D01*
X737539Y933139D01*
X739419Y934581D01*
X740862Y936461D01*
X741706Y938500D01*
D02*
G37*
G36*
X570500Y964500D02*
X560500D01*
Y942000D01*
X570500D01*
Y964500D01*
D02*
G37*
G36*
X1103706Y949500D02*
X1097500D01*
Y943294D01*
X1099539Y944138D01*
X1101419Y945581D01*
X1102861Y947461D01*
X1103706Y949500D01*
D02*
G37*
G36*
X1092500D02*
X1086294D01*
X1087139Y947461D01*
X1088581Y945581D01*
X1090461Y944138D01*
X1092500Y943294D01*
Y949500D01*
D02*
G37*
G36*
X977500Y924706D02*
Y918500D01*
X983706D01*
X982861Y920539D01*
X981419Y922419D01*
X979539Y923861D01*
X977500Y924706D01*
D02*
G37*
G36*
X972500D02*
X970461Y923861D01*
X968581Y922419D01*
X967139Y920539D01*
X966294Y918500D01*
X972500D01*
Y924706D01*
D02*
G37*
G36*
X680500Y927500D02*
X674294D01*
X675139Y925461D01*
X676581Y923581D01*
X678461Y922139D01*
X680500Y921294D01*
Y927500D01*
D02*
G37*
G36*
X730500Y938500D02*
X724294D01*
X725139Y936461D01*
X726581Y934581D01*
X728461Y933139D01*
X730500Y932294D01*
Y938500D01*
D02*
G37*
G36*
X691706Y927500D02*
X685500D01*
Y921294D01*
X687539Y922139D01*
X689419Y923581D01*
X690862Y925461D01*
X691706Y927500D01*
D02*
G37*
G36*
X1117706Y1068500D02*
X1111500D01*
Y1062294D01*
X1113539Y1063139D01*
X1115419Y1064581D01*
X1116861Y1066461D01*
X1117706Y1068500D01*
D02*
G37*
G36*
X1106500D02*
X1100294D01*
X1101139Y1066461D01*
X1102581Y1064581D01*
X1104461Y1063139D01*
X1106500Y1062294D01*
Y1068500D01*
D02*
G37*
G36*
X1171500Y1069500D02*
X1165294D01*
X1166139Y1067461D01*
X1167581Y1065581D01*
X1169461Y1064138D01*
X1171500Y1063294D01*
Y1069500D01*
D02*
G37*
G36*
X943500Y1075706D02*
X941461Y1074862D01*
X939581Y1073419D01*
X938139Y1071539D01*
X937294Y1069500D01*
X943500D01*
Y1075706D01*
D02*
G37*
G36*
X1182706Y1069500D02*
X1176500D01*
Y1063294D01*
X1178539Y1064138D01*
X1180419Y1065581D01*
X1181861Y1067461D01*
X1182706Y1069500D01*
D02*
G37*
G36*
X467500Y1075500D02*
X452662D01*
X452753Y1074569D01*
X453754Y1071271D01*
X455379Y1068231D01*
X457566Y1065566D01*
X460230Y1063379D01*
X463271Y1061754D01*
X466569Y1060753D01*
X467500Y1060662D01*
Y1075500D01*
D02*
G37*
G36*
X954706Y1064500D02*
X948500D01*
Y1058294D01*
X950539Y1059138D01*
X952419Y1060581D01*
X953861Y1062461D01*
X954706Y1064500D01*
D02*
G37*
G36*
X487338Y1075500D02*
X472500D01*
Y1060662D01*
X473431Y1060753D01*
X476729Y1061754D01*
X479770Y1063379D01*
X482434Y1065566D01*
X484621Y1068231D01*
X486246Y1071271D01*
X487247Y1074569D01*
X487338Y1075500D01*
D02*
G37*
G36*
X863338Y1076500D02*
X848500D01*
Y1061662D01*
X849431Y1061753D01*
X852729Y1062754D01*
X855770Y1064379D01*
X858434Y1066566D01*
X860621Y1069230D01*
X862246Y1072271D01*
X863247Y1075569D01*
X863338Y1076500D01*
D02*
G37*
G36*
X784000Y1098585D02*
X780569Y1098247D01*
X777271Y1097246D01*
X774230Y1095621D01*
X771566Y1093434D01*
X769379Y1090770D01*
X767754Y1087729D01*
X766753Y1084431D01*
X766415Y1081000D01*
X766753Y1077569D01*
X767754Y1074271D01*
X769379Y1071230D01*
X771566Y1068566D01*
X774230Y1066379D01*
X777271Y1064754D01*
X780569Y1063753D01*
X784000Y1063415D01*
X787431Y1063753D01*
X790729Y1064754D01*
X793770Y1066379D01*
X795634Y1067909D01*
X797624Y1067713D01*
X798566Y1066566D01*
X801230Y1064379D01*
X804271Y1062754D01*
X807569Y1061753D01*
X811000Y1061415D01*
X814431Y1061753D01*
X817729Y1062754D01*
X820770Y1064379D01*
X823434Y1066566D01*
X825621Y1069230D01*
X827246Y1072271D01*
X827500Y1073108D01*
X829500D01*
X829754Y1072271D01*
X831379Y1069230D01*
X833566Y1066566D01*
X836230Y1064379D01*
X839271Y1062754D01*
X842569Y1061753D01*
X843500Y1061662D01*
Y1078997D01*
Y1096338D01*
X842569Y1096247D01*
X839271Y1095246D01*
X836230Y1093621D01*
X833566Y1091434D01*
X831379Y1088770D01*
X829754Y1085729D01*
X829500Y1084892D01*
X827500D01*
X827246Y1085729D01*
X825621Y1088770D01*
X823434Y1091434D01*
X820770Y1093621D01*
X817729Y1095246D01*
X814431Y1096247D01*
X811000Y1096585D01*
X807569Y1096247D01*
X804271Y1095246D01*
X801230Y1093621D01*
X799366Y1092091D01*
X797376Y1092287D01*
X796434Y1093434D01*
X793770Y1095621D01*
X790729Y1097246D01*
X787431Y1098247D01*
X784000Y1098585D01*
D02*
G37*
G36*
X948500Y1075706D02*
Y1069500D01*
X954706D01*
X953861Y1071539D01*
X952419Y1073419D01*
X950539Y1074862D01*
X948500Y1075706D01*
D02*
G37*
G36*
X244500Y1088326D02*
Y1076000D01*
X256826D01*
X256783Y1076441D01*
X255925Y1079268D01*
X254532Y1081874D01*
X252658Y1084158D01*
X250374Y1086032D01*
X247768Y1087425D01*
X244940Y1088283D01*
X244500Y1088326D01*
D02*
G37*
G36*
X1176500Y1080706D02*
Y1074500D01*
X1182706D01*
X1181861Y1076539D01*
X1180419Y1078419D01*
X1178539Y1079861D01*
X1176500Y1080706D01*
D02*
G37*
G36*
X848500Y1096338D02*
Y1081500D01*
X863338D01*
X863247Y1082431D01*
X862246Y1085729D01*
X860621Y1088770D01*
X858434Y1091434D01*
X855770Y1093621D01*
X852729Y1095246D01*
X849431Y1096247D01*
X848500Y1096338D01*
D02*
G37*
G36*
X1395500Y1087706D02*
Y1081500D01*
X1401706D01*
X1400862Y1083539D01*
X1399419Y1085419D01*
X1397539Y1086861D01*
X1395500Y1087706D01*
D02*
G37*
G36*
X1390500D02*
X1388461Y1086861D01*
X1386581Y1085419D01*
X1385139Y1083539D01*
X1384294Y1081500D01*
X1390500D01*
Y1087706D01*
D02*
G37*
G36*
X1401706Y1076500D02*
X1395500D01*
Y1070294D01*
X1397539Y1071139D01*
X1399419Y1072581D01*
X1400862Y1074461D01*
X1401706Y1076500D01*
D02*
G37*
G36*
X1390500D02*
X1384294D01*
X1385139Y1074461D01*
X1386581Y1072581D01*
X1388461Y1071139D01*
X1390500Y1070294D01*
Y1076500D01*
D02*
G37*
G36*
X1106500Y1079706D02*
X1104461Y1078861D01*
X1102581Y1077419D01*
X1101139Y1075539D01*
X1100294Y1073500D01*
X1106500D01*
Y1079706D01*
D02*
G37*
G36*
X1171500Y1080706D02*
X1169461Y1079861D01*
X1167581Y1078419D01*
X1166139Y1076539D01*
X1165294Y1074500D01*
X1171500D01*
Y1080706D01*
D02*
G37*
G36*
X1111500Y1079706D02*
Y1073500D01*
X1117706D01*
X1116861Y1075539D01*
X1115419Y1077419D01*
X1113539Y1078861D01*
X1111500Y1079706D01*
D02*
G37*
G36*
X1115500Y1015706D02*
Y1009500D01*
X1121706D01*
X1120862Y1011539D01*
X1119419Y1013419D01*
X1117539Y1014861D01*
X1115500Y1015706D01*
D02*
G37*
G36*
X1110500D02*
X1108461Y1014861D01*
X1106581Y1013419D01*
X1105139Y1011539D01*
X1104294Y1009500D01*
X1110500D01*
Y1015706D01*
D02*
G37*
G36*
X703500Y1031500D02*
X696000D01*
Y1014000D01*
X703500D01*
Y1031500D01*
D02*
G37*
G36*
X920500Y1023500D02*
X914294D01*
X915139Y1021461D01*
X916581Y1019581D01*
X918461Y1018139D01*
X920500Y1017294D01*
Y1023500D01*
D02*
G37*
G36*
X716000Y1031500D02*
X708500D01*
Y1014000D01*
X716000D01*
Y1031500D01*
D02*
G37*
G36*
X1110500Y1004500D02*
X1104294D01*
X1105139Y1002461D01*
X1106581Y1000581D01*
X1108461Y999138D01*
X1110500Y998294D01*
Y1004500D01*
D02*
G37*
G36*
X663338Y999500D02*
X648500D01*
Y984662D01*
X649431Y984753D01*
X652729Y985754D01*
X655770Y987379D01*
X658434Y989566D01*
X660621Y992231D01*
X662246Y995271D01*
X663247Y998569D01*
X663338Y999500D01*
D02*
G37*
G36*
X1121706Y1004500D02*
X1115500D01*
Y998294D01*
X1117539Y999138D01*
X1119419Y1000581D01*
X1120862Y1002461D01*
X1121706Y1004500D01*
D02*
G37*
G36*
X648500Y1019338D02*
Y1004500D01*
X663338D01*
X663247Y1005431D01*
X662246Y1008729D01*
X660621Y1011769D01*
X658434Y1014434D01*
X655770Y1016621D01*
X652729Y1018246D01*
X649431Y1019247D01*
X648500Y1019338D01*
D02*
G37*
G36*
X643500D02*
X642569Y1019247D01*
X639271Y1018246D01*
X636231Y1016621D01*
X633566Y1014434D01*
X631379Y1011769D01*
X629754Y1008729D01*
X628753Y1005431D01*
X628662Y1004500D01*
X643500D01*
Y1019338D01*
D02*
G37*
G36*
X931706Y1023500D02*
X925500D01*
Y1017294D01*
X927539Y1018139D01*
X929419Y1019581D01*
X930862Y1021461D01*
X931706Y1023500D01*
D02*
G37*
G36*
X201706Y1043500D02*
X195500D01*
Y1037294D01*
X197539Y1038139D01*
X199419Y1039581D01*
X200861Y1041461D01*
X201706Y1043500D01*
D02*
G37*
G36*
X190500D02*
X184294D01*
X185138Y1041461D01*
X186581Y1039581D01*
X188461Y1038139D01*
X190500Y1037294D01*
Y1043500D01*
D02*
G37*
G36*
Y1054706D02*
X188461Y1053861D01*
X186581Y1052419D01*
X185138Y1050539D01*
X184294Y1048500D01*
X190500D01*
Y1054706D01*
D02*
G37*
G36*
X943500Y1064500D02*
X937294D01*
X938139Y1062461D01*
X939581Y1060581D01*
X941461Y1059138D01*
X943500Y1058294D01*
Y1064500D01*
D02*
G37*
G36*
X195500Y1054706D02*
Y1048500D01*
X201706D01*
X200861Y1050539D01*
X199419Y1052419D01*
X197539Y1053861D01*
X195500Y1054706D01*
D02*
G37*
G36*
X1449500Y1032338D02*
X1448569Y1032247D01*
X1445271Y1031246D01*
X1442231Y1029621D01*
X1439566Y1027434D01*
X1437379Y1024770D01*
X1435754Y1021729D01*
X1434753Y1018431D01*
X1434662Y1017500D01*
X1449500D01*
Y1032338D01*
D02*
G37*
G36*
X1404500D02*
Y1017500D01*
X1419338D01*
X1419247Y1018431D01*
X1418246Y1021729D01*
X1416621Y1024770D01*
X1414434Y1027434D01*
X1411770Y1029621D01*
X1408729Y1031246D01*
X1405431Y1032247D01*
X1404500Y1032338D01*
D02*
G37*
G36*
X920500Y1034706D02*
X918461Y1033861D01*
X916581Y1032419D01*
X915139Y1030539D01*
X914294Y1028500D01*
X920500D01*
Y1034706D01*
D02*
G37*
G36*
X703500Y1054000D02*
X696000D01*
Y1036500D01*
X703500D01*
Y1054000D01*
D02*
G37*
G36*
X925500Y1034706D02*
Y1028500D01*
X931706D01*
X930862Y1030539D01*
X929419Y1032419D01*
X927539Y1033861D01*
X925500Y1034706D01*
D02*
G37*
G36*
X1122500Y732706D02*
Y726500D01*
X1128706D01*
X1127861Y728539D01*
X1126419Y730419D01*
X1124539Y731861D01*
X1122500Y732706D01*
D02*
G37*
G36*
X1117500D02*
X1115461Y731861D01*
X1113581Y730419D01*
X1112139Y728539D01*
X1111294Y726500D01*
X1117500D01*
Y732706D01*
D02*
G37*
G36*
X457706Y738500D02*
X451500D01*
Y732294D01*
X453539Y733139D01*
X455419Y734581D01*
X456861Y736461D01*
X457706Y738500D01*
D02*
G37*
G36*
X157706Y740500D02*
X151500D01*
Y734294D01*
X153539Y735139D01*
X155419Y736581D01*
X156861Y738461D01*
X157706Y740500D01*
D02*
G37*
G36*
X146500D02*
X140294D01*
X141139Y738461D01*
X142581Y736581D01*
X144461Y735139D01*
X146500Y734294D01*
Y740500D01*
D02*
G37*
G36*
X614500Y723706D02*
X612461Y722861D01*
X610581Y721419D01*
X609139Y719539D01*
X608294Y717500D01*
X614500D01*
Y723706D01*
D02*
G37*
G36*
X1128706Y721500D02*
X1122500D01*
Y715294D01*
X1124539Y716139D01*
X1126419Y717581D01*
X1127861Y719461D01*
X1128706Y721500D01*
D02*
G37*
G36*
X619500Y723706D02*
Y717500D01*
X625706D01*
X624861Y719539D01*
X623419Y721419D01*
X621539Y722861D01*
X619500Y723706D01*
D02*
G37*
G36*
X494500Y730706D02*
Y724500D01*
X500706D01*
X499861Y726539D01*
X498419Y728419D01*
X496539Y729862D01*
X494500Y730706D01*
D02*
G37*
G36*
X489500D02*
X487461Y729862D01*
X485581Y728419D01*
X484139Y726539D01*
X483294Y724500D01*
X489500D01*
Y730706D01*
D02*
G37*
G36*
X451500Y749706D02*
Y743500D01*
X457706D01*
X456861Y745539D01*
X455419Y747419D01*
X453539Y748861D01*
X451500Y749706D01*
D02*
G37*
G36*
X1314706Y781500D02*
X1308500D01*
Y775294D01*
X1310539Y776139D01*
X1312419Y777581D01*
X1313862Y779461D01*
X1314706Y781500D01*
D02*
G37*
G36*
X1303500D02*
X1297294D01*
X1298139Y779461D01*
X1299581Y777581D01*
X1301461Y776139D01*
X1303500Y775294D01*
Y781500D01*
D02*
G37*
G36*
X1336500D02*
X1330294D01*
X1331138Y779461D01*
X1332581Y777581D01*
X1334461Y776139D01*
X1336500Y775294D01*
Y781500D01*
D02*
G37*
G36*
X1398500Y794500D02*
X1383661D01*
X1383753Y793569D01*
X1384754Y790271D01*
X1386379Y787231D01*
X1388566Y784566D01*
X1391230Y782379D01*
X1394271Y780754D01*
X1397569Y779753D01*
X1398500Y779662D01*
Y794500D01*
D02*
G37*
G36*
X1347706Y781500D02*
X1341500D01*
Y775294D01*
X1343539Y776139D01*
X1345419Y777581D01*
X1346861Y779461D01*
X1347706Y781500D01*
D02*
G37*
G36*
X151500Y751706D02*
Y745500D01*
X157706D01*
X156861Y747539D01*
X155419Y749419D01*
X153539Y750862D01*
X151500Y751706D01*
D02*
G37*
G36*
X146500D02*
X144461Y750862D01*
X142581Y749419D01*
X141139Y747539D01*
X140294Y745500D01*
X146500D01*
Y751706D01*
D02*
G37*
G36*
X537500Y758500D02*
X531294D01*
X532139Y756461D01*
X533581Y754581D01*
X535461Y753139D01*
X537500Y752294D01*
Y758500D01*
D02*
G37*
G36*
Y769706D02*
X535461Y768861D01*
X533581Y767419D01*
X532139Y765539D01*
X531294Y763500D01*
X537500D01*
Y769706D01*
D02*
G37*
G36*
X548706Y758500D02*
X542500D01*
Y752294D01*
X544539Y753139D01*
X546419Y754581D01*
X547862Y756461D01*
X548706Y758500D01*
D02*
G37*
G36*
X1166500Y681500D02*
X1160294D01*
X1161139Y679461D01*
X1162581Y677581D01*
X1164461Y676139D01*
X1166500Y675294D01*
Y681500D01*
D02*
G37*
G36*
X1288500Y673706D02*
Y667500D01*
X1294706D01*
X1293861Y669539D01*
X1292419Y671419D01*
X1290539Y672861D01*
X1288500Y673706D01*
D02*
G37*
G36*
X1177706Y681500D02*
X1171500D01*
Y675294D01*
X1173539Y676139D01*
X1175419Y677581D01*
X1176861Y679461D01*
X1177706Y681500D01*
D02*
G37*
G36*
X783706Y683500D02*
X777500D01*
Y677294D01*
X779539Y678139D01*
X781419Y679581D01*
X782861Y681461D01*
X783706Y683500D01*
D02*
G37*
G36*
X772500D02*
X766294D01*
X767139Y681461D01*
X768581Y679581D01*
X770461Y678139D01*
X772500Y677294D01*
Y683500D01*
D02*
G37*
G36*
X1294706Y662500D02*
X1288500D01*
Y656294D01*
X1290539Y657139D01*
X1292419Y658581D01*
X1293861Y660461D01*
X1294706Y662500D01*
D02*
G37*
G36*
X1283500D02*
X1277294D01*
X1278139Y660461D01*
X1279581Y658581D01*
X1281461Y657139D01*
X1283500Y656294D01*
Y662500D01*
D02*
G37*
G36*
X146500Y662706D02*
X144461Y661861D01*
X142581Y660419D01*
X141139Y658539D01*
X140294Y656500D01*
X146500D01*
Y662706D01*
D02*
G37*
G36*
X1283500Y673706D02*
X1281461Y672861D01*
X1279581Y671419D01*
X1278139Y669539D01*
X1277294Y667500D01*
X1283500D01*
Y673706D01*
D02*
G37*
G36*
X151500Y662706D02*
Y656500D01*
X157706D01*
X156861Y658539D01*
X155419Y660419D01*
X153539Y661861D01*
X151500Y662706D01*
D02*
G37*
G36*
X1166500Y692706D02*
X1164461Y691861D01*
X1162581Y690419D01*
X1161139Y688539D01*
X1160294Y686500D01*
X1166500D01*
Y692706D01*
D02*
G37*
G36*
X625706Y712500D02*
X619500D01*
Y706294D01*
X621539Y707139D01*
X623419Y708581D01*
X624861Y710461D01*
X625706Y712500D01*
D02*
G37*
G36*
X614500D02*
X608294D01*
X609139Y710461D01*
X610581Y708581D01*
X612461Y707139D01*
X614500Y706294D01*
Y712500D01*
D02*
G37*
G36*
X489500Y719500D02*
X483294D01*
X484139Y717461D01*
X485581Y715581D01*
X487461Y714139D01*
X489500Y713294D01*
Y719500D01*
D02*
G37*
G36*
X1117500Y721500D02*
X1111294D01*
X1112139Y719461D01*
X1113581Y717581D01*
X1115461Y716139D01*
X1117500Y715294D01*
Y721500D01*
D02*
G37*
G36*
X500706Y719500D02*
X494500D01*
Y713294D01*
X496539Y714139D01*
X498419Y715581D01*
X499861Y717461D01*
X500706Y719500D01*
D02*
G37*
G36*
X772500Y694706D02*
X770461Y693861D01*
X768581Y692419D01*
X767139Y690539D01*
X766294Y688500D01*
X772500D01*
Y694706D01*
D02*
G37*
G36*
X1171500Y692706D02*
Y686500D01*
X1177706D01*
X1176861Y688539D01*
X1175419Y690419D01*
X1173539Y691861D01*
X1171500Y692706D01*
D02*
G37*
G36*
X777500Y694706D02*
Y688500D01*
X783706D01*
X782861Y690539D01*
X781419Y692419D01*
X779539Y693861D01*
X777500Y694706D01*
D02*
G37*
G36*
X1294706Y712500D02*
X1288500D01*
Y706294D01*
X1290539Y707139D01*
X1292419Y708581D01*
X1293861Y710461D01*
X1294706Y712500D01*
D02*
G37*
G36*
X1283500D02*
X1277294D01*
X1278139Y710461D01*
X1279581Y708581D01*
X1281461Y707139D01*
X1283500Y706294D01*
Y712500D01*
D02*
G37*
G36*
X1259500Y826706D02*
Y820500D01*
X1265706D01*
X1264862Y822539D01*
X1263419Y824419D01*
X1261539Y825861D01*
X1259500Y826706D01*
D02*
G37*
G36*
X1254500D02*
X1252461Y825861D01*
X1250581Y824419D01*
X1249138Y822539D01*
X1248294Y820500D01*
X1254500D01*
Y826706D01*
D02*
G37*
G36*
X1356500Y827706D02*
X1354461Y826861D01*
X1352581Y825419D01*
X1351138Y823539D01*
X1350294Y821500D01*
X1356500D01*
Y827706D01*
D02*
G37*
G36*
X645500Y828706D02*
X643461Y827861D01*
X641581Y826419D01*
X640138Y824539D01*
X639294Y822500D01*
X645500D01*
Y828706D01*
D02*
G37*
G36*
X1361500Y827706D02*
Y821500D01*
X1367706D01*
X1366862Y823539D01*
X1365419Y825419D01*
X1363539Y826861D01*
X1361500Y827706D01*
D02*
G37*
G36*
X1163706Y819500D02*
X1157500D01*
Y813294D01*
X1159539Y814139D01*
X1161419Y815581D01*
X1162861Y817461D01*
X1163706Y819500D01*
D02*
G37*
G36*
X1152500D02*
X1146294D01*
X1147139Y817461D01*
X1148581Y815581D01*
X1150461Y814139D01*
X1152500Y813294D01*
Y819500D01*
D02*
G37*
G36*
X801500Y824706D02*
X799461Y823861D01*
X797581Y822419D01*
X796139Y820539D01*
X795294Y818500D01*
X801500D01*
Y824706D01*
D02*
G37*
G36*
X546706Y825500D02*
X540500D01*
Y819294D01*
X542539Y820138D01*
X544419Y821581D01*
X545861Y823461D01*
X546706Y825500D01*
D02*
G37*
G36*
X806500Y824706D02*
Y818500D01*
X812706D01*
X811861Y820539D01*
X810419Y822419D01*
X808539Y823861D01*
X806500Y824706D01*
D02*
G37*
G36*
X650500Y828706D02*
Y822500D01*
X656706D01*
X655862Y824539D01*
X654419Y826419D01*
X652539Y827861D01*
X650500Y828706D01*
D02*
G37*
G36*
X612000Y872000D02*
X592000D01*
Y832000D01*
X612000D01*
Y872000D01*
D02*
G37*
G36*
X545500Y841250D02*
X538500D01*
Y837516D01*
X538000Y837078D01*
X540350Y836769D01*
X540500Y836706D01*
Y830500D01*
X546706D01*
X545861Y832539D01*
X544419Y834419D01*
X544531Y834750D01*
X545500D01*
Y841250D01*
D02*
G37*
G36*
X557500D02*
X550500D01*
Y834750D01*
X557500D01*
Y841250D01*
D02*
G37*
G36*
X1398500Y864339D02*
X1397569Y864247D01*
X1394271Y863246D01*
X1391230Y861621D01*
X1388566Y859434D01*
X1386379Y856769D01*
X1384754Y853729D01*
X1383753Y850431D01*
X1383661Y849500D01*
X1398500D01*
Y864339D01*
D02*
G37*
G36*
X1448500Y844500D02*
X1433661D01*
X1433753Y843569D01*
X1434754Y840271D01*
X1435455Y838960D01*
X1434040Y837545D01*
X1432729Y838246D01*
X1429431Y839247D01*
X1426000Y839585D01*
X1422569Y839247D01*
X1419271Y838246D01*
X1417959Y837545D01*
X1416545Y838960D01*
X1417246Y840271D01*
X1418247Y843569D01*
X1418338Y844500D01*
X1403500D01*
Y829662D01*
X1404431Y829753D01*
X1407729Y830754D01*
X1409040Y831455D01*
X1410455Y830041D01*
X1409754Y828729D01*
X1408753Y825431D01*
X1408415Y822000D01*
X1408753Y818569D01*
X1409754Y815271D01*
X1410455Y813960D01*
X1409040Y812545D01*
X1407729Y813246D01*
X1404431Y814247D01*
X1403500Y814339D01*
Y799500D01*
X1418338D01*
X1418247Y800431D01*
X1417246Y803729D01*
X1416545Y805041D01*
X1417959Y806455D01*
X1419271Y805754D01*
X1422569Y804753D01*
X1426000Y804415D01*
X1429431Y804753D01*
X1432729Y805754D01*
X1434040Y806455D01*
X1435455Y805041D01*
X1434754Y803729D01*
X1433753Y800431D01*
X1433661Y799500D01*
X1448500D01*
Y814339D01*
X1447569Y814247D01*
X1444271Y813246D01*
X1442959Y812545D01*
X1441545Y813960D01*
X1442246Y815271D01*
X1443247Y818569D01*
X1443585Y822000D01*
X1443247Y825431D01*
X1442246Y828729D01*
X1441545Y830041D01*
X1442959Y831455D01*
X1444271Y830754D01*
X1447569Y829753D01*
X1448500Y829662D01*
Y844500D01*
D02*
G37*
G36*
X741500Y829706D02*
Y823500D01*
X747706D01*
X746861Y825539D01*
X745419Y827419D01*
X743539Y828861D01*
X741500Y829706D01*
D02*
G37*
G36*
X736500D02*
X734461Y828861D01*
X732581Y827419D01*
X731139Y825539D01*
X730294Y823500D01*
X736500D01*
Y829706D01*
D02*
G37*
G36*
X1152500Y830706D02*
X1150461Y829862D01*
X1148581Y828419D01*
X1147139Y826539D01*
X1146294Y824500D01*
X1152500D01*
Y830706D01*
D02*
G37*
G36*
X1398500Y844500D02*
X1383661D01*
X1383753Y843569D01*
X1384754Y840271D01*
X1386379Y837231D01*
X1388566Y834566D01*
X1391230Y832379D01*
X1394271Y830754D01*
X1397569Y829753D01*
X1398500Y829662D01*
Y844500D01*
D02*
G37*
G36*
X1157500Y830706D02*
Y824500D01*
X1163706D01*
X1162861Y826539D01*
X1161419Y828419D01*
X1159539Y829862D01*
X1157500Y830706D01*
D02*
G37*
G36*
X1336500Y792706D02*
X1334461Y791861D01*
X1332581Y790419D01*
X1331138Y788539D01*
X1330294Y786500D01*
X1336500D01*
Y792706D01*
D02*
G37*
G36*
X1308500D02*
Y786500D01*
X1314706D01*
X1313862Y788539D01*
X1312419Y790419D01*
X1310539Y791861D01*
X1308500Y792706D01*
D02*
G37*
G36*
X1341500D02*
Y786500D01*
X1347706D01*
X1346861Y788539D01*
X1345419Y790419D01*
X1343539Y791861D01*
X1341500Y792706D01*
D02*
G37*
G36*
X1061500Y804706D02*
Y798500D01*
X1067706D01*
X1066861Y800539D01*
X1065419Y802419D01*
X1063539Y803861D01*
X1061500Y804706D01*
D02*
G37*
G36*
X1067706Y793500D02*
X1061500D01*
Y787294D01*
X1063539Y788139D01*
X1065419Y789581D01*
X1066861Y791461D01*
X1067706Y793500D01*
D02*
G37*
G36*
X1448500Y794500D02*
X1433661D01*
X1433753Y793569D01*
X1434754Y790271D01*
X1436379Y787231D01*
X1438566Y784566D01*
X1441230Y782379D01*
X1444271Y780754D01*
X1447569Y779753D01*
X1448500Y779662D01*
Y794500D01*
D02*
G37*
G36*
X1418338D02*
X1403500D01*
Y779662D01*
X1404431Y779753D01*
X1407729Y780754D01*
X1410770Y782379D01*
X1413434Y784566D01*
X1415621Y787231D01*
X1417246Y790271D01*
X1418247Y793569D01*
X1418338Y794500D01*
D02*
G37*
G36*
X364500Y790500D02*
X358294D01*
X359139Y788461D01*
X360581Y786581D01*
X362461Y785138D01*
X364500Y784294D01*
Y790500D01*
D02*
G37*
G36*
X1303500Y792706D02*
X1301461Y791861D01*
X1299581Y790419D01*
X1298139Y788539D01*
X1297294Y786500D01*
X1303500D01*
Y792706D01*
D02*
G37*
G36*
X375706Y790500D02*
X369500D01*
Y784294D01*
X371539Y785138D01*
X373419Y786581D01*
X374861Y788461D01*
X375706Y790500D01*
D02*
G37*
G36*
X1398500Y814339D02*
X1397569Y814247D01*
X1394271Y813246D01*
X1391230Y811621D01*
X1388566Y809434D01*
X1386379Y806769D01*
X1384754Y803729D01*
X1383753Y800431D01*
X1383661Y799500D01*
X1398500D01*
Y814339D01*
D02*
G37*
G36*
X645500Y817500D02*
X639294D01*
X640138Y815461D01*
X641581Y813581D01*
X643461Y812139D01*
X645500Y811294D01*
Y817500D01*
D02*
G37*
G36*
X1367706Y816500D02*
X1361500D01*
Y810294D01*
X1363539Y811139D01*
X1365419Y812581D01*
X1366862Y814461D01*
X1367706Y816500D01*
D02*
G37*
G36*
X656706Y817500D02*
X650500D01*
Y811294D01*
X652539Y812139D01*
X654419Y813581D01*
X655862Y815461D01*
X656706Y817500D01*
D02*
G37*
G36*
X747706Y818500D02*
X741500D01*
Y812294D01*
X743539Y813139D01*
X745419Y814581D01*
X746861Y816461D01*
X747706Y818500D01*
D02*
G37*
G36*
X736500D02*
X730294D01*
X731139Y816461D01*
X732581Y814581D01*
X734461Y813139D01*
X736500Y812294D01*
Y818500D01*
D02*
G37*
G36*
X812706Y813500D02*
X806500D01*
Y807294D01*
X808539Y808139D01*
X810419Y809581D01*
X811861Y811461D01*
X812706Y813500D01*
D02*
G37*
G36*
X801500D02*
X795294D01*
X796139Y811461D01*
X797581Y809581D01*
X799461Y808139D01*
X801500Y807294D01*
Y813500D01*
D02*
G37*
G36*
X1254500Y815500D02*
X1248294D01*
X1249138Y813461D01*
X1250581Y811581D01*
X1252461Y810138D01*
X1254500Y809294D01*
Y815500D01*
D02*
G37*
G36*
X1356500Y816500D02*
X1350294D01*
X1351138Y814461D01*
X1352581Y812581D01*
X1354461Y811139D01*
X1356500Y810294D01*
Y816500D01*
D02*
G37*
G36*
X1265706Y815500D02*
X1259500D01*
Y809294D01*
X1261539Y810138D01*
X1263419Y811581D01*
X1264862Y813461D01*
X1265706Y815500D01*
D02*
G37*
%LPD*%
D18*
X1100500Y240500D02*
D03*
X1091000Y215000D02*
D03*
X1110000D02*
D03*
D19*
X1396500Y395500D02*
D03*
X1422000Y386000D02*
D03*
Y405000D02*
D03*
X1060500Y271500D02*
D03*
X1086000Y262000D02*
D03*
Y281000D02*
D03*
X1060500Y310500D02*
D03*
X1086000Y301000D02*
D03*
Y320000D02*
D03*
D21*
X426500Y971000D02*
D03*
X445500D02*
D03*
X465500D02*
D03*
X484500D02*
D03*
D22*
X372000Y969000D02*
D03*
X358000D02*
D03*
X397000D02*
D03*
X383000D02*
D03*
X1187000Y1020000D02*
D03*
X1173000D02*
D03*
X1187000Y1007000D02*
D03*
X1173000D02*
D03*
X1081000Y244000D02*
D03*
X1067000D02*
D03*
X1254000Y167000D02*
D03*
X1240000D02*
D03*
D23*
X1380000Y927000D02*
D03*
Y913000D02*
D03*
X1393000Y927000D02*
D03*
Y913000D02*
D03*
X1391000Y413000D02*
D03*
Y427000D02*
D03*
X1103000Y264000D02*
D03*
Y278000D02*
D03*
Y303000D02*
D03*
Y317000D02*
D03*
X1044000Y272000D02*
D03*
Y286000D02*
D03*
X1044000Y311000D02*
D03*
Y297000D02*
D03*
X548000Y843750D02*
D03*
Y857750D02*
D03*
X1095000Y178000D02*
D03*
Y192000D02*
D03*
D35*
X1348000Y974000D02*
X1358500D01*
X1340000Y982000D02*
X1348000Y974000D01*
X1340000Y982000D02*
Y992000D01*
X1347000Y999000D01*
X1359500D01*
Y1009000D02*
X1378074D01*
X1379574Y1010500D01*
X1360050Y1029550D02*
X1377502D01*
X1378767Y1029000D02*
X1379567Y1029800D01*
X1378052Y1029000D02*
X1378767D01*
X1377502Y1029550D02*
X1378052Y1029000D01*
X1373567Y1019067D02*
Y1020050D01*
X1373500Y1019000D02*
X1373567Y1019067D01*
X1359500Y1019000D02*
X1373500D01*
X1359500Y1029000D02*
X1360050Y1029550D01*
X1026000Y301400D02*
Y386800D01*
X985000Y301400D02*
X1026000D01*
X1018900Y393900D02*
X1026000Y386800D01*
X1259000Y184000D02*
Y198000D01*
X1247000Y210000D02*
X1259000Y198000D01*
X1215000Y210000D02*
X1247000D01*
X1209800Y204800D02*
X1215000Y210000D01*
X1209800Y185600D02*
Y204800D01*
X952000Y177000D02*
Y353600D01*
X945800Y170800D02*
X952000Y177000D01*
X582000Y972000D02*
X667000D01*
X552000Y1002000D02*
X582000Y972000D01*
X479000Y1002000D02*
X552000D01*
X472000Y995000D02*
X479000Y1002000D01*
X407250Y894028D02*
X412000Y889278D01*
X407250Y894028D02*
Y898000D01*
X271500D02*
X407250D01*
X258500Y911000D02*
X271500Y898000D01*
X1188000Y1019000D02*
X1204500D01*
X1189000Y1009000D02*
X1204500D01*
X1187000Y1007000D02*
X1189000Y1009000D01*
X1359500Y929000D02*
X1370500D01*
X1372500Y927000D01*
X1380000D01*
X1359500Y939000D02*
X1389250D01*
X1393250Y935000D01*
Y927250D02*
Y935000D01*
X1393000Y927000D02*
X1393250Y927250D01*
X1359500Y1019000D02*
X1360000Y1018500D01*
X1044500Y310500D02*
X1060500D01*
X1044000Y311000D02*
X1044500Y310500D01*
X1044000Y272000D02*
X1060000D01*
X1060500Y271500D01*
X1086000Y281000D02*
X1100000D01*
X1103000Y278000D01*
X1086000Y262000D02*
X1101000D01*
X1103000Y264000D01*
X1111000D01*
X1113600Y266600D01*
X1128800D01*
X1103000Y303000D02*
X1106000D01*
X1112400Y296600D01*
X1128800D01*
X1096000Y303000D02*
X1103000D01*
X1094000Y301000D02*
X1096000Y303000D01*
X1086000Y301000D02*
X1094000D01*
X1097000Y317000D02*
X1103000D01*
X1094000Y320000D02*
X1097000Y317000D01*
X1086000Y320000D02*
X1094000D01*
X1114600Y251600D02*
X1128800D01*
X1103500Y240500D02*
X1114600Y251600D01*
X1100500Y240500D02*
X1103500D01*
X1084500D02*
X1100500D01*
X1081000Y244000D02*
X1084500Y240500D01*
X1396400Y395600D02*
X1396500Y395500D01*
X1391000Y395600D02*
Y413000D01*
Y395600D02*
X1391000Y395600D01*
X1374800D02*
X1391000D01*
X1396400D01*
X1128800Y320600D02*
X1144400D01*
X1150000Y315000D01*
Y286000D02*
Y315000D01*
X1145600Y281600D02*
X1150000Y286000D01*
X1128800Y281600D02*
X1145600D01*
X1128800Y365600D02*
X1145400D01*
X1150000Y361000D01*
Y338000D02*
Y361000D01*
X1147600Y335600D02*
X1150000Y338000D01*
X1128800Y335600D02*
X1147600D01*
X1086000Y320000D02*
Y385000D01*
X1096600Y395600D01*
X1128800D01*
X1078000Y320000D02*
X1086000D01*
X1072000Y314000D02*
X1078000Y320000D01*
X1072000Y287000D02*
Y314000D01*
Y287000D02*
X1078000Y281000D01*
X1086000D01*
X930000Y170800D02*
X945800D01*
X1308800Y431600D02*
Y449200D01*
X985000Y432000D02*
X1003000D01*
X969000D02*
X985000D01*
X969000Y424199D02*
Y432000D01*
X963000Y418199D02*
X969000Y424199D01*
X963000Y251000D02*
X967000Y247000D01*
X985000D01*
X963500Y339500D02*
X985000D01*
X963000Y251000D02*
Y418199D01*
X1293800Y431600D02*
Y449800D01*
X1294000Y450000D01*
X1083000Y178000D02*
X1095000D01*
X985000Y221600D02*
X1003600D01*
X1004000Y222000D01*
X985000Y234300D02*
X1004700D01*
X913000Y276000D02*
X930000D01*
X913000Y276000D02*
X913000Y276000D01*
X985000Y314100D02*
X1003900D01*
X1004000Y314000D01*
X1005000D01*
X985000Y326800D02*
X1005200D01*
X910500Y183500D02*
X930000D01*
X879000Y215000D02*
X910500Y183500D01*
X879000Y215000D02*
Y326000D01*
X863500Y368500D02*
X930000D01*
X826000Y406000D02*
X827000Y407000D01*
X826000Y406000D02*
X863500Y368500D01*
X815000Y393000D02*
Y415000D01*
Y393000D02*
X868500Y339500D01*
X835000Y432000D02*
X930000D01*
X833500Y433500D02*
X835000Y432000D01*
X815000Y415000D02*
X833500Y433500D01*
X836000Y436000D01*
X893000Y257000D02*
X903000Y247000D01*
X893000Y257000D02*
Y339500D01*
X868500D02*
X893000D01*
X930000D01*
X903000Y247000D02*
X910000D01*
X930000D01*
X912300Y419300D02*
X930000D01*
X985000Y406600D02*
X1001400D01*
X1002001Y405999D01*
X1001998D02*
X1002001D01*
X985000Y419300D02*
X1002700D01*
X1004935Y209500D02*
X1020000Y224565D01*
Y300000D01*
X985000Y208900D02*
X985600Y209500D01*
X1004935D01*
X985000Y393900D02*
X1018900D01*
X1002700Y419300D02*
X1013000Y409000D01*
X1003000Y432000D02*
X1012998Y441998D01*
Y465999D01*
X1020932Y471500D02*
X1039065D01*
X1018900Y393900D02*
X1079500Y454500D01*
Y457935D01*
X1085065Y463500D01*
X1294500D01*
X1308800Y449200D01*
X955000Y355000D02*
Y442000D01*
X988499Y475499D01*
X1016933D01*
X1020932Y471500D01*
X1032000Y481000D02*
X1032500Y481500D01*
X1039065Y471500D02*
X1041065Y473500D01*
X1032500Y481500D02*
X1071600D01*
X1072600Y480500D01*
X1309399D01*
X1041065Y473500D02*
X1068287D01*
X1069287Y472500D01*
X1306086D01*
X1323800Y454786D01*
Y431600D02*
Y454786D01*
X1338800Y431600D02*
Y451099D01*
X1309399Y480500D02*
X1338800Y451099D01*
X836000Y436000D02*
Y647289D01*
X845961Y657250D01*
X172000Y868000D02*
Y956000D01*
X220000Y1004000D01*
Y1084000D01*
X238000Y1102000D01*
X674000D01*
X744000Y1032000D01*
Y964000D02*
Y1032000D01*
X667000Y972000D02*
X722000Y917000D01*
X934000D01*
X744000Y964000D02*
X781000Y927000D01*
X903000D01*
X905000Y925000D01*
X412000Y793750D02*
Y889278D01*
Y793750D02*
X437750Y768000D01*
X444500D01*
D36*
X1359500Y999000D02*
X1370029D01*
X1373029Y1002000D01*
X1389000D01*
X1402000Y1015000D01*
X985000Y381200D02*
X985200Y381000D01*
X1010000D01*
X1004700Y263300D02*
X1009000Y259000D01*
X985000Y263300D02*
X1004700D01*
X930000D02*
X949300D01*
X952000Y353600D02*
X954200Y355800D01*
X1044000Y777000D02*
Y781000D01*
X1043000Y782000D02*
X1044000Y781000D01*
X1036000Y782000D02*
X1043000D01*
X606021Y907000D02*
X928000D01*
X603521Y904500D02*
X606021Y907000D01*
X596479Y904500D02*
X603521D01*
X593979Y907000D02*
X596479Y904500D01*
X501000Y907000D02*
X593979D01*
X499000Y909000D02*
X501000Y907000D01*
X976000Y857000D02*
X977000Y858000D01*
X976000Y768000D02*
Y857000D01*
X928000Y522000D02*
X962000Y556000D01*
Y560000D01*
X1059000Y657000D02*
Y745000D01*
X1000000Y598000D02*
X1059000Y657000D01*
X968000Y757000D02*
Y846000D01*
Y757000D02*
X970000Y755000D01*
Y751000D02*
Y755000D01*
X786000Y1040000D02*
X849000D01*
X786000D02*
X787000Y1041000D01*
X849000Y1040000D02*
X873000Y1016000D01*
X925393Y863000D02*
X929000D01*
X914000Y851607D02*
X925393Y863000D01*
X1014000Y860000D02*
X1021000Y853000D01*
Y722000D02*
Y853000D01*
X997000Y698000D02*
X1021000Y722000D01*
X1026000Y700000D02*
Y860000D01*
X987000Y661000D02*
X1026000Y700000D01*
X914000Y766000D02*
Y851607D01*
X924000Y851000D02*
X927000Y848000D01*
Y767000D02*
Y848000D01*
X1142000Y773000D02*
X1210000D01*
X1075000Y840000D02*
X1142000Y773000D01*
X1213521Y781500D02*
X1225000Y770021D01*
Y769000D02*
Y770021D01*
X1144500Y781500D02*
X1213521D01*
X1083000Y843000D02*
X1144500Y781500D01*
X1143502Y760499D02*
X1399498D01*
X1076000Y828000D02*
X1143502Y760499D01*
X1399498D02*
X1403000Y764000D01*
X1069000Y840000D02*
X1075000D01*
X1056000Y826000D02*
Y836000D01*
X1065000Y826000D02*
X1145000Y746000D01*
X1056000Y826000D02*
X1151000Y731000D01*
X1286000D01*
Y732000D01*
X1065000Y826000D02*
Y829000D01*
X1145000Y746000D02*
X1286000D01*
X1036000Y709000D02*
X1044000D01*
X1044000Y286000D02*
Y297000D01*
X1044000Y286000D02*
X1044000Y286000D01*
X1043136Y286000D02*
X1044000D01*
X985000Y368500D02*
X1003500D01*
X1010000Y375000D01*
X924800Y321600D02*
X930000Y326800D01*
X918015Y321600D02*
X924800D01*
X902000Y305585D02*
X918015Y321600D01*
X902000Y266000D02*
Y305585D01*
Y266000D02*
X909000Y259000D01*
X930000Y355800D02*
X954200D01*
X909000Y259000D02*
X910000D01*
X985000Y276000D02*
X1008000D01*
X985000Y276000D02*
X985000Y276000D01*
X985000Y288700D02*
X1005300D01*
X1008000Y286000D01*
Y276000D02*
Y286000D01*
X985000Y196200D02*
X1001200D01*
X910000Y233000D02*
X911300Y234300D01*
X930000D01*
X985000Y183500D02*
X1000500D01*
X1004000Y187000D01*
Y199000D01*
Y200000D01*
X1001200Y196200D02*
X1004000Y199000D01*
X1010000Y375000D02*
Y381000D01*
X1043136Y272000D02*
X1044000D01*
X1033000Y282136D02*
X1043136Y272000D01*
X1033000Y282136D02*
Y388000D01*
X1089000Y444000D01*
X1044000Y311000D02*
Y389000D01*
X1100000Y445000D02*
Y448000D01*
X1044000Y389000D02*
X1100000Y445000D01*
X1161000Y1020000D02*
X1173000D01*
X1173000Y1020000D01*
X1173000Y996000D02*
Y1007000D01*
X1173000Y1007000D01*
X1089000Y444000D02*
Y454000D01*
X1109000Y380000D02*
X1128200D01*
X1128800Y380600D01*
X1045000Y447000D02*
Y464000D01*
X942000Y621000D02*
Y661000D01*
Y621000D02*
X1075500Y487500D01*
X1312299D01*
X1346799Y453000D01*
X1378000D01*
X1391000Y440000D01*
Y427000D02*
Y440000D01*
X1278000Y432400D02*
X1278800Y431600D01*
X918000Y464000D02*
X933000Y449000D01*
X1044000Y286000D02*
X1063101D01*
X1071000Y278100D01*
Y264000D02*
Y278100D01*
X1030000Y248000D02*
X1055000D01*
X1071000Y264000D01*
X1067000Y234000D02*
Y244000D01*
X1067000Y234000D02*
X1067000Y234000D01*
X1067000Y233000D02*
Y234000D01*
X1278000Y432400D02*
Y450000D01*
X1074071Y496000D02*
X1144000D01*
X1072642Y504500D02*
X1135500D01*
X1151000Y897000D02*
X1386000D01*
X1393000Y904000D01*
Y913000D01*
X1370000Y903000D02*
X1380000Y913000D01*
X1158000Y903000D02*
X1370000D01*
X1151000Y910000D02*
X1158000Y903000D01*
X836000Y684000D02*
X846000D01*
X854000Y733000D02*
X962000D01*
X966000Y737000D01*
X951000Y619071D02*
X1074071Y496000D01*
X951000Y619071D02*
Y666000D01*
X948000Y669000D02*
X951000Y666000D01*
X948000Y669000D02*
Y698000D01*
X957000Y620142D02*
X1072642Y504500D01*
X967000Y698000D02*
X997000D01*
X918000Y464000D02*
Y698000D01*
X879000Y684000D02*
X893393D01*
X951107Y705500D02*
X957000Y699607D01*
Y620142D02*
Y699607D01*
X937000Y698000D02*
X944500Y705500D01*
X951107D01*
X952499Y710500D02*
X954998Y712999D01*
X893393Y684000D02*
X919893Y710500D01*
X952499D01*
X940893Y725500D02*
X941891Y726499D01*
X844000Y727000D02*
X845500Y725500D01*
X964501Y726499D02*
X966000Y725000D01*
X845500Y725500D02*
X940893D01*
X941891Y726499D02*
X964501D01*
X944998Y718999D02*
X945000Y718997D01*
X899893Y715500D02*
X941503D01*
X853393Y669000D02*
X899893Y715500D01*
X850000Y667000D02*
Y669000D01*
X605000Y666000D02*
X704000D01*
X705000Y667000D01*
X850000Y669000D02*
X853393D01*
X941503Y715500D02*
X945000Y718997D01*
X378000Y627000D02*
X440000D01*
X498000Y569000D01*
X520000D01*
X532000Y581000D01*
Y582000D01*
X606999Y654999D02*
X694999D01*
X697000Y657000D01*
X957000Y813000D02*
Y844000D01*
X847498Y780000D02*
X887000D01*
X909000Y758000D01*
X947000D01*
X954000Y765000D01*
X282000Y585000D02*
X358000D01*
X380000Y563000D01*
X529000D01*
X549000Y583000D01*
X964000Y850000D02*
Y857000D01*
Y850000D02*
X968000Y846000D01*
X952000Y849000D02*
Y860000D01*
Y849000D02*
X957000Y844000D01*
X940000Y818000D02*
X946000Y812000D01*
X940000Y818000D02*
Y858000D01*
X537000Y783000D02*
X549002Y770999D01*
X561999D01*
X549000Y583000D02*
Y740000D01*
X576000Y767000D01*
X855000Y770000D02*
X874000Y751000D01*
X933000D01*
X937000Y747000D01*
D37*
X1396600Y221600D02*
X1402000Y227000D01*
X1374800Y221600D02*
X1396600D01*
X1392400Y236600D02*
X1402000Y227000D01*
X1374800Y236600D02*
X1392400D01*
X1391600Y266600D02*
X1402000Y277000D01*
X1374800Y266600D02*
X1391600D01*
X912000Y879000D02*
X917000Y884000D01*
X845000Y879000D02*
X912000D01*
X840000Y884000D02*
X845000Y879000D01*
X917000Y884000D02*
X1144297D01*
X674250D02*
X840000D01*
X841750Y867000D02*
X919140D01*
X837750Y871000D02*
X841750Y867000D01*
X834250Y871000D02*
X837750D01*
X922390Y870250D02*
X922461D01*
X919140Y867000D02*
X922390Y870250D01*
X1027039Y872750D02*
X1044000Y855789D01*
X924961Y872750D02*
X1027039D01*
X922461Y870250D02*
X924961Y872750D01*
X1044000Y777000D02*
Y855789D01*
X1146547Y886250D02*
X1155453D01*
X1156203Y887000D01*
X1250500D01*
X1266200Y871300D01*
X706000Y976250D02*
Y990000D01*
X701750Y972000D02*
X706000Y976250D01*
X687250Y972000D02*
X701750D01*
X659000Y874500D02*
X659500Y874000D01*
X471000Y842000D02*
Y937500D01*
X547500Y874500D02*
X548000Y874000D01*
Y857750D02*
Y874000D01*
X484500Y961000D02*
Y971000D01*
X471000Y947500D02*
X484500Y961000D01*
X471000Y937500D02*
Y947500D01*
X445500Y971000D02*
X445600Y970900D01*
Y937500D02*
Y970900D01*
X445500Y971000D02*
X465500D01*
X388000Y912500D02*
Y939500D01*
X385250Y909750D02*
X388000Y912500D01*
X357000Y909750D02*
X385250D01*
X354000Y912750D02*
X357000Y909750D01*
X354000Y912750D02*
Y939500D01*
X397000Y1041500D02*
X398500Y1043000D01*
X397000Y969000D02*
Y1041500D01*
X358000Y960500D02*
Y969000D01*
X354000Y956500D02*
X358000Y960500D01*
X354000Y939500D02*
Y956500D01*
X371000Y939500D02*
X372000Y940500D01*
Y969000D01*
X383000D01*
X470780Y461576D02*
X471000Y461796D01*
X470780Y436296D02*
Y461576D01*
X506000Y461796D02*
X507200Y462996D01*
Y488200D01*
X189000Y219000D02*
X196000D01*
X612000Y471250D02*
X712250D01*
X777000Y406500D01*
Y191500D02*
Y406500D01*
Y191500D02*
X807450Y161050D01*
X1216200D01*
X1224800Y169650D02*
Y185600D01*
X1240000Y167000D02*
Y185400D01*
X1239800Y185600D02*
X1240000Y185400D01*
X1239800Y167050D02*
Y185600D01*
X1216200Y161050D02*
X1222200Y167050D01*
X1239800D01*
X1222200D02*
X1224800Y169650D01*
X659500Y845750D02*
Y869250D01*
X1266200Y858000D02*
Y871300D01*
Y858000D02*
X1291600D01*
X659500Y869250D02*
Y874000D01*
X603500Y785500D02*
X657500D01*
X744750Y872750D01*
X1317000Y858000D02*
X1342400D01*
X1367800D01*
X1028000Y640000D02*
X1044000Y656000D01*
Y709000D01*
Y777000D01*
X744750Y872750D02*
X836000D01*
X1359500Y989000D02*
X1377000D01*
X973000Y640000D02*
X1028000D01*
X1299000Y840000D02*
X1317000Y858000D01*
X1177500Y840000D02*
X1299000D01*
X1021000Y872750D02*
X1144750D01*
X1177500Y840000D01*
X845961Y657250D02*
X883250D01*
X892000Y666000D01*
X834250Y662750D02*
Y871000D01*
Y662750D02*
X839750Y657250D01*
X845961D01*
X471000Y842000D02*
X493000D01*
X590000Y493250D02*
X612000Y471250D01*
X590000Y493250D02*
Y772000D01*
X573000Y789000D02*
X590000Y772000D01*
X573000Y789000D02*
Y874500D01*
X598999Y790998D02*
X602000Y794000D01*
Y808000D01*
X659500Y869250D02*
X674250Y884000D01*
X1144297D02*
X1146547Y886250D01*
D38*
X511250Y987500D02*
X511750Y987000D01*
Y970500D02*
Y987000D01*
X547500Y874500D02*
X573000D01*
X503500D02*
X547500D01*
X471000Y842000D02*
X503500Y874500D01*
X496400Y955150D02*
X511750Y970500D01*
X496400Y937500D02*
Y955150D01*
X397000Y1041500D02*
X410500Y1028000D01*
X470000D01*
X292500Y1048500D02*
Y1084750D01*
Y1048500D02*
X298000Y1043000D01*
Y1004250D02*
Y1043000D01*
Y1004250D02*
X337000Y965250D01*
Y939500D02*
Y965250D01*
X286000Y953000D02*
X288000Y951000D01*
X286000Y953000D02*
X306500D01*
X258500D02*
X286000D01*
X288000Y911000D02*
Y951000D01*
X306500Y953000D02*
X320000Y939500D01*
X386200Y462596D02*
X387000Y461796D01*
X471000D01*
X356580D02*
X387000D01*
X386200Y462596D02*
Y488200D01*
X471000Y461796D02*
X506000D01*
X596204D01*
X611750Y436296D02*
Y446250D01*
X596204Y461796D02*
X611750Y446250D01*
X331080Y436296D02*
X356580Y461796D01*
X1375200Y252000D02*
X1394000D01*
X1374800Y251600D02*
X1375200Y252000D01*
D39*
X1378000Y990000D02*
X1427000D01*
X242000Y969500D02*
X258500Y953000D01*
X242000Y969500D02*
Y1048500D01*
X258500Y827000D02*
X304500Y781000D01*
X329456D01*
X378456Y732000D01*
X280500Y763000D02*
X322000D01*
X258500Y785000D02*
X280500Y763000D01*
X322000D02*
X371000Y714000D01*
X463000Y655000D02*
X507200Y610800D01*
Y589800D02*
Y610800D01*
X258500Y743000D02*
X310000D01*
X357000Y696000D01*
X401000D01*
X431000Y666000D01*
X258500Y701000D02*
X319000D01*
X354000Y666000D01*
X386200D01*
X258500Y659000D02*
X283500Y634000D01*
X342000D01*
X386200Y589800D01*
X1394000Y252000D02*
X1427000D01*
X463000Y655000D02*
Y676000D01*
X371000Y714000D02*
X425000D01*
X378456Y732000D02*
X432456D01*
X498456Y666000D02*
X507200D01*
X432456Y732000D02*
X498456Y666000D01*
X425000Y714000D02*
X463000Y676000D01*
D41*
X611750Y233296D02*
X653000D01*
D42*
X296704Y232296D02*
X324080D01*
X258500Y270500D02*
X296704Y232296D01*
X258500Y270500D02*
Y366000D01*
Y450000D02*
X265000Y443500D01*
X273205D01*
X389705Y327000D02*
X632000D01*
X648000Y311000D01*
Y238296D02*
Y311000D01*
Y238296D02*
X653000Y233296D01*
X273205Y443500D02*
X389705Y327000D01*
D43*
X267104Y181896D02*
X324080D01*
X331080Y182896D02*
X406080D01*
X470780D01*
X545780D01*
X611750D01*
X686750D01*
X203500Y348500D02*
Y362500D01*
X213000Y236000D02*
X267104Y181896D01*
X203500Y348500D02*
X213000Y339000D01*
Y236000D02*
Y339000D01*
D45*
X784000Y1081000D02*
D03*
X584000D02*
D03*
X811000Y1079000D02*
D03*
X846000D02*
D03*
X646000Y1002000D02*
D03*
X470000Y1078000D02*
D03*
X1452000Y965000D02*
D03*
Y1015000D02*
D03*
X1427000Y990000D02*
D03*
X1402000Y965000D02*
D03*
Y1015000D02*
D03*
X1452000Y227000D02*
D03*
Y277000D02*
D03*
X1427000Y252000D02*
D03*
X1402000Y227000D02*
D03*
Y277000D02*
D03*
X1451000Y797000D02*
D03*
Y847000D02*
D03*
X1426000Y822000D02*
D03*
X1401000Y797000D02*
D03*
Y847000D02*
D03*
D46*
X764200Y991700D02*
D03*
Y966300D02*
D03*
X789600Y991700D02*
D03*
Y966300D02*
D03*
X815000Y991700D02*
D03*
X840400D02*
D03*
Y966300D02*
D03*
X865800Y991700D02*
D03*
Y966300D02*
D03*
D47*
X242000Y1073500D02*
D03*
D48*
Y1048500D02*
D03*
D49*
X596000Y1002000D02*
D03*
D50*
X470000Y1028000D02*
D03*
D51*
X406080Y436296D02*
D03*
X331080D02*
D03*
Y233296D02*
D03*
X406080D02*
D03*
Y283696D02*
D03*
X331080D02*
D03*
Y182896D02*
D03*
X406080D02*
D03*
X545780Y436296D02*
D03*
X470780D02*
D03*
Y233296D02*
D03*
X545780D02*
D03*
Y283696D02*
D03*
X470780D02*
D03*
Y182896D02*
D03*
X545780D02*
D03*
X686750Y436296D02*
D03*
X611750D02*
D03*
Y233296D02*
D03*
X686750D02*
D03*
Y283696D02*
D03*
X611750D02*
D03*
Y182896D02*
D03*
X686750D02*
D03*
D52*
X507200Y666000D02*
D03*
X431000D02*
D03*
X507200Y589800D02*
D03*
Y488200D02*
D03*
X431000D02*
D03*
X386200Y666000D02*
D03*
X310000D02*
D03*
X386200Y589800D02*
D03*
Y488200D02*
D03*
X310000D02*
D03*
D53*
X203500Y617000D02*
D03*
Y659000D02*
D03*
Y701000D02*
D03*
Y869000D02*
D03*
Y911000D02*
D03*
Y953000D02*
D03*
X258500D02*
D03*
Y617000D02*
D03*
Y659000D02*
D03*
Y701000D02*
D03*
Y911000D02*
D03*
Y869000D02*
D03*
Y827000D02*
D03*
X203500D02*
D03*
X258500Y785000D02*
D03*
X203500D02*
D03*
X258500Y743000D02*
D03*
X203500D02*
D03*
X161500Y572000D02*
D03*
Y998000D02*
D03*
D54*
X258500Y450000D02*
D03*
X203500D02*
D03*
X258500Y408000D02*
D03*
X203500D02*
D03*
X258500Y366000D02*
D03*
X203500D02*
D03*
D55*
X1190000Y858000D02*
D03*
X1215400D02*
D03*
X1240800D02*
D03*
X1266200D02*
D03*
X1291600D02*
D03*
X1317000D02*
D03*
X1342400D02*
D03*
X1367800Y507750D02*
D03*
X1342400D02*
D03*
X1317000D02*
D03*
X1291600D02*
D03*
X1266200D02*
D03*
X1240800D02*
D03*
X1215400D02*
D03*
D56*
X1367800Y858000D02*
D03*
X1190000Y507750D02*
D03*
D57*
X160000Y266000D02*
D03*
X1379574Y1010500D02*
D03*
X1379567Y1029800D02*
D03*
X1373567Y1020050D02*
D03*
X1390000Y621000D02*
D03*
X1325000Y637000D02*
D03*
X1286000Y665000D02*
D03*
Y715000D02*
D03*
X1306000Y784000D02*
D03*
X1339000D02*
D03*
X1015000Y336000D02*
D03*
X1069000Y397000D02*
D03*
X1009000Y259000D02*
D03*
X1071000Y216000D02*
D03*
X965000Y181000D02*
D03*
X1059000Y796000D02*
D03*
X1036000Y782000D02*
D03*
X819000Y895000D02*
D03*
X701000Y896000D02*
D03*
X928000Y907000D02*
D03*
X977000Y858000D02*
D03*
X976000Y768000D02*
D03*
X876000Y866000D02*
D03*
X872000Y891000D02*
D03*
X997000Y884000D02*
D03*
X1059000Y745000D02*
D03*
X962000Y560000D02*
D03*
X928000Y522000D02*
D03*
X1000000Y598000D02*
D03*
X934000Y917000D02*
D03*
X970000Y751000D02*
D03*
X472000Y995000D02*
D03*
X787000Y1041000D02*
D03*
X873000Y1016000D02*
D03*
X923485Y872485D02*
D03*
X929000Y863000D02*
D03*
X1014000Y860000D02*
D03*
X1026000D02*
D03*
X1036000Y709000D02*
D03*
X987000Y661000D02*
D03*
X924000Y851000D02*
D03*
X927000Y767000D02*
D03*
X914000Y766000D02*
D03*
X1210000Y773000D02*
D03*
X1225000Y769000D02*
D03*
X1083000Y843000D02*
D03*
X1076000Y828000D02*
D03*
X1065000Y829000D02*
D03*
X1056000Y836000D02*
D03*
X1069000Y840000D02*
D03*
X1286000Y732000D02*
D03*
Y746000D02*
D03*
X189000Y219000D02*
D03*
X1294000Y450000D02*
D03*
X1083000Y178000D02*
D03*
X1004000Y222000D02*
D03*
X1004700Y234300D02*
D03*
X913000Y276000D02*
D03*
X1005000Y314000D02*
D03*
X1005200Y326800D02*
D03*
X879000Y326000D02*
D03*
X827000Y407000D02*
D03*
X1030000Y248000D02*
D03*
X910000Y247000D02*
D03*
X912300Y419300D02*
D03*
X910000Y259000D02*
D03*
X1008000Y276000D02*
D03*
X1004000Y200000D02*
D03*
X910000Y233000D02*
D03*
X1010000Y381000D02*
D03*
X1013000Y409000D02*
D03*
X1001998Y405999D02*
D03*
X1100000Y448000D02*
D03*
X1161000Y1020000D02*
D03*
X1173000Y996000D02*
D03*
X892000Y666000D02*
D03*
X1032000Y481000D02*
D03*
X1012998Y465999D02*
D03*
X933000Y449000D02*
D03*
X973000Y640000D02*
D03*
X1089000Y454000D02*
D03*
X1109000Y380000D02*
D03*
X942000Y661000D02*
D03*
X1045000Y447000D02*
D03*
Y464000D02*
D03*
X1144000Y496000D02*
D03*
X1067000Y233000D02*
D03*
X1278000Y450000D02*
D03*
X1135500Y504500D02*
D03*
X1151000Y897000D02*
D03*
Y910000D02*
D03*
X1403000Y764000D02*
D03*
X846000Y684000D02*
D03*
X854000Y733000D02*
D03*
X966000Y725000D02*
D03*
X844000Y727000D02*
D03*
X879000Y684000D02*
D03*
X697000Y657000D02*
D03*
X966000Y737000D02*
D03*
X967000Y698000D02*
D03*
X954998Y712999D02*
D03*
X948000Y698000D02*
D03*
X918000D02*
D03*
X937000D02*
D03*
X944998Y718999D02*
D03*
X850000Y667000D02*
D03*
X705000D02*
D03*
X605000Y666000D02*
D03*
X378000Y627000D02*
D03*
X532000Y582000D02*
D03*
X606999Y654999D02*
D03*
X499000Y909000D02*
D03*
X957000Y813000D02*
D03*
X847498Y780000D02*
D03*
X954000Y765000D02*
D03*
X282000Y585000D02*
D03*
X172000Y868000D02*
D03*
X905000Y927000D02*
D03*
X964000Y857000D02*
D03*
X952000Y860000D02*
D03*
X946000Y812000D02*
D03*
X940000Y858000D02*
D03*
X537000Y783000D02*
D03*
X561999Y770999D02*
D03*
X576000Y767000D02*
D03*
X855000Y770000D02*
D03*
X937000Y747000D02*
D03*
X208000Y562000D02*
D03*
X367000Y793000D02*
D03*
X444500Y768000D02*
D03*
X449000Y741000D02*
D03*
X492000Y722000D02*
D03*
X540000Y761000D02*
D03*
X538000Y828000D02*
D03*
X683000Y930000D02*
D03*
X600000Y913000D02*
D03*
X139000Y875000D02*
D03*
X149000Y743000D02*
D03*
Y654000D02*
D03*
X193000Y1046000D02*
D03*
X404000Y524000D02*
D03*
X530000Y525000D02*
D03*
X696000Y611000D02*
D03*
X813000D02*
D03*
X803000Y531000D02*
D03*
X653000Y508000D02*
D03*
X738000Y565000D02*
D03*
X617000Y715000D02*
D03*
X739000Y821000D02*
D03*
X804000Y816000D02*
D03*
X648000Y820000D02*
D03*
X733000Y941000D02*
D03*
X825000Y342000D02*
D03*
X733000Y296000D02*
D03*
X744000Y182000D02*
D03*
X1059000Y333000D02*
D03*
X1070000Y365000D02*
D03*
X999000Y534000D02*
D03*
X894000Y485000D02*
D03*
X880000Y390000D02*
D03*
X886000Y540000D02*
D03*
X859000Y510000D02*
D03*
X850000Y622000D02*
D03*
Y575000D02*
D03*
X333000Y561000D02*
D03*
X573000Y396000D02*
D03*
X609000Y389000D02*
D03*
X1109000Y1071000D02*
D03*
X923000Y1026000D02*
D03*
X1393000Y1079000D02*
D03*
X1339000Y569000D02*
D03*
X1169000Y684000D02*
D03*
X1439000Y445000D02*
D03*
X1418000Y321000D02*
D03*
X1095000Y952000D02*
D03*
X1113000Y1007000D02*
D03*
X1262000Y619000D02*
D03*
X1120000Y724000D02*
D03*
X1072000Y640000D02*
D03*
X1144000Y557000D02*
D03*
X946000Y1067000D02*
D03*
X1174000Y1072000D02*
D03*
X1155000Y822000D02*
D03*
X1257000Y818000D02*
D03*
X1359000Y819000D02*
D03*
X1439000Y612000D02*
D03*
X1028000Y965000D02*
D03*
X976000Y972000D02*
D03*
X975000Y916000D02*
D03*
X1044000Y611000D02*
D03*
X1058000Y556000D02*
D03*
X775000Y686000D02*
D03*
D58*
X511250Y987500D02*
D03*
X687250Y972000D02*
D03*
X659500Y845750D02*
D03*
X292500Y1084750D02*
D03*
X231000Y763500D02*
D03*
X288000Y911000D02*
D03*
X598999Y790998D02*
D03*
D59*
X398500Y1043000D02*
D03*
X298000D02*
D03*
D60*
X602000Y852000D02*
D03*
Y808000D02*
D03*
X706000Y1034000D02*
D03*
Y990000D02*
D03*
D61*
X573000Y939500D02*
D03*
Y874500D02*
D03*
X659000Y939500D02*
D03*
Y874500D02*
D03*
D62*
X1204500Y1089000D02*
D03*
Y1079000D02*
D03*
Y1069000D02*
D03*
Y1059000D02*
D03*
Y1029000D02*
D03*
Y1019000D02*
D03*
Y1009000D02*
D03*
Y999000D02*
D03*
Y989000D02*
D03*
Y959000D02*
D03*
Y949000D02*
D03*
Y939000D02*
D03*
Y929000D02*
D03*
X1359500Y1089000D02*
D03*
Y1079000D02*
D03*
Y1069000D02*
D03*
Y1059000D02*
D03*
Y1029000D02*
D03*
Y1019000D02*
D03*
Y1009000D02*
D03*
Y999000D02*
D03*
Y989000D02*
D03*
Y959000D02*
D03*
Y949000D02*
D03*
Y939000D02*
D03*
Y929000D02*
D03*
D63*
X1205500Y1044000D02*
D03*
Y974000D02*
D03*
X1358500Y1044000D02*
D03*
Y974000D02*
D03*
X1234000Y919000D02*
D03*
X1287000D02*
D03*
X1341000D02*
D03*
X1223000Y1099000D02*
D03*
X1277000D02*
D03*
X1331000D02*
D03*
D64*
X320000Y939500D02*
D03*
X337000D02*
D03*
X354000D02*
D03*
X371000D02*
D03*
X388000D02*
D03*
D65*
X354000Y844000D02*
D03*
D66*
X1308800Y431600D02*
D03*
X1293800D02*
D03*
X1278800D02*
D03*
X1323800D02*
D03*
X1224800D02*
D03*
X1209800D02*
D03*
X1239800D02*
D03*
X1179800D02*
D03*
X1164800D02*
D03*
X1338800D02*
D03*
X1194800D02*
D03*
X1308800Y185600D02*
D03*
X1323800D02*
D03*
X1293800D02*
D03*
X1278800D02*
D03*
X1224800D02*
D03*
X1209800D02*
D03*
X1239800D02*
D03*
X1179800D02*
D03*
X1164800D02*
D03*
X1338800D02*
D03*
X1194800D02*
D03*
D67*
X1374800Y395600D02*
D03*
Y365600D02*
D03*
Y350600D02*
D03*
Y380600D02*
D03*
X1128800Y395600D02*
D03*
Y365600D02*
D03*
Y350600D02*
D03*
Y380600D02*
D03*
X1374800Y281600D02*
D03*
Y266600D02*
D03*
Y296600D02*
D03*
Y320600D02*
D03*
X1128800Y281600D02*
D03*
Y266600D02*
D03*
Y296600D02*
D03*
Y320600D02*
D03*
X1374800Y236600D02*
D03*
Y221600D02*
D03*
X1128800Y236600D02*
D03*
Y221600D02*
D03*
X1374800Y251600D02*
D03*
Y335600D02*
D03*
X1128800Y251600D02*
D03*
Y335600D02*
D03*
D68*
X985000Y381200D02*
D03*
Y368500D02*
D03*
Y355800D02*
D03*
Y432000D02*
D03*
Y419300D02*
D03*
Y406600D02*
D03*
X930000Y381200D02*
D03*
Y368500D02*
D03*
Y355800D02*
D03*
Y432000D02*
D03*
Y419300D02*
D03*
Y406600D02*
D03*
X985000Y393900D02*
D03*
X930000D02*
D03*
X985000Y196200D02*
D03*
Y183500D02*
D03*
Y170800D02*
D03*
Y247000D02*
D03*
Y234300D02*
D03*
Y221600D02*
D03*
X930000Y196200D02*
D03*
Y183500D02*
D03*
Y170800D02*
D03*
Y247000D02*
D03*
Y234300D02*
D03*
Y221600D02*
D03*
X985000Y208900D02*
D03*
X930000D02*
D03*
X985000Y288700D02*
D03*
Y276000D02*
D03*
Y263300D02*
D03*
Y339500D02*
D03*
Y326800D02*
D03*
Y314100D02*
D03*
X930000Y288700D02*
D03*
Y276000D02*
D03*
Y263300D02*
D03*
Y339500D02*
D03*
Y326800D02*
D03*
Y314100D02*
D03*
X985000Y301400D02*
D03*
X930000D02*
D03*
D69*
X471000Y842000D02*
D03*
D70*
X496400Y937500D02*
D03*
X471000D02*
D03*
X445600D02*
D03*
D71*
X231500Y600500D02*
Y926000D01*
X349400Y525000D02*
X386200Y488200D01*
X307000Y525000D02*
X349400D01*
X231500Y600500D02*
X307000Y525000D01*
X231500Y926000D02*
X258500Y953000D01*
M02*
