M48
;Layer_Color=9474304
;FILE_FORMAT=4:4
METRIC,LZ
;TYPE=PLATED
T1F00S00C0.4000
T2F00S00C0.6000
T3F00S00C0.9000
T4F00S00C1.0000
T5F00S00C1.3000
T6F00S00C1.5000
T7F00S00C1.8000
;TYPE=NON_PLATED
T8F00S00C3.2000
%
T01
X00189Y00219
X0016Y00266
X00573Y00396
X00609Y00389
X00733Y00296
X00744Y00182
X0091Y00233
Y00247
Y00259
X00913Y00276
X00879Y00326
X0088Y0039
X00825Y00342
X010052Y003268
X01005Y00314
X01015Y00336
X01059Y00333
X0107Y00365
X01109Y0038
X0101Y00381
X01008Y00276
X01009Y00259
X010047Y002343
X01004Y00222
Y002
X00965Y00181
X01083Y00178
X01071Y00216
X01067Y00233
X0103Y00248
X01418Y00321
X01439Y00445
X01294Y0045
X01278
X01339Y00569
X01325Y00637
X01286Y00665
Y00715
Y00732
Y00746
X01306Y00784
X01339
X01403Y00764
X0139Y00621
X01439Y00612
X01262Y00619
X01225Y00769
X0121Y00773
X01169Y00684
X0112Y00724
X01059Y00745
X01036Y00709
Y00782
X00976Y00768
X0097Y00751
X00966Y00737
Y00725
X00954998Y00712999
X00944998Y00718999
X00948Y00698
X00937
X00918
X00967
X00987Y00661
X00973Y0064
X00942Y00661
X00892Y00666
X00879Y00684
X00846
X0085Y00667
Y00622
Y00575
X00886Y0054
X00859Y0051
X00894Y00485
X00928Y00522
X00962Y0056
X00999Y00534
X01Y00598
X01044Y00611
X01072Y0064
X01058Y00556
X01144Y00557
Y00496
X011355Y005045
X011Y00448
X01089Y00454
X01045Y00447
Y00464
X01032Y00481
X01012998Y00465999
X01013Y00409
X01001998Y00405999
X01069Y00397
X009123Y004193
X00933Y00449
X00827Y00407
X00803Y00531
X00813Y00611
X00844Y00727
X00854Y00733
X00855Y0077
X00847498Y0078
X00914Y00766
X00927Y00767
X00954Y00765
X00937Y00747
X00775Y00686
X00705Y00667
X00697Y00657
X00696Y00611
X00738Y00565
X00653Y00508
X0053Y00525
X00532Y00582
X00606999Y00654999
X00605Y00666
X00617Y00715
X00576Y00767
X00561999Y00770999
X0054Y00761
X00537Y00783
X00492Y00722
X00449Y00741
X004445Y00768
X00404Y00524
X00333Y00561
X00282Y00585
X00208Y00562
X00149Y00654
Y00743
X00367Y00793
X00378Y00627
X00172Y00868
X00139Y00875
X00193Y01046
X00472Y00995
X00499Y00909
X006Y00913
X00683Y0093
X00701Y00896
X00733Y00941
X00739Y00821
X00648Y0082
X00538Y00828
X00787Y01041
X00873Y01016
X00923Y01026
X00946Y01067
X00976Y00972
X00975Y00916
X00934Y00917
X00928Y00907
X00923485Y00872485
X00929Y00863
X0094Y00858
X00952Y0086
X00964Y00857
X00977Y00858
X01014Y0086
X01026
X00997Y00884
X00924Y00851
X00946Y00812
X00957Y00813
X01059Y00796
X01065Y00829
X01076Y00828
X01069Y0084
X01083Y00843
X01056Y00836
X01155Y00822
X01151Y00897
Y0091
X01095Y00952
X01113Y01007
X01161Y0102
X01173Y00996
X01174Y01072
X01109Y01071
X01028Y00965
X00905Y00927
X00872Y00891
X00876Y00866
X00819Y00895
X00804Y00816
X01257Y00818
X01359Y00819
X01379574Y010105
X01373567Y0102005
X01379567Y010298
X01393Y01079
T02
X00598999Y00790998
X00231Y007635
X00288Y00911
X002925Y0108475
X0051125Y009875
X0068725Y00972
X006595Y0084575
T03
X012154Y0050775
X012408
X012662
X012916
X01317
X013424
X013678
X0119
Y00858
X012154
X012408
X012662
X012916
X01317
X013424
X013678
T04
X00242Y010485
Y010735
X0047Y01078
Y01028
X00596Y01002
X00646
X007642Y009917
Y009663
X007896
Y009917
X00784Y01081
X00584
X00811Y01079
X00846
X008404Y009917
X00815
X008404Y009663
X008658
Y009917
T05
X0033108Y00182896
Y00233296
Y00283696
X0040608
Y00233296
Y00182896
X0047078
Y00233296
Y00283696
X0054578
Y00233296
Y00182896
X0061175
Y00233296
Y00283696
X0068675
Y00233296
Y00182896
Y00436296
X0061175
X0054578
X0047078
X0040608
X00431Y004882
X005072
Y005898
Y00666
X00431
X003862
X0031
X003862Y005898
Y004882
X0031
X0033108Y00436296
T06
X01402Y00227
X01452
Y00277
X01427Y00252
X01402Y00277
X01401Y00797
X01451
Y00847
X01426Y00822
X01401Y00847
X01402Y00965
X01452
Y01015
X01427Y0099
X01402Y01015
T07
X002035Y00366
X002585
Y00408
Y0045
X002035
Y00408
Y00617
Y00659
Y00701
Y00743
Y00785
X002585
Y00743
Y00701
Y00659
Y00617
Y00827
Y00869
Y00911
Y00953
X002035
Y00911
Y00869
Y00827
T08
X001615Y0032
X014178Y00558
X001615Y00572
Y00496
Y00998
X0119Y00808
M30
