%FSLAX44Y44*%
%MOMM*%
G71*
G01*
G75*
G04 Layer_Color=8388736*
%ADD10C,1.5000*%
%ADD11R,0.8000X0.9000*%
%ADD12R,0.9000X0.8000*%
%ADD13R,1.0500X0.2500*%
%ADD14R,0.2500X1.0500*%
%ADD15R,2.5000X2.5000*%
%ADD16R,1.5000X1.3000*%
%ADD17R,0.8000X1.1000*%
%ADD18R,1.1000X0.8000*%
G04:AMPARAMS|DCode=19|XSize=2.5mm|YSize=2mm|CornerRadius=0.5mm|HoleSize=0mm|Usage=FLASHONLY|Rotation=0.000|XOffset=0mm|YOffset=0mm|HoleType=Round|Shape=RoundedRectangle|*
%AMROUNDEDRECTD19*
21,1,2.5000,1.0000,0,0,0.0*
21,1,1.5000,2.0000,0,0,0.0*
1,1,1.0000,0.7500,-0.5000*
1,1,1.0000,-0.7500,-0.5000*
1,1,1.0000,-0.7500,0.5000*
1,1,1.0000,0.7500,0.5000*
%
%ADD19ROUNDEDRECTD19*%
%ADD20R,2.0000X1.4000*%
%ADD21O,0.3000X2.1000*%
%ADD22O,2.1000X0.3000*%
%ADD23C,0.5000*%
%ADD24C,0.2000*%
%ADD25C,0.7500*%
%ADD26C,0.3000*%
%ADD27C,0.4000*%
%ADD28C,1.5000*%
%ADD29R,1.5000X1.5000*%
%ADD30C,0.8000*%
%ADD31R,1.3000X0.6000*%
%ADD32C,8.0000*%
G04:AMPARAMS|DCode=33|XSize=6mm|YSize=6mm|CornerRadius=1.5mm|HoleSize=0mm|Usage=FLASHONLY|Rotation=300.000|XOffset=0mm|YOffset=0mm|HoleType=Round|Shape=RoundedRectangle|*
%AMROUNDEDRECTD33*
21,1,6.0000,3.0000,0,0,300.0*
21,1,3.0000,6.0000,0,0,300.0*
1,1,3.0000,-0.5490,-2.0490*
1,1,3.0000,-2.0490,0.5490*
1,1,3.0000,0.5490,2.0490*
1,1,3.0000,2.0490,-0.5490*
%
%ADD33ROUNDEDRECTD33*%
%ADD34R,1.0032X1.1032*%
%ADD35R,1.1032X1.0032*%
%ADD36R,1.2532X0.4532*%
%ADD37R,0.4532X1.2532*%
%ADD38R,2.7032X2.7032*%
%ADD39R,1.7032X1.5032*%
%ADD40R,1.0032X1.3032*%
%ADD41R,1.3032X1.0032*%
G04:AMPARAMS|DCode=42|XSize=2.7032mm|YSize=2.2032mm|CornerRadius=0.6016mm|HoleSize=0mm|Usage=FLASHONLY|Rotation=0.000|XOffset=0mm|YOffset=0mm|HoleType=Round|Shape=RoundedRectangle|*
%AMROUNDEDRECTD42*
21,1,2.7032,1.0000,0,0,0.0*
21,1,1.5000,2.2032,0,0,0.0*
1,1,1.2032,0.7500,-0.5000*
1,1,1.2032,-0.7500,-0.5000*
1,1,1.2032,-0.7500,0.5000*
1,1,1.2032,0.7500,0.5000*
%
%ADD42ROUNDEDRECTD42*%
%ADD43R,2.2032X1.6032*%
%ADD44O,0.5032X2.3032*%
%ADD45O,2.3032X0.5032*%
%ADD46C,1.7032*%
%ADD47R,1.7032X1.7032*%
%ADD48C,1.0032*%
D34*
X1077000Y987000D02*
D03*
X1091000D02*
D03*
X1091000Y1000000D02*
D03*
X1077000D02*
D03*
X1063000Y958000D02*
D03*
X1077000D02*
D03*
X1077000Y975000D02*
D03*
X1063000D02*
D03*
X849000Y1003000D02*
D03*
X863000D02*
D03*
X923000Y870000D02*
D03*
X909000D02*
D03*
X950000Y961000D02*
D03*
X964000D02*
D03*
X1143000Y1028000D02*
D03*
X1157000D02*
D03*
X950000Y941000D02*
D03*
X964000D02*
D03*
X980000Y995000D02*
D03*
X966000D02*
D03*
X966000Y1007000D02*
D03*
X980000D02*
D03*
D35*
X1062000Y932000D02*
D03*
Y946000D02*
D03*
X937000Y898000D02*
D03*
Y884000D02*
D03*
X842000Y896000D02*
D03*
Y882000D02*
D03*
X891000Y862000D02*
D03*
Y876000D02*
D03*
X1065000Y1036000D02*
D03*
Y1022000D02*
D03*
X1106000Y1040000D02*
D03*
Y1026000D02*
D03*
X1131000Y1000000D02*
D03*
Y1014000D02*
D03*
Y974000D02*
D03*
Y988000D02*
D03*
X1024000Y1060000D02*
D03*
Y1046000D02*
D03*
X978000Y939000D02*
D03*
Y953000D02*
D03*
X875000Y1017000D02*
D03*
Y1003000D02*
D03*
X888000Y1017000D02*
D03*
Y1003000D02*
D03*
X1053000Y1060000D02*
D03*
Y1046000D02*
D03*
X1041000Y1060000D02*
D03*
Y1046000D02*
D03*
X1012000Y1060000D02*
D03*
Y1046000D02*
D03*
X978000Y978000D02*
D03*
Y964000D02*
D03*
D36*
X999250Y1021000D02*
D03*
Y1016000D02*
D03*
Y1011000D02*
D03*
Y1006000D02*
D03*
Y1001000D02*
D03*
X1038750D02*
D03*
Y1006000D02*
D03*
Y1011000D02*
D03*
Y1016000D02*
D03*
Y1021000D02*
D03*
D37*
X1009000Y991250D02*
D03*
X1014000D02*
D03*
X1019000D02*
D03*
X1024000D02*
D03*
X1029000D02*
D03*
Y1030750D02*
D03*
X1024000D02*
D03*
X1019000D02*
D03*
X1014000D02*
D03*
X1009000D02*
D03*
D38*
X1019000Y1011000D02*
D03*
D39*
X920000Y830500D02*
D03*
Y849500D02*
D03*
D40*
X1091000Y1026000D02*
D03*
X1077000D02*
D03*
X1105000Y1013000D02*
D03*
X1091000D02*
D03*
X1131000Y1027000D02*
D03*
X1117000D02*
D03*
D41*
X1064000Y987000D02*
D03*
Y1001000D02*
D03*
D42*
X962000Y922500D02*
D03*
X1038000D02*
D03*
Y877500D02*
D03*
X962000D02*
D03*
X1038000Y1077500D02*
D03*
X962000D02*
D03*
Y1122500D02*
D03*
X1038000D02*
D03*
D43*
X997500Y967500D02*
D03*
X1042500D02*
D03*
Y942500D02*
D03*
X997500D02*
D03*
D44*
X913500Y896000D02*
D03*
X908500D02*
D03*
X903500D02*
D03*
X898500D02*
D03*
X893500D02*
D03*
X888500D02*
D03*
X883500D02*
D03*
X878500D02*
D03*
X873500D02*
D03*
X868500D02*
D03*
X863500D02*
D03*
X858500D02*
D03*
Y978000D02*
D03*
X863500D02*
D03*
X868500D02*
D03*
X873500D02*
D03*
X878500D02*
D03*
X883500D02*
D03*
X888500D02*
D03*
X893500D02*
D03*
X898500D02*
D03*
X903500D02*
D03*
X908500D02*
D03*
X913500D02*
D03*
D45*
X845000Y909500D02*
D03*
Y914500D02*
D03*
Y919500D02*
D03*
Y924500D02*
D03*
Y929500D02*
D03*
Y934500D02*
D03*
Y939500D02*
D03*
Y944500D02*
D03*
Y949500D02*
D03*
Y954500D02*
D03*
Y959500D02*
D03*
Y964500D02*
D03*
X927000D02*
D03*
Y959500D02*
D03*
Y954500D02*
D03*
Y949500D02*
D03*
Y944500D02*
D03*
Y939500D02*
D03*
Y934500D02*
D03*
Y929500D02*
D03*
Y924500D02*
D03*
Y919500D02*
D03*
Y914500D02*
D03*
Y909500D02*
D03*
D46*
X868000Y843600D02*
D03*
Y869000D02*
D03*
X914600Y1190600D02*
D03*
X940000D02*
D03*
X889200D02*
D03*
X853400Y1034000D02*
D03*
X878800D02*
D03*
X904200D02*
D03*
X929600D02*
D03*
D47*
X828000D02*
D03*
D48*
X1013000Y1017000D02*
D03*
X1025000D02*
D03*
X1013000Y1005000D02*
D03*
X1025000D02*
D03*
M02*
