%FSLAX44Y44*%
%MOMM*%
G71*
G01*
G75*
G04 Layer_Physical_Order=2*
G04 Layer_Color=16711680*
%ADD10C,1.5000*%
%ADD11R,0.8000X0.9000*%
%ADD12R,0.9000X0.8000*%
%ADD13R,1.0500X0.2500*%
%ADD14R,0.2500X1.0500*%
%ADD15R,2.5000X2.5000*%
%ADD16R,1.5000X1.3000*%
%ADD17R,0.8000X1.1000*%
%ADD18R,1.1000X0.8000*%
G04:AMPARAMS|DCode=19|XSize=2.5mm|YSize=2mm|CornerRadius=0.5mm|HoleSize=0mm|Usage=FLASHONLY|Rotation=0.000|XOffset=0mm|YOffset=0mm|HoleType=Round|Shape=RoundedRectangle|*
%AMROUNDEDRECTD19*
21,1,2.5000,1.0000,0,0,0.0*
21,1,1.5000,2.0000,0,0,0.0*
1,1,1.0000,0.7500,-0.5000*
1,1,1.0000,-0.7500,-0.5000*
1,1,1.0000,-0.7500,0.5000*
1,1,1.0000,0.7500,0.5000*
%
%ADD19ROUNDEDRECTD19*%
%ADD20R,2.0000X1.4000*%
%ADD21O,0.3000X2.1000*%
%ADD22O,2.1000X0.3000*%
%ADD23C,0.5000*%
%ADD24C,0.2000*%
%ADD25C,0.7500*%
%ADD26C,0.3000*%
%ADD27C,0.4000*%
%ADD28C,1.5000*%
%ADD29R,1.5000X1.5000*%
%ADD30C,0.8000*%
%ADD31R,1.3000X0.6000*%
%ADD32C,8.0000*%
G04:AMPARAMS|DCode=33|XSize=6mm|YSize=6mm|CornerRadius=1.5mm|HoleSize=0mm|Usage=FLASHONLY|Rotation=300.000|XOffset=0mm|YOffset=0mm|HoleType=Round|Shape=RoundedRectangle|*
%AMROUNDEDRECTD33*
21,1,6.0000,3.0000,0,0,300.0*
21,1,3.0000,6.0000,0,0,300.0*
1,1,3.0000,-0.5490,-2.0490*
1,1,3.0000,-2.0490,0.5490*
1,1,3.0000,0.5490,2.0490*
1,1,3.0000,2.0490,-0.5490*
%
%ADD33ROUNDEDRECTD33*%
G36*
X1089000Y1054000D02*
X1135000D01*
Y1011000D01*
X1136000Y1010000D01*
X1140518D01*
X1140663Y1008738D01*
X1139937Y1008569D01*
X1136528Y1007025D01*
X1121504Y998351D01*
X1116975Y1002880D01*
X1117000Y1002931D01*
X1116914Y1002942D01*
X1114500Y1005356D01*
Y1008500D01*
X1111356D01*
X1108942Y1010914D01*
X1108931Y1011000D01*
X1109109Y1012356D01*
X1107907Y1011948D01*
X1086556Y1033299D01*
Y1038722D01*
X1087564Y1039495D01*
X1088013Y1039374D01*
X1087931Y1040000D01*
X1088205Y1042088D01*
X1088376Y1042500D01*
X1093500D01*
Y1047624D01*
X1091965Y1046988D01*
X1090294Y1045706D01*
X1089213Y1044297D01*
X1087987Y1044626D01*
X1087794Y1046088D01*
X1086988Y1048035D01*
X1085706Y1049706D01*
X1084035Y1050988D01*
X1082088Y1051794D01*
X1080000Y1052069D01*
X1077912Y1051794D01*
X1075965Y1050988D01*
X1074294Y1049706D01*
X1073012Y1048035D01*
X1072206Y1046088D01*
X1071931Y1044000D01*
X1072206Y1041912D01*
X1073012Y1039966D01*
X1073444Y1039403D01*
Y1030583D01*
X1073667Y1028886D01*
X1073939Y1028232D01*
X1074322Y1027305D01*
X1075364Y1025947D01*
X1109119Y992193D01*
X1109015Y990927D01*
X1107505Y989844D01*
X1104946Y987113D01*
X1102970Y983934D01*
X1101652Y980432D01*
X1101042Y976739D01*
X1101164Y972998D01*
X1102014Y969353D01*
X1103559Y965944D01*
X1118559Y939964D01*
X1120739Y936921D01*
X1123471Y934363D01*
X1126649Y932387D01*
X1130152Y931068D01*
X1133844Y930459D01*
X1137585Y930581D01*
X1141230Y931431D01*
X1144639Y932975D01*
X1170620Y947975D01*
X1173662Y950156D01*
X1176220Y952887D01*
X1178197Y956066D01*
X1179515Y959568D01*
X1180125Y963261D01*
X1180002Y967002D01*
X1179152Y970647D01*
X1177608Y974056D01*
X1169783Y987609D01*
X1170000Y987912D01*
X1186274D01*
X1187156Y986998D01*
X1187127Y986218D01*
X1186981Y983033D01*
X1186803Y979850D01*
X1186595Y976665D01*
X1186357Y973489D01*
X1186089Y970317D01*
X1185790Y967147D01*
X1185460Y963983D01*
X1185101Y960828D01*
X1184712Y957678D01*
X1184292Y954532D01*
X1183842Y951395D01*
X1183363Y948268D01*
X1182854Y945148D01*
X1182315Y942036D01*
X1181746Y938935D01*
X1181148Y935844D01*
X1180520Y932763D01*
X1179863Y929695D01*
X1179176Y926634D01*
X1178461Y923589D01*
X1177717Y920557D01*
X1176943Y917533D01*
X1176141Y914529D01*
X1175310Y911534D01*
X1174451Y908557D01*
X1173563Y905591D01*
X1172647Y902644D01*
X1171704Y899712D01*
X1170732Y896796D01*
X1169733Y893897D01*
X1168706Y891016D01*
X1167652Y888152D01*
X1166571Y885307D01*
X1165462Y882480D01*
X1164328Y879675D01*
X1163165Y876885D01*
X1161978Y874119D01*
X1160763Y871371D01*
X1159523Y868646D01*
X1158257Y865942D01*
X1156965Y863260D01*
X1155648Y860599D01*
X1154307Y857964D01*
X1152940Y855350D01*
X1151548Y852760D01*
X1150131Y850192D01*
X1148691Y847652D01*
X1147227Y845134D01*
X1145740Y842646D01*
X1144228Y840178D01*
X1142694Y837739D01*
X1141136Y835326D01*
X1139557Y832940D01*
X1137954Y830582D01*
X1136330Y828251D01*
X1134683Y825947D01*
X1133016Y823673D01*
X1131326Y821426D01*
X1129616Y819210D01*
X1127885Y817023D01*
X1126135Y814866D01*
X1124363Y812738D01*
X1122572Y810641D01*
X1120762Y808576D01*
X1118932Y806541D01*
X1117083Y804538D01*
X1115218Y802568D01*
X1113332Y800628D01*
X1111428Y798721D01*
X1109507Y796846D01*
X1107568Y795005D01*
X1105614Y793197D01*
X1103642Y791423D01*
X1101655Y789683D01*
X1099650Y787976D01*
X1097631Y786304D01*
X1095597Y784668D01*
X1093547Y783065D01*
X1091481Y781497D01*
X1089404Y779965D01*
X1087310Y778468D01*
X1085205Y777008D01*
X1083086Y775583D01*
X1080953Y774194D01*
X1078809Y772843D01*
X1076651Y771527D01*
X1074483Y770249D01*
X1072303Y769007D01*
X1070110Y767802D01*
X1067910Y766636D01*
X1065695Y765505D01*
X1063474Y764414D01*
X1061240Y763359D01*
X1058999Y762344D01*
X1056749Y761366D01*
X1054489Y760426D01*
X1052229Y759528D01*
X1048913Y758284D01*
X1045589Y757124D01*
X1042252Y756048D01*
X1038900Y755052D01*
X1035535Y754140D01*
X1032160Y753310D01*
X1028774Y752563D01*
X1025379Y751900D01*
X1021977Y751320D01*
X1018567Y750823D01*
X1015153Y750410D01*
X1011732Y750080D01*
X1008307Y749835D01*
X1004881Y749673D01*
X1001453Y749596D01*
X998024Y749602D01*
X994597Y749693D01*
X991169Y749867D01*
X987747Y750125D01*
X984327Y750467D01*
X980912Y750893D01*
X977504Y751403D01*
X974102Y751995D01*
X970708Y752672D01*
X967324Y753431D01*
X963951Y754274D01*
X960588Y755199D01*
X957238Y756207D01*
X953903Y757296D01*
X953463Y757451D01*
X952991Y758631D01*
X960638Y773638D01*
X960687Y773813D01*
X960789Y773965D01*
X960831Y774174D01*
X960831Y774175D01*
X960831Y774175D01*
X960819Y774201D01*
X961169Y775047D01*
X962224Y779441D01*
X962579Y783945D01*
X962224Y788450D01*
X961169Y792844D01*
X959440Y797018D01*
X957079Y800871D01*
X954145Y804307D01*
X950709Y807241D01*
X946856Y809602D01*
X942682Y811331D01*
X938288Y812386D01*
X938208Y812392D01*
X937928Y813631D01*
X945453Y817975D01*
X948495Y820156D01*
X951054Y822887D01*
X953030Y826066D01*
X954349Y829568D01*
X954958Y833261D01*
X954836Y837002D01*
X953986Y840647D01*
X952441Y844056D01*
X937441Y870036D01*
X935261Y873079D01*
X932530Y875637D01*
X929351Y877613D01*
X925848Y878932D01*
X922156Y879541D01*
X918415Y879419D01*
X914770Y878569D01*
X911361Y877025D01*
X885380Y862025D01*
X882338Y859844D01*
X879780Y857113D01*
X877803Y853934D01*
X877197Y852324D01*
X875976Y851975D01*
X873800Y853645D01*
X871002Y854804D01*
X868000Y855199D01*
X864998Y854804D01*
X863154Y854040D01*
X862098Y854746D01*
Y857854D01*
X863154Y858560D01*
X864998Y857796D01*
X868000Y857401D01*
X871002Y857796D01*
X873800Y858955D01*
X876202Y860798D01*
X878045Y863200D01*
X879204Y865998D01*
X879599Y869000D01*
X879204Y872002D01*
X878045Y874800D01*
X876202Y877202D01*
X873800Y879045D01*
X871002Y880204D01*
X868000Y880599D01*
X864998Y880204D01*
X863154Y879440D01*
X862098Y880146D01*
Y920000D01*
X861774Y921627D01*
X861710Y921951D01*
X860605Y923605D01*
X858981Y925229D01*
X859467Y926402D01*
X860500D01*
X861134Y926528D01*
X861912Y926206D01*
X864000Y925931D01*
X864000Y925931D01*
X864000Y925931D01*
X864993Y925833D01*
X865498Y924668D01*
X865012Y924035D01*
X864376Y922500D01*
X869500D01*
Y927624D01*
X869911Y927795D01*
X871998Y928069D01*
X870746Y928192D01*
X870266Y929024D01*
X870988Y929966D01*
X871794Y931912D01*
X872069Y934000D01*
X871794Y936088D01*
X870988Y938035D01*
X870643Y938484D01*
X870711Y938895D01*
X873718Y941902D01*
X896259D01*
X897096Y940947D01*
X897038Y940500D01*
X897312Y938412D01*
X898119Y936466D01*
X899401Y934794D01*
X900009Y934328D01*
Y926333D01*
X899012Y925034D01*
X897415Y925696D01*
X897035Y925988D01*
X895500Y926624D01*
Y918997D01*
Y911376D01*
X897035Y912012D01*
X898706Y913294D01*
X899988Y914966D01*
X901585Y914304D01*
X901965Y914012D01*
X903912Y913206D01*
X906000Y912931D01*
X908088Y913206D01*
X910034Y914012D01*
X911706Y915294D01*
X912988Y916965D01*
X913794Y918912D01*
X914069Y921000D01*
X913794Y923088D01*
X912988Y925034D01*
X911706Y926706D01*
X910204Y927858D01*
Y934328D01*
X910812Y934794D01*
X912094Y936466D01*
X912901Y938412D01*
X913176Y940500D01*
X912901Y942588D01*
X912094Y944535D01*
X911100Y945830D01*
X911706Y946294D01*
X912988Y947965D01*
X913794Y949912D01*
X914069Y952000D01*
X913794Y954088D01*
X912988Y956034D01*
X911706Y957706D01*
X910034Y958988D01*
X909896Y959686D01*
X913112Y962902D01*
X952000D01*
X953951Y963290D01*
X955605Y964395D01*
X971105Y979895D01*
X972210Y981549D01*
X972274Y981873D01*
X972598Y983500D01*
Y1008284D01*
X973553Y1009121D01*
X975000Y1008931D01*
X977088Y1009206D01*
X979035Y1010012D01*
X980706Y1011294D01*
X981988Y1012965D01*
X982794Y1014912D01*
X983069Y1017000D01*
X982794Y1019088D01*
X981988Y1021034D01*
X981556Y1021597D01*
Y1026284D01*
X996385Y1041113D01*
X997088Y1041206D01*
X999035Y1042012D01*
X1000706Y1043294D01*
X1001988Y1044966D01*
X1002794Y1046912D01*
X1003069Y1049000D01*
X1002794Y1051088D01*
X1001988Y1053035D01*
X1000706Y1054706D01*
X999035Y1055988D01*
X997088Y1056794D01*
X995000Y1057069D01*
X992912Y1056794D01*
X990965Y1055988D01*
X989294Y1054706D01*
X988012Y1053035D01*
X987206Y1051088D01*
X987113Y1050385D01*
X973771Y1037043D01*
X972598Y1037529D01*
Y1050393D01*
X973737Y1050955D01*
X974966Y1050012D01*
X976500Y1049376D01*
Y1056998D01*
Y1064624D01*
X974966Y1063988D01*
X973737Y1063045D01*
X972598Y1063607D01*
Y1083000D01*
X1089000D01*
Y1054000D01*
D02*
G37*
G36*
X962402Y1059876D02*
X961156Y1059628D01*
X960988Y1060034D01*
X959706Y1061706D01*
X958035Y1062988D01*
X956500Y1063624D01*
Y1055997D01*
Y1048376D01*
X958035Y1049012D01*
X959706Y1050294D01*
X960988Y1051965D01*
X961156Y1052372D01*
X962402Y1052124D01*
Y1000470D01*
X961199Y1000062D01*
X960706Y1000706D01*
X959035Y1001988D01*
X957500Y1002624D01*
Y994997D01*
Y987376D01*
X959035Y988012D01*
X960706Y989294D01*
X961199Y989938D01*
X962402Y989530D01*
Y985612D01*
X956977Y980187D01*
X955794Y980589D01*
X954988Y982534D01*
X953706Y984206D01*
X952035Y985488D01*
X950088Y986294D01*
X948000Y986569D01*
X947241Y986469D01*
X939107Y994603D01*
X937453Y995708D01*
X935502Y996096D01*
X933170D01*
X932704Y996704D01*
X931033Y997986D01*
X929087Y998792D01*
X926998Y999067D01*
X924910Y998792D01*
X922964Y997986D01*
X921292Y996704D01*
X920010Y995033D01*
X919204Y993086D01*
X918929Y990998D01*
X919204Y988910D01*
X920010Y986964D01*
X921292Y985292D01*
X922964Y984010D01*
X924910Y983204D01*
X926998Y982929D01*
X929087Y983204D01*
X931033Y984010D01*
X932704Y985292D01*
X938266Y981024D01*
X938266Y981024D01*
X938266Y981024D01*
X940031Y979259D01*
X939931Y978500D01*
X940206Y976412D01*
X941012Y974465D01*
X941187Y974237D01*
X940626Y973098D01*
X911000D01*
X909049Y972710D01*
X907395Y971605D01*
X900032Y964242D01*
X898765Y964325D01*
X897706Y965706D01*
X897098Y966172D01*
Y1019688D01*
X900496Y1023087D01*
X901198Y1022796D01*
X904200Y1022401D01*
X907202Y1022796D01*
X910000Y1023955D01*
X912402Y1025798D01*
X914245Y1028200D01*
X915404Y1030998D01*
X915799Y1034000D01*
X915404Y1037002D01*
X914245Y1039800D01*
X913431Y1040861D01*
X913992Y1042000D01*
X919808D01*
X920369Y1040861D01*
X919555Y1039800D01*
X918396Y1037002D01*
X918330Y1036500D01*
X927100D01*
Y1045270D01*
X926598Y1045204D01*
X924056Y1044151D01*
X923000Y1044857D01*
Y1083000D01*
X962402D01*
Y1059876D01*
D02*
G37*
%LPC*%
G36*
X970500Y906624D02*
X968966Y905988D01*
X967294Y904706D01*
X966012Y903035D01*
X965376Y901500D01*
X970500D01*
Y906624D01*
D02*
G37*
G36*
X975500D02*
Y901500D01*
X980624D01*
X979988Y903035D01*
X978706Y904706D01*
X977035Y905988D01*
X975500Y906624D01*
D02*
G37*
G36*
X1098500Y914500D02*
X1093376D01*
X1094012Y912965D01*
X1095294Y911294D01*
X1096965Y910012D01*
X1098500Y909376D01*
Y914500D01*
D02*
G37*
G36*
X1028000Y949094D02*
X1022244Y948717D01*
X1016588Y947592D01*
X1011126Y945738D01*
X1008200Y944295D01*
X1028915Y908415D01*
X1064795Y929130D01*
X1062982Y931843D01*
X1059179Y936179D01*
X1054843Y939982D01*
X1050047Y943187D01*
X1044874Y945738D01*
X1039413Y947592D01*
X1033755Y948717D01*
X1028000Y949094D01*
D02*
G37*
G36*
X1111500Y888624D02*
Y883500D01*
X1116624D01*
X1115988Y885034D01*
X1114706Y886706D01*
X1113035Y887988D01*
X1111500Y888624D01*
D02*
G37*
G36*
X1106500D02*
X1104966Y887988D01*
X1103294Y886706D01*
X1102012Y885034D01*
X1101376Y883500D01*
X1106500D01*
Y888624D01*
D02*
G37*
G36*
X1116624Y878500D02*
X1111500D01*
Y873376D01*
X1113035Y874012D01*
X1114706Y875294D01*
X1115988Y876965D01*
X1116624Y878500D01*
D02*
G37*
G36*
X980624Y896500D02*
X975500D01*
Y891376D01*
X977035Y892012D01*
X978706Y893294D01*
X979988Y894966D01*
X980624Y896500D01*
D02*
G37*
G36*
X970500D02*
X965376D01*
X966012Y894966D01*
X967294Y893294D01*
X968966Y892012D01*
X970500Y891376D01*
Y896500D01*
D02*
G37*
G36*
X1003870Y941795D02*
X1001157Y939982D01*
X996821Y936179D01*
X993018Y931843D01*
X989813Y927047D01*
X987262Y921874D01*
X985408Y916413D01*
X984283Y910755D01*
X983906Y905000D01*
X984283Y899245D01*
X985408Y893587D01*
X987262Y888126D01*
X988705Y885200D01*
X1024585Y905915D01*
X1003870Y941795D01*
D02*
G37*
G36*
X1108624Y914500D02*
X1103500D01*
Y909376D01*
X1105034Y910012D01*
X1106706Y911294D01*
X1107988Y912965D01*
X1108624Y914500D01*
D02*
G37*
G36*
X890500Y926624D02*
X888966Y925988D01*
X887294Y924706D01*
X886012Y923035D01*
X885376Y921500D01*
X890500D01*
Y926624D01*
D02*
G37*
G36*
X1103500Y924624D02*
Y919500D01*
X1108624D01*
X1107988Y921034D01*
X1106706Y922706D01*
X1105034Y923988D01*
X1103500Y924624D01*
D02*
G37*
G36*
X874500Y927624D02*
Y922500D01*
X879624D01*
X878988Y924035D01*
X877706Y925706D01*
X876034Y926988D01*
X874500Y927624D01*
D02*
G37*
G36*
X1160500Y928624D02*
Y923500D01*
X1165624D01*
X1164988Y925034D01*
X1163706Y926706D01*
X1162035Y927988D01*
X1160500Y928624D01*
D02*
G37*
G36*
X1155500D02*
X1153966Y927988D01*
X1152294Y926706D01*
X1151012Y925034D01*
X1150376Y923500D01*
X1155500D01*
Y928624D01*
D02*
G37*
G36*
X1098500Y924624D02*
X1096965Y923988D01*
X1095294Y922706D01*
X1094012Y921034D01*
X1093376Y919500D01*
X1098500D01*
Y924624D01*
D02*
G37*
G36*
X869500Y917500D02*
X864376D01*
X865012Y915965D01*
X866294Y914294D01*
X867965Y913012D01*
X869500Y912376D01*
Y917500D01*
D02*
G37*
G36*
X890500Y916500D02*
X885376D01*
X886012Y914966D01*
X887294Y913294D01*
X888966Y912012D01*
X890500Y911376D01*
Y916500D01*
D02*
G37*
G36*
X879624Y917500D02*
X874500D01*
Y912376D01*
X876034Y913012D01*
X877706Y914294D01*
X878988Y915965D01*
X879624Y917500D01*
D02*
G37*
G36*
X1165624Y918500D02*
X1160500D01*
Y913376D01*
X1162035Y914012D01*
X1163706Y915294D01*
X1164988Y916965D01*
X1165624Y918500D01*
D02*
G37*
G36*
X1155500D02*
X1150376D01*
X1151012Y916965D01*
X1152294Y915294D01*
X1153966Y914012D01*
X1155500Y913376D01*
Y918500D01*
D02*
G37*
G36*
X1106500Y878500D02*
X1101376D01*
X1102012Y876965D01*
X1103294Y875294D01*
X1104966Y874012D01*
X1106500Y873376D01*
Y878500D01*
D02*
G37*
G36*
X975500Y812624D02*
Y807500D01*
X980624D01*
X979988Y809035D01*
X978706Y810706D01*
X977035Y811988D01*
X975500Y812624D01*
D02*
G37*
G36*
X970500D02*
X968966Y811988D01*
X967294Y810706D01*
X966012Y809035D01*
X965376Y807500D01*
X970500D01*
Y812624D01*
D02*
G37*
G36*
X1083500Y822500D02*
X1078376D01*
X1079012Y820965D01*
X1080294Y819294D01*
X1081965Y818012D01*
X1083500Y817376D01*
Y822500D01*
D02*
G37*
G36*
Y832624D02*
X1081965Y831988D01*
X1080294Y830706D01*
X1079012Y829035D01*
X1078376Y827500D01*
X1083500D01*
Y832624D01*
D02*
G37*
G36*
X1093624Y822500D02*
X1088500D01*
Y817376D01*
X1090034Y818012D01*
X1091706Y819294D01*
X1092988Y820965D01*
X1093624Y822500D01*
D02*
G37*
G36*
X980624Y802500D02*
X975500D01*
Y797376D01*
X977035Y798012D01*
X978706Y799294D01*
X979988Y800965D01*
X980624Y802500D01*
D02*
G37*
G36*
X1043624Y777500D02*
X1038500D01*
Y772376D01*
X1040034Y773012D01*
X1041706Y774294D01*
X1042988Y775965D01*
X1043624Y777500D01*
D02*
G37*
G36*
X1033500D02*
X1028376D01*
X1029012Y775965D01*
X1030294Y774294D01*
X1031965Y773012D01*
X1033500Y772376D01*
Y777500D01*
D02*
G37*
G36*
Y787624D02*
X1031965Y786988D01*
X1030294Y785706D01*
X1029012Y784035D01*
X1028376Y782500D01*
X1033500D01*
Y787624D01*
D02*
G37*
G36*
X970500Y802500D02*
X965376D01*
X966012Y800965D01*
X967294Y799294D01*
X968966Y798012D01*
X970500Y797376D01*
Y802500D01*
D02*
G37*
G36*
X1038500Y787624D02*
Y782500D01*
X1043624D01*
X1042988Y784035D01*
X1041706Y785706D01*
X1040034Y786988D01*
X1038500Y787624D01*
D02*
G37*
G36*
X981500Y865624D02*
X979966Y864988D01*
X978294Y863706D01*
X977012Y862035D01*
X976376Y860500D01*
X981500D01*
Y865624D01*
D02*
G37*
G36*
X991624Y855500D02*
X986500D01*
Y850376D01*
X988035Y851012D01*
X989706Y852294D01*
X990988Y853966D01*
X991624Y855500D01*
D02*
G37*
G36*
X986500Y865624D02*
Y860500D01*
X991624D01*
X990988Y862035D01*
X989706Y863706D01*
X988035Y864988D01*
X986500Y865624D01*
D02*
G37*
G36*
X1067295Y924800D02*
X1031415Y904085D01*
X1052130Y868205D01*
X1054843Y870018D01*
X1059179Y873821D01*
X1062982Y878157D01*
X1066187Y882953D01*
X1068738Y888126D01*
X1070592Y893587D01*
X1071717Y899245D01*
X1072094Y905000D01*
X1071717Y910755D01*
X1070592Y916413D01*
X1068738Y921874D01*
X1067295Y924800D01*
D02*
G37*
G36*
X1027085Y901585D02*
X991205Y880870D01*
X993018Y878157D01*
X996821Y873821D01*
X1001157Y870018D01*
X1005953Y866813D01*
X1011126Y864262D01*
X1016588Y862408D01*
X1022244Y861283D01*
X1028000Y860906D01*
X1033755Y861283D01*
X1039413Y862408D01*
X1044874Y864262D01*
X1047800Y865705D01*
X1027085Y901585D01*
D02*
G37*
G36*
X981500Y855500D02*
X976376D01*
X977012Y853966D01*
X978294Y852294D01*
X979966Y851012D01*
X981500Y850376D01*
Y855500D01*
D02*
G37*
G36*
X1031500Y834500D02*
X1026376D01*
X1027012Y832965D01*
X1028294Y831294D01*
X1029966Y830012D01*
X1031500Y829376D01*
Y834500D01*
D02*
G37*
G36*
X1088500Y832624D02*
Y827500D01*
X1093624D01*
X1092988Y829035D01*
X1091706Y830706D01*
X1090034Y831988D01*
X1088500Y832624D01*
D02*
G37*
G36*
X1041624Y834500D02*
X1036500D01*
Y829376D01*
X1038035Y830012D01*
X1039706Y831294D01*
X1040988Y832965D01*
X1041624Y834500D01*
D02*
G37*
G36*
X1036500Y844624D02*
Y839500D01*
X1041624D01*
X1040988Y841034D01*
X1039706Y842706D01*
X1038035Y843988D01*
X1036500Y844624D01*
D02*
G37*
G36*
X1031500D02*
X1029966Y843988D01*
X1028294Y842706D01*
X1027012Y841034D01*
X1026376Y839500D01*
X1031500D01*
Y844624D01*
D02*
G37*
G36*
X1042498Y1041621D02*
Y1036498D01*
X1047622D01*
X1046986Y1038032D01*
X1045704Y1039704D01*
X1044032Y1040986D01*
X1042498Y1041621D01*
D02*
G37*
G36*
X1037498D02*
X1035963Y1040986D01*
X1034292Y1039704D01*
X1033010Y1038032D01*
X1032374Y1036498D01*
X1037498D01*
Y1041621D01*
D02*
G37*
G36*
X932100Y1045270D02*
Y1036500D01*
X940870D01*
X940804Y1037002D01*
X939645Y1039800D01*
X937802Y1042202D01*
X935400Y1044045D01*
X932602Y1045204D01*
X932100Y1045270D01*
D02*
G37*
G36*
X951500Y1053500D02*
X946376D01*
X947012Y1051965D01*
X948294Y1050294D01*
X949966Y1049012D01*
X951500Y1048376D01*
Y1053500D01*
D02*
G37*
G36*
X1098500Y1047624D02*
Y1042500D01*
X1103624D01*
X1102988Y1044035D01*
X1101706Y1045706D01*
X1100034Y1046988D01*
X1098500Y1047624D01*
D02*
G37*
G36*
X1103624Y1037500D02*
X1098500D01*
Y1032376D01*
X1100034Y1033012D01*
X1101706Y1034294D01*
X1102988Y1035965D01*
X1103624Y1037500D01*
D02*
G37*
G36*
X940870Y1031500D02*
X932100D01*
Y1022730D01*
X932602Y1022796D01*
X935400Y1023955D01*
X937802Y1025798D01*
X939645Y1028200D01*
X940804Y1030998D01*
X940870Y1031500D01*
D02*
G37*
G36*
X927100D02*
X918330D01*
X918396Y1030998D01*
X919555Y1028200D01*
X921398Y1025798D01*
X923800Y1023955D01*
X926598Y1022796D01*
X927100Y1022730D01*
Y1031500D01*
D02*
G37*
G36*
X1037498Y1031498D02*
X1032374D01*
X1033010Y1029963D01*
X1034292Y1028292D01*
X1035963Y1027010D01*
X1037498Y1026374D01*
Y1031498D01*
D02*
G37*
G36*
X1093500Y1037500D02*
X1088376D01*
X1089012Y1035965D01*
X1090294Y1034294D01*
X1091965Y1033012D01*
X1093500Y1032376D01*
Y1037500D01*
D02*
G37*
G36*
X1047622Y1031498D02*
X1042498D01*
Y1026374D01*
X1044032Y1027010D01*
X1045704Y1028292D01*
X1046986Y1029963D01*
X1047622Y1031498D01*
D02*
G37*
G36*
X1060500Y1067624D02*
X1058966Y1066988D01*
X1057294Y1065706D01*
X1056012Y1064035D01*
X1055376Y1062500D01*
X1060500D01*
Y1067624D01*
D02*
G37*
G36*
X1019624Y1066250D02*
X1014500D01*
Y1061126D01*
X1016034Y1061762D01*
X1017706Y1063044D01*
X1018988Y1064715D01*
X1019624Y1066250D01*
D02*
G37*
G36*
X1065500Y1067624D02*
Y1062500D01*
X1070624D01*
X1069988Y1064035D01*
X1068706Y1065706D01*
X1067035Y1066988D01*
X1065500Y1067624D01*
D02*
G37*
G36*
X1014500Y1076374D02*
Y1071250D01*
X1019624D01*
X1018988Y1072785D01*
X1017706Y1074456D01*
X1016034Y1075738D01*
X1014500Y1076374D01*
D02*
G37*
G36*
X1009500D02*
X1007965Y1075738D01*
X1006294Y1074456D01*
X1005012Y1072785D01*
X1004377Y1071250D01*
X1009500D01*
Y1076374D01*
D02*
G37*
G36*
Y1066250D02*
X1004377D01*
X1005012Y1064715D01*
X1006294Y1063044D01*
X1007965Y1061762D01*
X1009500Y1061126D01*
Y1066250D01*
D02*
G37*
G36*
X1060500Y1057500D02*
X1055376D01*
X1056012Y1055965D01*
X1057294Y1054294D01*
X1058966Y1053012D01*
X1060500Y1052376D01*
Y1057500D01*
D02*
G37*
G36*
X986624Y1054500D02*
X981500D01*
Y1049376D01*
X983035Y1050012D01*
X984706Y1051294D01*
X985988Y1052965D01*
X986624Y1054500D01*
D02*
G37*
G36*
X1070624Y1057500D02*
X1065500D01*
Y1052376D01*
X1067035Y1053012D01*
X1068706Y1054294D01*
X1069988Y1055965D01*
X1070624Y1057500D01*
D02*
G37*
G36*
X981500Y1064624D02*
Y1059500D01*
X986624D01*
X985988Y1061034D01*
X984706Y1062706D01*
X983035Y1063988D01*
X981500Y1064624D01*
D02*
G37*
G36*
X951500Y1063624D02*
X949966Y1062988D01*
X948294Y1061706D01*
X947012Y1060034D01*
X946376Y1058500D01*
X951500D01*
Y1063624D01*
D02*
G37*
G36*
X1022500Y1024624D02*
X1020965Y1023988D01*
X1019294Y1022706D01*
X1018706D01*
X1017035Y1023988D01*
X1015500Y1024624D01*
Y1016998D01*
X1013002D01*
Y1014500D01*
X1005376D01*
X1006012Y1012965D01*
X1007294Y1011294D01*
Y1010706D01*
X1006012Y1009035D01*
X1005376Y1007500D01*
X1013002D01*
Y1005003D01*
X1015500D01*
Y997376D01*
X1017035Y998012D01*
X1018706Y999294D01*
X1019294D01*
X1020965Y998012D01*
X1022500Y997376D01*
Y1005003D01*
X1024997D01*
Y1007500D01*
X1032624D01*
X1031988Y1009035D01*
X1030706Y1010706D01*
Y1011294D01*
X1031988Y1012965D01*
X1032624Y1014500D01*
X1024997D01*
Y1016998D01*
X1022500D01*
Y1024624D01*
D02*
G37*
G36*
X1095624Y955500D02*
X1090500D01*
Y950376D01*
X1092035Y951012D01*
X1093706Y952294D01*
X1094988Y953966D01*
X1095624Y955500D01*
D02*
G37*
G36*
X1085500D02*
X1080376D01*
X1081012Y953966D01*
X1082294Y952294D01*
X1083966Y951012D01*
X1085500Y950376D01*
Y955500D01*
D02*
G37*
G36*
X961500Y958624D02*
X959966Y957988D01*
X958294Y956706D01*
X957012Y955034D01*
X956376Y953500D01*
X961500D01*
Y958624D01*
D02*
G37*
G36*
X1085500Y965624D02*
X1083966Y964988D01*
X1082294Y963706D01*
X1081012Y962035D01*
X1080376Y960500D01*
X1085500D01*
Y965624D01*
D02*
G37*
G36*
X966500Y958624D02*
Y953500D01*
X971624D01*
X970988Y955034D01*
X969706Y956706D01*
X968035Y957988D01*
X966500Y958624D01*
D02*
G37*
G36*
X971624Y948500D02*
X966500D01*
Y943376D01*
X968035Y944012D01*
X969706Y945294D01*
X970988Y946965D01*
X971624Y948500D01*
D02*
G37*
G36*
X1085624Y934500D02*
X1080500D01*
Y929376D01*
X1082035Y930012D01*
X1083706Y931294D01*
X1084988Y932965D01*
X1085624Y934500D01*
D02*
G37*
G36*
X1075500D02*
X1070376D01*
X1071012Y932965D01*
X1072294Y931294D01*
X1073966Y930012D01*
X1075500Y929376D01*
Y934500D01*
D02*
G37*
G36*
Y944624D02*
X1073966Y943988D01*
X1072294Y942706D01*
X1071012Y941034D01*
X1070376Y939500D01*
X1075500D01*
Y944624D01*
D02*
G37*
G36*
X961500Y948500D02*
X956376D01*
X957012Y946965D01*
X958294Y945294D01*
X959966Y944012D01*
X961500Y943376D01*
Y948500D01*
D02*
G37*
G36*
X1080500Y944624D02*
Y939500D01*
X1085624D01*
X1084988Y941034D01*
X1083706Y942706D01*
X1082035Y943988D01*
X1080500Y944624D01*
D02*
G37*
G36*
X1119500Y1018624D02*
Y1013500D01*
X1124624D01*
X1123988Y1015034D01*
X1122706Y1016706D01*
X1121034Y1017988D01*
X1119500Y1018624D01*
D02*
G37*
G36*
X1114500D02*
X1112965Y1017988D01*
X1111294Y1016706D01*
X1110012Y1015034D01*
X1109376Y1013500D01*
X1114500D01*
Y1018624D01*
D02*
G37*
G36*
X944000Y1017069D02*
X941912Y1016794D01*
X939966Y1015988D01*
X938294Y1014706D01*
X937828Y1014098D01*
X925190D01*
X924033Y1014986D01*
X922087Y1015792D01*
X919998Y1016067D01*
X917910Y1015792D01*
X915964Y1014986D01*
X914293Y1013704D01*
X913010Y1012032D01*
X912204Y1010086D01*
X911929Y1007998D01*
X912204Y1005910D01*
X913010Y1003963D01*
X914293Y1002292D01*
X915964Y1001010D01*
X917910Y1000204D01*
X919998Y999929D01*
X922087Y1000204D01*
X924033Y1001010D01*
X925704Y1002292D01*
X926939Y1003902D01*
X937828D01*
X938294Y1003294D01*
X939966Y1002012D01*
X941912Y1001206D01*
X944000Y1000931D01*
X946088Y1001206D01*
X948035Y1002012D01*
X949706Y1003294D01*
X950988Y1004966D01*
X951794Y1006912D01*
X952069Y1009000D01*
X951794Y1011088D01*
X950988Y1013035D01*
X949706Y1014706D01*
X948035Y1015988D01*
X946088Y1016794D01*
X944000Y1017069D01*
D02*
G37*
G36*
X1027500Y1024624D02*
Y1019500D01*
X1032624D01*
X1031988Y1021034D01*
X1030706Y1022706D01*
X1029035Y1023988D01*
X1027500Y1024624D01*
D02*
G37*
G36*
X1010500D02*
X1008966Y1023988D01*
X1007294Y1022706D01*
X1006012Y1021034D01*
X1005376Y1019500D01*
X1010500D01*
Y1024624D01*
D02*
G37*
G36*
X1124624Y1008500D02*
X1119500D01*
Y1003376D01*
X1121034Y1004012D01*
X1122706Y1005294D01*
X1123988Y1006965D01*
X1124624Y1008500D01*
D02*
G37*
G36*
X952500Y992500D02*
X947376D01*
X948012Y990965D01*
X949294Y989294D01*
X950965Y988012D01*
X952500Y987376D01*
Y992500D01*
D02*
G37*
G36*
X1090500Y965624D02*
Y960500D01*
X1095624D01*
X1094988Y962035D01*
X1093706Y963706D01*
X1092035Y964988D01*
X1090500Y965624D01*
D02*
G37*
G36*
X1010500Y1002500D02*
X1005376D01*
X1006012Y1000965D01*
X1007294Y999294D01*
X1008966Y998012D01*
X1010500Y997376D01*
Y1002500D01*
D02*
G37*
G36*
X952500Y1002624D02*
X950965Y1001988D01*
X949294Y1000706D01*
X948012Y999035D01*
X947376Y997500D01*
X952500D01*
Y1002624D01*
D02*
G37*
G36*
X1032624Y1002500D02*
X1027500D01*
Y997376D01*
X1029035Y998012D01*
X1030706Y999294D01*
X1031988Y1000965D01*
X1032624Y1002500D01*
D02*
G37*
%LPD*%
D10*
X868076Y1158930D02*
G03*
X836385Y1073976I88254J-81310D01*
G01*
X1170995Y1031005D02*
G03*
X1080783Y1185577I-138095J23015D01*
G01*
X935000Y1159000D02*
X961570Y1185570D01*
X914556Y1159000D02*
X935000D01*
X870076Y1158930D02*
X881000D01*
X914000Y1074000D02*
X928000D01*
X836385Y1073976D02*
X877814D01*
X961000Y1185577D02*
X1080783D01*
D23*
X1080000Y1030583D02*
Y1044000D01*
Y1030583D02*
X1140583Y970000D01*
X975000Y1017000D02*
Y1029000D01*
X995000Y1049000D01*
D24*
X857000Y839044D02*
X868044Y828000D01*
X905107Y921893D02*
X906000Y921000D01*
X905107Y921893D02*
Y940500D01*
X901000Y947000D02*
X906000Y952000D01*
X871607Y947000D02*
X901000D01*
X911000Y968000D02*
X952000D01*
X894500Y951500D02*
X911000Y968000D01*
X869743Y951500D02*
X894500D01*
X952000Y968000D02*
X967500Y983500D01*
X853400Y1034000D02*
X869998Y1017402D01*
Y959998D02*
Y1017402D01*
X867107Y942500D02*
X871607Y947000D01*
X868243Y950000D02*
X869743Y951500D01*
X824500Y941000D02*
X826000Y942500D01*
X867107D01*
X878800Y1034000D02*
X881000Y1031800D01*
Y960000D02*
Y1031800D01*
X892000Y1021800D02*
X904200Y1034000D01*
X892000Y960000D02*
Y1021800D01*
X864000Y950000D02*
X868243D01*
X864000Y934000D02*
Y935000D01*
X857000Y839044D02*
Y920000D01*
X845500Y931500D02*
X857000Y920000D01*
X860500Y931500D02*
X864000Y935000D01*
X845500Y931500D02*
X860500D01*
X845500Y950500D02*
X862500D01*
X926998Y990998D02*
X935502D01*
X948000Y978500D01*
X919998Y1007998D02*
X921000Y1009000D01*
X944000D01*
X1039998Y1033998D02*
X1041002D01*
X967000Y1103000D02*
X967500D01*
Y983500D02*
Y1103000D01*
X869000Y828000D02*
X882000Y815000D01*
X868044Y828000D02*
X869000D01*
X885998Y1055998D02*
X887998D01*
X866000Y1046000D02*
Y1046606D01*
X927600Y1187600D02*
X940000D01*
X892000Y1046000D02*
X902000Y1056000D01*
Y1162000D01*
X927600Y1187600D01*
X887998Y1055998D02*
X897000Y1065000D01*
Y1173000D01*
X914600Y1190600D01*
X866000Y1046606D02*
X892000Y1072606D01*
Y1184800D01*
X889200Y1187600D02*
X892000Y1184800D01*
D28*
X868000Y843600D02*
D03*
Y869000D02*
D03*
X914600Y1190600D02*
D03*
X940000D02*
D03*
X889200D02*
D03*
X853400Y1034000D02*
D03*
X878800D02*
D03*
X904200D02*
D03*
X929600D02*
D03*
D29*
X828000D02*
D03*
D30*
X890000Y849000D02*
D03*
X906000Y921000D02*
D03*
X905107Y940500D02*
D03*
X869998Y959998D02*
D03*
X881000Y960000D02*
D03*
X892000D02*
D03*
X906000Y952000D02*
D03*
X864000Y950000D02*
D03*
Y934000D02*
D03*
X933000Y849000D02*
D03*
X964000Y951000D02*
D03*
X1080000Y1044000D02*
D03*
X1131000Y964000D02*
D03*
X995000Y1049000D02*
D03*
X1063000Y1060000D02*
D03*
X1012000Y1068750D02*
D03*
X948000Y978500D02*
D03*
X926998Y990998D02*
D03*
X944000Y1009000D02*
D03*
X975000Y1017000D02*
D03*
X919998Y1007998D02*
D03*
X1039998Y1033998D02*
D03*
X1013000Y1017000D02*
D03*
X1025000D02*
D03*
X1013000Y1005000D02*
D03*
X1025000D02*
D03*
X1096000Y1040000D02*
D03*
X955000Y995000D02*
D03*
X1088000Y958000D02*
D03*
X1101000Y917000D02*
D03*
X1109000Y881000D02*
D03*
X1158000Y921000D02*
D03*
X1086000Y825000D02*
D03*
X1034000Y837000D02*
D03*
X1036000Y780000D02*
D03*
X973000Y805000D02*
D03*
X984000Y858000D02*
D03*
X973000Y899000D02*
D03*
X1117000Y1011000D02*
D03*
X1078000Y937000D02*
D03*
X967000Y1103000D02*
D03*
X979000Y1057000D02*
D03*
X954000Y1056000D02*
D03*
X882000Y815000D02*
D03*
X893000Y919000D02*
D03*
X872000Y920000D02*
D03*
X866000Y1046000D02*
D03*
X892000D02*
D03*
X885998Y1055998D02*
D03*
X1170995Y1031005D02*
D03*
X1168000Y1092000D02*
D03*
X1138000Y1147000D02*
D03*
X961000Y1185577D02*
D03*
X935000Y1161000D02*
D03*
X913000Y1159000D02*
D03*
X881000Y1158930D02*
D03*
X836385Y1073976D02*
D03*
X877814D02*
D03*
X914000Y1074000D02*
D03*
X1023000Y1185577D02*
D03*
X1080783D02*
D03*
X854000Y1140000D02*
D03*
D31*
X824500Y941000D02*
D03*
X845500Y931500D02*
D03*
Y950500D02*
D03*
D32*
X1028000Y905000D02*
D03*
D33*
X1140583Y970000D02*
D03*
X915417Y840000D02*
D03*
M02*
