M48
;Layer_Color=9474304
;FILE_FORMAT=4:4
METRIC,LZ
;TYPE=PLATED
T1F00S00C0.4000
T2F00S00C0.9000
%
T01
X01036Y0078
X01034Y00837
X01086Y00825
X01109Y00881
X01101Y00917
X01078Y00937
X01088Y00958
X01131Y00964
X01117Y01011
X01096Y0104
X0108Y01044
X01063Y0106
X01039998Y01033998
X01025Y01017
X01013
Y01005
X01025
X00975Y01017
X00944Y01009
X00955Y00995
X00948Y009785
X00926998Y00990998
X00919998Y01007998
X00892Y01046
X00885998Y01055998
X00877814Y01073976
X00914Y01074
X00954Y01056
X00979Y01057
X00995Y01049
X01012Y0106875
X00967Y01103
X00961Y01185577
X00935Y01161
X00913Y01159
X00881Y0115893
X00854Y0114
X00836385Y01073976
X00866Y01046
X00869998Y00959998
X00881Y0096
X00892
X00906Y00952
X00905107Y009405
X00906Y00921
X00893Y00919
X00872Y0092
X00864Y00934
Y0095
X00964Y00951
X00973Y00899
X00984Y00858
X00933Y00849
X0089
X00882Y00815
X00973Y00805
X01158Y00921
X01170995Y01031005
X01168Y01092
X01138Y01147
X01080783Y01185577
X01023
T02
X00868Y008436
Y00869
X008788Y01034
X008534
X00828
X009042
X009296
X0094Y011906
X009146
X008892
M30
