%FSLAX44Y44*%
%MOMM*%
G71*
G01*
G75*
G04 Layer_Physical_Order=1*
G04 Layer_Color=255*
%ADD10C,1.5000*%
%ADD11R,0.8000X0.9000*%
%ADD12R,0.9000X0.8000*%
%ADD13R,1.0500X0.2500*%
%ADD14R,0.2500X1.0500*%
%ADD15R,2.5000X2.5000*%
%ADD16R,1.5000X1.3000*%
%ADD17R,0.8000X1.1000*%
%ADD18R,1.1000X0.8000*%
G04:AMPARAMS|DCode=19|XSize=2.5mm|YSize=2mm|CornerRadius=0.5mm|HoleSize=0mm|Usage=FLASHONLY|Rotation=0.000|XOffset=0mm|YOffset=0mm|HoleType=Round|Shape=RoundedRectangle|*
%AMROUNDEDRECTD19*
21,1,2.5000,1.0000,0,0,0.0*
21,1,1.5000,2.0000,0,0,0.0*
1,1,1.0000,0.7500,-0.5000*
1,1,1.0000,-0.7500,-0.5000*
1,1,1.0000,-0.7500,0.5000*
1,1,1.0000,0.7500,0.5000*
%
%ADD19ROUNDEDRECTD19*%
%ADD20R,2.0000X1.4000*%
%ADD21O,0.3000X2.1000*%
%ADD22O,2.1000X0.3000*%
%ADD23C,0.5000*%
%ADD24C,0.2000*%
%ADD25C,0.7500*%
%ADD26C,0.3000*%
%ADD27C,0.4000*%
%ADD28C,1.5000*%
%ADD29R,1.5000X1.5000*%
%ADD30C,0.8000*%
G36*
X945156Y1082806D02*
X945422Y1082500D01*
Y1072500D01*
X945732Y1070151D01*
X946638Y1067961D01*
X948081Y1066081D01*
X949961Y1064639D01*
X950423Y1064447D01*
X950423Y1063177D01*
X949966Y1062988D01*
X948294Y1061706D01*
X947012Y1060034D01*
X946376Y1058500D01*
X961624D01*
X960988Y1060034D01*
X959706Y1061706D01*
X958035Y1062988D01*
X958121Y1063422D01*
X969500D01*
X971850Y1063732D01*
X973400Y1064374D01*
X974035Y1063274D01*
X973294Y1062706D01*
X972012Y1061034D01*
X971376Y1059500D01*
X976500D01*
Y1064624D01*
X975604Y1064252D01*
X974969Y1065352D01*
X975919Y1066081D01*
X977362Y1067961D01*
X978268Y1070151D01*
X978373Y1070944D01*
X994444D01*
Y1056996D01*
X992912Y1056794D01*
X990965Y1055988D01*
X989294Y1054706D01*
X988012Y1053035D01*
X987206Y1051088D01*
X986931Y1049000D01*
X987206Y1046912D01*
X987934Y1045154D01*
X987228Y1044098D01*
X956636D01*
X954685Y1043710D01*
X953031Y1042605D01*
X942107Y1031680D01*
X940968Y1032242D01*
X940871Y1031500D01*
X918330D01*
X918396Y1030998D01*
X919555Y1028200D01*
X921398Y1025798D01*
X923800Y1023955D01*
X925276Y1023344D01*
X925028Y1022098D01*
X916157D01*
X914206Y1021710D01*
X912552Y1020605D01*
X897673Y1005726D01*
X896500Y1006212D01*
Y1009000D01*
Y1023977D01*
X897639Y1024539D01*
X898400Y1023955D01*
X901198Y1022796D01*
X904200Y1022401D01*
X907202Y1022796D01*
X910000Y1023955D01*
X912402Y1025798D01*
X914245Y1028200D01*
X915404Y1030998D01*
X915799Y1034000D01*
X915404Y1037002D01*
X914245Y1039800D01*
X912402Y1042202D01*
X912673Y1043000D01*
X920575D01*
X921136Y1041861D01*
X919555Y1039800D01*
X918396Y1037002D01*
X918330Y1036500D01*
X927100D01*
Y1045270D01*
X926598Y1045204D01*
X923800Y1044045D01*
X923139Y1043538D01*
X922000Y1044100D01*
Y1082098D01*
X922902Y1082992D01*
X945156Y1082806D01*
D02*
G37*
G36*
X844500Y874000D02*
X847902D01*
Y865000D01*
X848290Y863049D01*
X849395Y861395D01*
X858395Y852395D01*
X858851Y852091D01*
X859058Y850837D01*
X857955Y849400D01*
X856796Y846602D01*
X856401Y843600D01*
X856746Y840977D01*
X855549Y840552D01*
X854024Y843037D01*
X851876Y846670D01*
X849778Y850356D01*
X847731Y854094D01*
X845736Y857881D01*
X843793Y861719D01*
X841905Y865602D01*
X840069Y869534D01*
X838288Y873510D01*
X838611Y874000D01*
X839500D01*
Y882002D01*
X844500D01*
Y874000D01*
D02*
G37*
G36*
X1020234Y956636D02*
X1020395Y956395D01*
X1026395Y950395D01*
X1028049Y949290D01*
X1028500Y949200D01*
Y945000D01*
X1042503D01*
Y940000D01*
X1028500D01*
Y936314D01*
X1028150Y936268D01*
X1025961Y935361D01*
X1024081Y933919D01*
X1022638Y932039D01*
X1021732Y929849D01*
X1021627Y929056D01*
X978983D01*
X978384Y930176D01*
X978935Y931000D01*
X986500D01*
Y931500D01*
X1011500D01*
Y949290D01*
X1018970Y956761D01*
X1020234Y956636D01*
D02*
G37*
G36*
X1119500Y1003376D02*
X1121034Y1004012D01*
X1121361Y1004262D01*
X1122500Y1003701D01*
Y1002500D01*
X1139500D01*
Y1006000D01*
Y1010000D01*
X1164908D01*
X1165714Y1009018D01*
X1165412Y1007500D01*
Y992500D01*
X1165761Y990744D01*
X1166756Y989256D01*
X1168244Y988261D01*
X1170000Y987912D01*
X1186274D01*
X1187156Y986998D01*
X1187127Y986218D01*
X1186981Y983033D01*
X1186803Y979850D01*
X1186595Y976665D01*
X1186357Y973489D01*
X1186089Y970317D01*
X1185790Y967147D01*
X1185460Y963983D01*
X1185101Y960828D01*
X1184712Y957678D01*
X1184292Y954532D01*
X1183842Y951395D01*
X1183363Y948268D01*
X1182854Y945148D01*
X1182315Y942036D01*
X1181746Y938935D01*
X1181148Y935844D01*
X1180520Y932763D01*
X1179863Y929695D01*
X1179176Y926634D01*
X1178461Y923589D01*
X1177717Y920557D01*
X1176943Y917533D01*
X1176141Y914529D01*
X1175310Y911534D01*
X1174451Y908557D01*
X1173563Y905591D01*
X1172647Y902644D01*
X1171704Y899712D01*
X1170732Y896796D01*
X1169733Y893897D01*
X1168706Y891016D01*
X1167652Y888152D01*
X1166571Y885307D01*
X1165462Y882480D01*
X1164328Y879675D01*
X1163165Y876885D01*
X1161978Y874119D01*
X1160763Y871371D01*
X1159523Y868646D01*
X1158257Y865942D01*
X1156965Y863260D01*
X1155648Y860599D01*
X1154307Y857964D01*
X1152940Y855350D01*
X1151548Y852760D01*
X1150131Y850192D01*
X1148691Y847652D01*
X1147227Y845134D01*
X1145740Y842646D01*
X1144228Y840178D01*
X1142694Y837739D01*
X1141136Y835326D01*
X1139557Y832940D01*
X1137954Y830582D01*
X1136330Y828251D01*
X1134683Y825947D01*
X1133016Y823673D01*
X1131326Y821426D01*
X1129616Y819210D01*
X1127885Y817023D01*
X1126135Y814866D01*
X1124363Y812738D01*
X1122572Y810641D01*
X1120762Y808576D01*
X1118932Y806541D01*
X1117083Y804538D01*
X1115218Y802568D01*
X1113332Y800628D01*
X1111428Y798721D01*
X1109507Y796846D01*
X1107568Y795005D01*
X1105614Y793197D01*
X1103642Y791423D01*
X1101655Y789683D01*
X1099650Y787976D01*
X1097631Y786304D01*
X1095597Y784668D01*
X1093547Y783065D01*
X1091481Y781497D01*
X1089404Y779965D01*
X1087310Y778468D01*
X1085205Y777008D01*
X1083086Y775583D01*
X1080953Y774194D01*
X1078809Y772843D01*
X1076651Y771527D01*
X1074483Y770249D01*
X1072303Y769007D01*
X1070110Y767802D01*
X1067910Y766636D01*
X1065695Y765505D01*
X1063474Y764414D01*
X1061240Y763359D01*
X1058999Y762344D01*
X1056749Y761366D01*
X1054489Y760426D01*
X1052229Y759528D01*
X1048913Y758284D01*
X1045589Y757124D01*
X1042252Y756048D01*
X1038900Y755052D01*
X1035535Y754140D01*
X1032160Y753310D01*
X1028774Y752563D01*
X1025379Y751900D01*
X1021977Y751320D01*
X1018567Y750823D01*
X1015153Y750410D01*
X1011732Y750080D01*
X1008307Y749835D01*
X1004881Y749673D01*
X1001453Y749596D01*
X998024Y749602D01*
X994597Y749693D01*
X991169Y749867D01*
X987747Y750125D01*
X984327Y750467D01*
X980912Y750893D01*
X977504Y751403D01*
X974102Y751995D01*
X970708Y752672D01*
X967324Y753431D01*
X963951Y754274D01*
X960588Y755199D01*
X957238Y756207D01*
X953903Y757296D01*
X953463Y757451D01*
X952991Y758631D01*
X960638Y773638D01*
X960687Y773813D01*
X960789Y773965D01*
X960831Y774174D01*
X960831Y774175D01*
X960831Y774175D01*
X960819Y774201D01*
X961169Y775047D01*
X962224Y779441D01*
X962579Y783945D01*
X962224Y788450D01*
X961169Y792844D01*
X959440Y797018D01*
X957079Y800871D01*
X954145Y804307D01*
X950709Y807241D01*
X946856Y809602D01*
X945672Y810093D01*
X945547Y811357D01*
X945605Y811395D01*
X945605Y811395D01*
X945605Y811395D01*
X965605Y831395D01*
X966710Y833049D01*
X967098Y835000D01*
Y863422D01*
X969500D01*
X971850Y863732D01*
X974039Y864639D01*
X975919Y866081D01*
X977362Y867961D01*
X978268Y870151D01*
X978373Y870944D01*
X1021627D01*
X1021732Y870151D01*
X1022638Y867961D01*
X1024081Y866081D01*
X1025961Y864639D01*
X1028150Y863732D01*
X1030500Y863422D01*
X1045500D01*
X1047850Y863732D01*
X1050039Y864639D01*
X1051919Y866081D01*
X1053362Y867961D01*
X1054268Y870151D01*
X1054578Y872500D01*
Y882500D01*
X1054268Y884849D01*
X1053362Y887039D01*
X1051919Y888919D01*
X1050039Y890361D01*
X1047850Y891268D01*
X1045500Y891578D01*
X1030500D01*
X1028150Y891268D01*
X1025961Y890361D01*
X1024081Y888919D01*
X1022638Y887039D01*
X1021732Y884849D01*
X1021627Y884056D01*
X978373D01*
X978268Y884849D01*
X977362Y887039D01*
X975919Y888919D01*
X974039Y890361D01*
X973019Y890784D01*
X973000Y890930D01*
X973000D01*
X972511Y890995D01*
X971850Y891269D01*
X970500Y891447D01*
Y896500D01*
X965376D01*
X966012Y894966D01*
X967294Y893294D01*
X967964Y892780D01*
X967556Y891578D01*
X954500D01*
X952150Y891268D01*
X949961Y890361D01*
X948081Y888919D01*
X946703Y887122D01*
X945500Y887531D01*
Y890000D01*
Y892493D01*
X946636Y893364D01*
X961694Y908422D01*
X969500D01*
X971850Y908732D01*
X974039Y909639D01*
X975919Y911081D01*
X977362Y912961D01*
X978268Y915151D01*
X978373Y915944D01*
X1021627D01*
X1021732Y915151D01*
X1022638Y912961D01*
X1024081Y911081D01*
X1025961Y909639D01*
X1028150Y908732D01*
X1030500Y908422D01*
X1045500D01*
X1047850Y908732D01*
X1050039Y909639D01*
X1051919Y911081D01*
X1053362Y912961D01*
X1054268Y915151D01*
X1054373Y915944D01*
X1077343D01*
X1079040Y916167D01*
X1079695Y916439D01*
X1080621Y916822D01*
X1081979Y917864D01*
X1123361Y959246D01*
X1124628Y959163D01*
X1125294Y958294D01*
X1126965Y957012D01*
X1128912Y956206D01*
X1131000Y955931D01*
X1133088Y956206D01*
X1135034Y957012D01*
X1136706Y958294D01*
X1137988Y959966D01*
X1138794Y961912D01*
X1139069Y964000D01*
X1138896Y965312D01*
X1139500Y966000D01*
X1139500D01*
Y980000D01*
Y985500D01*
X1122500D01*
Y980000D01*
Y972556D01*
X1120843D01*
X1119146Y972333D01*
X1117565Y971678D01*
X1116886Y971157D01*
X1116809Y971098D01*
X1085000D01*
Y972500D01*
X1076997D01*
Y977500D01*
X1085000D01*
Y978500D01*
X1088500D01*
Y987003D01*
X1090997D01*
Y989500D01*
X1099000D01*
Y995500D01*
X1099000D01*
Y1003500D01*
X1113000D01*
Y1003500D01*
X1113460Y1003807D01*
X1114500Y1003376D01*
Y1011003D01*
X1119500D01*
Y1003376D01*
D02*
G37*
G36*
X939500Y876000D02*
X945422D01*
Y872500D01*
X945732Y870151D01*
X946638Y867961D01*
X948081Y866081D01*
X949961Y864639D01*
X952150Y863732D01*
X954500Y863422D01*
X956902D01*
Y837112D01*
X939888Y820098D01*
X931500D01*
Y828000D01*
X908500D01*
Y820098D01*
X888172D01*
X887706Y820706D01*
X886034Y821988D01*
X884088Y822794D01*
X882000Y823069D01*
X879912Y822794D01*
X877965Y821988D01*
X876294Y820706D01*
X875012Y819035D01*
X874206Y817088D01*
X874205Y817080D01*
X873621Y816598D01*
X872358Y816730D01*
X870401Y819188D01*
X867924Y822417D01*
X865491Y825707D01*
X863102Y829059D01*
X860762Y832467D01*
X859938Y833712D01*
X860867Y834578D01*
X862200Y833555D01*
X864998Y832396D01*
X868000Y832001D01*
X871002Y832396D01*
X873800Y833555D01*
X875555Y834902D01*
X893000D01*
X894951Y835290D01*
X896605Y836395D01*
X904605Y844395D01*
X905710Y846049D01*
X906098Y848000D01*
X906098Y848000D01*
X906098Y848000D01*
Y848000D01*
Y861500D01*
X906500D01*
Y870003D01*
X911500D01*
Y861500D01*
X912591D01*
X913153Y860361D01*
X912876Y860000D01*
X908500D01*
Y839000D01*
Y833000D01*
X931500D01*
Y839000D01*
Y840165D01*
X932455Y841003D01*
X933000Y840931D01*
X935088Y841206D01*
X937035Y842012D01*
X938706Y843294D01*
X939988Y844966D01*
X940794Y846912D01*
X941069Y849000D01*
X940794Y851088D01*
X939988Y853035D01*
X938706Y854706D01*
X937035Y855988D01*
X935088Y856794D01*
X933000Y857069D01*
X932455Y856997D01*
X931500Y857835D01*
Y860000D01*
X930387D01*
X929550Y860955D01*
X929556Y861000D01*
Y861500D01*
X931000D01*
Y876000D01*
X934500D01*
Y884003D01*
X939500D01*
Y876000D01*
D02*
G37*
%LPC*%
G36*
X1041624Y834500D02*
X1036500D01*
Y829376D01*
X1038035Y830012D01*
X1039706Y831294D01*
X1040988Y832965D01*
X1041624Y834500D01*
D02*
G37*
G36*
X986500Y865624D02*
Y860500D01*
X991624D01*
X990988Y862035D01*
X989706Y863706D01*
X988035Y864988D01*
X986500Y865624D01*
D02*
G37*
G36*
X1088500Y832624D02*
Y827500D01*
X1093624D01*
X1092988Y829035D01*
X1091706Y830706D01*
X1090034Y831988D01*
X1088500Y832624D01*
D02*
G37*
G36*
X1031500Y834500D02*
X1026376D01*
X1027012Y832965D01*
X1028294Y831294D01*
X1029966Y830012D01*
X1031500Y829376D01*
Y834500D01*
D02*
G37*
G36*
Y844624D02*
X1029966Y843988D01*
X1028294Y842706D01*
X1027012Y841034D01*
X1026376Y839500D01*
X1031500D01*
Y844624D01*
D02*
G37*
G36*
X991624Y855500D02*
X986500D01*
Y850376D01*
X988035Y851012D01*
X989706Y852294D01*
X990988Y853966D01*
X991624Y855500D01*
D02*
G37*
G36*
X981500D02*
X976376D01*
X977012Y853966D01*
X978294Y852294D01*
X979966Y851012D01*
X981500Y850376D01*
Y855500D01*
D02*
G37*
G36*
X1036500Y844624D02*
Y839500D01*
X1041624D01*
X1040988Y841034D01*
X1039706Y842706D01*
X1038035Y843988D01*
X1036500Y844624D01*
D02*
G37*
G36*
X981500Y865624D02*
X979966Y864988D01*
X978294Y863706D01*
X977012Y862035D01*
X976376Y860500D01*
X981500D01*
Y865624D01*
D02*
G37*
G36*
X1038500Y787624D02*
Y782500D01*
X1043624D01*
X1042988Y784035D01*
X1041706Y785706D01*
X1040034Y786988D01*
X1038500Y787624D01*
D02*
G37*
G36*
X970500Y802500D02*
X965376D01*
X966012Y800965D01*
X967294Y799294D01*
X968966Y798012D01*
X970500Y797376D01*
Y802500D01*
D02*
G37*
G36*
X1033500Y787624D02*
X1031965Y786988D01*
X1030294Y785706D01*
X1029012Y784035D01*
X1028376Y782500D01*
X1033500D01*
Y787624D01*
D02*
G37*
G36*
Y777500D02*
X1028376D01*
X1029012Y775965D01*
X1030294Y774294D01*
X1031965Y773012D01*
X1033500Y772376D01*
Y777500D01*
D02*
G37*
G36*
X1043624D02*
X1038500D01*
Y772376D01*
X1040034Y773012D01*
X1041706Y774294D01*
X1042988Y775965D01*
X1043624Y777500D01*
D02*
G37*
G36*
X980624Y802500D02*
X975500D01*
Y797376D01*
X977035Y798012D01*
X978706Y799294D01*
X979988Y800965D01*
X980624Y802500D01*
D02*
G37*
G36*
X1093624Y822500D02*
X1088500D01*
Y817376D01*
X1090034Y818012D01*
X1091706Y819294D01*
X1092988Y820965D01*
X1093624Y822500D01*
D02*
G37*
G36*
X1083500Y832624D02*
X1081965Y831988D01*
X1080294Y830706D01*
X1079012Y829035D01*
X1078376Y827500D01*
X1083500D01*
Y832624D01*
D02*
G37*
G36*
Y822500D02*
X1078376D01*
X1079012Y820965D01*
X1080294Y819294D01*
X1081965Y818012D01*
X1083500Y817376D01*
Y822500D01*
D02*
G37*
G36*
X970500Y812624D02*
X968966Y811988D01*
X967294Y810706D01*
X966012Y809035D01*
X965376Y807500D01*
X970500D01*
Y812624D01*
D02*
G37*
G36*
X975500D02*
Y807500D01*
X980624D01*
X979988Y809035D01*
X978706Y810706D01*
X977035Y811988D01*
X975500Y812624D01*
D02*
G37*
G36*
X1106500Y878500D02*
X1101376D01*
X1102012Y876965D01*
X1103294Y875294D01*
X1104966Y874012D01*
X1106500Y873376D01*
Y878500D01*
D02*
G37*
G36*
X1099000Y984500D02*
X1093500D01*
Y978500D01*
X1099000D01*
Y984500D01*
D02*
G37*
G36*
X1139500Y997500D02*
X1122500D01*
Y992000D01*
Y990500D01*
X1139500D01*
Y992000D01*
Y997500D01*
D02*
G37*
G36*
X1160500Y928624D02*
Y923500D01*
X1165624D01*
X1164988Y925034D01*
X1163706Y926706D01*
X1162035Y927988D01*
X1160500Y928624D01*
D02*
G37*
G36*
X1103500Y924624D02*
Y919500D01*
X1108624D01*
X1107988Y921034D01*
X1106706Y922706D01*
X1105034Y923988D01*
X1103500Y924624D01*
D02*
G37*
G36*
X1155500Y928624D02*
X1153966Y927988D01*
X1152294Y926706D01*
X1151012Y925034D01*
X1150376Y923500D01*
X1155500D01*
Y928624D01*
D02*
G37*
G36*
X932100Y1045270D02*
Y1036500D01*
X940870D01*
X940804Y1037002D01*
X939645Y1039800D01*
X937802Y1042202D01*
X935400Y1044045D01*
X932602Y1045204D01*
X932100Y1045270D01*
D02*
G37*
G36*
X986624Y1054500D02*
X981500D01*
Y1049376D01*
X983035Y1050012D01*
X984706Y1051294D01*
X985988Y1052965D01*
X986624Y1054500D01*
D02*
G37*
G36*
X981500Y1064624D02*
Y1059500D01*
X986624D01*
X985988Y1061034D01*
X984706Y1062706D01*
X983035Y1063988D01*
X981500Y1064624D01*
D02*
G37*
G36*
X976500Y1054500D02*
X971376D01*
X972012Y1052965D01*
X973294Y1051294D01*
X974966Y1050012D01*
X976500Y1049376D01*
Y1054500D01*
D02*
G37*
G36*
X951500Y1053500D02*
X946376D01*
X947012Y1051965D01*
X948294Y1050294D01*
X949966Y1049012D01*
X951500Y1048376D01*
Y1053500D01*
D02*
G37*
G36*
X961624D02*
X956500D01*
Y1048376D01*
X958035Y1049012D01*
X959706Y1050294D01*
X960988Y1051965D01*
X961624Y1053500D01*
D02*
G37*
G36*
X980624Y896500D02*
X975500D01*
Y891376D01*
X977035Y892012D01*
X978706Y893294D01*
X979988Y894966D01*
X980624Y896500D01*
D02*
G37*
G36*
X970500Y906624D02*
X968966Y905988D01*
X967294Y904706D01*
X966012Y903035D01*
X965376Y901500D01*
X970500D01*
Y906624D01*
D02*
G37*
G36*
X1111500Y888624D02*
Y883500D01*
X1116624D01*
X1115988Y885034D01*
X1114706Y886706D01*
X1113035Y887988D01*
X1111500Y888624D01*
D02*
G37*
G36*
X1116624Y878500D02*
X1111500D01*
Y873376D01*
X1113035Y874012D01*
X1114706Y875294D01*
X1115988Y876965D01*
X1116624Y878500D01*
D02*
G37*
G36*
X1106500Y888624D02*
X1104966Y887988D01*
X1103294Y886706D01*
X1102012Y885034D01*
X1101376Y883500D01*
X1106500D01*
Y888624D01*
D02*
G37*
G36*
X975500Y906624D02*
Y901500D01*
X980624D01*
X979988Y903035D01*
X978706Y904706D01*
X977035Y905988D01*
X975500Y906624D01*
D02*
G37*
G36*
X1165624Y918500D02*
X1160500D01*
Y913376D01*
X1162035Y914012D01*
X1163706Y915294D01*
X1164988Y916965D01*
X1165624Y918500D01*
D02*
G37*
G36*
X1098500Y924624D02*
X1096965Y923988D01*
X1095294Y922706D01*
X1094012Y921034D01*
X1093376Y919500D01*
X1098500D01*
Y924624D01*
D02*
G37*
G36*
X1155500Y918500D02*
X1150376D01*
X1151012Y916965D01*
X1152294Y915294D01*
X1153966Y914012D01*
X1155500Y913376D01*
Y918500D01*
D02*
G37*
G36*
X1098500Y914500D02*
X1093376D01*
X1094012Y912965D01*
X1095294Y911294D01*
X1096965Y910012D01*
X1098500Y909376D01*
Y914500D01*
D02*
G37*
G36*
X1108624D02*
X1103500D01*
Y909376D01*
X1105034Y910012D01*
X1106706Y911294D01*
X1107988Y912965D01*
X1108624Y914500D01*
D02*
G37*
%LPD*%
D10*
X868073Y1158934D02*
G03*
X836382Y1073981I88254J-81310D01*
G01*
X1171000Y1031000D02*
G03*
X1080788Y1185572I-138095J23015D01*
G01*
X935000Y1159000D02*
X961572Y1185572D01*
X868000Y1159000D02*
X935000D01*
X836382Y1073981D02*
X932019D01*
X961572Y1185572D02*
X1080788D01*
D11*
X1077000Y987000D02*
D03*
X1091000D02*
D03*
X1091000Y1000000D02*
D03*
X1077000D02*
D03*
X1063000Y958000D02*
D03*
X1077000D02*
D03*
X1077000Y975000D02*
D03*
X1063000D02*
D03*
X849000Y1003000D02*
D03*
X863000D02*
D03*
X923000Y870000D02*
D03*
X909000D02*
D03*
X950000Y961000D02*
D03*
X964000D02*
D03*
X1143000Y1028000D02*
D03*
X1157000D02*
D03*
X950000Y941000D02*
D03*
X964000D02*
D03*
X980000Y995000D02*
D03*
X966000D02*
D03*
X966000Y1007000D02*
D03*
X980000D02*
D03*
D12*
X1062000Y932000D02*
D03*
Y946000D02*
D03*
X937000Y898000D02*
D03*
Y884000D02*
D03*
X842000Y896000D02*
D03*
Y882000D02*
D03*
X891000Y862000D02*
D03*
Y876000D02*
D03*
X1065000Y1036000D02*
D03*
Y1022000D02*
D03*
X1106000Y1040000D02*
D03*
Y1026000D02*
D03*
X1131000Y1000000D02*
D03*
Y1014000D02*
D03*
Y974000D02*
D03*
Y988000D02*
D03*
X1024000Y1060000D02*
D03*
Y1046000D02*
D03*
X978000Y939000D02*
D03*
Y953000D02*
D03*
X875000Y1017000D02*
D03*
Y1003000D02*
D03*
X888000Y1017000D02*
D03*
Y1003000D02*
D03*
X1053000Y1060000D02*
D03*
Y1046000D02*
D03*
X1041000Y1060000D02*
D03*
Y1046000D02*
D03*
X1012000Y1060000D02*
D03*
Y1046000D02*
D03*
X978000Y978000D02*
D03*
Y964000D02*
D03*
D13*
X999250Y1021000D02*
D03*
Y1016000D02*
D03*
Y1011000D02*
D03*
Y1006000D02*
D03*
Y1001000D02*
D03*
X1038750D02*
D03*
Y1006000D02*
D03*
Y1011000D02*
D03*
Y1016000D02*
D03*
Y1021000D02*
D03*
D14*
X1009000Y991250D02*
D03*
X1014000D02*
D03*
X1019000D02*
D03*
X1024000D02*
D03*
X1029000D02*
D03*
Y1030750D02*
D03*
X1024000D02*
D03*
X1019000D02*
D03*
X1014000D02*
D03*
X1009000D02*
D03*
D15*
X1019000Y1011000D02*
D03*
D16*
X920000Y830500D02*
D03*
Y849500D02*
D03*
D17*
X1091000Y1026000D02*
D03*
X1077000D02*
D03*
X1105000Y1013000D02*
D03*
X1091000D02*
D03*
X1131000Y1027000D02*
D03*
X1117000D02*
D03*
D18*
X1064000Y987000D02*
D03*
Y1001000D02*
D03*
D19*
X962000Y922500D02*
D03*
X1038000D02*
D03*
Y877500D02*
D03*
X962000D02*
D03*
X1038000Y1077500D02*
D03*
X962000D02*
D03*
Y1122500D02*
D03*
X1038000D02*
D03*
D20*
X997500Y967500D02*
D03*
X1042500D02*
D03*
Y942500D02*
D03*
X997500D02*
D03*
D21*
X913500Y896000D02*
D03*
X908500D02*
D03*
X903500D02*
D03*
X898500D02*
D03*
X893500D02*
D03*
X888500D02*
D03*
X883500D02*
D03*
X878500D02*
D03*
X873500D02*
D03*
X868500D02*
D03*
X863500D02*
D03*
X858500D02*
D03*
Y978000D02*
D03*
X863500D02*
D03*
X868500D02*
D03*
X873500D02*
D03*
X878500D02*
D03*
X883500D02*
D03*
X888500D02*
D03*
X893500D02*
D03*
X898500D02*
D03*
X903500D02*
D03*
X908500D02*
D03*
X913500D02*
D03*
D22*
X845000Y909500D02*
D03*
Y914500D02*
D03*
Y919500D02*
D03*
Y924500D02*
D03*
Y929500D02*
D03*
Y934500D02*
D03*
Y939500D02*
D03*
Y944500D02*
D03*
Y949500D02*
D03*
Y954500D02*
D03*
Y959500D02*
D03*
Y964500D02*
D03*
X927000D02*
D03*
Y959500D02*
D03*
Y954500D02*
D03*
Y949500D02*
D03*
Y944500D02*
D03*
Y939500D02*
D03*
Y934500D02*
D03*
Y929500D02*
D03*
Y924500D02*
D03*
Y919500D02*
D03*
Y914500D02*
D03*
Y909500D02*
D03*
D23*
X1001000Y1049000D02*
Y1077500D01*
X962000Y1122500D02*
X1035500D01*
X962000Y877500D02*
X1038000D01*
X927000Y898000D02*
X937000D01*
X923000Y894000D02*
X927000Y898000D01*
X923000Y870000D02*
Y894000D01*
Y861000D02*
Y870000D01*
X918000Y856000D02*
X923000Y861000D01*
X918000Y849500D02*
Y856000D01*
Y849500D02*
X932500D01*
X964000Y951000D02*
Y961000D01*
Y950000D02*
Y951000D01*
Y941000D02*
Y950000D01*
X967000Y953000D02*
X978000D01*
X1072000Y1052000D02*
Y1053000D01*
Y1052000D02*
X1080000Y1044000D01*
X1129000Y966000D02*
X1131000Y964000D01*
X962000Y922500D02*
X1038000D01*
X1131000Y964000D02*
Y974000D01*
X1131000Y974000D02*
X1131000Y974000D01*
X995000Y1049000D02*
X1001000D01*
X1053000Y1046000D02*
X1065000D01*
X1072000Y1053000D01*
Y1070000D01*
X1064500Y1077500D02*
X1072000Y1070000D01*
X1039500Y1077500D02*
X1064500D01*
X1001000D02*
X1038000D01*
X962000D02*
X1001000D01*
Y1049000D02*
X1004000Y1046000D01*
X1012000D01*
X995000Y940000D02*
X997500Y942500D01*
X978000Y940000D02*
X995000D01*
X1042500Y967500D02*
X1050500D01*
X1057000Y961000D01*
X1062000D01*
X1096000Y1040000D02*
X1106000D01*
X1096000Y1040000D02*
X1096000Y1040000D01*
X978000Y953000D02*
X983000D01*
X997500Y967500D01*
X1055142Y932000D02*
X1062000D01*
X1044642Y942500D02*
X1055142Y932000D01*
X1042500Y942500D02*
X1044642D01*
X1077000Y958000D02*
X1088000D01*
X1088000Y958000D01*
X1038000Y922500D02*
X1077343D01*
X1120843Y966000D01*
X1129000D01*
X1062000Y932000D02*
X1073000D01*
X1078000Y937000D01*
X937000Y898000D02*
X942000D01*
X962000Y918000D01*
Y922500D01*
X937000Y884000D02*
X940000D01*
X955000Y899000D01*
X973000D01*
X964000Y950000D02*
X967000Y953000D01*
D24*
X1058000Y949000D02*
X1062000D01*
X975000Y1013000D02*
X982000Y1006000D01*
X905000Y942000D02*
X908000D01*
X893000Y840000D02*
X901000Y848000D01*
X869600Y840000D02*
X893000D01*
X867000Y842600D02*
X869600Y840000D01*
X883000Y856000D02*
X890000Y849000D01*
X862000Y856000D02*
X883000D01*
X853000Y865000D02*
X862000Y856000D01*
X853000Y865000D02*
Y890000D01*
X847000Y896000D02*
X853000Y890000D01*
X842000Y896000D02*
X847000D01*
X901000Y848000D02*
Y881000D01*
X906000Y920136D02*
X916136Y910000D01*
X913000Y911000D02*
X913500Y910500D01*
Y896000D02*
Y910500D01*
X926500Y910000D02*
X927000Y909500D01*
X916136Y910000D02*
X926500D01*
X906000Y920136D02*
Y921000D01*
X905000Y940607D02*
X905107Y940500D01*
X905000Y940607D02*
Y942000D01*
X908000D02*
X915500Y949500D01*
X927000D01*
X897000Y933000D02*
X910136D01*
X892000Y938000D02*
X897000Y933000D01*
X892000Y938000D02*
Y960000D01*
X910136Y933000D02*
X916136Y939000D01*
X926500D02*
X927000Y939500D01*
X916136Y939000D02*
X926500D01*
X835000Y978000D02*
X858500D01*
X829000Y972000D02*
X835000Y978000D01*
X829000Y913000D02*
Y972000D01*
Y913000D02*
X832500Y909500D01*
X845000D01*
X871902Y959998D02*
Y960000D01*
X870750Y959750D02*
X873500Y957000D01*
X870502Y959998D02*
X870750Y959750D01*
X870000Y959500D02*
X870498Y959998D01*
X870750Y959750D02*
X870998Y959998D01*
X870000Y959000D02*
X870750Y959750D01*
X870498Y959998D02*
X870500Y960000D01*
X870998Y959998D02*
X871000Y960000D01*
X870500Y960000D02*
X870502Y959998D01*
X870998D02*
X871902D01*
X870502D02*
X870998D01*
X870498D02*
X870502D01*
X869998D02*
X870498D01*
X875000Y934000D02*
Y955393D01*
X873500Y956893D02*
X875000Y955393D01*
X873500Y956893D02*
Y957000D01*
X860500Y919500D02*
X875000Y934000D01*
X871000Y960000D02*
X871902D01*
X870000Y959000D02*
Y959500D01*
X845000Y919500D02*
X860500D01*
X881000Y960000D02*
Y961000D01*
X858500Y896000D02*
X859000Y896500D01*
X909500Y954500D02*
X927000D01*
X875000Y1017000D02*
Y1020000D01*
X888000Y1017000D02*
Y1024000D01*
X864000Y949000D02*
Y950000D01*
Y934000D02*
Y937000D01*
X962000Y835000D02*
Y877500D01*
X942000Y815000D02*
X962000Y835000D01*
X882000Y815000D02*
X942000D01*
X859500Y944500D02*
X864000Y949000D01*
X845000Y944500D02*
X859500D01*
X861500Y939500D02*
X864000Y937000D01*
X845000Y939500D02*
X861500D01*
X863000Y1003000D02*
X863500Y1002500D01*
Y978000D02*
Y1002500D01*
X849000Y1003000D02*
X858500Y993500D01*
Y978000D02*
Y993500D01*
X842000Y906500D02*
X845000Y909500D01*
X842000Y896000D02*
Y906500D01*
X932500Y849500D02*
X933000Y849000D01*
X936500Y909500D02*
X937000Y909000D01*
X927000Y909500D02*
X936500D01*
X935000Y896000D02*
X937000Y898000D01*
X908500Y870500D02*
X909000Y870000D01*
X908500Y870500D02*
Y896000D01*
X913500Y879500D02*
X923000Y870000D01*
X913500Y879500D02*
Y896000D01*
X937000Y898000D02*
Y909000D01*
X973000Y969000D02*
X978000Y964000D01*
X956000Y969000D02*
X973000D01*
X950000Y963000D02*
X956000Y969000D01*
X950000Y961000D02*
Y963000D01*
X938500Y949500D02*
X950000Y961000D01*
X927000Y949500D02*
X938500D01*
X940050Y944500D02*
X945550Y950000D01*
X927000Y944500D02*
X940050D01*
X927000Y939500D02*
X948500D01*
X1062000Y946000D02*
X1101000D01*
X1053000Y954000D02*
X1058000Y949000D01*
X1072000Y966000D02*
X1120843D01*
X1063000Y975000D02*
X1072000Y966000D01*
X1059000Y974000D02*
X1062000D01*
X1058000Y1006000D02*
X1062000Y1002000D01*
X1030000Y954000D02*
X1053000D01*
X975000Y1017000D02*
Y1018000D01*
Y1013000D02*
Y1017000D01*
X974998Y1017002D02*
X975000Y1017000D01*
X1033000Y1051000D02*
Y1072000D01*
Y1051000D02*
X1038000Y1046000D01*
X1041000D01*
X867000Y868000D02*
X873000Y862000D01*
X891000D01*
Y876000D02*
Y877364D01*
X898500Y884864D01*
Y896000D01*
X901000Y881000D02*
X903500Y883500D01*
Y896000D01*
X875000Y999000D02*
Y1003000D01*
Y999000D02*
X883500Y990500D01*
Y978000D02*
Y990500D01*
X888000Y1003000D02*
X888500Y1002500D01*
Y978000D02*
Y1002500D01*
X948000Y978500D02*
X948500Y978000D01*
X978000D01*
X936500Y978500D02*
X944000Y986000D01*
X936500Y964500D02*
Y978500D01*
X944000Y986000D02*
X1007000D01*
X925996Y992000D02*
X926998Y990998D01*
X912000Y992000D02*
X925996D01*
X908500Y988500D02*
X912000Y992000D01*
X908500Y978000D02*
Y988500D01*
X970550Y1025000D02*
X979310D01*
X958500Y1012950D02*
X970550Y1025000D01*
X958500Y1009500D02*
Y1012950D01*
X927000Y978000D02*
X958500Y1009500D01*
X913500Y978000D02*
X927000D01*
X956636Y1039000D02*
X1000750D01*
X934636Y1017000D02*
X956636Y1039000D01*
X916157Y1017000D02*
X934636D01*
X958000Y1034000D02*
X991000D01*
X922998Y998998D02*
X958000Y1034000D01*
X912297Y998998D02*
X922998D01*
X944000Y1009000D02*
X964500Y1029500D01*
X982500D01*
X979310Y1025000D02*
X983000Y1021310D01*
X974998Y1017002D02*
Y1017998D01*
X983000Y1018157D02*
Y1021310D01*
Y1018157D02*
X990157Y1011000D01*
X982500Y1029500D02*
X990000Y1022000D01*
Y1019507D02*
Y1022000D01*
Y1019507D02*
X993507Y1016000D01*
X999250D01*
X991000Y1034000D02*
X999250Y1025750D01*
X1000750Y1039000D02*
X1009000Y1030750D01*
X999250Y1021000D02*
Y1025750D01*
X990157Y1011000D02*
X999250D01*
X995000Y1021000D02*
X999250D01*
X974998Y1017998D02*
X975000Y1018000D01*
X999250Y1021000D02*
X999250Y1021000D01*
X903500Y990201D02*
X912297Y998998D01*
X903500Y978000D02*
Y990201D01*
X917996Y1010000D02*
X919998Y1007998D01*
X916228Y1010000D02*
X917996D01*
X898500Y992272D02*
X916228Y1010000D01*
X898500Y978000D02*
Y992272D01*
X978000Y978000D02*
X1006493D01*
X1014000Y985507D01*
Y991250D01*
X1014000Y991250D01*
X1009000Y988000D02*
Y991250D01*
X1007000Y986000D02*
X1009000Y988000D01*
X927000Y964500D02*
X936500D01*
X981000Y995000D02*
X984000D01*
X990000Y1001000D01*
X999250D01*
X982000Y1006000D02*
X999250D01*
X893500Y994343D02*
X916157Y1017000D01*
X893500Y978000D02*
Y994343D01*
X1012000Y1043843D02*
Y1046000D01*
Y1043843D02*
X1019000Y1036843D01*
Y1030750D02*
Y1036843D01*
X1039996Y1034000D02*
X1039998Y1033998D01*
X1029000Y1030750D02*
Y1034000D01*
X1048000Y1024000D02*
Y1039000D01*
X1045000Y1021000D02*
X1048000Y1024000D01*
X1038750Y1021000D02*
X1045000D01*
X1041000Y1046000D02*
X1048000Y1039000D01*
X1053000Y1046000D02*
X1056000Y1043000D01*
Y1025000D02*
Y1043000D01*
X1047000Y1016000D02*
X1056000Y1025000D01*
X1024000Y1046000D02*
X1024000Y1046000D01*
X1024000Y1030750D02*
Y1046000D01*
X1029000Y1021000D02*
Y1030750D01*
X1038750Y1016000D02*
X1047000D01*
X1051000Y982000D02*
X1059000Y974000D01*
X1051000Y982000D02*
Y993000D01*
X1043000Y1001000D02*
X1051000Y993000D01*
X1038750Y1001000D02*
X1043000D01*
X1024000Y960000D02*
X1030000Y954000D01*
X1024000Y960000D02*
Y991250D01*
X997500Y942500D02*
X1019000Y964000D01*
Y991250D01*
X1029000Y981000D02*
X1042500Y967500D01*
X1029000Y981000D02*
Y991250D01*
X1054000Y1011000D02*
X1065000Y1022000D01*
X1038750Y1011000D02*
X1054000D01*
X1038750Y1006000D02*
X1058000D01*
X967000Y1103000D02*
Y1120000D01*
X880000Y817000D02*
X882000Y815000D01*
X856519Y838629D02*
X858810Y836338D01*
Y836190D02*
Y836338D01*
X854000Y847000D02*
X856519Y844481D01*
Y838629D02*
Y844481D01*
X858810Y836190D02*
X866000Y829000D01*
X893000Y919000D02*
X893500Y918500D01*
X908500Y896000D02*
Y909000D01*
X904500Y913000D02*
X908500Y909000D01*
X893500Y896000D02*
Y913000D01*
Y918500D01*
Y913000D02*
X904500D01*
X881000D02*
Y960000D01*
X877500Y909500D02*
X881000Y913000D01*
X859000Y896500D02*
Y906864D01*
X861636Y909500D01*
X865364D01*
X870364D02*
X877500D01*
X865364D02*
X870364D01*
X845000Y914500D02*
X866500D01*
X872000Y920000D01*
X888000Y1024000D02*
X892000Y1028000D01*
Y1046000D01*
X866000Y1029000D02*
X875000Y1020000D01*
X866000Y1029000D02*
Y1046000D01*
X828000Y1024000D02*
Y1034000D01*
Y1024000D02*
X849000Y1003000D01*
X1019000Y1011000D02*
X1029000Y1021000D01*
X945550Y950000D02*
X964000D01*
X1014000Y1016000D02*
Y1030750D01*
X1029000Y1034000D02*
X1039996D01*
D25*
X1075000Y1002000D02*
X1077000Y1000000D01*
X1062000Y1002000D02*
X1075000D01*
X1065000Y987000D02*
X1077000D01*
X1053000Y1060000D02*
X1063000D01*
X1041000D02*
X1053000D01*
X1012000D02*
Y1068750D01*
Y1060000D02*
X1019000D01*
X1038000Y1077500D02*
X1039500D01*
X1041000Y1079000D01*
X1073000Y1022000D02*
X1077000Y1026000D01*
X1065000Y1022000D02*
X1073000D01*
X1091000Y1000000D02*
X1091000Y1000000D01*
Y1013000D01*
Y1026000D01*
X1106000Y1026000D02*
X1106000Y1026000D01*
X1115000D01*
X1116000Y1027000D01*
X1117000D01*
X1105000Y1025000D02*
X1106000Y1026000D01*
X1105000Y1013000D02*
Y1025000D01*
X1131000Y1014000D02*
X1131000Y1014000D01*
Y1027000D01*
X1132000Y1028000D01*
X1143000D01*
X1157000D02*
X1168000D01*
X1171000Y1031000D01*
D26*
X1065000Y1036000D02*
X1092000D01*
X1096000Y1040000D01*
X955000Y995000D02*
X966000D01*
X955000Y995000D02*
X955000Y995000D01*
X966000Y995000D02*
Y1007000D01*
X966000Y995000D02*
X966000Y995000D01*
D27*
X861000Y1005000D02*
X863000Y1003000D01*
X841400Y1029029D02*
X861000Y1009429D01*
X841400Y1029029D02*
Y1043600D01*
X852800Y1055000D01*
X861000Y1005000D02*
Y1009429D01*
X852800Y1055000D02*
X928000D01*
D28*
X868000Y843600D02*
D03*
Y869000D02*
D03*
X914600Y1190600D02*
D03*
X940000D02*
D03*
X889200D02*
D03*
X853400Y1034000D02*
D03*
X878800D02*
D03*
X904200D02*
D03*
X929600D02*
D03*
D29*
X828000D02*
D03*
D30*
X890000Y849000D02*
D03*
X906000Y921000D02*
D03*
X905107Y940500D02*
D03*
X869998Y959998D02*
D03*
X881000Y960000D02*
D03*
X892000D02*
D03*
X906000Y952000D02*
D03*
X864000Y950000D02*
D03*
Y934000D02*
D03*
X933000Y849000D02*
D03*
X964000Y951000D02*
D03*
X1080000Y1044000D02*
D03*
X1131000Y964000D02*
D03*
X995000Y1049000D02*
D03*
X1063000Y1060000D02*
D03*
X1012000Y1068750D02*
D03*
X948000Y978500D02*
D03*
X926998Y990998D02*
D03*
X944000Y1009000D02*
D03*
X975000Y1017000D02*
D03*
X919998Y1007998D02*
D03*
X1039998Y1033998D02*
D03*
X1013000Y1017000D02*
D03*
X1025000D02*
D03*
X1013000Y1005000D02*
D03*
X1025000D02*
D03*
X1096000Y1040000D02*
D03*
X955000Y995000D02*
D03*
X1088000Y958000D02*
D03*
X1101000Y917000D02*
D03*
X1109000Y881000D02*
D03*
X1158000Y921000D02*
D03*
X1086000Y825000D02*
D03*
X1034000Y837000D02*
D03*
X1036000Y780000D02*
D03*
X973000Y805000D02*
D03*
X984000Y858000D02*
D03*
X973000Y899000D02*
D03*
X1117000Y1011000D02*
D03*
X1078000Y937000D02*
D03*
X967000Y1103000D02*
D03*
X979000Y1057000D02*
D03*
X954000Y1056000D02*
D03*
X882000Y815000D02*
D03*
X893000Y919000D02*
D03*
X872000Y920000D02*
D03*
X866000Y1046000D02*
D03*
X892000D02*
D03*
X885998Y1055998D02*
D03*
X1170995Y1031005D02*
D03*
X1168000Y1092000D02*
D03*
X1138000Y1147000D02*
D03*
X961000Y1185577D02*
D03*
X935000Y1161000D02*
D03*
X913000Y1159000D02*
D03*
X881000Y1158930D02*
D03*
X836385Y1073976D02*
D03*
X877814D02*
D03*
X914000Y1074000D02*
D03*
X1023000Y1185577D02*
D03*
X1080783D02*
D03*
X854000Y1140000D02*
D03*
M02*
