%FSLAX44Y44*%
%MOMM*%
G71*
G01*
G75*
G04 Layer_Color=16711935*
%ADD10C,1.5000*%
%ADD11R,0.8000X0.9000*%
%ADD12R,0.9000X0.8000*%
%ADD13R,1.0500X0.2500*%
%ADD14R,0.2500X1.0500*%
%ADD15R,2.5000X2.5000*%
%ADD16R,1.5000X1.3000*%
%ADD17R,0.8000X1.1000*%
%ADD18R,1.1000X0.8000*%
G04:AMPARAMS|DCode=19|XSize=2.5mm|YSize=2mm|CornerRadius=0.5mm|HoleSize=0mm|Usage=FLASHONLY|Rotation=0.000|XOffset=0mm|YOffset=0mm|HoleType=Round|Shape=RoundedRectangle|*
%AMROUNDEDRECTD19*
21,1,2.5000,1.0000,0,0,0.0*
21,1,1.5000,2.0000,0,0,0.0*
1,1,1.0000,0.7500,-0.5000*
1,1,1.0000,-0.7500,-0.5000*
1,1,1.0000,-0.7500,0.5000*
1,1,1.0000,0.7500,0.5000*
%
%ADD19ROUNDEDRECTD19*%
%ADD20R,2.0000X1.4000*%
%ADD21O,0.3000X2.1000*%
%ADD22O,2.1000X0.3000*%
%ADD23C,0.5000*%
%ADD24C,0.2000*%
%ADD25C,0.7500*%
%ADD26C,0.3000*%
%ADD27C,0.4000*%
%ADD28C,1.5000*%
%ADD29R,1.5000X1.5000*%
%ADD30C,0.8000*%
%ADD31R,1.3000X0.6000*%
%ADD32C,8.0000*%
G04:AMPARAMS|DCode=33|XSize=6mm|YSize=6mm|CornerRadius=1.5mm|HoleSize=0mm|Usage=FLASHONLY|Rotation=300.000|XOffset=0mm|YOffset=0mm|HoleType=Round|Shape=RoundedRectangle|*
%AMROUNDEDRECTD33*
21,1,6.0000,3.0000,0,0,300.0*
21,1,3.0000,6.0000,0,0,300.0*
1,1,3.0000,-0.5490,-2.0490*
1,1,3.0000,-2.0490,0.5490*
1,1,3.0000,0.5490,2.0490*
1,1,3.0000,2.0490,-0.5490*
%
%ADD33ROUNDEDRECTD33*%
%ADD34R,1.0032X1.1032*%
%ADD35R,1.1032X1.0032*%
%ADD36R,1.2532X0.4532*%
%ADD37R,0.4532X1.2532*%
%ADD38R,2.7032X2.7032*%
%ADD39R,1.7032X1.5032*%
%ADD40R,1.0032X1.3032*%
%ADD41R,1.3032X1.0032*%
G04:AMPARAMS|DCode=42|XSize=2.7032mm|YSize=2.2032mm|CornerRadius=0.6016mm|HoleSize=0mm|Usage=FLASHONLY|Rotation=0.000|XOffset=0mm|YOffset=0mm|HoleType=Round|Shape=RoundedRectangle|*
%AMROUNDEDRECTD42*
21,1,2.7032,1.0000,0,0,0.0*
21,1,1.5000,2.2032,0,0,0.0*
1,1,1.2032,0.7500,-0.5000*
1,1,1.2032,-0.7500,-0.5000*
1,1,1.2032,-0.7500,0.5000*
1,1,1.2032,0.7500,0.5000*
%
%ADD42ROUNDEDRECTD42*%
%ADD43R,2.2032X1.6032*%
%ADD44O,0.5032X2.3032*%
%ADD45O,2.3032X0.5032*%
%ADD46C,1.7032*%
%ADD47R,1.7032X1.7032*%
%ADD48C,1.0032*%
%ADD49R,1.5032X0.8032*%
%ADD50C,8.2032*%
G04:AMPARAMS|DCode=51|XSize=6.2032mm|YSize=6.2032mm|CornerRadius=1.6016mm|HoleSize=0mm|Usage=FLASHONLY|Rotation=300.000|XOffset=0mm|YOffset=0mm|HoleType=Round|Shape=RoundedRectangle|*
%AMROUNDEDRECTD51*
21,1,6.2032,3.0000,0,0,300.0*
21,1,3.0000,6.2032,0,0,300.0*
1,1,3.2032,-0.5490,-2.0490*
1,1,3.2032,-2.0490,0.5490*
1,1,3.2032,0.5490,2.0490*
1,1,3.2032,2.0490,-0.5490*
%
%ADD51ROUNDEDRECTD51*%
%ADD52C,0.1000*%
D52*
X956550Y775721D02*
G03*
X913292Y796831I-22766J8224D01*
G01*
X1191830Y989265D02*
X1191917Y992500D01*
X1191712Y986031D02*
X1191830Y989265D01*
X1191563Y982799D02*
X1191712Y986031D01*
X1191383Y979571D02*
X1191563Y982799D01*
X1191172Y976345D02*
X1191383Y979571D01*
X1190931Y973124D02*
X1191172Y976345D01*
X1190658Y969906D02*
X1190931Y973124D01*
X1190355Y966694D02*
X1190658Y969906D01*
X1190022Y963487D02*
X1190355Y966694D01*
X1189657Y960286D02*
X1190022Y963487D01*
X1189262Y957091D02*
X1189657Y960286D01*
X1188837Y953903D02*
X1189262Y957091D01*
X1188381Y950723D02*
X1188837Y953903D01*
X1187895Y947551D02*
X1188381Y950723D01*
X1187378Y944387D02*
X1187895Y947551D01*
X1186832Y941232D02*
X1187378Y944387D01*
X1186255Y938086D02*
X1186832Y941232D01*
X1185648Y934950D02*
X1186255Y938086D01*
X1185011Y931825D02*
X1185648Y934950D01*
X1184344Y928711D02*
X1185011Y931825D01*
X1183648Y925609D02*
X1184344Y928711D01*
X1182922Y922518D02*
X1183648Y925609D01*
X1182167Y919440D02*
X1182922Y922518D01*
X1181382Y916375D02*
X1182167Y919440D01*
X1180568Y913323D02*
X1181382Y916375D01*
X1179725Y910285D02*
X1180568Y913323D01*
X1178853Y907262D02*
X1179725Y910285D01*
X1177952Y904254D02*
X1178853Y907262D01*
X1177022Y901261D02*
X1177952Y904254D01*
X1176064Y898284D02*
X1177022Y901261D01*
X1175078Y895323D02*
X1176064Y898284D01*
X1174063Y892380D02*
X1175078Y895323D01*
X1173020Y889453D02*
X1174063Y892380D01*
X1171949Y886545D02*
X1173020Y889453D01*
X1170851Y883655D02*
X1171949Y886545D01*
X1169725Y880783D02*
X1170851Y883655D01*
X1168572Y877931D02*
X1169725Y880783D01*
X1167391Y875098D02*
X1168572Y877931D01*
X1166184Y872286D02*
X1167391Y875098D01*
X1164950Y869494D02*
X1166184Y872286D01*
X1163689Y866723D02*
X1164950Y869494D01*
X1162402Y863974D02*
X1163689Y866723D01*
X1161088Y861247D02*
X1162402Y863974D01*
X1159749Y858542D02*
X1161088Y861247D01*
X1158384Y855859D02*
X1159749Y858542D01*
X1156993Y853200D02*
X1158384Y855859D01*
X1155577Y850565D02*
X1156993Y853200D01*
X1154136Y847954D02*
X1155577Y850565D01*
X1152670Y845367D02*
X1154136Y847954D01*
X1151180Y842805D02*
X1152670Y845367D01*
X1149665Y840269D02*
X1151180Y842805D01*
X1148126Y837758D02*
X1149665Y840269D01*
X1146563Y835273D02*
X1148126Y837758D01*
X1144977Y832815D02*
X1146563Y835273D01*
X1143367Y830384D02*
X1144977Y832815D01*
X1141734Y827981D02*
X1143367Y830384D01*
X1140078Y825605D02*
X1141734Y827981D01*
X1138400Y823257D02*
X1140078Y825605D01*
X1136699Y820937D02*
X1138400Y823257D01*
X1134976Y818647D02*
X1136699Y820937D01*
X1133232Y816385D02*
X1134976Y818647D01*
X1131466Y814154D02*
X1133232Y816385D01*
X1129679Y811952D02*
X1131466Y814154D01*
X1127871Y809781D02*
X1129679Y811952D01*
X1126042Y807640D02*
X1127871Y809781D01*
X1124193Y805530D02*
X1126042Y807640D01*
X1122324Y803452D02*
X1124193Y805530D01*
X1120435Y801405D02*
X1122324Y803452D01*
X1118527Y799390D02*
X1120435Y801405D01*
X1116600Y797408D02*
X1118527Y799390D01*
X1114654Y795458D02*
X1116600Y797408D01*
X1112689Y793541D02*
X1114654Y795458D01*
X1110707Y791658D02*
X1112689Y793541D01*
X1108706Y789808D02*
X1110707Y791658D01*
X1106688Y787992D02*
X1108706Y789808D01*
X1104653Y786210D02*
X1106688Y787992D01*
X1102601Y784462D02*
X1104653Y786210D01*
X1100532Y782750D02*
X1102601Y784462D01*
X1098447Y781072D02*
X1100532Y782750D01*
X1096347Y779430D02*
X1098447Y781072D01*
X1094230Y777823D02*
X1096347Y779430D01*
X1092099Y776252D02*
X1094230Y777823D01*
X1089953Y774717D02*
X1092099Y776252D01*
X1087792Y773219D02*
X1089953Y774717D01*
X1085617Y771757D02*
X1087792Y773219D01*
X1083428Y770331D02*
X1085617Y771757D01*
X1081226Y768943D02*
X1083428Y770331D01*
X1079011Y767592D02*
X1081226Y768943D01*
X1076783Y766279D02*
X1079011Y767592D01*
X1074542Y765003D02*
X1076783Y766279D01*
X1072290Y763765D02*
X1074542Y765003D01*
X1070026Y762565D02*
X1072290Y763765D01*
X1067751Y761403D02*
X1070026Y762565D01*
X1065464Y760280D02*
X1067751Y761403D01*
X1063167Y759195D02*
X1065464Y760280D01*
X1060861Y758150D02*
X1063167Y759195D01*
X1058544Y757143D02*
X1060861Y758150D01*
X1056217Y756176D02*
X1058544Y757143D01*
X1053882Y755247D02*
X1056217Y756176D01*
X808083Y1007500D02*
X808218Y1012162D01*
X808418Y1016820D01*
X808682Y1021473D01*
X809010Y1026118D01*
X809401Y1030754D01*
X809857Y1035380D01*
X810376Y1039995D01*
X810959Y1044596D01*
X811605Y1049182D01*
X812314Y1053751D01*
X813086Y1058303D01*
X813920Y1062835D01*
X814817Y1067346D01*
X815776Y1071834D01*
X816796Y1076299D01*
X817878Y1080738D01*
X819020Y1085150D01*
X820224Y1089533D01*
X821487Y1093886D01*
X822810Y1098208D01*
X824193Y1102497D01*
X825634Y1106752D01*
X827134Y1110971D01*
X828692Y1115153D01*
X830307Y1119296D01*
X831978Y1123400D01*
X833706Y1127462D01*
X835490Y1131481D01*
X837329Y1135457D01*
X839222Y1139387D01*
X841169Y1143270D01*
X843169Y1147105D01*
X845222Y1150892D01*
X847327Y1154627D01*
X849482Y1158311D01*
X851688Y1161942D01*
X853944Y1165519D01*
X856248Y1169040D01*
X858601Y1172505D01*
X861001Y1175912D01*
X863448Y1179260D01*
X865940Y1182548D01*
X868477Y1185775D01*
X871058Y1188940D01*
X873682Y1192041D01*
X876349Y1195078D01*
X879057Y1198050D01*
X881806Y1200956D01*
X884594Y1203794D01*
X887420Y1206564D01*
X890285Y1209265D01*
X893186Y1211896D01*
X896123Y1214456D01*
X899094Y1216945D01*
X902100Y1219360D01*
X905138Y1221702D01*
X908208Y1223970D01*
X911309Y1226163D01*
X914439Y1228280D01*
X917598Y1230321D01*
X920784Y1232285D01*
X923998Y1234171D01*
X927236Y1235978D01*
X930499Y1237707D01*
X933785Y1239356D01*
X937094Y1240925D01*
X940423Y1242413D01*
X943772Y1243820D01*
X947140Y1245146D01*
X948794Y1245753D01*
X1050474Y753969D02*
X1053882Y755247D01*
X1047050Y752775D02*
X1050474Y753969D01*
X1043609Y751664D02*
X1047050Y752775D01*
X1040153Y750639D02*
X1043609Y751664D01*
X1036684Y749697D02*
X1040153Y750639D01*
X1033202Y748841D02*
X1036684Y749697D01*
X1029709Y748071D02*
X1033202Y748841D01*
X1026206Y747386D02*
X1029709Y748071D01*
X1022693Y746787D02*
X1026206Y747386D01*
X1019174Y746274D02*
X1022693Y746787D01*
X1015647Y745848D02*
X1019174Y746274D01*
X1012115Y745508D02*
X1015647Y745848D01*
X1008580Y745255D02*
X1012115Y745508D01*
X1005041Y745088D02*
X1008580Y745255D01*
X1001500Y745008D02*
X1005041Y745088D01*
X997959Y745014D02*
X1001500Y745008D01*
X994419Y745108D02*
X997959Y745014D01*
X990881Y745288D02*
X994419Y745108D01*
X987346Y745554D02*
X990881Y745288D01*
X983814Y745908D02*
X987346Y745554D01*
X980289Y746347D02*
X983814Y745908D01*
X976770Y746873D02*
X980289Y746347D01*
X973260Y747485D02*
X976770Y746873D01*
X969758Y748183D02*
X973260Y747485D01*
X966266Y748967D02*
X969758Y748183D01*
X962786Y749836D02*
X966266Y748967D01*
X959319Y750789D02*
X962786Y749836D01*
X955865Y751828D02*
X959319Y750789D01*
X952427Y752952D02*
X955865Y751828D01*
X949005Y754159D02*
X952427Y752952D01*
X946120Y755252D02*
X949005Y754159D01*
X903431Y779602D02*
X903912Y779238D01*
X900387Y782004D02*
X903431Y779602D01*
X897377Y784481D02*
X900387Y782004D01*
X894401Y787032D02*
X897377Y784481D01*
X891462Y789654D02*
X894401Y787032D01*
X888560Y792348D02*
X891462Y789654D01*
X885695Y795113D02*
X888560Y792348D01*
X882870Y797948D02*
X885695Y795113D01*
X880084Y800851D02*
X882870Y797948D01*
X877339Y803822D02*
X880084Y800851D01*
X874636Y806860D02*
X877339Y803822D01*
X871976Y809963D02*
X874636Y806860D01*
X869359Y813131D02*
X871976Y809963D01*
X866786Y816363D02*
X869359Y813131D01*
X864259Y819657D02*
X866786Y816363D01*
X861778Y823012D02*
X864259Y819657D01*
X859344Y826428D02*
X861778Y823012D01*
X856957Y829902D02*
X859344Y826428D01*
X854620Y833435D02*
X856957Y829902D01*
X852332Y837024D02*
X854620Y833435D01*
X850094Y840668D02*
X852332Y837024D01*
X847907Y844367D02*
X850094Y840668D01*
X845772Y848119D02*
X847907Y844367D01*
X843689Y851922D02*
X845772Y848119D01*
X841659Y855776D02*
X843689Y851922D01*
X839684Y859678D02*
X841659Y855776D01*
X837763Y863629D02*
X839684Y859678D01*
X835897Y867626D02*
X837763Y863629D01*
X834086Y871668D02*
X835897Y867626D01*
X832333Y875753D02*
X834086Y871668D01*
X830636Y879881D02*
X832333Y875753D01*
X828997Y884050D02*
X830636Y879881D01*
X827416Y888258D02*
X828997Y884050D01*
X825894Y892504D02*
X827416Y888258D01*
X824431Y896786D02*
X825894Y892504D01*
X823027Y901104D02*
X824431Y896786D01*
X821684Y905456D02*
X823027Y901104D01*
X820402Y909839D02*
X821684Y905456D01*
X819180Y914253D02*
X820402Y909839D01*
X818020Y918697D02*
X819180Y914253D01*
X816922Y923168D02*
X818020Y918697D01*
X815887Y927665D02*
X816922Y923168D01*
X814914Y932187D02*
X815887Y927665D01*
X814003Y936732D02*
X814914Y932187D01*
X813157Y941298D02*
X814003Y936732D01*
X812373Y945884D02*
X813157Y941298D01*
X811654Y950489D02*
X812373Y945884D01*
X810998Y955111D02*
X811654Y950489D01*
X810407Y959748D02*
X810998Y955111D01*
X809880Y964398D02*
X810407Y959748D01*
X809418Y969061D02*
X809880Y964398D01*
X809021Y973734D02*
X809418Y969061D01*
X808689Y978416D02*
X809021Y973734D01*
X808422Y983105D02*
X808689Y978416D01*
X808220Y987801D02*
X808422Y983105D01*
X808083Y992500D02*
X808220Y987801D01*
X1094998Y1221595D02*
X1096559Y1220406D01*
X1098683Y1218740D01*
X1100791Y1217038D01*
X1102883Y1215301D01*
X1104957Y1213527D01*
X1107014Y1211719D01*
X1109053Y1209875D01*
X1111075Y1207997D01*
X1113078Y1206084D01*
X1115062Y1204137D01*
X1117028Y1202157D01*
X1118973Y1200143D01*
X1120900Y1198097D01*
X1122806Y1196017D01*
X1124693Y1193905D01*
X1126558Y1191762D01*
X1128403Y1189586D01*
X1130226Y1187379D01*
X1132028Y1185142D01*
X1133809Y1182873D01*
X1135567Y1180575D01*
X1137302Y1178247D01*
X1139015Y1175889D01*
X1140705Y1173502D01*
X1142372Y1171087D01*
X1144016Y1168643D01*
X1145635Y1166172D01*
X1147231Y1163673D01*
X1148802Y1161147D01*
X1150349Y1158595D01*
X1151871Y1156016D01*
X1153367Y1153411D01*
X1154839Y1150781D01*
X1156285Y1148127D01*
X1157705Y1145448D01*
X1159099Y1142745D01*
X1160467Y1140018D01*
X1161808Y1137268D01*
X1163123Y1134495D01*
X1164410Y1131701D01*
X1165671Y1128884D01*
X1166904Y1126047D01*
X1168110Y1123188D01*
X1169287Y1120309D01*
X1170437Y1117411D01*
X1171559Y1114492D01*
X1172653Y1111555D01*
X1173718Y1108600D01*
X1174754Y1105627D01*
X1175761Y1102636D01*
X1176740Y1099628D01*
X1177689Y1096604D01*
X1178609Y1093564D01*
X1179499Y1090508D01*
X1180360Y1087438D01*
X1181191Y1084353D01*
X1181992Y1081254D01*
X1182763Y1078142D01*
X1183504Y1075016D01*
X1184215Y1071879D01*
X1184895Y1068729D01*
X1185544Y1065569D01*
X1186163Y1062397D01*
X1186752Y1059215D01*
X1187309Y1056023D01*
X1187836Y1052822D01*
X1188331Y1049613D01*
X1188795Y1046395D01*
X1189229Y1043169D01*
X1189631Y1039937D01*
X1190002Y1036698D01*
X1190341Y1033452D01*
X1190649Y1030201D01*
X1190925Y1026946D01*
X1191170Y1023685D01*
X1191383Y1020421D01*
X1191565Y1017154D01*
X1191715Y1013883D01*
X1191834Y1010611D01*
X1191921Y1007336D01*
X808085Y1007604D02*
X830000Y1007500D01*
X808083Y992500D02*
X830000D01*
Y1007500D01*
X1170000D02*
X1191917D01*
X1170000Y992500D02*
X1191917D01*
X1170000D02*
Y1007500D01*
X903909Y779233D02*
X913292Y796831D01*
X1095000Y1198000D02*
Y1221598D01*
X948790Y1198000D02*
X1095000D01*
X946118Y755247D02*
X956550Y775721D01*
X948790Y1198000D02*
Y1245763D01*
M02*
